<?xml version="1.0" encoding="UTF-8" standalone="no"?>
<!-- Created with Inkscape (http://www.inkscape.org/) -->

<svg
   version="1.1"
   id="svg6578"
   width="515"
   height="2340"
   viewBox="0 0 515 2340"
   sodipodi:docname="a+.svg"
   inkscape:version="1.1.1 (3bf5ae0d25, 2021-09-20)"
   xmlns:inkscape="http://www.inkscape.org/namespaces/inkscape"
   xmlns:sodipodi="http://sodipodi.sourceforge.net/DTD/sodipodi-0.dtd"
   xmlns="http://www.w3.org/2000/svg"
   xmlns:svg="http://www.w3.org/2000/svg">
  <defs
     id="defs6582" />
  <sodipodi:namedview
     id="namedview6580"
     pagecolor="#ffffff"
     bordercolor="#666666"
     borderopacity="1.0"
     inkscape:pageshadow="2"
     inkscape:pageopacity="0.0"
     inkscape:pagecheckerboard="0"
     showgrid="false"
     inkscape:zoom="0.33418803"
     inkscape:cx="-86.777494"
     inkscape:cy="1170"
     inkscape:window-width="1920"
     inkscape:window-height="986"
     inkscape:window-x="-11"
     inkscape:window-y="-11"
     inkscape:window-maximized="1"
     inkscape:current-layer="g6584" />
  <g
     inkscape:groupmode="layer"
     inkscape:label="Image"
     id="g6584">
    <path
       style="fill:#000000"
       d="m 298.24138,2326.6748 c -5.94939,-3.3041 -6.92457,-8.6982 -4.82245,-26.6748 0.86825,-7.425 1.57919,-15.4125 1.57986,-17.75 L 295,2278 h -22.25 c -20.29034,0 -22.53146,-0.1754 -25.44574,-1.9523 -4.02262,-2.4528 -5.25438,-7.6073 -3.20358,-13.4061 2.86492,-8.1008 10.51864,-10.6371 26.67707,-8.8404 5.94791,0.6614 13.83116,1.2025 17.51832,1.2025 H 295 l 0.006,-16.25 c 0.006,-17.3314 0.90258,-22.8326 4.34027,-26.6289 4.58513,-5.0635 13.51786,-6.6735 17.79337,-3.2071 2.34736,1.9032 2.36078,2.0352 2.36078,23.2331 v 21.3189 l 11.5,-0.3173 c 8.6066,-0.2376 12.60128,-0.7994 15.87712,-2.2331 6.12912,-2.6824 13.28954,-2.5383 16.61947,0.3344 4.448,3.8373 5.41928,13.8341 1.89117,19.4648 -2.69265,4.2974 -4.96956,4.7622 -25.88776,5.2852 l -20,0.5 v 21.5 c 0,23.3379 -0.54868,26.2016 -5.5,28.706 -3.20043,1.6188 -12.82187,1.5997 -15.75862,-0.031 z M 186.31471,2146.555 c -1.7519,-0.7722 -3.87906,-2.7456 -4.72701,-4.3854 -1.38498,-2.6783 -1.56947,-93.7697 -1.81471,-896.02 L 179.5,353.111 l -3.18867,-3.3055 c -3.84434,-3.9852 -5.29673,-7.54363 -5.35522,-13.1206 -0.0524,-4.99629 -2.06403,-11.04146 -4.61103,-13.85667 -1.39422,-1.54104 -1.78703,-3.35621 -1.60752,-7.42833 0.15332,-3.47775 -0.45283,-7.1405 -1.70911,-10.32771 -1.07067,-2.71632 -2.47134,-8.00628 -3.11259,-11.75547 -1.28378,-7.50577 -2.07734,-9.45151 -5.56443,-13.64345 C 152.65135,277.62955 152,275.60225 152,272.3545 c 0,-2.47063 -1.11141,-8.87654 -2.4698,-14.23534 -1.35838,-5.35881 -2.44039,-11.06536 -2.40447,-12.68122 0.0359,-1.61587 0.17803,-52.33802 0.31578,-112.7159 0.26775,-117.359072 0.0834,-113.2733 5.21541,-115.611583 C 154.41099,16.31125 200.08022,16 315.59251,16 h 160.4984 l 2.36582,2.365825 c 1.64338,1.64338 2.561,4.009974 3.00498,7.75 C 481.81324,29.077121 481.96567,80.775 481.80043,141 L 481.5,250.5 478.63383,257 c -1.5764,3.575 -3.65395,10.1 -4.61679,14.5 -2.78027,12.70532 -6.91977,26.37452 -9.57224,31.60894 -1.74862,3.45073 -2.4448,6.4588 -2.4448,10.56356 0,6.49611 -4.53583,21.8358 -8.81976,29.8275 L 450.5,348.5 450,1244 c -0.48218,863.5887 -0.56489,895.6304 -2.32095,899.1594 -1.01776,2.0453 -2.78209,3.8864 -4,4.1741 -1.19848,0.2831 -58.87905,0.5396 -128.17905,0.5701 -106.08154,0.047 -126.50354,-0.1665 -129.18529,-1.3486 z m 242.43901,-12.9941 c 2.33955,-0.9796 5.37705,-3.116 6.75,-4.7477 L 438,2125.8465 v -439.7867 c 0,-307.2383 -0.3212,-441.4103 -1.06573,-445.1733 -2.2565,-11.4049 -2.61093,-28.1671 -0.88567,-41.8865 1.78103,-14.163 2.45828,-822.48142 0.69198,-825.9036 -0.68232,-1.32198 -2.51094,-3.34698 -4.0636,-4.5 l -2.82302,-2.0964 -115.91951,-0.27031 -115.91951,-0.2703 -3.75747,3.44346 -3.75747,3.44346 -0.19588,874.32689 c -0.11968,534.1581 0.1646,875.7022 0.73067,877.8619 0.50961,1.9443 2.41659,4.9793 4.23773,6.7444 l 3.31115,3.2093 86.45817,0.2556 c 137.40657,0.4062 138.75886,0.3904 143.71188,-1.6835 z M 231.86948,1969.1543 c -9.14093,-2.3855 -14.07217,-5.9409 -18.94792,-13.6611 -2.25546,-3.5712 -4.45923,-6.4932 -4.89726,-6.4932 -0.43803,0 -1.52269,-1.5305 -2.41036,-3.4011 -2.52941,-5.3304 -2.29322,-35.5061 0.32301,-41.2682 1.04116,-2.2931 2.71878,-4.6185 3.72804,-5.1674 1.00925,-0.549 4.53501,-3.7751 7.83501,-7.1693 3.3,-3.3941 7.44805,-6.8063 9.21788,-7.5826 3.78803,-1.6615 37.64226,-2.0289 43.08627,-0.4676 1.97866,0.5675 6.08899,3.7698 10.30779,8.0306 9.76533,9.8627 11.05522,13.6693 11.64812,34.3752 0.47387,16.549 0.60445,15.7157 -4.268,27.2393 -0.96101,2.2728 -2.84968,3.8117 -7.14906,5.8248 -3.21365,1.5047 -7.53505,4.077 -9.60312,5.7163 -2.06806,1.6393 -5.31611,3.6306 -7.21788,4.4253 -4.91943,2.0554 -23.12365,1.8248 -31.65252,-0.401 z m 27.33514,-11.272 c 2.53584,-0.64 4.85745,-2.3418 7.35866,-5.3942 2.00972,-2.4526 5.13474,-5.3744 6.94448,-6.4929 4.24341,-2.6226 6.40684,-8.076 7.17968,-18.098 0.57013,-7.3932 0.42173,-8.2302 -2.50455,-14.128 -3.91144,-7.8833 -12.7939,-15.4425 -20.49232,-17.4394 -9.90946,-2.5705 -25.74141,-1.3071 -29.89771,2.3858 -0.93892,0.8342 -2.64571,4.3372 -3.79286,7.7844 -1.14715,3.4472 -3.01251,7.1063 -4.14524,8.1314 -3.75341,3.3968 -5.10067,7.2922 -4.65466,13.4582 0.52413,7.2461 4.43106,13.1516 15.36757,23.2289 6.05529,5.5796 8.55834,7.2259 11.80823,7.7663 4.46767,0.7429 10.95794,0.2792 16.82872,-1.2025 z m 29.60785,-171.6405 c -2.57813,-1.508 -7.84414,-5.7639 -11.70222,-9.4575 -5.31082,-5.0845 -7.2989,-7.7564 -8.18471,-11 -1.36275,-4.9901 -0.64445,-30.2422 1.01788,-35.7843 1.80274,-6.0102 10.17498,-17.2147 15.57224,-20.8403 9.8178,-6.5949 12.863,-7.5062 26.62168,-7.9664 13.81415,-0.4621 18.66041,0.4648 22.86266,4.373 1.375,1.2788 5.06766,3.46 8.20591,4.8473 3.13825,1.3872 6.44117,3.6443 7.33983,5.0159 2.83671,4.3293 5.43469,16.5904 6.53762,30.8541 1.05371,13.627 1.03665,13.8599 -1.50214,20.5 -2.00752,5.2506 -3.9425,8.0725 -8.86627,12.9304 -9.15335,9.0308 -10.07833,9.2875 -33.43283,9.2778 -19.75315,-0.01 -19.78899,-0.012 -24.46965,-2.75 z m 44.53997,-11.5584 c 4.77782,-3.6482 6.30023,-6.0696 9.19438,-14.624 5.67847,-16.7841 4.71402,-21.216 -7.59378,-34.895 -10.55011,-11.7256 -14.59844,-13.8018 -24.68464,-12.6598 l -5.7684,0.6531 -12.24602,12.6712 -12.24602,12.6711 -0.004,5.8375 c -0.003,4.7905 0.6117,6.9429 3.42849,12 1.88786,3.3894 4.38434,8.721 5.54772,11.848 1.89808,5.1018 2.5467,5.8416 6.31753,7.2054 6.55772,2.3719 7.39652,2.4617 21.28414,2.2802 12.68437,-0.1659 13.19395,-0.2567 16.77058,-2.9877 z m -45.25461,-149.6433 c -2.9712,-1.099 -6.3462,-2.6836 -7.5,-3.5212 -1.15381,-0.8376 -4.44252,-3.08 -7.30825,-4.9832 -3.38949,-2.2509 -5.97364,-4.9587 -7.39429,-7.748 -1.20112,-2.3582 -3.21572,-5.6432 -4.47688,-7.2999 C 258.54574,1597.7142 253,1578.7921 253,1572.7642 c 0,-2.482 0.675,-6.4259 1.5,-8.7642 0.825,-2.3383 1.53163,-7.4574 1.57029,-11.3757 0.0387,-3.9184 0.37615,-7.8929 0.75,-8.8324 1.84506,-4.6366 16.78645,-19.8298 26.97869,-27.4335 8.90721,-6.6449 10.44021,-7.2542 21.31981,-8.4737 10.44525,-1.1708 19.88943,0.4666 28.79625,4.9927 3.21517,1.6339 7.72955,3.535 10.03195,4.2249 2.3024,0.6898 5.16872,2.3734 6.3696,3.7414 1.20087,1.3679 4.65841,5.0424 7.68341,8.1655 11.32554,11.6926 15,16.8268 15,20.959 0,2.1016 0.92349,6.811 2.05219,10.4653 l 2.05219,6.6443 -2.09393,10.1048 c -2.13028,10.2802 -3.09982,12.9778 -5.76237,16.0325 -0.82221,0.9433 -2.707,5.2183 -4.18842,9.5 -2.21395,6.3989 -3.28836,8.141 -6.03468,9.7849 -1.83765,1.1 -5.18932,3.9247 -7.44816,6.2772 -6.34368,6.6065 -10.18293,7.4458 -36.07682,7.8867 -20.07581,0.3418 -22.47249,0.1998 -27.40217,-1.6238 z M 335.5,1613.2521 c 9.50794,-5.2633 15.907,-10.7204 17.32047,-14.7708 0.76413,-2.1897 2.75215,-7.2421 4.41783,-11.2276 2.87109,-6.8696 3.01982,-7.8979 2.86131,-19.783 -0.16131,-12.0951 -0.29053,-12.7966 -3.66746,-19.911 -2.13754,-4.5033 -4.76903,-8.342 -6.75922,-9.86 -1.79243,-1.3672 -4.81461,-4.0383 -6.71595,-5.9359 -2.76549,-2.76 -4.77063,-3.6973 -10.0243,-4.6857 -4.7818,-0.8997 -7.74277,-2.1658 -10.89073,-4.6569 -2.37788,-1.8816 -5.19716,-3.4212 -6.26507,-3.4212 -1.06791,0 -4.94208,1.3149 -8.60927,2.9221 -3.66718,1.6071 -8.01761,3.246 -9.66761,3.6419 -5.41822,1.3 -10.90111,4.6352 -17.39462,10.5809 -3.51705,3.2203 -6.76799,5.8551 -7.22432,5.8551 -1.63162,0 -4.1106,6.4348 -5.88334,15.2716 -1.752,8.7334 -1.74844,9.3224 0.12777,21.1063 2.0623,12.9526 4.01072,17.0715 12.15008,25.6848 9.56482,10.1217 15.44943,11.9603 37.22443,11.6307 13.36309,-0.2022 15.43651,-0.4686 19,-2.4413 z m -41.88666,-180.5964 c -5.36493,-1.2685 -22.05691,-16.6318 -24.21781,-22.2901 -2.34351,-6.1364 -1.61351,-34.1718 1.02149,-39.23 2.59743,-4.986 9.45103,-12.0276 13.93112,-14.3132 2.16591,-1.105 5.09013,-3.3782 6.49825,-5.0517 4.1212,-4.8978 7.55311,-5.7707 22.68723,-5.7707 14.42623,0 15.68359,0.3095 21.38495,5.2641 1.88022,1.634 6.2204,4.2279 9.64485,5.7644 5.94253,2.6662 6.32421,3.0552 8.37501,8.5365 3.49686,9.3462 4.39968,15.2004 4.46226,28.935 0.0741,16.2533 -1.99176,22.7396 -8.72324,27.3893 -2.2976,1.5871 -5.43521,4.3051 -6.97247,6.04 -1.53726,1.7349 -4.01226,3.655 -5.5,4.2668 -3.23495,1.3304 -37.35207,1.6985 -42.59164,0.4596 z m 37.70499,-12.5271 C 337.8367,1415.8308 346,1398.4297 346,1388.8328 c 0,-7.2811 -4.92089,-16.2221 -10.9782,-19.9468 -2.48699,-1.5293 -7.17991,-4.6943 -10.42871,-7.0333 -3.93091,-2.8301 -6.94162,-4.2491 -9,-4.2418 -4.70072,0.017 -22.33543,9.2236 -25.47028,13.298 -1.44255,1.8749 -4.24415,5.2499 -6.22578,7.5 -5.87425,6.6701 -5.91564,14.8918 -0.11195,22.2404 1.67261,2.1179 3.80847,6.6416 4.74635,10.0528 0.93788,3.4112 2.46205,6.887 3.38703,7.7241 2.72322,2.4645 8.73208,3.367 23.08154,3.4668 11.58025,0.081 13.90078,-0.1704 16.31833,-1.7644 z m 39.42842,-161.1289 c -3.81652,-1.1484 -15.8666,-12.4048 -18.02971,-16.8421 -0.98063,-2.0117 -2.8934,-4.6886 -4.25061,-5.9486 -1.35721,-1.2601 -3.47988,-4.1851 -4.71704,-6.5 C 341.7358,1225.9412 341.5,1224.0848 341.5,1212 c 0,-13.1691 0.0785,-13.6593 3.20186,-20 7.77533,-15.7844 16.97723,-20.2475 42.29814,-20.5152 12.14069,-0.1284 15.39491,0.1662 20,1.8101 6.21494,2.2186 8.57608,3.9846 10.62537,7.9475 0.78899,1.5258 3.57798,3.8404 6.27283,5.206 2.66872,1.3524 5.1125,3.1371 5.43063,3.9661 2.66977,6.9574 3.185,41.8884 0.6867,46.5565 -1.15673,2.1614 -10.86345,10.0898 -20.87443,17.0503 -5.55365,3.8614 -7.26319,4.512 -13.5,5.1382 -9.44593,0.9482 -21.46819,0.8711 -24.89435,-0.1598 z m 28.51804,-15.2497 c 7.13721,-5.0073 14.29717,-12.0406 16.54274,-16.25 1.71511,-3.215 2.96382,-22.2906 1.77044,-27.0454 -0.75838,-3.0216 -9.91082,-13.0166 -13.76854,-15.036 -1.47981,-0.7747 -6.87981,-1.9183 -12,-2.5413 -8.75654,-1.0655 -9.66092,-0.9984 -15.22778,1.1298 -3.62178,1.3846 -7.50221,3.8607 -10,6.3809 -2.24491,2.2651 -5.73261,5.3494 -7.75045,6.8541 -2.16503,1.6145 -4.1629,4.2329 -4.87425,6.3883 -1.55049,4.6981 -0.76669,15.903 1.40638,20.1053 3.33395,6.4472 9.88516,14.1543 13.47775,15.8558 2.0124,0.9531 6.79622,3.2349 10.63071,5.0707 9.36489,4.4835 12.29467,4.3485 19.793,-0.9122 z M 308,1080.9988 c -2.475,-0.991 -7.06389,-2.2674 -10.19753,-2.8365 -4.99787,-0.9076 -6.81881,-1.9807 -14.8284,-8.7384 -5.02197,-4.237 -10.33308,-9.5204 -11.80247,-11.7408 -2.64874,-4.0025 -2.6716,-4.1922 -2.6716,-22.1639 v -18.1268 l 6.29387,-7.0818 c 9.15699,-10.3032 23.80567,-19.03937 33.45316,-19.9507 8.35885,-0.78961 21.29211,1.97009 26.38996,5.63109 2.37132,1.70296 6.82642,4.20851 9.90022,5.56791 4.90814,2.1706 5.82752,3.0482 7.54953,7.2063 1.07843,2.6042 2.6756,6.0848 3.54926,7.7348 1.15896,2.1888 1.70629,6.8281 2.02423,17.1578 0.42894,13.9364 0.38709,14.284 -2.67624,22.2275 -2.33282,6.0492 -3.90969,8.617 -6.29799,10.2559 -1.7523,1.2024 -4.986,4.0917 -7.186,6.4206 -3.52168,3.7281 -4.69681,4.3213 -9.82716,4.9612 -3.20494,0.3997 -7.92994,1.7937 -10.5,3.0977 -5.44903,2.7648 -7.0943,2.812 -13.17284,0.3781 z m 20.1849,-14.9446 c 1.27331,-0.5201 5.29892,-3.7826 8.94582,-7.25 l 6.63072,-6.3042 1.23749,-8.8551 c 1.49949,-10.7299 1.03847,-15.5804 -2.10479,-22.1449 -1.71908,-3.5902 -3.76224,-5.8912 -7.24618,-8.1607 -2.66862,-1.7383 -6.04362,-4.2745 -7.5,-5.6358 -3.82107,-3.5717 -8.52586,-5.7035 -12.58757,-5.7035 -8.93743,0 -22.86377,8.5359 -30.63946,18.7798 -5.08648,6.7011 -5.09994,6.7387 -4.74151,13.2357 0.29697,5.3828 0.91241,7.295 3.54034,11 1.74949,2.4665 4.11267,7.0108 5.25152,10.0985 2.50776,6.7991 4.5697,8.8027 10.77811,10.4729 5.60029,1.5067 25.10658,1.8273 28.43551,0.4673 z M 290.5,914.81137 c -1.1,-0.6203 -3.4534,-2.38488 -5.22978,-3.92129 -1.77638,-1.53641 -5.55177,-3.60271 -8.38977,-4.59177 -3.78077,-1.31764 -5.99133,-2.905 -8.27022,-5.93871 -1.71063,-2.27722 -4.37786,-4.97722 -5.92719,-6 -3.73948,-2.46859 -4.75496,-4.51763 -6.32656,-12.76569 -0.79147,-4.15379 -2.39102,-8.47925 -3.98758,-10.78308 -1.7074,-2.46378 -2.84031,-5.66154 -3.15088,-8.89362 -0.44923,-4.67528 -0.237,-5.30241 2.88418,-8.52266 3.15967,-3.25994 3.40757,-4.02005 3.98796,-12.22757 0.34267,-4.84568 1.35979,-10.29474 2.279,-12.20926 1.6325,-3.40017 11.29025,-13.60578 21.14101,-22.3403 4.13968,-3.67059 6.10024,-4.6401 11.28423,-5.58014 3.45074,-0.62574 8.32097,-2.01511 10.82274,-3.08749 5.73619,-2.45882 8.70804,-2.44204 23.1798,0.1309 15.22249,2.70641 18.80381,4.3935 26.94136,12.69161 3.71893,3.79232 8.01601,7.70772 9.54905,8.7009 3.34447,2.1667 10.30437,13.74574 12.20843,20.3109 3.54576,12.22574 3.82964,16.42248 1.59933,23.64338 C 373.9428,867.15823 373,872.10659 373,874.42383 c 0,8.42352 -2.62456,14.26618 -9.39807,20.9215 -8.02137,7.8814 -21.58078,17.81691 -26.37751,19.32782 -5.00838,1.57758 -43.96756,1.69283 -46.72442,0.13822 z m 42.64221,-13.44068 c 2.39679,-1.72112 7.36546,-4.49187 11.0415,-6.15722 6.49419,-2.94207 6.72812,-3.17748 8.25,-8.3022 0.86146,-2.90085 1.56665,-5.7551 1.56708,-6.34277 4.3e-4,-0.58768 1.40265,-3.9935 3.11604,-7.5685 2.99299,-6.24491 3.10849,-6.96696 2.94298,-18.39891 -0.0947,-6.5444 -0.73542,-13.5194 -1.42372,-15.5 -1.60915,-4.63032 -9.39827,-15.46145 -12.63609,-17.57107 -1.375,-0.89588 -4.3,-2.94931 -6.5,-4.56317 -5.37637,-3.94395 -21.99691,-9.342 -25.99759,-8.44354 -1.65133,0.37085 -6.48382,1.01254 -10.73888,1.42598 -7.41785,0.72075 -7.94118,0.94319 -12.70716,5.40121 -2.73388,2.55723 -5.32747,4.65341 -5.76353,4.65818 -0.43606,0.005 -4.13233,3.2005 -8.21394,7.1016 l -7.4211,7.0929 -1.40876,9.14841 c -0.77481,5.03163 -1.64707,10.61108 -1.93835,12.39878 -0.52355,3.2133 2.3892,15.89378 5.19137,22.60033 0.77605,1.85733 3.24736,6.14167 5.4918,9.52075 3.61391,5.44084 5.02045,6.61633 12.29347,10.2741 13.18379,6.63041 13.9612,6.81386 27.85488,6.57332 12.41422,-0.21492 12.72081,-0.27531 17,-3.34818 z M 299.5,739.50321 c -2.2,-1.3676 -7.69843,-3.63823 -12.21873,-5.04585 -12.17756,-3.79209 -22.31524,-12.02382 -27.84675,-22.61136 -0.76263,-1.4597 -1.88697,-5.9597 -2.49854,-10 -0.6293,-4.15739 -2.15891,-9.15953 -3.52397,-11.52407 -2.91448,-5.04844 -2.9476,-5.85691 -0.4694,-11.45928 1.06843,-2.41537 2.42653,-8.43507 3.01798,-13.37712 1.58357,-13.23172 1.79116,-13.88331 6.76549,-21.2352 8.84965,-13.07948 10.72056,-14.90312 17.65792,-17.21173 3.51098,-1.16838 7.22233,-3.05111 8.24744,-4.18384 3.88074,-4.28817 6.52388,-4.85534 22.5689,-4.84289 9.9646,0.008 17.04318,0.4967 20.29966,1.40223 7.70611,2.14287 18.93704,8.1807 22.26299,11.96874 1.6488,1.87788 4.24018,4.22836 5.75863,5.22328 3.12778,2.0494 8.85986,13.7198 13.53008,27.54694 3.43064,10.15712 3.43873,10.28479 1.37345,21.66734 -2.89133,15.93524 -4.53421,21.58392 -8.48081,29.15928 -3.77855,7.2528 -4.22966,7.70297 -12.68113,12.6548 -4.81977,2.82396 -10.36223,5.64215 -12.31658,6.26265 -1.95435,0.6205 -5.98918,2.69749 -8.96628,4.61553 -5.38565,3.46978 -5.47097,3.48731 -16.94663,3.48222 -10.54206,-0.005 -11.87764,-0.21892 -15.53372,-2.49167 z M 430.09435,352.43252 c 2.52689,-1.26965 5.28009,-3.35504 6.11822,-4.63419 C 439.07752,343.42587 443,330.89316 443,326.11185 c 0,-3.68121 0.7221,-5.85913 3.16584,-9.5485 2.28613,-3.45143 3.55537,-7.04199 4.56765,-12.92145 1.12214,-6.5176 2.08656,-9.02251 4.83416,-12.55601 1.88779,-2.42776 3.439,-5.57776 3.44713,-7 0.008,-1.42224 0.70655,-5.51089 1.55205,-9.08589 0.84549,-3.575 1.56856,-9.58505 1.60682,-13.35566 0.0622,-6.12709 -0.21143,-7.13669 -2.57455,-9.5 L 456.95497,249.5 H 315.72749 c -112.14641,0 -141.9694,0.26337 -144.83044,1.27902 -8.85663,3.14404 -11.09267,11.83881 -5.1517,20.03225 2.24921,3.10199 3.30936,5.90693 3.77957,10 0.97789,8.51229 2.16233,12.37626 4.9534,16.15934 1.4939,2.02487 2.52168,4.761 2.52168,6.71315 0,1.81236 1.08588,6.11243 2.41307,9.55572 1.32719,3.44329 2.66081,9.30397 2.96361,13.02374 0.44687,5.48966 1.29817,8.04334 4.52085,13.56132 2.18367,3.73896 5.79764,8.68106 8.03106,10.98244 l 4.06075,4.18433 111.25533,0.25434 c 61.19043,0.13989 112.15533,0.0836 113.25533,-0.12516 1.1,-0.20873 4.06746,-1.41831 6.59435,-2.68797 z M 462.5,237.20686 c 4.30353,-1.21118 7.22583,-6.13171 8.01305,-13.49226 0.36556,-3.41803 0.51217,-46.2646 0.3258,-95.2146 -0.32997,-86.668837 -0.39124,-89.103081 -2.33885,-92.935466 -2.76193,-5.434746 -6.02701,-7.504802 -13.5529,-8.59252 -9.87931,-1.427859 -286.20159,-1.268815 -289.35186,0.166543 -3.47681,1.584141 -5.76721,7.001742 -6.69649,15.839563 -0.435,4.137034 -0.8058,45.99688 -0.82399,93.02188 -0.0347,89.69314 0.21164,95.34402 4.35594,99.92342 0.97799,1.08067 2.74367,2.10249 3.92373,2.27071 5.14623,0.73363 293.4459,-0.22749 296.14557,-0.98727 z M 63.5,1613.3748 c -3.913731,-2.1636 -16.950597,-14.5108 -21.822342,-20.6681 -5.433801,-6.8676 -6.9614,-12.8809 -6.523355,-25.6788 0.306073,-8.9423 0.698197,-11.012 2.589491,-13.6681 1.22584,-1.7215 3.160814,-5.3192 4.299943,-7.9949 2.24082,-5.2634 9.634144,-13.5275 14.456263,-16.1589 2.408196,-1.3141 6.873012,-1.7133 22.633235,-2.0238 23.309675,-0.4593 23.173705,-0.5002 34.872275,10.5049 11.89326,11.1884 12.44385,12.7622 12.17165,34.7916 l -0.22267,18.0213 -3.72724,5.4253 c -3.84912,5.6027 -10.63298,10.8936 -20.22725,15.7759 -5.200676,2.6465 -6.316339,2.8133 -20.5,3.0654 -12.447476,0.2212 -15.510505,-0.016 -18,-1.3918 z M 74.86811,725.4943 c -2.547539,-1.32692 -7.389859,-2.85674 -10.760711,-3.3996 -5.518774,-0.88877 -6.818682,-1.60467 -13.05947,-7.19218 C 44.223991,708.79289 43.341903,707.44915 40.93707,699.5 40.271511,697.3 38.663396,693.37746 37.363481,690.78324 34.385262,684.83967 34.17914,676.54267 36.87723,671.21016 37.909706,669.16957 39.958465,664.125 41.430028,660 c 2.249844,-6.30663 3.735094,-8.57218 9.334396,-14.23836 5.894949,-5.96535 7.580961,-7.05195 14.697201,-9.47206 9.847781,-3.34905 18.360575,-3.48909 26.848956,-0.44167 3.19582,1.14733 8.584029,2.58897 11.973789,3.20366 3.38976,0.61468 6.98707,1.55852 7.99402,2.09742 1.00694,0.5389 3.32998,4.21333 5.16231,8.16541 1.83232,3.95208 4.50776,8.73553 5.9454,10.62988 2.57981,3.39936 2.6139,3.66491 2.6139,20.36276 v 16.91848 l -4.5,5.98632 c -2.475,3.29248 -4.5,6.35066 -4.5,6.79596 0,0.4453 -3.01898,3.18216 -6.70885,6.08192 -7.1828,5.64474 -21.89301,11.95021 -27.677229,11.86372 -1.712657,-0.0256 -5.198271,-1.13222 -7.745811,-2.45914 z"
       id="path6663" />
  </g>
</svg>
