<?xml version="1.0" encoding="UTF-8" standalone="no"?>
<!-- Created with Inkscape (http://www.inkscape.org/) -->

<svg
   version="1.1"
   id="svg3278"
   width="515"
   height="2340"
   viewBox="0 0 515 2340"
   sodipodi:docname="a#.svg"
   inkscape:version="1.1.1 (3bf5ae0d25, 2021-09-20)"
   xmlns:inkscape="http://www.inkscape.org/namespaces/inkscape"
   xmlns:sodipodi="http://sodipodi.sourceforge.net/DTD/sodipodi-0.dtd"
   xmlns="http://www.w3.org/2000/svg"
   xmlns:svg="http://www.w3.org/2000/svg">
  <defs
     id="defs3282" />
  <sodipodi:namedview
     id="namedview3280"
     pagecolor="#ffffff"
     bordercolor="#666666"
     borderopacity="1.0"
     inkscape:pageshadow="2"
     inkscape:pageopacity="0.0"
     inkscape:pagecheckerboard="0"
     showgrid="false"
     inkscape:zoom="0.33418803"
     inkscape:cx="-86.777494"
     inkscape:cy="1170"
     inkscape:window-width="1920"
     inkscape:window-height="986"
     inkscape:window-x="-11"
     inkscape:window-y="-11"
     inkscape:window-maximized="1"
     inkscape:current-layer="g3284" />
  <g
     inkscape:groupmode="layer"
     inkscape:label="Image"
     id="g3284">
    <path
       style="fill:#000000"
       d="m 184.78349,2146.25 c -0.83957,-0.9625 -2.14682,-2.875 -2.90499,-4.25 -1.16741,-2.1172 -1.45507,-140.0141 -1.8785,-900.5 l -0.5,-898 -3.64136,-7.5 c -3.82569,-7.87965 -5.23123,-13.31278 -6.85551,-26.5 -0.70032,-5.6858 -1.99904,-10.06252 -4.48955,-15.12997 -2.04685,-4.16472 -4.29497,-11.061 -5.40563,-16.58219 -1.18347,-5.88311 -3.05576,-11.49796 -4.95846,-14.87003 -6.30664,-11.17695 -6.11845,-7.16744 -6.13471,-130.69993 C 147.99895,11.993354 147.8886,14.735539 152.8496,12.080491 154.27176,11.319376 202.31271,11 315.37849,11 h 160.50998 l 2.80577,2.411324 2.80576,2.411324 0.61563,23.838676 c 0.3386,13.111272 0.45099,57.588676 0.24977,98.838676 -0.25596,52.46913 -0.0144,78.50052 0.80395,86.65242 1.53484,15.28828 0.16405,26.17217 -4.17655,33.16144 -1.64427,2.64763 -3.24915,6.69763 -3.56639,9 -0.31724,2.30238 -1.20088,6.88614 -1.96364,10.18614 -0.76277,3.3 -1.86941,9.15 -2.4592,13 -0.63255,4.12912 -2.49702,9.90822 -4.54609,14.09104 -2.50799,5.11964 -3.76324,9.42883 -4.51508,15.5 C 460.68926,330.2102 459.32752,334.8363 454.31586,346 L 450.5,354.5 450,1248 c -0.40337,720.8242 -0.746,893.9304 -1.77292,895.7271 -0.7001,1.2249 -2.13302,2.6874 -3.18426,3.25 -1.27431,0.682 -44.70926,1.0229 -130.32209,1.0229 -121.04777,0 -128.49828,-0.1003 -129.93724,-1.75 z m 246.18188,-11.5481 c 1.97457,-0.6848 4.45013,-2.6665 5.75443,-4.6064 l 2.28905,-3.4044 -0.25442,-444.5956 c -0.2254,-393.8679 -0.42645,-444.9364 -1.76204,-447.5833 -2.19629,-4.3525 -4.34018,-4.256 -7.11234,0.3202 -4.19954,6.9325 -17.40922,20.2371 -21.56392,21.7188 -4.53647,1.6179 -26.87616,1.9468 -30.80387,0.4535 -1.43986,-0.5475 -4.28166,-2.3296 -6.3151,-3.9604 -2.03344,-1.6307 -5.68331,-3.6638 -8.11083,-4.518 -5.89059,-2.0728 -6.89407,-3.0345 -9.63677,-9.2363 -1.28673,-2.9095 -2.83723,-5.29 -3.44556,-5.29 -1.62574,0 -3.52327,-5.3273 -5.52097,-15.5 -1.94936,-9.9266 -1.8372,-10.4844 4.02136,-20 1.35449,-2.2 2.47011,-5.1494 2.47916,-6.5542 0.0215,-3.3432 4.66919,-10.5727 9.54031,-14.8401 6.88543,-6.0321 10.29763,-6.9532 26.47614,-7.1471 26.37604,-0.316 36.36897,3.5725 42.01947,16.3508 1.16968,2.6452 2.77454,5.0581 3.56635,5.3619 2.10454,0.8076 4.23993,-1.3807 5.38137,-5.5146 0.66061,-2.3926 1.01788,-141.9662 1.04976,-410.10961 0.0471,-396.23553 9.5e-4,-406.54653 -1.83071,-409.01489 -1.03347,-1.39271 -2.96066,-3.08807 -4.28264,-3.76746 -1.86648,-0.95922 -28.37808,-1.23855 -118.63782,-1.25 L 198.03155,362 l -3.26577,2.91797 -3.26578,2.91797 -0.2497,878.83206 c -0.2373,835.211 -0.16285,879.0057 1.5,882.332 3.6925,7.3863 -4.56517,6.9173 121.67196,6.9102 85.44813,0 113.92448,-0.3 116.54311,-1.2083 z M 234.25603,1969.8905 c -2.55291,-0.605 -5.34214,-2.2091 -7,-4.0257 -1.51582,-1.661 -7.25603,-7.5084 -12.75603,-12.9944 l -10,-9.9744 v -14.2111 -14.2111 l 4.5,-8.7584 c 3.38778,-6.5936 6.28743,-10.5002 11.73186,-15.8058 l 7.23187,-7.0474 22.64416,0.3189 22.64417,0.3189 4.12397,4.6113 c 2.26818,2.5362 5.26882,5.3398 6.66808,6.2301 1.39925,0.8903 4.48375,5.0869 6.85443,9.3257 l 4.31032,7.7069 -0.44028,14.563 c -0.42405,14.0262 -0.5604,14.8026 -3.69881,21.063 -1.79219,3.575 -3.79012,7.6149 -4.43984,8.9775 -1.64428,3.4484 -10.06488,9.6201 -16.62993,12.1885 -4.42294,1.7304 -8.04579,2.2085 -18.5,2.4411 -7.15,0.159 -14.90979,-0.1634 -17.24397,-0.7166 z m 60.634,-180.7828 c -1.43549,-0.4729 -4.94858,-2.6031 -7.80689,-4.7338 -3.92868,-2.9285 -5.96371,-5.4601 -8.3391,-10.3739 -1.72821,-3.575 -4.62761,-8.1888 -6.44312,-10.2529 C 269.10356,1760.112 269,1759.7196 269,1751.2405 c 0,-10.2553 0.95029,-14.2043 4.40664,-18.3119 1.38959,-1.6514 3.87054,-5.8188 5.51323,-9.2607 2.90719,-6.0915 4.54978,-7.7978 15.70486,-16.3143 6.64914,-5.0765 8.35319,-5.662 18.85768,-6.4803 11.00533,-0.8573 17.20305,0.054 21.58626,3.1756 1.52472,1.0857 5.53407,3.3443 8.90966,5.0191 4.76907,2.3662 6.77719,4.0915 9.00687,7.7385 1.57819,2.5814 3.91464,6.0291 5.19212,7.6614 2.25791,2.8852 2.31302,3.4413 1.97626,19.9395 -0.4181,20.4836 -1.59634,24.0359 -11.37253,34.2876 -9.34689,9.8014 -11.5208,10.5161 -33.24316,10.9294 -9.92084,0.1888 -19.21238,-0.044 -20.64786,-0.5167 z m -6.27861,-164.5727 c -9.9299,-4.2318 -18.39443,-11.5657 -24.33741,-21.0865 -2.8743,-4.6047 -5.72963,-10.3723 -6.34518,-12.8169 -0.70284,-2.7912 -0.98255,-11.4546 -0.7519,-23.2881 0.40374,-20.7135 0.3082,-20.3371 8.28736,-32.6545 4.93781,-7.6225 16.24371,-18.2185 21.03571,-19.7148 2.2,-0.687 6.5573,-2.5284 9.68289,-4.0921 11.26737,-5.637 29.39859,-6.2471 39.28716,-1.322 2.76647,1.3778 6.60495,3.3872 8.52995,4.4653 1.925,1.078 6.2,2.9759 9.5,4.2173 5.82863,2.1928 6.11425,2.4744 10,9.8595 2.2,4.1812 5.1917,9.1312 6.64822,11 1.45653,1.8688 3.89775,7.2228 5.42495,11.8978 2.3536,7.2047 2.77624,10.1762 2.7735,19.5 -0.003,9.4362 -0.39825,12.1373 -2.78182,19 -1.88254,5.4201 -3.9856,9.2899 -6.52137,12 -2.05852,2.2 -4.92767,5.6073 -6.37589,7.5718 -1.44822,1.9645 -3.65338,4.1338 -4.90036,4.8206 -1.24698,0.6869 -3.7276,3.2203 -5.51251,5.6299 -2.19574,2.9642 -4.45956,4.7528 -7,5.5304 -2.16865,0.6638 -13.68161,1.3273 -27.25472,1.5706 -23.30899,0.4178 -23.54786,0.4009 -29.38858,-2.0883 z m 0.75276,-195.3861 c -4.59392,-3.3279 -8.79095,-8.1013 -11.00712,-12.5188 -0.86367,-1.7215 -3.09474,-5.3802 -4.95793,-8.1304 -3.15841,-4.662 -3.42993,-5.7107 -4.01307,-15.5 l -0.62545,-10.4997 3.51697,-5.0766 c 1.93433,-2.7921 4.3507,-7.4656 5.36969,-10.3857 1.27263,-3.6468 3.0507,-6.2842 5.67885,-8.4234 2.10436,-1.7129 6.0673,-4.9754 8.80651,-7.2502 6.61133,-5.4902 11.79721,-6.8379 26.36737,-6.8523 l 12,-0.012 8,4.3884 c 11.77536,6.4595 12.80755,7.3623 17.31226,15.143 l 4.11817,7.1131 0.28479,16.6778 0.28478,16.6777 -3.4176,6 c -3.83079,6.7254 -14.89389,17.9533 -19.80028,20.0952 -2.41707,1.0552 -8.29026,1.4048 -23.59996,1.4048 h -20.38208 l -3.9359,-2.8511 z m 21.2657,-349.1335 c -2.38962,-1.8084 -5.64126,-3.1613 -8.5,-3.5365 -9.48931,-1.2453 -10.45819,-1.7008 -16.6862,-7.8457 C 275.23775,1058.5635 269,1044.293 269,1031.014 c 0,-3.5797 0.71701,-5.7713 2.9816,-9.1135 1.63989,-2.4203 3.92481,-7.2077 5.07761,-10.6387 1.44713,-4.307 3.03215,-6.9384 5.11993,-8.5 1.66316,-1.244 5.11574,-4.32377 7.6724,-6.84397 6.32976,-6.23948 14.53785,-8.34283 29.90886,-7.66424 13.13112,0.57971 18.8942,2.33097 26.94218,8.18705 5.25098,3.82086 6.73902,5.63376 9.73218,11.85676 l 3.53341,7.3463 0.0832,17.3032 c 0.0814,16.9306 0.0314,17.3598 -2.31966,19.9282 -1.32156,1.4437 -3.17412,4.7233 -4.1168,7.2881 -3.19185,8.684 -11.13841,14.2591 -21.91628,15.376 -5.70541,0.5912 -7.45296,1.2491 -10.84462,4.0828 -2.22376,1.8579 -4.56312,3.3655 -5.19858,3.3502 -0.63547,-0.015 -2.89694,-1.3459 -5.02551,-2.9568 z M 330.5,1063.0919 c 2.2,-1.0253 6.38268,-4.3125 9.29483,-7.3049 6.03173,-6.1979 8.17323,-12.0559 8.1933,-22.4126 0.0176,-9.0657 -3.44944,-16.1047 -12.08618,-24.5383 -8.4336,-8.2352 -9.24254,-8.6933 -16.73289,-9.47622 -6.62,-0.69193 -11.62448,1.08322 -22.21241,7.87912 -6.5951,4.2331 -7.31127,5.0524 -8.96937,10.261 -0.70035,2.2 -2.55899,6.4258 -4.13032,9.3908 -3.59335,6.7802 -3.59712,9.9028 -0.0174,14.4073 1.56175,1.9652 3.61003,5.5906 4.55174,8.0564 1.54381,4.0424 6.64789,9.0094 13.40899,13.0488 4.72972,2.8258 23.16486,3.2681 28.69972,0.6886 z M 293.15864,913.05198 c -1.83775,-0.46021 -4.76275,-2.18861 -6.5,-3.84088 -1.73725,-1.65226 -5.9455,-4.39423 -9.35167,-6.09324 -5.5663,-2.77652 -6.5711,-3.77367 -9.92906,-9.85349 -2.05482,-3.72041 -4.99895,-8.23512 -6.54252,-10.03271 -1.54357,-1.79759 -3.0778,-4.34932 -3.4094,-5.67051 -0.3316,-1.3212 -0.4506,-11.77545 -0.26445,-23.23167 0.37898,-23.32312 -0.54158,-20.02187 9.75116,-34.9691 6.47887,-9.40868 16.10674,-18.92307 20.44641,-20.2054 17.75658,-5.2469 18.7412,-5.40932 29.53175,-4.87148 13.7118,0.68345 21.17591,2.72566 34.2581,9.37315 10.32462,5.24627 10.72776,5.57749 13.23587,10.87469 1.42279,3.00499 3.7398,7.28994 5.14891,9.52211 1.40911,2.23217 3.85249,7.74581 5.42974,12.25252 2.82584,8.07438 2.85497,8.38386 1.99497,21.19403 -0.94428,14.06549 -1.78418,18.95535 -4.24747,24.72838 -1.98073,4.6421 -23.80242,27.75196 -28.06839,29.72533 -2.39767,1.10911 -8.47601,1.51075 -25.64259,1.69436 -12.375,0.13237 -24.00361,-0.13587 -25.84136,-0.59609 z m 40.365,-13.73815 c 2.737,-1.75239 7.93723,-4.51169 11.55607,-6.13177 5.13704,-2.29975 6.86537,-3.63527 7.88258,-6.09103 0.71659,-1.72998 3.05581,-4.6015 5.19827,-6.38115 2.99313,-2.48626 4.23552,-4.50666 5.36386,-8.7228 2.28077,-8.52232 2.85611,-17.9809 1.54996,-25.48137 C 363.86421,839.55643 360.70872,832 359.01694,832 c -0.51833,0 -2.7767,-2.7011 -5.01861,-6.00245 -2.2419,-3.30135 -5.29617,-6.77259 -6.78726,-7.71387 -1.49109,-0.94127 -4.57695,-3.20617 -6.85746,-5.03311 -2.83978,-2.27496 -5.83343,-3.60191 -9.5,-4.21092 -2.94449,-0.48908 -7.53973,-1.86564 -10.21166,-3.05903 -4.7211,-2.10863 -4.98893,-2.12165 -9.5,-0.46177 -2.55307,0.93942 -7.56695,3.43879 -11.14195,5.55415 -3.575,2.11536 -8.51763,4.55644 -10.98363,5.42462 -7.14479,2.51542 -8.90542,4.17052 -12.5617,11.80883 -1.89386,3.95645 -4.57092,9.17683 -5.94902,11.60083 -2.19718,3.8647 -2.50565,5.59669 -2.50565,14.0685 0,14.91493 1.5745,18.97026 10.88051,28.02422 4.23984,4.125 8.97428,9.18051 10.52099,11.23448 3.14749,4.17973 8.238,7.66129 12.95669,8.8615 1.728,0.43951 8.32745,0.71022 14.66545,0.60157 11.08998,-0.19012 11.71092,-0.31745 16.5,-3.38372 z M 298.28185,736.04421 c -2.86998,-1.67656 -7.59498,-3.97321 -10.5,-5.10368 -4.22789,-1.64525 -7.45053,-4.28879 -16.15006,-13.24796 -5.97752,-6.15591 -11.60252,-12.29746 -12.5,-13.64787 -1.33742,-2.01238 -1.69595,-6.03996 -1.98745,-22.32652 -0.48374,-27.02655 -0.0684,-29.80758 5.31747,-35.60641 2.35584,-2.53647 5.22367,-6.47297 6.37294,-8.74778 2.10765,-4.17176 7.13898,-8.79224 12.66525,-11.63103 1.65,-0.84759 5.12555,-3.64196 7.72345,-6.20971 l 4.72346,-4.66864 20.77654,0.3227 c 19.42102,0.30164 21.0049,0.46707 24.27655,2.53556 1.925,1.21708 5.525,3.30744 8,4.64523 2.475,1.33779 6.12268,4.167 8.10596,6.28712 1.98327,2.12013 5.49424,5.36239 7.80215,7.20503 6.49376,5.18463 8.99103,9.86137 12.19679,22.84137 3.76195,15.232 3.82853,21.95888 0.35443,35.80838 -4.08016,16.26556 -4.16815,16.40637 -19.20423,30.73476 -2.73273,2.60412 -6.72264,5.52912 -8.86646,6.5 -2.14382,0.97088 -5.69578,2.89024 -7.89325,4.26524 -3.76322,2.35472 -4.92516,2.51722 -19.99539,2.79625 l -16,0.29625 z m 99.09642,507.07649 c 2.81695,-1.5836 7.47543,-3.6419 10.35217,-4.5739 2.87675,-0.932 6.12641,-2.4488 7.22149,-3.3707 2.04843,-1.7244 9.04807,-21.5913 9.04807,-25.6809 0,-1.2377 -0.65034,-2.79 -1.4452,-3.4497 -0.79485,-0.6597 -2.1495,-3.3199 -3.01032,-5.9116 -1.10875,-3.3381 -3.38455,-6.4902 -7.8048,-10.81 -3.43183,-3.3539 -7.29473,-6.6374 -8.58423,-7.2967 -1.28951,-0.6593 -6.56914,-1.4508 -11.73253,-1.7589 -9.06927,-0.541 -9.60792,-0.4518 -15.86737,2.6297 -5.97772,2.9429 -7.02433,3.9801 -13.51723,13.3959 -4.1205,5.9755 -7.03759,11.2424 -7.03728,12.7061 3e-4,1.375 1.35191,5.3566 3.00359,8.8479 1.65167,3.4914 3.27937,8.0759 3.6171,10.188 0.73174,4.576 3.3569,7.6465 8.26989,9.6726 1.98461,0.8185 4.99986,2.5376 6.70055,3.8203 6.64208,5.0096 13.73971,5.5532 20.7861,1.5919 z M 339.5,351.12853 c 101.16334,-0.22134 92.88357,0.44513 100.89668,-8.12153 3.14184,-3.35888 4.64325,-5.92669 5.05348,-8.64281 1.61942,-10.72214 7.06239,-31.43658 9.56087,-36.38604 1.55524,-3.08092 3.15466,-7.37388 3.55425,-9.53991 0.39959,-2.16603 1.38381,-5.73824 2.18714,-7.93824 0.80333,-2.2 1.82642,-7.73616 2.27353,-12.30258 0.46385,-4.73734 1.51777,-9.3783 2.45434,-10.80769 2.5118,-3.83349 1.59968,-7.45241 -2.48029,-9.84083 -3.47635,-2.03506 -4.44934,-2.05085 -144,-2.33751 -77.275,-0.15873 -141.94925,-0.0283 -143.72056,0.2898 -4.28588,0.76972 -9.27944,5.06814 -9.27944,7.98768 0,3.50394 6.42424,26.20346 9.45135,33.39553 1.46951,3.49141 3.03335,9.57158 3.47519,13.51148 0.93517,8.33888 3.85373,18.04313 8.60273,28.60412 1.8549,4.125 4.08433,9.79787 4.9543,12.60637 1.65564,5.3449 4.66662,8.95187 7.96686,9.5438 1.07274,0.19241 12.54774,0.31056 25.5,0.26255 C 238.90269,351.36472 290,351.23684 339.5,351.12853 Z M 465.29516,233.07788 c 1.52057,-0.57812 3.06694,-2.5256 4.14519,-5.22041 1.5862,-3.96431 1.71439,-11.71455 1.64974,-99.74151 -0.0697,-94.949689 -0.081,-95.465718 -2.1775,-99.796533 -1.15908,-2.394329 -3.01275,-4.837847 -4.11927,-5.43004 -2.06936,-1.107488 -298.18025,-1.38632 -299.96633,-0.282462 -0.47056,0.290825 -1.86164,2.41074 -3.09128,4.710924 L 159.5,31.5 l -0.27963,93.94881 c -0.19432,65.28886 0.0548,95.55986 0.81673,99.22991 0.75552,3.63929 1.89474,5.90911 3.66449,7.30119 2.55042,2.00616 3.59063,2.02009 150.86817,2.02009 88.09648,0 149.28463,-0.37434 150.7254,-0.92212 z M 69.5,1612.2576 c -6.397884,-2.3 -15.740443,-8.48 -21.535557,-14.2453 -3.76434,-3.745 -5.168729,-6.2977 -8.259269,-15.0123 -2.048042,-5.775 -3.710336,-11.4 -3.693988,-12.5 0.01635,-1.1 1.730832,-6.9687 3.809965,-13.0415 2.6302,-7.6824 5.238659,-13.0853 8.574139,-17.7596 5.692909,-7.9779 7.049889,-9.0184 15.372421,-11.788 5.698295,-1.8963 8.002801,-2.0701 22.047853,-1.6636 11.516182,0.3333 16.946566,0.9172 20.433626,2.1971 4.74693,1.7422 10.47628,6.8826 15.42786,13.8419 3.08348,4.3337 10.32295,24.9855 10.32295,29.448 0,1.7912 -1.78198,7.6463 -3.95995,13.0113 -3.52791,8.6902 -4.68426,10.4348 -10.59897,15.9905 -3.68507,3.4614 -9.54371,7.666 -13.16735,9.4499 -6.023484,2.9654 -7.427143,3.2392 -18.151032,3.5415 -9.274573,0.2614 -12.632844,-0.035 -16.622698,-1.4699 z M 74,721.42949 c -3.575,-1.30705 -8.075,-2.40868 -10,-2.44808 -5.499635,-0.11254 -8.531764,-1.98199 -14.90997,-9.1927 -5.3636,-6.06368 -6.003826,-7.26988 -6.634723,-12.5 -0.384054,-3.18379 -1.76861,-8.36265 -3.076793,-11.50858 -2.879117,-6.92372 -2.964813,-10.89127 -0.359264,-16.63328 1.086429,-2.39423 2.445593,-7.2969 3.020364,-10.89482 1.303959,-8.16246 1.449188,-8.41557 9.138817,-15.92757 6.903404,-6.74393 8.625967,-7.45266 26.507231,-10.90605 8.606661,-1.6622 9.552158,-1.67021 15,-0.12709 3.197886,0.90581 8.386108,2.34382 11.529388,3.19558 4.87487,1.32098 6.81394,2.63689 13.18977,8.95094 7.23165,7.16159 7.57422,7.72064 10.53494,17.19247 3.576,11.44016 3.83302,17.40106 1.03205,23.93544 -1.1155,2.60237 -2.53672,8.15076 -3.15827,12.32978 -1.12377,7.55568 -1.16773,7.63562 -7.85612,14.28432 -5.24602,5.2149 -7.57663,6.82571 -10.59172,7.32053 -2.12613,0.34892 -5.2157,0.86526 -6.8657,1.1474 -1.65,0.28215 -5.379381,1.37682 -8.287513,2.43261 C 85.515361,724.51176 82.096263,724.38956 74,721.42949 Z m 19.719481,-13.73378 c 4.894814,-2.72015 16.521219,-14.1867 19.303879,-19.03845 4.01168,-6.99464 4.16998,-15.52523 0.41642,-22.4405 -9.23062,-17.00581 -9.67364,-17.5838 -15.83841,-20.6637 -8.391771,-4.19251 -16.081585,-4.63775 -21.813141,-1.26298 -5.884693,3.46494 -20.205243,18.37887 -22.175502,23.09437 C 52.67508,669.62855 52,674.04134 52,677.92634 c 0,5.63178 0.448914,7.38996 2.855969,11.18549 2.809628,4.43033 15.079669,16.16934 19.42455,18.58388 1.220715,0.67838 5.594481,1.23342 9.719481,1.23342 4.125,0 8.498766,-0.55504 9.719481,-1.23342 z"
       id="path3363" />
  </g>
</svg>
