<?xml version="1.0" encoding="UTF-8" standalone="no"?>
<!-- Created with Inkscape (http://www.inkscape.org/) -->

<svg
   version="1.1"
   id="svg3477"
   width="515"
   height="2340"
   viewBox="0 0 515 2340"
   sodipodi:docname="b.svg"
   inkscape:version="1.1.1 (3bf5ae0d25, 2021-09-20)"
   xmlns:inkscape="http://www.inkscape.org/namespaces/inkscape"
   xmlns:sodipodi="http://sodipodi.sourceforge.net/DTD/sodipodi-0.dtd"
   xmlns="http://www.w3.org/2000/svg"
   xmlns:svg="http://www.w3.org/2000/svg">
  <defs
     id="defs3481" />
  <sodipodi:namedview
     id="namedview3479"
     pagecolor="#ffffff"
     bordercolor="#666666"
     borderopacity="1.0"
     inkscape:pageshadow="2"
     inkscape:pageopacity="0.0"
     inkscape:pagecheckerboard="0"
     showgrid="false"
     inkscape:zoom="0.33418803"
     inkscape:cx="-86.777494"
     inkscape:cy="1170"
     inkscape:window-width="1920"
     inkscape:window-height="986"
     inkscape:window-x="-11"
     inkscape:window-y="-11"
     inkscape:window-maximized="1"
     inkscape:current-layer="g3483" />
  <g
     inkscape:groupmode="layer"
     inkscape:label="Image"
     id="g3483">
    <path
       style="fill:#000000"
       d="m 194.32888,2156.077 c -1.74412,-1.0734 -4.38187,-4.0177 -5.86167,-6.5427 -2.33485,-3.9842 -2.60592,-5.2814 -2.05034,-9.8127 0.62355,-5.0856 0.70233,-125.4897 0.68811,-1051.7216 -0.004,-245.575 0.32053,-449.70299 0.72066,-453.61775 0.40014,-3.91476 0.44688,-11.11476 0.10387,-16 C 187.5865,613.49701 187.15115,562.25 186.96207,504.5 c -0.18908,-57.75 -0.37964,-111.3 -0.42347,-119 -0.0764,-13.42618 -0.19814,-14.22543 -2.96945,-19.5 -2.21325,-4.21243 -3.05889,-7.50395 -3.61226,-14.06012 -0.48127,-5.70205 -1.46227,-10.01018 -2.93814,-12.90312 -3.472,-6.80569 -8.98004,-25.08501 -9.00035,-29.86915 -0.0111,-2.6005 -1.22661,-7.08518 -3.04079,-11.21863 -1.66232,-3.78744 -4.6303,-13.31287 -6.59551,-21.16762 -2.07999,-8.31352 -4.55453,-15.74393 -5.92171,-17.78136 -1.29174,-1.925 -2.82376,-4.76679 -3.4045,-6.3151 -1.59135,-4.24268 -1.35067,-221.990714 0.25055,-226.681263 0.90868,-2.66184 2.02895,-3.768754 4.69356,-4.637589 2.5707,-0.838215 46.51322,-1.104695 165.5,-1.003637 180.54059,0.153336 168.0475,-0.344627 170.37067,6.790814 0.75238,2.310903 1.16986,37.108317 1.34881,112.426105 l 0.25916,109.07933 -3.76111,5.46098 c -2.77748,4.03277 -4.02818,7.15037 -4.78228,11.92067 -0.56164,3.55283 -1.90183,8.83907 -2.97821,11.7472 -1.07637,2.90813 -1.95704,7.60895 -1.95704,10.44625 0,3.92205 -0.62101,6.05486 -2.5905,8.89684 -2.91369,4.20444 -4.35039,9.32857 -4.38564,15.64174 -0.02,3.57914 -0.6742,4.97788 -4.03201,8.62067 -3.60383,3.9097 -4.10318,5.09783 -4.95019,11.77838 -0.51812,4.08653 -1.40345,9.43223 -1.9674,11.87933 -0.56395,2.44711 -1.03637,6.32725 -1.04981,8.62255 -0.0169,2.88732 -0.74903,5.04431 -2.37588,7 -1.29329,1.5547 -2.98079,3.95173 -3.75,5.32673 -1.19463,2.13545 -1.43584,132.12008 -1.65415,891.4138 -0.16527,574.8276 -0.60086,890.1962 -1.23279,892.543 -0.53748,1.996 -1.87293,4.5906 -2.96767,5.7656 l -1.99045,2.1365 -123.77675,0.085 c -121.08184,0.083 -123.8458,0.042 -126.94788,-1.8667 z m 239.55683,-11.7095 c 1.28189,-0.8979 3.17214,-3.4854 4.20054,-5.75 1.81718,-4.0016 1.86972,-16.2382 1.86599,-434.6175 -0.002,-265.7191 -0.36913,-434.2557 -0.95819,-440.3121 C 438.041,1253.8891 435.90234,1248 433.29694,1248 c -0.69952,0 -2.41171,1.8057 -3.80487,4.0126 -2.92668,4.6361 -15.88416,13.5449 -21.41697,14.7249 -1.9663,0.4194 -9.46076,0.7625 -16.65434,0.7625 -13.035,0 -13.09189,-0.01 -16.81799,-3 -2.05631,-1.65 -6.94938,-4.8 -10.87349,-7 -5.83006,-3.2685 -7.74842,-5.0058 -10.49059,-9.5 l -3.35585,-5.5 0.41609,-20.5 c 0.25081,-12.3567 0.88637,-21.7267 1.59999,-23.5882 0.65115,-1.6985 4.75576,-6.282 9.12137,-10.1855 8.64514,-7.7302 8.09617,-7.535 24.58681,-8.7443 8.16058,-0.5984 22.89949,0.7578 29.3929,2.7048 7.7958,2.3374 9.93642,3.9438 13.22399,9.9239 4.07197,7.4069 6.07171,7.6578 9.08224,1.1393 l 2.19377,-4.75 0.26633,-402.83249 c 0.18718,-283.10296 -0.0508,-404.0104 -0.80082,-406.7956 -2.15707,-8.01074 7.11533,-7.40359 -118.35792,-7.75004 l -111.57025,-0.30806 -3.4152,2.1107 c -1.87836,1.16089 -4.14844,3.22978 -5.04462,4.59753 -1.50234,2.29286 -1.62751,61.77925 -1.60488,762.73236 0.0135,418.1351 0.2865,764.5206 0.60666,769.7456 0.68161,11.1238 1.68577,14.3441 4.93434,15.8243 3.71717,1.6936 6.29201,-1.1155 7.62987,-8.3243 1.88798,-10.173 2.48779,-11.0703 11.33538,-16.9572 4.53716,-3.019 9.54802,-5.9916 11.13525,-6.6058 1.7923,-0.6937 9.69896,-1.0678 20.86541,-0.9874 16.98339,0.1222 18.20231,0.2605 22,2.4947 5.16959,3.0414 8.03104,6.1474 13.25006,14.3821 10.42336,16.4463 11.57568,22.3502 7.36352,37.7268 -3.06399,11.1852 -8.25565,19.0346 -16.46371,24.8917 -9.2776,6.6204 -18.04192,8.9896 -30.62942,8.2801 -12.3478,-0.696 -18.45038,-3.1177 -28,-11.1111 -6.73976,-5.6414 -7.75341,-6.9685 -10,-13.0924 -1.375,-3.748 -3.26375,-7.2939 -4.19723,-7.8796 -2.87574,-1.8046 -7.12617,0.3863 -8.49633,4.3796 -0.88823,2.5887 -1.20799,26.3778 -1.25,92.9964 l -0.0564,89.5178 2.42723,3.572 c 4.98112,7.3304 -3.48421,6.8442 119.60026,6.8695 100.63828,0.021 110.73603,-0.1233 112.85822,-1.6097 z M 308,1798.874 c -6.56866,-0.8087 -16.00164,-4.0269 -19.86335,-6.7767 -4.43544,-3.1583 -8.0082,-9.1691 -10.20775,-17.1735 -1.12201,-4.0831 -3.22738,-9.2238 -4.67859,-11.4238 -1.81956,-2.7584 -2.76727,-5.7356 -3.05316,-9.5914 -0.37738,-5.0896 -0.14276,-5.901 2.61441,-9.0412 1.66594,-1.8974 4.2124,-6.1313 5.65879,-9.4086 3.23951,-7.3403 7.67487,-11.9889 17.74971,-18.6033 7.09869,-4.6604 8.5209,-5.195 16.34589,-6.1438 12.2132,-1.481 18.01919,-0.1813 29.32696,6.5647 10.40489,6.2075 16.98866,13.7507 21.63336,24.786 2.32242,5.5178 2.60556,7.3137 2.18957,13.8875 -0.26277,4.1525 -1.38673,11.767 -2.49768,16.9209 -1.95887,9.0877 -2.19321,9.546 -7.75383,15.1653 -7.8281,7.9106 -15.52482,10.6873 -30.96433,11.1707 -6.05,0.1894 -13.475,0.04 -16.5,-0.3328 z m -11.77998,-162.8312 c -3.09278,-0.4952 -5.45054,-1.8091 -8.5,-4.7369 -2.32101,-2.2284 -6.25896,-5.2189 -8.75099,-6.6455 -6.04656,-3.4613 -9.41052,-7.1329 -12.05783,-13.1604 -1.20781,-2.75 -3.48979,-6.8925 -5.07106,-9.2055 -3.77176,-5.5173 -4.85177,-11.7641 -4.78576,-27.681 0.0582,-14.0437 0.47675,-15.768 6.44562,-26.5562 3.57242,-6.4568 17.95543,-21.5372 21.5,-22.5424 1.375,-0.3899 6.49292,-2.5236 11.37315,-4.7415 8.72035,-3.9632 9.08197,-4.0347 21,-4.153 10.65084,-0.1057 13.10056,0.2032 20.12685,2.5384 14.14232,4.7002 21.26405,8.9722 28.75723,17.2503 6.0793,6.7161 7.14261,8.5499 10.59833,18.278 l 3.8411,10.8129 -0.72084,14 c -0.64978,12.6198 -1.06467,14.9023 -4.20862,23.1522 -3.92565,10.3012 -9.60593,17.8067 -16.19709,21.4016 -2.23856,1.221 -5.66762,3.9168 -7.62013,5.9907 -2.18124,2.3168 -5.07302,4.1533 -7.5,4.7629 -4.85377,1.2193 -42.33387,2.1793 -48.22996,1.2354 z m 2.53139,-196.0878 c -6.12226,-2.1066 -15.09567,-7.4287 -18.026,-10.6911 -0.97602,-1.0867 -2.2459,-4.8531 -2.82194,-8.3698 -1.29548,-7.9089 -2.53352,-11.2493 -4.99485,-13.4768 -2.50505,-2.267 -2.435,-7.0416 0.16591,-11.3079 1.13688,-1.8648 3.12918,-7.6784 4.42734,-12.9192 1.29816,-5.2407 3.21727,-10.69 4.26469,-12.1094 1.04741,-1.4194 5.81364,-5.3582 10.59161,-8.7528 9.85285,-7.0001 14.16142,-8.3311 26.94105,-8.3224 10.29658,0.01 14.42797,1.1378 23.17612,6.3436 10.4359,6.2101 16.71559,13.218 21.09115,23.5369 4.06212,9.5797 4.06108,10.6301 -0.0293,29.6139 -0.94805,4.4 -1.89221,8.9204 -2.09813,10.0453 -0.20592,1.1249 -3.64293,4.8514 -7.63781,8.2812 -10.11227,8.6817 -15.24802,10.1844 -34.65659,10.14 -11.92445,-0.027 -15.71244,-0.4009 -20.39325,-2.0115 z m 12.15895,-353.378 c -0.23264,-0.2326 -4.35294,-0.8548 -9.15622,-1.3826 l -8.73325,-0.9596 -6.26044,-5.7441 c -7.32925,-6.7247 -8.65437,-9.1787 -8.71535,-16.1402 -0.0367,-4.1843 -0.70111,-6.1243 -3.5451,-10.3505 -4.27208,-6.3483 -4.34755,-8.7925 -0.51404,-16.6502 1.64228,-3.3662 3.47095,-8.5345 4.06372,-11.4851 1.72634,-8.593 2.88025,-10.6336 7.56597,-13.3796 2.41955,-1.418 5.09235,-3.636 5.93956,-4.929 2.96783,-4.5295 10.69385,-6.91738 23.83833,-7.36774 15.61126,-0.53487 21.59857,1.02835 31.05713,8.10864 16.99513,12.7219 23.02803,28.4864 17.55159,45.8639 -1.09875,3.4865 -2.27431,8.6046 -2.61235,11.3736 -0.54962,4.5021 -1.33105,5.7903 -7.38882,12.1809 -7.74392,8.1694 -8.81482,8.5999 -25.42477,10.2195 -11.62935,1.1339 -16.97969,1.3284 -17.66596,0.6421 z m 20.64426,-13.6828 c 5.34358,-1.61 17.60901,-16.0745 19.46015,-22.949 0.73709,-2.7374 0.62112,-6.3833 -0.4244,-13.343 l -1.43863,-9.5765 -6.78032,-7.4863 c -3.72918,-4.1175 -8.15083,-7.9889 -9.82588,-8.6032 -1.67505,-0.6143 -6.90021,-1.359 -11.61148,-1.6548 -11.33268,-0.7115 -15.93272,1.2059 -22.2732,9.2844 -9.77998,12.4607 -12.83402,22.5099 -10.06813,33.1289 1.69233,6.4973 1.78144,6.6304 10.01155,14.9525 5.63652,5.6995 6.51775,6.2177 11.5,6.7632 12.70644,1.3912 15.32955,1.328 21.45034,-0.5162 z M 291.27793,921.52088 c -4.38589,-1.90683 -17.46837,-11.67624 -20.07706,-14.99264 -1.1656,-1.48183 -2.99412,-5.01938 -4.06338,-7.86123 -1.06925,-2.84186 -3.78761,-8.96821 -6.04079,-13.61411 L 257,876.60579 v -15.591 c 0,-17.50927 -0.10996,-17.14215 9.20773,-30.74123 5.0986,-7.44137 9.80131,-11.71337 16.81244,-15.27264 2.4639,-1.25083 5.70232,-3.29605 7.19647,-4.54494 2.87901,-2.40643 11.82789,-5.68217 20.53092,-7.51534 4.52479,-0.95308 6.10875,-0.825 11.5,0.92993 3.43884,1.11938 9.17744,2.52819 12.75244,3.13067 10.18879,1.7171 25.25659,9.52819 32.56407,16.88112 5.28905,5.32194 6.30571,7.01166 8.61929,14.32562 1.89634,5.99496 2.78313,11.4316 3.20116,19.62542 0.53274,10.44233 0.33914,12.25065 -2.46238,23 -3.01743,11.57778 -8.74456,24.12266 -13.2522,29.02799 -3.58257,3.89865 -13.68822,10.33985 -18.48915,11.78472 -6.4669,1.94625 -49.3675,1.84658 -53.90286,-0.12523 z m 46.4225,-10.81497 C 340.45576,909.17422 353,897.05985 353,895.93063 c 0,-0.459 1.95794,-2.18165 4.35099,-3.82811 3.7281,-2.565 4.71881,-4.03926 6.92029,-10.29804 3.43848,-9.77552 3.96694,-13.94511 2.68689,-21.1998 C 364.5572,846.99714 363.10487,844.09232 354.40655,835.5 332.96159,814.31638 332.32118,813.97855 317.5,816.03153 c -4.95,0.68566 -10.35,1.80013 -12,2.47661 -9.35781,3.83656 -25.93427,19.14812 -28.39991,26.23278 -0.71953,2.06749 -2.43058,5.422 -3.80232,7.45446 -6.53396,9.68115 -6.33301,20.93781 0.48391,27.10704 1.09253,0.98873 2.53924,3.77214 3.2149,6.18535 0.9431,3.36842 3.27598,6.47851 10.04273,13.38849 12.59362,12.86019 13.02483,13.03347 32.46069,13.04411 10.76242,0.006 16.72031,-0.39166 18.20043,-1.21446 z M 303.5,747.8982 c -1.1,-0.64423 -2.95126,-2.03079 -4.11391,-3.08123 -1.16265,-1.05045 -5.43219,-2.91898 -9.48787,-4.15231 -6.48628,-1.97246 -7.70879,-2.74096 -10.15544,-6.38393 -1.52982,-2.27785 -4.41011,-5.14808 -6.40065,-6.3783 -2.62434,-1.62193 -4.40979,-3.98047 -6.4955,-8.58041 -1.58199,-3.489 -4.47228,-8.43443 -6.42286,-10.98983 l -3.54652,-4.64619 0.31138,-17.69791 0.31137,-17.69791 3.58488,-3.96521 c 1.97169,-2.18086 4.44326,-6.35225 5.49238,-9.26976 1.14367,-3.18044 3.04954,-6.1556 4.75953,-7.42988 3.85745,-2.87455 7.80929,-6.82232 9.85013,-9.83996 1.04116,-1.53949 4.10363,-3.36846 8,-4.77776 3.4722,-1.25589 7.99906,-3.40651 10.0597,-4.77917 4.47485,-2.98086 9.77514,-4.12617 19.36689,-4.18489 9.73256,-0.0596 17.09305,1.49525 20.92898,4.42106 1.77024,1.35023 5.77545,3.58571 8.90047,4.96774 3.12502,1.38204 8.43045,5.00013 11.78986,8.04022 3.3594,3.04009 6.42012,5.52743 6.80159,5.52743 1.47388,0 6.15199,8.01967 7.37563,12.64402 0.70671,2.67079 2.14106,6.65598 3.18745,8.85598 1.60968,3.38432 1.89309,6.23184 1.84131,18.5 -0.0525,12.43871 -0.36219,15.21079 -2.17848,19.5 -1.1645,2.75 -2.88655,7.25 -3.82676,10 -2.37631,6.95037 -15.18921,19.31369 -24.93356,24.05869 -3.85,1.87475 -8.24368,4.40847 -9.76374,5.63048 -2.53555,2.0384 -4.0217,2.24903 -18,2.55111 -10.39191,0.22458 -15.87216,-0.0432 -17.23626,-0.84208 z m 26,-13.59978 c 2.2,-1.12803 7.32781,-3.11625 11.39513,-4.41827 5.01963,-1.60686 8.23188,-3.31247 10,-5.3097 1.43268,-1.61832 4.01041,-4.32121 5.72828,-6.00642 3.9884,-3.91257 5.47039,-6.89145 9.32047,-18.73463 2.8734,-8.83882 3.05008,-10.13811 2.14383,-15.76542 -0.54321,-3.373 -2.17141,-10.01367 -3.61823,-14.75704 -2.28261,-7.48352 -3.3805,-9.42734 -8.30003,-14.69525 -7.71144,-8.25754 -7.61679,-8.19386 -16.66945,-11.21626 -4.4,-1.46902 -9.8,-3.68627 -12,-4.92721 -5.02444,-2.83411 -9.42902,-2.30606 -24.89553,2.98464 -10.10029,3.45506 -11.34448,4.17669 -17.04659,9.88711 -3.66001,3.66535 -6.86779,7.98243 -7.92085,10.66003 -0.97339,2.475 -3.59838,7.54879 -5.83331,11.2751 -3.96201,6.60587 -4.05179,6.95779 -3.59412,14.08924 0.39403,6.13986 1.04167,8.2631 4.03389,13.2249 1.96048,3.25092 4.31674,8.26685 5.23615,11.14653 1.16612,3.65242 2.63159,5.90811 4.846,7.45907 1.7459,1.22283 3.70029,2.91673 4.34309,3.76424 0.6428,0.84751 1.7678,2.32565 2.5,3.28477 1.16419,1.52498 21.52186,9.93774 26.4994,10.9508 3.09106,0.62912 9.62442,-0.73889 13.83187,-2.89623 z m 74,520.19908 c 1.1,-0.7 6.8375,-6.0638 12.75,-11.9196 l 10.75,-10.6468 -0.022,-7.2156 c -0.0298,-9.804 -2.16878,-14.0715 -11.68642,-23.3159 -10.15982,-9.8682 -13.35933,-11.3496 -24.57374,-11.3776 -10.4803,-0.026 -14.48466,1.3914 -20.5504,7.2753 -7.1311,6.9174 -8.16748,9.8562 -8.16748,23.1603 v 11.5373 l 9.13638,10.0474 c 11.61618,12.7745 16.01276,15.2457 25.36362,14.2567 2.75,-0.2909 5.9,-1.1015 7,-1.8015 z m 36.17605,-898.33524 c 7.44478,-5.11128 9.16454,-8.08149 9.26751,-16.00596 0.0625,-4.81311 5.04026,-21.77858 8.68874,-29.61365 1.68028,-3.60839 2.35094,-6.84374 2.35793,-11.37504 0.007,-4.83552 0.71891,-7.9481 3.00977,-13.16761 1.65,-3.75937 3.0044,-7.4348 3.00977,-8.16761 0.005,-0.73282 1.13037,-3.73957 2.5,-6.68169 C 469.8794,268.20859 471,264.07161 471,261.95741 471,254.41504 483.70299,255 319.91235,255 H 173.26972 l -2.63486,2.07258 c -3.00848,2.36647 -3.36551,5.58141 -1.28287,11.55169 0.74359,2.13165 1.67077,6.32627 2.06039,9.32138 0.54983,4.22659 1.4784,6.29794 4.14802,9.25288 3.24584,3.59277 3.44093,4.21547 3.46314,11.05435 0.0129,3.98592 0.91294,10.59169 2,14.67949 1.08705,4.08781 1.97646,8.42562 1.97646,9.63958 0,1.21397 1.55595,3.9444 3.45766,6.06763 3.41574,3.81363 5.54234,10.05826 5.54234,16.27478 0,3.70506 3.20442,7.64159 8.34453,10.25099 2.28551,1.16025 5.24754,2.96255 6.5823,4.00511 2.35119,1.83648 5.90979,1.89216 114.17604,1.78621 l 111.74922,-0.10936 z M 471.01523,241.75 c 5.53853,-2.80731 7.65988,-6.43773 8.94087,-15.30113 1.34509,-9.30697 1.39894,-176.724137 0.0583,-181.398522 C 478.93298,41.279502 473.04362,34.645502 468.79966,32.417579 466.50416,31.212525 443.71206,31 316.77217,31 149.5821,31 164.58906,30.28917 160.91375,38.3825 c -1.78359,3.927601 -1.87084,8.466937 -1.89179,98.42468 -0.0223,95.78116 0.17749,101.45361 3.67569,104.35685 0.81149,0.67348 3.34899,1.53076 5.63889,1.90507 2.28991,0.37431 70.33061,0.73689 151.20157,0.80573 L 466.57622,244 Z M 71.833365,1622.6083 c -9.484215,-2.5542 -23.037586,-13.4587 -27.66648,-22.2594 -0.685417,-1.3032 -1.224419,-8.9901 -1.367329,-19.5 -0.2144,-15.7675 -0.04524,-17.7674 1.855831,-21.9402 2.107733,-4.6264 11.526376,-14.6885 18.744651,-20.0252 L 67.300077,1536 h 20.284862 c 11.795151,0 21.463051,0.4419 23.099961,1.0559 5.55127,2.0822 13.19674,10.9172 18.12414,20.9441 l 4.66849,9.5 -0.0965,11.5 c -0.0599,7.1316 -0.62537,12.9253 -1.48877,15.2523 -2.84267,7.6612 -21.55074,26.2874 -28.5458,28.4208 -5.110638,1.5588 -25.64122,1.5165 -31.513095,-0.065 z M 82,733.30606 C 78.565708,732.72693 68.282053,729.20485 65.107923,727.52064 61.243421,725.47012 51.035727,715.14381 46.75,708.94939 c -3.737022,-5.40134 -3.750632,-5.45821 -3.93248,-16.43474 -0.335552,-20.2541 -0.03022,-22.49336 3.732105,-27.3709 1.848124,-2.39594 4.087262,-6.54516 4.975862,-9.22048 1.919478,-5.77901 6.082165,-9.62625 11.25395,-10.40114 2.04631,-0.30659 7.866303,-1.8995 12.933319,-3.53979 5.067016,-1.64029 10.467016,-2.9749 12,-2.96581 1.532984,0.009 7.53899,1.51644 13.346684,3.34966 10.08964,3.18483 10.87515,3.64012 17.65585,10.23347 6.11444,5.94549 7.33472,7.7306 8.81854,12.90034 0.94717,3.3 2.78954,8.12254 4.09415,10.71676 3.53127,7.02192 3.16501,12.57032 -1.62798,24.66177 -2.2,5.55002 -4,10.58063 -4,11.17914 0,0.59851 -3.27795,4.43053 -7.28433,8.5156 l -7.28434,7.42741 -6.96566,0.89385 c -3.83112,0.49163 -9.344829,1.84147 -12.25269,2.99967 -2.907862,1.15819 -5.832862,2.04452 -6.5,1.96962 C 85.045841,733.78892 83.375,733.53793 82,733.30606 Z"
       id="path3562" />
  </g>
</svg>
