<?xml version="1.0" encoding="UTF-8" standalone="no"?>
<!-- Created with Inkscape (http://www.inkscape.org/) -->

<svg
   version="1.1"
   id="svg3676"
   width="515"
   height="2340"
   viewBox="0 0 515 2340"
   sodipodi:docname="c+.svg"
   inkscape:version="1.1.1 (3bf5ae0d25, 2021-09-20)"
   xmlns:inkscape="http://www.inkscape.org/namespaces/inkscape"
   xmlns:sodipodi="http://sodipodi.sourceforge.net/DTD/sodipodi-0.dtd"
   xmlns="http://www.w3.org/2000/svg"
   xmlns:svg="http://www.w3.org/2000/svg">
  <defs
     id="defs3680" />
  <sodipodi:namedview
     id="namedview3678"
     pagecolor="#ffffff"
     bordercolor="#666666"
     borderopacity="1.0"
     inkscape:pageshadow="2"
     inkscape:pageopacity="0.0"
     inkscape:pagecheckerboard="0"
     showgrid="false"
     inkscape:zoom="0.33418803"
     inkscape:cx="-86.777494"
     inkscape:cy="1170"
     inkscape:window-width="1920"
     inkscape:window-height="986"
     inkscape:window-x="-11"
     inkscape:window-y="-11"
     inkscape:window-maximized="1"
     inkscape:current-layer="g3682" />
  <g
     inkscape:groupmode="layer"
     inkscape:label="Image"
     id="g3682">
    <path
       style="fill:#000000"
       d="m 298.24138,2326.6748 c -5.94939,-3.3041 -6.92457,-8.6982 -4.82245,-26.6748 0.86825,-7.425 1.57919,-15.4125 1.57986,-17.75 L 295,2278 h -22.25 c -20.29034,0 -22.53146,-0.1754 -25.44574,-1.9523 -4.02262,-2.4528 -5.25438,-7.6073 -3.20358,-13.4061 2.86492,-8.1008 10.51864,-10.6371 26.67707,-8.8404 5.94791,0.6614 13.83116,1.2025 17.51832,1.2025 H 295 l 0.006,-16.25 c 0.006,-17.3314 0.90258,-22.8326 4.34027,-26.6289 4.58513,-5.0635 13.51786,-6.6735 17.79337,-3.2071 2.34736,1.9032 2.36078,2.0352 2.36078,23.2331 v 21.3189 l 11.5,-0.3173 c 8.6066,-0.2376 12.60128,-0.7994 15.87712,-2.2331 6.12912,-2.6824 13.28954,-2.5383 16.61947,0.3344 4.448,3.8373 5.41928,13.8341 1.89117,19.4648 -2.69265,4.2974 -4.96956,4.7622 -25.88776,5.2852 l -20,0.5 v 21.5 c 0,23.3379 -0.54868,26.2016 -5.5,28.706 -3.20043,1.6188 -12.82187,1.5997 -15.75862,-0.031 z M 205.69165,2168 l -29.80835,-0.5 -1.84096,-2.4422 c -1.01253,-1.3433 -2.32054,-4.0433 -2.90669,-6 -0.75082,-2.5065 -1.0671,-265.3141 -1.07034,-889.3875 -0.003,-487.20636 -0.3039,-887.48136 -0.66971,-889.50002 -0.36582,-2.01865 -1.68481,-5.47028 -2.93109,-7.67028 -2.68902,-4.74681 -4.46237,-12.60144 -4.47009,-19.79922 -0.007,-6.75784 -1.49737,-11.95662 -4.42408,-15.43482 C 154.58906,333.72291 150,315.50247 150,307.20861 c 0,-5.40292 -0.35481,-6.44406 -3.46446,-10.16607 -1.90545,-2.28067 -3.68194,-5.58575 -3.94776,-7.34461 -0.26581,-1.75886 -0.75206,-5.20381 -1.08054,-7.65545 -0.32848,-2.45163 -1.51532,-6.50163 -2.63743,-9 -1.81001,-4.03 -1.95838,-5.67068 -1.31514,-14.54248 0.39878,-5.5 0.65376,-56.72091 0.56664,-113.82425 -0.10733,-70.342407 0.18272,-105.091102 0.8994,-107.752669 2.01749,-7.49236 -12.37478,-6.894123 166.91871,-6.938237 177.02112,-0.04356 165.04993,-0.45824 166.7947,5.777806 0.42124,1.505542 0.76588,53.379393 0.76588,115.27522 v 112.53788 l -4.23778,8.51378 c -4.30904,8.65693 -8.54626,23.53826 -9.79784,34.41047 -0.4251,3.69276 -1.77804,7.92971 -3.51834,11.01825 -1.5552,2.76004 -3.73148,9.15953 -4.83618,14.2211 -1.97637,9.05538 -3.16396,12.29357 -5.59676,15.26065 -4.21137,5.13626 -3.98604,-40.32474 -4.5131,910.5 -0.38843,700.7281 -0.76896,902.602 -1.70537,904.6977 -2.6948,6.0312 3.30959,5.687 -104.80177,6.0082 -54.44607,0.1617 -112.40662,0.069 -128.80121,-0.2059 z m 213.29548,-14.3165 c 4.93218,-1.721 7.03269,-3.0731 8.76314,-5.6409 l 2.27599,-3.3773 -0.30293,-443.5827 C 429.47396,1335.934 429.18141,1255.555 428.0688,1246.5 c -1.1823,-9.6222 -1.13673,-13.8808 0.36384,-34 1.5876,-21.286 1.69129,-52.8717 1.3914,-423.8366 L 429.5,387.82681 l -2.76595,-2.37915 c -1.52126,-1.30854 -4.44626,-2.81788 -6.5,-3.3541 -2.28816,-0.59742 -47.71924,-1.08222 -117.32726,-1.25199 -107.86221,-0.26308 -113.73146,-0.18647 -116.33352,1.51847 -1.50718,0.98754 -3.38174,3.33065 -4.1657,5.20692 -2.13323,5.10554 -2.13487,1756.13454 -0.002,1760.23454 1.54805,2.9753 5.26254,6.64 7.59408,7.4923 0.825,0.3016 51.225,0.5719 112,0.6007 l 110.5,0.053 6.48713,-2.2635 z M 225.53889,1989.4301 c -9.56021,-1.8979 -14.29866,-3.9592 -19.01752,-8.2732 -2.21175,-2.0219 -5.3024,-4.5981 -6.8681,-5.7248 -4.32907,-3.1151 -5.6543,-9.8965 -5.64769,-28.9 0.003,-8.8177 0.49117,-17.8321 1.08468,-20.0321 0.80632,-2.9888 3.28292,-6.1873 9.79702,-12.6526 10.89132,-10.8098 13.76237,-11.8674 32.04422,-11.8035 6.91268,0.024 15.93599,0.4336 20.05181,0.9098 6.48,0.7498 7.75369,1.2318 9.5,3.5952 1.10918,1.5011 3.98874,4.689 6.39902,7.0841 5.0798,5.048 7.36614,10.9534 9.82105,25.367 3.09976,18.1997 -0.0747,27.3158 -13.44265,38.6027 -3.1684,2.6751 -6.9605,6.1161 -8.42688,7.6466 -4.26526,4.4517 -8.67753,5.7618 -19.05173,5.6567 -5.10517,-0.052 -12.41462,-0.7158 -16.24323,-1.4759 z m 55.61579,-182.938 c -2.99891,-1.3961 -8.38831,-5.4262 -12.27747,-9.1808 -9.24413,-8.9245 -10.28555,-12.3395 -9.67708,-31.7327 0.47682,-15.1974 0.77692,-16.2567 8.09659,-28.5786 3.37177,-5.676 9.01716,-10.2331 17.70328,-14.2904 3.65126,-1.7055 6.97896,-2.1805 17.64345,-2.5185 8.40156,-0.2662 14.41186,0 16.65919,0.7438 2.26384,0.7471 7.28101,4.9347 14.08981,11.76 13.34126,13.3736 14.85626,16.6546 15.37844,33.3051 l 0.36065,11.5 -4.10346,8.8497 c -2.68725,5.7955 -5.8681,10.7156 -9.21653,14.256 -7.0854,7.4918 -10.56614,8.3969 -32.24305,8.3845 -16.0756,-0.01 -17.37945,-0.1545 -22.41382,-2.4981 z m -1.91676,-162.369 c -6.84646,-2.0194 -15.12092,-7.8872 -23.07087,-16.3604 -6.51278,-6.9414 -8.10691,-9.749 -9.1401,-16.0971 -0.60191,-3.6983 -2.11236,-7.2901 -4.56164,-10.8473 -3.41129,-4.9545 -3.63345,-5.7287 -3.24785,-11.3183 0.31663,-4.5897 1.16242,-7.1625 3.59823,-10.9458 1.75137,-2.7202 3.18431,-5.8881 3.18431,-7.0399 0,-5.1612 3.41502,-14.3315 7.9608,-21.3772 7.72162,-11.9679 7.6289,-11.876 13.78044,-13.6633 3.16732,-0.9202 7.84726,-3.2057 10.39987,-5.0787 5.32802,-3.9096 10.99842,-5.26 23.08762,-5.4983 9.65544,-0.1903 16.1948,1.4538 29.27127,7.3592 7.33231,3.3113 10.31276,5.3781 16.08451,11.1542 3.89649,3.8994 7.58964,8.0366 8.20701,9.1937 0.61738,1.1572 2.71684,4.0123 4.66549,6.3446 L 363,1564.1892 v 21.5679 21.5678 l -2.90237,4.5876 c -1.59631,2.5231 -3.71156,7.2006 -4.70057,10.3944 -1.55989,5.0374 -2.76899,6.6758 -9.12327,12.3629 -10.68458,9.5626 -14.26264,10.5367 -40.27379,10.9638 -17.66708,0.2901 -21.36536,0.081 -26.76208,-1.5105 z m 4.54832,-193.4043 c -2.48093,-0.6015 -6.69254,-3.5561 -12.687,-8.9005 -11.40443,-10.1678 -12.1159,-11.9823 -12.05569,-30.7464 0.055,-17.1412 0.80243,-20.879 5.55475,-27.7791 4.76973,-6.9255 7.96777,-10.1545 14.04125,-14.1774 6.29337,-4.1686 10.48655,-5.1765 22.12352,-5.3177 12.11665,-0.147 15.8467,0.8936 25.25673,7.0463 10.50614,6.8694 16.07506,12.0921 19.5139,18.3006 2.87745,5.195 2.9663,5.7598 2.9663,18.8554 0,12.7128 -0.17248,13.9082 -2.9578,20.5 -3.74076,8.853 -14.02043,20.8897 -18.80523,22.0195 -4.68077,1.1053 -38.5652,1.2625 -42.95073,0.1993 z M 359,1276.3117 c -2.19452,-0.9262 -16.1101,-10.7922 -18.83696,-13.3551 C 334.81172,1257.9269 332,1246.4879 332,1229.7468 c 0,-9.8876 0.27889,-11.5443 3.04133,-18.0663 4.18506,-9.8808 10.60373,-16.7501 18.95867,-20.2899 6.00502,-2.5441 7.742,-2.7847 22.80991,-3.1593 16.01881,-0.3982 16.42626,-0.356 22.82798,2.3648 5.04443,2.1439 7.18017,3.7326 9.44664,7.0268 1.61071,2.3411 4.67928,5.2404 6.81903,6.4431 4.65634,2.617 5.73873,4.7517 7.21268,14.2252 1.37646,8.8468 0.65932,32.1665 -1.10366,35.8882 -1.33036,2.8084 -10.69847,10.2462 -22.46491,17.836 l -6.95233,4.4846 -16.04767,0.2224 c -8.82622,0.1223 -16.72267,-0.062 -17.54767,-0.4107 z m -59.5,-178.357 c -2.75,-1.0294 -5.93082,-1.8902 -7.0685,-1.9131 -1.13767,-0.023 -4.37679,-0.7271 -7.19805,-1.5649 -4.21982,-1.2532 -6.79717,-3.1597 -14.5326,-10.75 -11.67729,-11.4583 -11.97166,-12.3253 -11.52419,-33.9425 l 0.32334,-15.6204 3.21822,-4.3319 c 1.77001,-2.3825 4.76125,-6.6308 6.64718,-9.4406 4.20964,-6.2718 7.34662,-8.5726 15.67478,-11.4969 11.13874,-3.9112 29.10928,-2.5088 39.89984,3.1138 5.67949,2.9594 16.26141,13.2561 19.96474,19.4266 3.10528,5.1741 3.44607,6.5309 3.87438,15.4256 0.77196,16.0314 -3.3168,29.3401 -12.06857,39.2827 -5.43094,6.1698 -7.55455,7.3585 -14.89173,8.3355 -2.57464,0.3428 -6.84964,1.7235 -9.5,3.0682 -5.63332,2.8581 -6.22256,2.8768 -12.81884,0.4079 z m -19,-165.62874 c -6.06947,-0.75742 -7.13527,-1.38348 -14,-8.22382 -16.91145,-16.85136 -17.03837,-17.01892 -18.79978,-24.81867 -0.89536,-3.96479 -2.76314,-9.00698 -4.15061,-11.20487 -3.05193,-4.83458 -4.8714,-12.33701 -3.97819,-16.40375 0.36072,-1.64237 2.10738,-6.01494 3.88145,-9.71681 1.77408,-3.70188 3.80961,-9.48267 4.5234,-12.8462 1.26574,-5.96446 2.9037,-8.53516 8.03747,-12.61443 1.38256,-1.09858 3.40756,-3.12241 4.5,-4.49741 1.09244,-1.375 4.70185,-5.06356 8.02091,-8.19681 5.61782,-5.30332 6.58227,-5.80992 13.96296,-7.33445 4.36058,-0.9007 9.06999,-2.21205 10.46536,-2.91411 3.73667,-1.88006 9.98854,-2.55672 14.53703,-1.57339 2.2,0.47561 8.08703,1.74882 13.08229,2.82935 4.99526,1.08053 10.41783,2.65523 12.05016,3.49934 1.63232,0.84411 6.9189,5.54955 11.74795,10.45653 6.80909,6.91898 9.80955,10.92103 13.36594,17.82767 l 4.58584,8.90587 0.44153,19.3362 0.44152,19.3362 -3.04084,4.23429 c -1.67246,2.32886 -4.21926,6.90257 -5.65957,10.1638 -3.22696,7.30672 -6.73828,11.01103 -16.53241,17.44106 -6.57189,4.31457 -8.62581,5.12836 -15.0466,5.96166 -7.04855,0.91478 -36.00335,1.15547 -42.43581,0.35275 z m 8,-176.89482 c -3.85,-1.38447 -9.025,-3.17031 -11.5,-3.96853 -12.11849,-3.90837 -12.72077,-4.30973 -19.18482,-12.78462 -3.42995,-4.49694 -7.42749,-11.10164 -8.88342,-14.67712 -1.45592,-3.57548 -4.13085,-9.42587 -5.94428,-13.00087 -4.70246,-9.27044 -5.28364,-18.50863 -1.61931,-25.73984 1.43297,-2.82784 3.56421,-8.65572 4.73609,-12.95084 2.90093,-10.63239 4.03519,-12.55719 12.06842,-20.47961 5.08915,-5.01896 8.62584,-7.54436 13.12669,-9.37322 3.38839,-1.37683 7.93281,-3.73029 10.0987,-5.22991 L 285.33606,634.5 h 19.08197 c 21.49304,0 22.23287,0.19227 30.5966,7.95149 2.48304,2.30358 6.75804,5.47051 9.5,7.03762 7.4877,4.27944 8.2533,5.17187 13.28378,15.48434 l 4.6471,9.52655 0.38198,19.17663 c 0.46083,23.13508 -0.0981,25.39981 -9.26853,37.55764 C 347.64961,739.06864 338.77339,748 336.89672,748 c -2.4053,0 -12.21173,4.46889 -15.44523,7.03855 -3.63076,2.88536 -4.01201,2.96079 -14.83899,2.93563 -9.31064,-0.0216 -12.24753,-0.43397 -18.1125,-2.54304 z M 420,367.64013 c 2.475,-1.24228 5.51387,-3.7631 6.75304,-5.60181 2.50158,-3.71189 5.90751,-14.28263 6.87409,-21.33459 0.5918,-4.31765 1.34792,-5.91803 5.62571,-11.90725 0.9808,-1.37318 2.18269,-5.84436 2.72876,-10.15134 1.03028,-8.12605 1.9975,-10.74952 5.30038,-14.37673 1.48846,-1.63461 2.07936,-3.77473 2.20887,-8 0.0972,-3.17263 0.92124,-8.24341 1.83111,-11.26841 0.90987,-3.025 1.65964,-7.88295 1.66617,-10.79545 0.01,-4.29842 -0.45028,-5.75761 -2.44268,-7.75 L 448.09091,264 305.79545,264.0435 c -78.2625,0.024 -144.29378,0.42923 -146.73619,0.90061 -2.4424,0.47137 -5.0299,1.66279 -5.75,2.64757 -2.15772,2.95086 -1.5812,10.40632 1.15284,14.90827 1.33606,2.2 3.11971,5.19786 3.96367,6.6619 0.84396,1.46405 2.21844,8.51478 3.05439,15.66831 1.67544,14.33735 1.87565,15.12148 5.1498,20.16979 1.24848,1.925 3.572,8.31183 5.16337,14.19297 3.01748,11.15145 7.00276,18.97157 13.33997,26.17634 l 3.6333,4.13069 20.3667,0.5 c 11.20168,0.275 62.2167,0.36474 113.3667,0.19942 l 93,-0.30059 4.5,-2.2587 z M 454.5,251 c 1.76624,-0.88312 3.93144,-3.34739 5.26488,-5.99208 l 2.26487,-4.49207 -0.26487,-94.00793 C 461.46346,39.531961 462.09986,47.199719 453.15703,42.794202 L 448.5,40.5 303.1632,40.236801 157.8264,39.973602 l -3.28041,3.280411 c -2.28906,2.289053 -3.62275,4.876662 -4.4132,8.56242 C 149.33618,55.530866 149,84.036629 149,147.86772 c 0,97.511 0.0321,98.16435 5.06487,103.19715 1.92428,1.92428 4.25101,1.95063 149.6949,1.6949 C 432.72978,252.533 451.88115,252.30943 454.5,251 Z M 56,1632.714 c -2.475,-0.704 -7.425,-3.0313 -11,-5.1718 -3.575,-2.1404 -7.488371,-4.4826 -8.69638,-5.2049 -1.208009,-0.7222 -4.002392,-5.0311 -6.20974,-9.5752 -6.935911,-14.2786 -7.857145,-32.597 -2.100215,-41.7621 1.554641,-2.475 3.563357,-6.3 4.463813,-8.5 2.015242,-4.9237 8.691702,-11.9508 14.042522,-14.7801 3.67674,-1.9441 5.6163,-2.1188 24,-2.1618 16.161457,-0.038 20.531641,0.2473 22.770015,1.4859 4.297378,2.378 18.393325,16.7474 20.416675,20.8127 1.50856,3.031 1.81331,6.1642 1.81331,18.6433 v 15 l -5,9.9724 c -4.77262,9.519 -5.31834,10.182 -12,14.5788 -3.85,2.5334 -8.575,5.1795 -10.5,5.8802 -5.056535,1.8407 -26.442025,2.3637 -32,0.7826 z M 66.598167,741.92462 c -2.129718,-1.14146 -7.142375,-2.64405 -11.139238,-3.33909 -6.82109,-1.18615 -7.708093,-1.6557 -14.454775,-7.65179 -3.953263,-3.51345 -7.87182,-7.74837 -8.707905,-9.41092 -0.836086,-1.66255 -2.932276,-4.51031 -4.658202,-6.32836 L 24.5,711.88892 v -15.8639 c 0,-14.8303 0.139754,-16.01574 2.144982,-18.19446 1.17974,-1.28181 3.295189,-4.04836 4.700998,-6.1479 1.405809,-2.09954 5.696719,-6.72515 9.535356,-10.27914 6.669096,-6.17456 7.449645,-6.59385 17.559526,-9.43266 C 64.259965,650.33689 70.587114,649 72.501193,649 c 5.439646,0 20.91601,6.30716 27.006919,11.00626 3.318978,2.56057 7.603418,7.41052 10.969058,12.4169 L 116,680.63832 v 15.64746 15.64746 L 111.5,717 c -2.475,2.78672 -4.5,5.41775 -4.5,5.84673 0,1.78392 -14.550887,15.21666 -17.403683,16.06631 -1.702975,0.5072 -5.672575,1.85926 -8.821334,3.00457 -7.162485,2.60525 -9.327069,2.60632 -14.176816,0.007 z"
       id="path3761" />
  </g>
</svg>
