<?xml version="1.0" encoding="UTF-8" standalone="no"?>
<!-- Created with Inkscape (http://www.inkscape.org/) -->

<svg
   version="1.1"
   id="svg7338"
   width="515"
   height="2340"
   viewBox="0 0 515 2340"
   sodipodi:docname="c#++.svg"
   inkscape:version="1.1.1 (3bf5ae0d25, 2021-09-20)"
   xmlns:inkscape="http://www.inkscape.org/namespaces/inkscape"
   xmlns:sodipodi="http://sodipodi.sourceforge.net/DTD/sodipodi-0.dtd"
   xmlns="http://www.w3.org/2000/svg"
   xmlns:svg="http://www.w3.org/2000/svg">
  <defs
     id="defs7342" />
  <sodipodi:namedview
     id="namedview7340"
     pagecolor="#ffffff"
     bordercolor="#666666"
     borderopacity="1.0"
     inkscape:pageshadow="2"
     inkscape:pageopacity="0.0"
     inkscape:pagecheckerboard="0"
     showgrid="false"
     inkscape:zoom="0.33418803"
     inkscape:cx="-86.777494"
     inkscape:cy="1170"
     inkscape:window-width="1920"
     inkscape:window-height="986"
     inkscape:window-x="-11"
     inkscape:window-y="-11"
     inkscape:window-maximized="1"
     inkscape:current-layer="g7344" />
  <g
     inkscape:groupmode="layer"
     inkscape:label="Image"
     id="g7344">
    <path
       style="fill:#000000"
       d="m 287.94309,2332.9431 c -1.93262,-1.9326 -2.0147,-2.7786 -1.35834,-14 L 287.28333,2307 H 274.71309 C 260.81861,2307 259,2306.3057 259,2301.0012 c 0,-1.9233 0.89813,-3.5643 2.75,-5.0246 2.52854,-1.994 3.67612,-2.1407 14.25,-1.8226 l 11.5,0.346 0.5,-11.1021 c 0.31765,-7.053 0.98109,-11.6796 1.8191,-12.6857 1.83913,-2.208 6.63873,-3.0727 9.26211,-1.6687 2.103,1.1255 2.16985,1.5844 1.53872,10.563 -0.91271,12.9844 -0.45509,14.3935 4.67459,14.3935 2.24274,0 6.93462,-0.7165 10.42641,-1.5922 5.82724,-1.4614 6.55119,-1.4595 8.81389,0.023 1.99553,1.3075 2.46518,2.4448 2.46518,5.9697 0,6.3405 -1.32092,7.0143 -14.89807,7.5994 l -11.60193,0.5 0.36986,12.1301 c 0.34426,11.2907 0.22314,12.2769 -1.75,14.25 -2.79972,2.7998 -8.40842,2.8313 -11.17677,0.063 z m 0,-80 c -1.93262,-1.9326 -2.0147,-2.7786 -1.35834,-14 L 287.28333,2227 H 274.71309 C 260.81861,2227 259,2226.3057 259,2221.0012 c 0,-1.9233 0.89813,-3.5643 2.75,-5.0246 2.52854,-1.994 3.67612,-2.1407 14.25,-1.8226 l 11.5,0.346 0.5,-11.1021 c 0.31765,-7.053 0.98109,-11.6796 1.8191,-12.6857 1.83913,-2.208 6.63873,-3.0727 9.26211,-1.6687 2.103,1.1255 2.16985,1.5844 1.53872,10.563 -0.91271,12.9844 -0.45509,14.3935 4.67459,14.3935 2.24274,0 6.93462,-0.7165 10.42641,-1.5922 5.82724,-1.4614 6.55119,-1.4595 8.81389,0.023 1.99553,1.3075 2.46518,2.4448 2.46518,5.9697 0,6.3405 -1.32092,7.0143 -14.89807,7.5994 l -11.60193,0.5 0.36986,12.1301 c 0.34426,11.2907 0.22314,12.2769 -1.75,14.25 -2.79972,2.7998 -8.40842,2.8313 -11.17677,0.063 z m -91.62832,-94.9675 c -15.02073,-0.5187 -15.23197,-0.5579 -19.5,-3.6229 -2.37312,-1.7043 -4.84358,-4.1683 -5.48991,-5.4757 -1.55693,-3.1493 -1.65573,-71.9787 -1.45536,-1013.9222 0.16086,-756.23451 0.13051,-769.64167 -1.75457,-775.12076 -1.05505,-3.06654 -2.38818,-8.59387 -2.96252,-12.28296 -0.67769,-4.35297 -2.08391,-8.34734 -4.00607,-11.37925 -2.4643,-3.88707 -3.3123,-7.00564 -5.0483,-18.56539 -1.76042,-11.7224 -2.62061,-14.84868 -5.50444,-20.00546 -2.23612,-3.99855 -4.28719,-9.97049 -5.93178,-17.27115 -1.3826,-6.13759 -3.94246,-14.46014 -5.6886,-18.49454 -7.58699,-17.52964 -6.8669,-3.75042 -6.65934,-127.4279 0.17221,-102.618378 0.31415,-111.141232 1.89913,-114.036209 0.94216,-1.72085 2.45466,-3.413414 3.36112,-3.761254 2.83287,-1.087074 325.54664,-0.698405 329.50013,0.396843 6.30193,1.745845 8.02583,4.627117 8.77016,14.658185 C 476.20499,36.52423 476.275,86.85 476,143.5 l -0.5,103 -3.20412,4 c -2.68456,3.35139 -3.30474,5.13507 -3.82472,11 -0.34133,3.85 -1.44573,9.925 -2.45423,13.5 -1.00849,3.575 -2.15655,8.05781 -2.55125,9.9618 -0.3947,1.90399 -1.86085,5.18933 -3.25813,7.30076 -2.00098,3.02368 -2.68387,5.64408 -3.21561,12.33893 -0.65672,8.26839 -0.78841,8.61542 -4.83352,12.7371 -3.66452,3.73386 -4.15842,4.78498 -4.15842,8.84989 0,2.53703 -0.9,9.87721 -2,16.31152 -1.98981,11.63912 -2,16.26499 -2,907.6315 0,754.2813 -0.21559,896.4487 -1.36357,899.1962 -1.62811,3.8966 -4.90735,6.2216 -10.7936,7.6525 -4.61643,1.1222 -207.07667,1.9779 -235.52806,0.9954 z m 228.22717,-16.1404 c 2.74662,-2.0156 5.77579,-4.5288 6.73148,-5.5848 1.646,-1.8188 1.71594,-25.4851 1.32655,-448.8352 -0.22608,-245.8034 -0.42746,-448.4902 -0.4475,-450.4152 -0.02,-1.925 0.05,-6.9508 0.15554,-11.1684 0.1056,-4.2176 -0.15301,-8.0126 -0.57468,-8.4333 -1.80625,-1.8022 -2.72252,1.8286 -2.81207,11.1432 -0.10891,11.3275 -0.84617,12.8226 -7.16124,14.5231 -2.75479,0.7418 -4.41914,1.9688 -5.5912,4.1218 -3.0192,5.5463 -6.0475,8.5108 -12.96063,12.6878 -8.41468,5.0842 -15.13303,6.4464 -29.40266,5.9613 l -10.69447,-0.3635 -5.96913,-4.2095 c -3.28303,-2.3153 -7.79937,-4.9419 -10.03633,-5.8369 -5.24107,-2.0971 -7.14508,-5.3181 -11.15075,-18.8639 -3.02976,-10.2456 -3.19743,-11.6072 -2.64752,-21.5 0.87492,-15.7399 2.55747,-20.2215 10.45731,-27.8538 10.65766,-10.2967 11.58068,-10.602 33.33317,-11.027 l 18.59782,-0.3633 5.90218,2.9909 c 7.13584,3.6162 9.25562,5.8313 13.27024,13.8667 2.0591,4.1214 3.84132,6.378 5.35858,6.785 1.25036,0.3354 4.01393,1.1336 6.14129,1.7738 5.59278,1.683 6.75128,-0.2838 6.61713,-11.234 -0.0573,-4.675 -0.11051,-186.025 -0.11829,-403 -0.008,-216.975 -0.32238,-398.16956 -0.69911,-402.65458 -0.76556,-9.11406 -1.93171,-11.09206 -8.66765,-14.70183 L 419.5,367.5 307,367.513 c -110.24144,0.0128 -112.57975,0.0529 -116.47216,2 -2.2153,1.10816 -4.86907,3.53502 -6,5.48699 l -2.02784,3.5 v 772.57791 772.5778 l 2.80089,3.6722 c 5.35158,7.0162 9.65337,3.856 12.69754,-9.3279 1.81604,-7.865 3.50509,-10.7691 9.9869,-17.1707 7.84624,-7.7493 11.76251,-8.831 31.94617,-8.8237 8.56268,0 17.1435,0.4467 19.0685,0.9859 1.925,0.5391 7.59633,4.3366 12.60296,8.4388 11.42324,9.3597 13.24937,12.982 14.09782,27.9645 0.68985,12.1819 -0.55674,17.0214 -7.40938,28.7646 -5.19502,8.9025 -6.49539,10.2095 -15.48016,15.5589 -8.66278,5.1577 -16.03812,6.7065 -28.54992,5.9954 -12.97935,-0.7377 -16.35036,-1.9001 -23.30109,-8.0343 -3.22783,-2.8487 -7.04758,-6.0807 -8.48833,-7.1822 -1.86028,-1.4223 -3.01831,-3.7183 -3.99532,-7.9212 -1.95053,-8.3909 -3.27988,-11.1653 -5.9279,-12.3719 -3.51285,-1.6005 -6.22883,0.9097 -8.21491,7.5925 -1.53515,5.1656 -1.70153,14.049 -1.76438,94.2034 l -0.0694,88.5 2.32884,3.2651 c 2.76344,3.8744 7.17146,6.3854 12.67116,7.2182 2.2,0.3331 53.06082,0.5856 113.02404,0.5612 l 109.02403,-0.044 4.99387,-3.6648 z M 290.5,1798.0026 c -8.15727,-1.6634 -11.92403,-3.9703 -18.81911,-11.5257 -3.75051,-4.1096 -7.23801,-8.9327 -7.75,-10.7179 C 263.4189,1773.9738 263,1764.0578 263,1753.7234 c 0,-17.9041 0.1143,-19.0154 2.42442,-23.5742 2.51161,-4.9565 7.13542,-9.2591 16.57558,-15.4241 6.14077,-4.0103 13.36382,-5.7251 24.1158,-5.7251 6.28045,0 7.5334,0.4073 18.06634,5.8728 9.69334,5.0298 11.82024,6.5888 14.81786,10.8608 1.925,2.7434 4.50633,6.349 5.7363,8.0123 4.97901,6.7335 6.26375,11.6746 6.26291,24.087 -7.3e-4,10.7971 -0.21702,12.1242 -2.90056,17.7966 -1.59488,3.3713 -3.4045,6.4415 -4.02139,6.8228 -0.61689,0.3812 -2.89825,3.0981 -5.06968,6.0374 -5.81265,7.8683 -11.07328,9.6256 -30.00758,10.0237 -7.975,0.1676 -16.3,-0.062 -18.5,-0.5108 z m -5.09284,-162.8956 -8.09284,-0.607 -10.72028,-9.9318 c -11.00429,-10.1949 -22.0172,-24.0701 -23.66496,-29.8155 -1.27677,-4.4518 -1.17408,-29.974 0.13454,-33.4376 0.58499,-1.5483 2.13144,-3.9401 3.43656,-5.3151 1.30511,-1.375 3.75276,-5.5823 5.43922,-9.3496 4.27368,-9.5466 12.8096,-19.0742 18.9019,-21.0977 2.58265,-0.8578 6.96658,-3.0889 9.74205,-4.958 6.7393,-4.5386 11.03045,-5.5838 22.91665,-5.5822 8.02563,0 11.45033,0.4937 17.34579,2.4945 4.04018,1.3711 7.91995,2.493 8.62169,2.493 2.52736,0 16.25182,9.8226 21.58464,15.4482 6.64754,7.0124 6.3386,6.4739 10.5305,18.357 3.32844,9.4354 3.41738,10.0926 3.41738,25.2498 0,14.8853 -0.13392,15.9294 -3.07878,24.0036 -4.7326,12.9758 -6.53603,15.5271 -15.60228,22.0721 -8.63872,6.2364 -13.37992,8.379 -20.48556,9.2576 -7.42938,0.9186 -31.9487,1.3545 -40.42622,0.7187 z m 11.5159,-194.9731 c -11.34027,-0.5716 -13.15512,-0.9299 -18.45704,-3.6443 -7.03333,-3.6008 -11.79828,-9.3848 -14.01607,-17.0138 -2.14856,-7.3908 -1.73502,-43.428 0.55005,-47.9331 0.825,-1.6265 5.80162,-6.2343 11.05916,-10.2397 10.68994,-8.1439 14.16884,-9.303 27.92078,-9.303 9.49723,0 16.09048,2.1353 25.78953,8.3522 7.77045,4.9808 11.91447,9.8709 17.84468,21.0577 l 3.66301,6.91 -0.56477,12.09 c -0.72123,15.4398 -2.24642,20.3292 -8.3953,26.9133 -2.65902,2.8472 -5.50565,6.2072 -6.32584,7.4667 -3.19037,4.8989 -15.22889,6.5457 -39.06819,5.344 z M 295,1084.0924 c -16.06698,-3.8396 -15.76691,-3.7024 -22.74577,-10.4038 -8.60244,-8.2605 -9.25578,-10.7414 -9.24865,-35.1201 0.003,-10.4877 0.44341,-20.6444 0.97854,-22.5706 0.67972,-2.4465 3.26053,-5.5739 8.56279,-10.3761 8.75405,-7.92851 14.06915,-10.08062 27.60974,-11.17929 17.19025,-1.39481 32.27682,5.81569 42.3661,20.24849 7.16269,10.2464 8.71981,15.613 8.21378,28.309 -0.54482,13.669 -2.86008,21.0426 -8.30537,26.4508 -2.24236,2.2271 -4.83593,5.2773 -5.7635,6.7784 -2.05908,3.3321 -5.71859,5.298 -11.66766,6.268 -2.475,0.4035 -6.75,1.5815 -9.5,2.6177 -6.21571,2.3422 -6.47456,2.3293 -20.5,-1.0225 z M 281.43073,920.27391 C 277.77169,919.94009 276.11,918.68952 264.94763,907.86885 253.18659,896.46784 250.12782,892.54406 244.78164,882 242.6978,877.89012 242.5,876.15626 242.5,862 v -15.5 l 3.38762,-4.88019 c 1.86318,-2.68411 4.70337,-8.30911 6.31152,-12.5 4.05886,-10.57756 4.93985,-11.66107 12.63053,-15.53403 3.732,-1.87941 7.40177,-4.15972 8.15506,-5.06738 2.20362,-2.6552 6.09946,-4.21299 12.47834,-4.98959 3.2797,-0.39928 8.22187,-1.6163 10.98261,-2.70448 5.68331,-2.24015 12.07271,-2.08295 22.05432,0.5426 3.3,0.86803 8.52052,2.05786 11.60115,2.64406 5.31689,1.01173 6.17962,1.63701 17,12.32124 11.09775,10.9581 11.47691,11.47878 14.35405,19.71159 2.76553,7.91343 2.98202,9.62982 3.37297,26.7416 l 0.41777,18.28543 -3.70144,8.09744 c -5.05,11.04762 -11.60574,19.03536 -18.76054,22.85847 -3.14382,1.67987 -5.96161,3.45167 -6.26176,3.93732 -1.63951,2.65279 -10.71029,3.93051 -30.5222,4.29939 -11.275,0.20993 -22.33117,0.21463 -24.56927,0.0104 z m 9.63903,-174.94957 c -1.33663,-0.28087 -4.71163,-1.76945 -7.5,-3.30794 -2.78837,-1.5385 -7.42652,-3.55583 -10.307,-4.48296 -3.70249,-1.19171 -6.25329,-2.87273 -8.70446,-5.73636 -1.90697,-2.22787 -4.99636,-5.08975 -6.86532,-6.35974 -2.10951,-1.43345 -4.43323,-4.49529 -6.1278,-8.07427 -1.50133,-3.17085 -4.15517,-7.74854 -5.89743,-10.17264 l -3.16775,-4.40745 -0.30862,-18.69407 -0.30861,-18.69406 3.43234,-4.98975 c 1.88779,-2.74437 4.44427,-6.99571 5.68106,-9.44743 3.01887,-5.98436 17.05107,-19.50214 21.80933,-21.00981 2.03198,-0.64384 6.6195,-2.80799 10.1945,-4.80923 L 289.5,621.5 h 15.54436 c 13.93855,0 15.83543,0.20661 18.36182,2 1.54959,1.1 5.91789,3.8 9.70733,6 9.21052,5.34727 26.01941,21.0774 28.91536,27.05964 1.97113,4.07181 2.28953,6.66472 2.73766,22.29469 l 0.5071,17.68699 -3.15662,7.47934 c -1.73614,4.11364 -4.13226,9.43333 -5.32469,11.82155 -2.72863,5.46489 -16.83193,18.70851 -22.79232,21.403 -2.475,1.11886 -6.45126,3.42552 -8.83613,5.12591 -4.29709,3.06379 -4.45913,3.0933 -18,3.27776 -7.51513,0.10237 -14.75748,-0.0437 -16.09411,-0.32454 z M 250.70025,1966.4196 c 4.58916,-1.2766 6.14274,-2.4977 13.22057,-10.3917 4.41118,-4.9199 8.31707,-10.1275 8.67976,-11.5726 0.36268,-1.4451 0.42783,-5.5126 0.14476,-9.039 -0.4143,-5.1613 -1.30385,-7.7401 -4.56146,-13.2235 -4.53525,-7.6339 -11.45462,-14.5377 -16.99427,-16.956 -3.98881,-1.7412 -21.71854,-2.1245 -25.88185,-0.5595 -1.20573,0.4533 -5.08103,3.6287 -8.61178,7.0566 -7.21975,7.0094 -7.70446,8.5012 -7.68621,23.6557 0.0121,10.0788 2.39417,15.7351 10.10562,23.9966 8.72072,9.3428 16.80829,11.1437 31.58486,7.0334 z M 425.48185,351.92873 c 7.15024,-6.7624 9.13754,-11.17846 10.99336,-24.42873 1.77481,-12.67192 2.90206,-16.58391 6.23136,-21.62527 1.64147,-2.48558 3.02424,-7.20122 4.39846,-15 1.10238,-6.2561 2.6523,-12.27473 3.44425,-13.37473 0.79195,-1.1 2.40802,-3.20778 3.59127,-4.68396 1.62644,-2.02911 2.26788,-4.49984 2.62898,-10.12643 0.42457,-6.6157 0.24172,-7.67836 -1.64595,-9.56603 L 453,251 H 306.95034 c -158.88822,0 -151.09017,-0.27538 -152.51102,5.38574 -0.32431,1.29215 -0.10583,4.96661 0.48551,8.16547 0.59135,3.19886 1.07517,7.95609 1.07517,10.57163 0,4.11117 0.54198,5.38173 4,9.37716 3.09334,3.57408 4.00394,5.45784 4.01736,8.31082 0.01,2.02905 0.7476,6.83918 1.64011,10.68918 0.89251,3.85 1.68964,9.54024 1.7714,12.64499 0.13169,5.00052 0.56946,6.11076 3.83452,9.72479 3.90632,4.32383 4.27271,5.32481 5.25202,14.34854 0.51308,4.72772 1.1418,6.1569 3.62931,8.25 1.6548,1.39243 3.36233,2.53168 3.7945,2.53168 0.43217,0 2.43267,1.30879 4.44556,2.90843 l 3.65978,2.90843 113.99459,0.13224 113.99458,0.13223 z M 453.17327,239.0056 c 2.55341,-0.009 7.66405,-4.77544 10.05791,-9.38139 2.13397,-4.1059 2.1453,-4.51281 2.55124,-91.63398 0.28262,-60.65251 0.0726,-89.323032 -0.68443,-93.417985 -1.10169,-5.959599 -5.51904,-13.077578 -10.11249,-16.294954 -1.75109,-1.226513 -23.28174,-1.418593 -150.76416,-1.345 -81.79674,0.04722 -149.95884,0.08177 -151.47134,0.07678 -3.52238,-0.01162 -6.36737,2.856224 -7.68397,7.745708 -1.23468,4.585255 -1.83735,185.845171 -0.64504,194.001361 1.35037,9.23739 2.13244,9.66495 18.73748,10.24386 10.52379,0.3669 181.0592,0.37019 290.0148,0.006 z M 58.195217,1621.9332 C 47.831646,1619.8926 38.951433,1612.9055 31.5,1600.9291 l -4,-6.4291 -0.355457,-15.7811 c -0.195501,-8.6796 -0.04499,-17.436 0.33447,-19.4587 0.523032,-2.788 2.665191,-5.7062 8.855457,-12.0636 12.392615,-12.7273 12.334148,-12.7065 35.66553,-12.6461 12.482467,0.032 20.773665,0.4851 23.039203,1.258 5.478307,1.869 14.292287,11.5582 17.457957,19.1915 5.08066,12.2508 5.41514,13.5139 5.45895,20.6135 0.0576,9.3342 -1.28075,16.0239 -5.14098,25.6973 -2.52143,6.3185 -3.9353,8.4639 -6.95899,10.5594 -8.605714,5.964 -13.469849,8.582 -18.247792,9.8214 -5.541107,1.4373 -22.627873,1.5777 -29.413131,0.2416 z M 68.254499,728.51102 c -1.785026,-0.77588 -6.060026,-1.71835 -9.5,-2.09439 -8.264445,-0.90341 -10.118268,-1.96967 -17.501195,-10.06618 -3.435683,-3.76775 -8.048183,-8.74166 -10.25,-11.05313 L 27,701.09463 V 683.7409 666.38718 l 5.024771,-7.13201 c 7.663148,-10.87685 19.521235,-18.72534 34.567136,-22.87889 4.791717,-1.32279 5.469695,-1.26408 11.5,0.99583 3.524451,1.32082 9.024562,2.94035 12.222469,3.59895 5.18164,1.06715 6.543874,1.92285 12.517914,7.8632 3.68694,3.66616 8.60797,9.62211 10.93562,13.23546 L 118,668.63944 v 14.83596 14.83597 l -4.68925,6.86296 c -2.57909,3.77463 -7.64214,9.71373 -11.25122,13.19801 -6.141098,5.92873 -6.944362,6.38282 -12.523827,7.07993 -3.279019,0.40969 -8.132628,1.60053 -10.785798,2.64631 -5.679143,2.23851 -6.243281,2.26068 -10.495406,0.41244 z"
       id="path7423" />
  </g>
</svg>
