<?xml version="1.0" encoding="UTF-8" standalone="no"?>
<!-- Created with Inkscape (http://www.inkscape.org/) -->

<svg
   version="1.1"
   id="svg1288"
   width="515"
   height="2340"
   viewBox="0 0 515 2340"
   sodipodi:docname="c#.svg"
   inkscape:version="1.1.1 (3bf5ae0d25, 2021-09-20)"
   xmlns:inkscape="http://www.inkscape.org/namespaces/inkscape"
   xmlns:sodipodi="http://sodipodi.sourceforge.net/DTD/sodipodi-0.dtd"
   xmlns="http://www.w3.org/2000/svg"
   xmlns:svg="http://www.w3.org/2000/svg">
  <defs
     id="defs1292" />
  <sodipodi:namedview
     id="namedview1290"
     pagecolor="#ffffff"
     bordercolor="#666666"
     borderopacity="1.0"
     inkscape:pageshadow="2"
     inkscape:pageopacity="0.0"
     inkscape:pagecheckerboard="0"
     showgrid="false"
     inkscape:zoom="0.33418803"
     inkscape:cx="-399.4757"
     inkscape:cy="1170"
     inkscape:window-width="1920"
     inkscape:window-height="986"
     inkscape:window-x="-11"
     inkscape:window-y="-11"
     inkscape:window-maximized="1"
     inkscape:current-layer="g1294" />
  <g
     inkscape:groupmode="layer"
     inkscape:label="Image"
     id="g1294">
    <path
       style="fill:#000000"
       d="m 183.5,2155.0414 c -4.45015,-1.0296 -6.871,-2.561 -10.39692,-6.5768 l -3.17121,-3.6118 -0.062,-84.1764 c -0.0748,-101.6597 -0.081,-1.3558 0.0566,-927.2428 0.0989,-665.56815 -0.0787,-769.61345 -1.31985,-773.13123 -0.78878,-2.23564 -2.13025,-7.75553 -2.98104,-12.26641 -1.03518,-5.4885 -2.51408,-9.6618 -4.47066,-12.61569 -1.94021,-2.92919 -3.15943,-6.34941 -3.62432,-10.16718 -1.90796,-15.6685 -3.63939,-22.52888 -7.54746,-29.90511 C 147.79244,291.21306 146,287.02591 146,286.0432 c 0,-4.4121 -5.30456,-22.02088 -9.14557,-30.35921 l -4.22327,-9.16818 -0.29684,-107.5079 c -0.18784,-68.026 0.0671,-109.523052 0.69431,-112.995073 0.61626,-3.411694 1.86664,-6.36265 3.30578,-7.801788 l 2.31462,-2.314624 162.64359,0.06715 c 126.23029,0.05212 163.46891,0.343566 166.32997,1.301787 2.02751,0.67905 4.62937,2.505103 5.7819,4.057895 L 475.5,24.146515 V 134.82326 245.5 l -3.29495,4.09767 c -2.91644,3.62695 -3.40122,5.12485 -4.22004,13.03938 -0.50881,4.91793 -1.55603,10.72993 -2.32715,12.91554 -0.77113,2.18561 -1.71675,5.83653 -2.10139,8.11316 -0.38463,2.27663 -1.78684,5.61336 -3.11601,7.41496 -2.79738,3.79162 -3.99456,8.98953 -4.32644,18.78442 -0.0856,2.52611 -1.04291,4.21596 -3.8396,6.77763 -3.45511,3.16476 -3.77331,3.93684 -4.38302,10.63487 -0.36159,3.9723 -1.38508,11.21882 -2.27442,16.10336 C 444.13549,351.51782 444,427.28532 444,1247.6108 c 0,824.4164 -0.12883,895.6707 -1.62621,899.413 -1.17901,2.9467 -2.76023,4.6709 -5.75,6.2703 L 432.5,2155.5 l -123,0.1178 c -67.65,0.065 -124.35,-0.1946 -126,-0.5764 z m 236.98587,-12.6017 c 1.90569,-0.9043 5.50546,-3.4404 7.99947,-5.6357 l 4.53458,-3.9915 -0.0373,-458.6563 c -0.0229,-281.3082 -0.3973,-459.233 -0.96832,-460.1478 -2.03502,-3.2605 -3.30148,0.9449 -3.90614,12.9706 -0.64393,12.807 -0.87184,13.3541 -6.10815,14.6641 -3.37404,0.8442 -5.84556,3.1373 -8.06213,7.4803 -1.7415,3.4121 -8.06205,8.3718 -15.52765,12.1843 -4.9113,2.5082 -15.95994,3.9954 -25.59891,3.4458 -7.77979,-0.4436 -9.45974,-0.8887 -13.59404,-3.6015 -2.5945,-1.7025 -7.52267,-4.5512 -10.95148,-6.3305 -6.94539,-3.6042 -7.52022,-4.4736 -11.78413,-17.8215 -3.31339,-10.3724 -4.14678,-20.532 -2.52451,-30.7752 1.8417,-11.6287 3.74511,-15.0584 12.50564,-22.5333 9.46923,-8.0796 11.83588,-8.6915 33.61495,-8.6915 15.64997,0 16.09721,0.06 21.70078,2.8998 6.95164,3.5232 9.19286,5.8832 12.68315,13.3551 2.90694,6.2231 3.59463,6.7769 10.85421,8.7398 4.09462,1.1071 5.03213,1.0859 6.25982,-0.1418 1.25393,-1.254 1.43863,-54.4016 1.40357,-403.89843 C 432.95706,574.60451 432.67629,389.675 432.35533,385 c -0.32096,-4.675 -1.18345,-9.46041 -1.91665,-10.63424 -0.7332,-1.17384 -3.69521,-3.31134 -6.58223,-4.75 L 418.60731,367 H 306.77154 c -120.54667,0 -115.54826,-0.21504 -120.52111,5.18511 -1.29322,1.40435 -2.67803,4.76067 -3.25743,7.89495 -0.673,3.64056 -0.92234,260.64777 -0.75044,773.50904 l 0.25744,768.057 2.76419,4.177 c 1.64381,2.4839 3.53966,4.1769 4.67742,4.1769 2.64521,0 5.53598,-3.9967 7.01798,-9.7029 3.20338,-12.3339 3.96094,-13.7726 10.79971,-20.5093 9.27803,-9.1395 12.95463,-10.1587 34.63824,-9.6022 10.94117,0.2808 16.90378,0.8473 18.60246,1.7672 1.375,0.7447 6.42035,4.4755 11.21189,8.2908 7.67104,6.108 8.96672,7.613 10.84475,12.5966 1.37765,3.6558 2.32462,9.0538 2.67444,15.2451 0.62842,11.1219 -1.2965,18.6116 -7.19091,27.9791 -5.66555,9.0038 -6.31533,9.6933 -13.54139,14.3678 -9.57017,6.1909 -16.69629,7.9164 -29.99878,7.2639 -13.66543,-0.6703 -16.98498,-1.78 -23.98105,-8.0167 -3.19553,-2.8487 -6.95079,-5.9643 -8.34502,-6.9237 -1.9798,-1.3622 -2.9098,-3.4291 -4.24656,-9.4375 -3.22486,-14.4952 -10.19095,-16.6515 -13.9499,-4.3182 -1.49892,4.9181 -1.7214,14.7893 -2.10262,93.2946 -0.39048,80.4115 -0.28619,88.09 1.24013,91.3065 2.10693,4.44 7.43135,8.5406 12.19955,9.3955 2.02701,0.3634 52.62769,0.7567 112.44596,0.874 99.11994,0.1944 109.06761,0.067 112.22538,-1.4309 z M 286,1794.8653 c -5.69435,-1.775 -7.34381,-2.9148 -13.30786,-9.1957 -3.74433,-3.9433 -7.33995,-8.0696 -7.99027,-9.1696 -1.6404,-2.7747 -2.27633,-39.6393 -0.77049,-44.6653 1.51633,-5.0611 5.12097,-9.1196 13.80095,-15.5387 9.60482,-7.1031 13.53273,-8.4057 25.82647,-8.5644 10.95407,-0.1414 10.05924,-0.4282 25.4412,8.1551 7.96559,4.4449 11.16199,8.2597 18.75,22.377 3.13458,5.8319 3.24965,6.4584 3.24023,17.6415 -0.009,10.2795 -0.29545,12.2085 -2.52806,17.0047 -1.38505,2.9754 -3.96816,7.0718 -5.74023,9.1032 -1.77207,2.0314 -4.46575,5.3183 -5.98597,7.3043 -4.30997,5.6305 -11.88318,7.5474 -29.87724,7.5622 -11.63917,0.01 -15.58984,-0.3718 -20.85873,-2.0143 z m -8.25435,-162.7401 c -4.85917,-2.4773 -21.85817,-19.0898 -27.09602,-26.4799 -8.42967,-11.8935 -8.08569,-10.846 -8.4986,-25.8812 -0.45646,-16.6213 0.006,-19.4417 4.00112,-24.4087 1.70558,-2.1205 4.40835,-6.7417 6.00617,-10.2693 2.63706,-5.8221 5.22043,-9.4258 12.36748,-17.2523 1.33911,-1.4664 3.73308,-2.9514 5.31993,-3.2999 1.58685,-0.3485 6.27814,-2.6529 10.42509,-5.1208 11.12034,-6.6179 26.12431,-8.4367 36.94167,-4.4782 2.90813,1.0643 7.22837,2.4392 9.60053,3.0556 6.75236,1.7543 18.1264,9.3716 24.27115,16.2545 6.71544,7.5222 6.89021,7.8377 10.76131,19.4262 2.87481,8.606 3.06361,10.0964 3.06361,24.1832 0,14.1513 -0.17018,15.4782 -2.96871,23.1463 -4.84078,13.2641 -6.37246,15.5655 -14.21716,21.3612 -14.06552,10.3919 -18.91082,11.596 -46.76178,11.6207 -17.15087,0.015 -19.98793,-0.2117 -23.21579,-1.8574 z m 6.67046,-194.6125 c -6.67042,-2.1063 -9.96139,-4.1892 -14.16616,-8.9661 C 264.20306,1421.677 263,1416.0044 263,1394.3625 c 0,-22.8931 0.79677,-25.7209 8.85578,-31.4302 3.10432,-2.1992 7.47738,-5.3631 9.71792,-7.031 5.17245,-3.8503 9.56867,-4.8477 21.49816,-4.8774 11.52387,-0.029 16.44262,1.4522 26.74418,8.0524 7.84479,5.0261 12.11514,10.2357 18.38031,22.4229 3.07029,5.9725 3.08151,6.053 2.51449,18.0534 -0.67753,14.3394 -2.76402,20.8773 -8.40276,26.3295 -2.09444,2.0251 -4.93308,5.1714 -6.30808,6.9917 -3.741,4.9525 -9.78118,6.1474 -30.46793,6.0273 -10.85734,-0.063 -18.51263,-0.5663 -21.11596,-1.3884 z M 305.5,1085.3352 c -14.39786,-3.1155 -24.14657,-5.6231 -26.32531,-6.7714 -1.47108,-0.7754 -4.98062,-3.8069 -7.79898,-6.7368 -7.543,-7.8414 -8.38079,-11.2275 -8.35185,-33.7551 0.0274,-21.3284 0.72559,-25.6388 4.67379,-28.854 1.54129,-1.2551 4.60235,-4.0039 6.80235,-6.1083 7.2154,-6.90211 14.5521,-9.28528 28.98164,-9.41411 8.4005,-0.075 11.07063,0.31233 16.5344,2.39849 9.37505,3.57957 16.88596,9.66582 22.88287,18.54252 6.95355,10.2928 8.5338,16.1458 7.78733,28.843 -0.74452,12.6642 -2.78112,18.7851 -8.15875,24.5205 -2.3206,2.475 -5.21122,5.9512 -6.42361,7.7249 -1.51907,2.2224 -3.50992,3.5684 -6.40411,4.3299 -2.30987,0.6077 -7.7184,2.194 -12.01894,3.525 -7.89043,2.4423 -8.5605,2.5388 -12.18083,1.7554 z m -26,-166.25968 c -4.51841,-1.12721 -27.0524,-24.09148 -31.70898,-32.31444 -5.12216,-9.04514 -6.01452,-13.4669 -5.62547,-27.87501 L 242.5,846.5 l 4.14439,-6.76176 c 2.27941,-3.71896 5.18705,-9.71524 6.46143,-13.32506 2.76189,-7.82338 5.54263,-10.88007 12.86915,-14.14621 3.01123,-1.3424 7.17502,-3.97663 9.25288,-5.85385 3.16901,-2.86302 4.54302,-3.41652 8.52503,-3.43421 2.61092,-0.0116 7.89712,-1.13464 11.74712,-2.49564 8.38282,-2.96339 12.41346,-3.09229 19.59345,-0.62659 2.9736,1.02117 8.10655,2.19169 11.40655,2.60117 7.01704,0.87069 8.89738,1.71886 13.14053,5.9273 1.72729,1.71317 6.56565,6.48985 10.75191,10.61485 11.77841,11.60605 14.50907,20.64031 14.57484,48.22009 0.0317,13.29669 -0.0599,13.90228 -2.96728,19.62371 -1.65,3.24698 -3,6.33669 -3,6.86602 0,0.52932 -2.29357,3.84866 -5.09681,7.37629 -7.03023,8.84691 -19.29627,16.31719 -29.30611,17.84804 -6.5922,1.00817 -41.18779,1.11663 -45.09708,0.14137 z m 10.38914,-175.00175 c -1.43597,-0.45451 -4.58597,-1.9563 -7,-3.33731 -2.41403,-1.38102 -6.72351,-3.2635 -9.57662,-4.1833 -3.41481,-1.10088 -6.35149,-2.96077 -8.59376,-5.44269 -1.87344,-2.07369 -5.09578,-5.05899 -7.16075,-6.63402 -2.30641,-1.75919 -4.66399,-4.92025 -6.11261,-8.19583 -1.29697,-2.93267 -3.84026,-7.3943 -5.65176,-9.91472 L 242.5,701.78332 242.18779,683.97376 c -0.2863,-16.33144 -0.14224,-18.14272 1.73571,-21.82381 1.12636,-2.20784 2.51555,-4.30327 3.08711,-4.65651 0.57155,-0.35324 2.58774,-3.71727 4.48043,-7.47564 2.09392,-4.15798 4.72693,-7.72846 6.7251,-9.11953 1.80612,-1.25738 4.75723,-3.97061 6.55802,-6.0294 2.05776,-2.35258 5.2978,-4.50039 8.72116,-5.78123 2.99585,-1.1209 7.85886,-3.39916 10.8067,-5.06281 C 289.62698,621.0196 289.762,621 305.13658,621 c 15.07803,0 15.56318,0.0662 18.91914,2.58011 1.89435,1.41906 5.93278,3.85057 8.97427,5.40334 3.49614,1.78488 9.81929,6.99637 17.19246,14.16988 9.25665,9.00599 11.88024,12.17182 12.71809,15.34667 1.58762,6.01587 2.52352,34.33037 1.27257,38.5 -5.50147,18.33743 -15.50325,31.21051 -30.5181,39.27918 -2.84445,1.52855 -6.93647,4.00355 -9.09339,5.5 -3.77151,2.61664 -4.46114,2.72848 -18.01164,2.92089 -7.74949,0.11004 -15.26487,-0.1718 -16.70084,-0.6263 z M 250.5,1964.8691 c 4.64396,-1.2166 6.32504,-2.6286 15.62674,-13.1254 L 273,1943.9873 v -6.8444 c 0,-8.18 -1.0948,-11.6387 -6.04144,-19.086 -4.39535,-6.6173 -10.83202,-12.6883 -15.53688,-14.6541 -4.01282,-1.6766 -21.93816,-1.9173 -26.0608,-0.3499 -1.52313,0.5791 -5.66076,3.9302 -9.19475,7.4468 l -6.42542,6.3939 -0.50253,11.3877 c -0.6818,15.4498 1.46982,21.2981 11.47132,31.1802 7.32381,7.2363 16.47173,8.8969 29.7905,5.4076 z M 420.76432,355.62188 c 3.85473,-1.99336 10.98,-10.0767 12.87913,-14.61086 0.80882,-1.93106 2.13345,-8.68602 2.94361,-15.01102 1.24208,-9.69706 2.07441,-12.67583 5.30899,-19 2.81757,-5.50884 4.26874,-10.09968 5.46605,-17.2921 1.63132,-9.79954 2.80274,-12.8903 6.77151,-17.86645 1.54297,-1.93464 2.25689,-4.56696 2.6218,-9.66703 0.46743,-6.533 0.32622,-7.1837 -2.08152,-9.59144 L 452.09091,250 309.79545,250.0596 c -78.2625,0.0328 -144.51628,0.42409 -147.23062,0.86957 -6.14971,1.00928 -9.03033,4.04357 -8.10129,8.53345 0.34567,1.67056 0.88845,6.86237 1.20619,11.53737 0.54106,7.96102 0.79497,8.72788 4.00435,12.09374 3.03396,3.1819 3.58032,4.61439 4.76758,12.5 0.73752,4.89844 1.87649,10.89041 2.53106,13.31549 0.65457,2.42507 0.9118,5.89281 0.57163,7.70608 -0.52711,2.80972 -0.10205,3.86851 2.87676,7.16569 4.17598,4.62231 5.07823,6.81879 6.04614,14.719 0.96279,7.85854 1.52109,8.73814 7.79299,12.27778 2.91819,1.64692 5.82027,3.61431 6.44907,4.37196 0.95578,1.15164 19.6669,1.4308 114.0958,1.70225 100.63323,0.28929 113.28045,0.15512 115.95921,-1.23011 z m 35.9068,-118.56295 c 1.74412,-1.06348 4.43805,-4.09545 5.98652,-6.73771 l 2.8154,-4.80412 0.0135,-91.50855 c 0.0152,-103.341769 0.70063,-94.516737 -8.03918,-103.509341 L 453.16978,26.097924 301.49668,26.298962 149.82358,26.5 147.9367,28.830023 c -1.03779,1.281513 -2.34586,3.981513 -2.90684,6 -1.46117,5.25755 -1.41981,189.253277 0.0441,196.079157 1.90697,8.89187 -13.62519,8.09129 156.89857,8.08708 148.02935,-0.004 151.6007,-0.0484 154.69861,-1.93733 z M 55.781724,1619.6311 c -5.589513,-1.5469 -14.593305,-7.3003 -17.670734,-11.2916 -5.499805,-7.133 -9.312661,-14.1299 -10.173567,-18.6695 -1.314187,-6.9296 -1.169581,-28.1631 0.223465,-32.8127 1.604316,-5.3547 17.93223,-21.2057 23.589797,-22.9007 6.171678,-1.8491 41.785744,-0.8601 45.749315,1.2704 5.5221,2.9683 11.23473,10.0496 15.54797,19.273 3.55945,7.6115 4.28463,10.2573 4.70053,17.1496 0.62076,10.2873 -0.8407,18.7084 -4.98741,28.738 -3.14853,7.6153 -3.50269,8.0394 -10.26109,12.2872 -12.218583,7.6797 -12.55888,7.7773 -28,8.0315 -9.128437,0.1503 -15.641813,-0.2238 -18.718276,-1.0752 z M 68.673381,727.87702 c -1.004641,-0.58418 -5.034485,-1.5067 -8.955209,-2.05003 C 50.624118,724.56675 48.700818,723.52042 42,716.18779 38.975,712.87756 34.927593,708.44363 33.005761,706.3346 31.08393,704.22557 28.962376,701.6 28.291197,700.5 c -1.595965,-2.61564 -1.758668,-32.75801 -0.192617,-35.6842 2.871909,-5.36621 10.674027,-14.32502 15.759915,-18.09638 6.566179,-4.86905 18.870637,-10.52847 24.697433,-11.35956 2.901393,-0.41383 6.317236,0.16015 12,2.01641 4.369239,1.42721 9.744072,3.03938 11.944072,3.58261 5.086961,1.25608 14.37418,10.07447 20.81748,19.76657 L 118,667.76897 v 14.96763 c 0,14.30797 -0.10831,15.11739 -2.45748,18.36552 -1.35161,1.86883 -3.2065,4.71918 -4.12198,6.33409 -0.91547,1.61492 -4.62212,5.85049 -8.23701,9.41238 -6.468891,6.37406 -6.709648,6.50368 -15.270488,8.22105 -4.783885,0.95969 -9.61678,2.23662 -10.739766,2.83763 -2.556143,1.368 -6.117085,1.35533 -8.499895,-0.0303 z"
       id="path1373" />
  </g>
</svg>
