<?xml version="1.0" encoding="UTF-8" standalone="no"?>
<!-- Created with Inkscape (http://www.inkscape.org/) -->

<svg
   version="1.1"
   id="svg7528"
   width="515"
   height="2340"
   viewBox="0 0 515 2340"
   sodipodi:docname="d++.svg"
   inkscape:version="1.1.1 (3bf5ae0d25, 2021-09-20)"
   xmlns:inkscape="http://www.inkscape.org/namespaces/inkscape"
   xmlns:sodipodi="http://sodipodi.sourceforge.net/DTD/sodipodi-0.dtd"
   xmlns="http://www.w3.org/2000/svg"
   xmlns:svg="http://www.w3.org/2000/svg">
  <defs
     id="defs7532" />
  <sodipodi:namedview
     id="namedview7530"
     pagecolor="#ffffff"
     bordercolor="#666666"
     borderopacity="1.0"
     inkscape:pageshadow="2"
     inkscape:pageopacity="0.0"
     inkscape:pagecheckerboard="0"
     showgrid="false"
     inkscape:zoom="0.33418803"
     inkscape:cx="-86.777494"
     inkscape:cy="1170"
     inkscape:window-width="1920"
     inkscape:window-height="986"
     inkscape:window-x="-11"
     inkscape:window-y="-11"
     inkscape:window-maximized="1"
     inkscape:current-layer="g7534" />
  <g
     inkscape:groupmode="layer"
     inkscape:label="Image"
     id="g7534">
    <path
       style="fill:#000000"
       d="m 287.94309,2332.9431 c -1.93262,-1.9326 -2.0147,-2.7786 -1.35834,-14 L 287.28333,2307 H 274.71309 C 260.81861,2307 259,2306.3057 259,2301.0012 c 0,-1.9233 0.89813,-3.5643 2.75,-5.0246 2.52854,-1.994 3.67612,-2.1407 14.25,-1.8226 l 11.5,0.346 0.5,-11.1021 c 0.31765,-7.053 0.98109,-11.6796 1.8191,-12.6857 1.83913,-2.208 6.63873,-3.0727 9.26211,-1.6687 2.103,1.1255 2.16985,1.5844 1.53872,10.563 -0.91271,12.9844 -0.45509,14.3935 4.67459,14.3935 2.24274,0 6.93462,-0.7165 10.42641,-1.5922 5.82724,-1.4614 6.55119,-1.4595 8.81389,0.023 1.99553,1.3075 2.46518,2.4448 2.46518,5.9697 0,6.3405 -1.32092,7.0143 -14.89807,7.5994 l -11.60193,0.5 0.36986,12.1301 c 0.34426,11.2907 0.22314,12.2769 -1.75,14.25 -2.79972,2.7998 -8.40842,2.8313 -11.17677,0.063 z m 0,-80 c -1.93262,-1.9326 -2.0147,-2.7786 -1.35834,-14 L 287.28333,2227 H 274.71309 C 260.81861,2227 259,2226.3057 259,2221.0012 c 0,-1.9233 0.89813,-3.5643 2.75,-5.0246 2.52854,-1.994 3.67612,-2.1407 14.25,-1.8226 l 11.5,0.346 0.5,-11.1021 c 0.6008,-13.3401 1.31679,-14.6247 7.91241,-14.1961 l 4.58759,0.2982 0.0303,10.5 c 0.0427,14.7974 -0.22249,14 4.65581,14 2.30236,0 7.04303,-0.7165 10.53482,-1.5922 5.82724,-1.4614 6.55119,-1.4595 8.81389,0.023 1.99553,1.3075 2.46518,2.4448 2.46518,5.9697 0,6.3405 -1.32092,7.0143 -14.89807,7.5994 l -11.60193,0.5 0.36986,12.1301 c 0.34426,11.2907 0.22314,12.2769 -1.75,14.25 -2.79972,2.7998 -8.40842,2.8313 -11.17677,0.063 z M 274.90342,2166 c -101.8376,-0.5499 -94.77684,-0.064 -97.55812,-6.7174 -1.1231,-2.6868 -1.34689,-150.8358 -1.35695,-898.3218 -0.008,-614.14983 -0.33746,-896.57279 -1.04877,-899.7826 -0.57019,-2.57301 -2.20736,-6.45805 -3.63815,-8.63343 -1.92553,-2.92758 -2.94585,-6.43513 -3.92705,-13.5 -1.70126,-12.24943 -4.47591,-21.73095 -8.33117,-28.46924 -2.17316,-3.79829 -3.3451,-7.56941 -4.02925,-12.96546 -0.59018,-4.6548 -1.945,-9.45063 -3.48936,-12.35171 C 149.763,281.9492 149,278.95472 149,275.35024 c 0,-3.61926 -0.783,-6.67486 -2.61555,-10.20703 l -2.61556,-5.04136 -0.0145,-111.34914 c -0.013,-99.929778 0.1489,-111.665074 1.57857,-114.429746 0.87617,-1.694331 2.39718,-3.398892 3.38002,-3.787915 0.98285,-0.389022 75.31627,-0.646689 165.1854,-0.572592 175.86621,0.145001 168.25694,-0.08615 171.2711,5.202885 1.08535,1.904495 1.33049,22.822211 1.33049,113.528508 V 259.8877 l -3.28854,3.39352 c -2.75934,2.84743 -3.58292,4.86099 -5.11794,12.51281 -1.21775,6.0703 -2.83758,10.72192 -4.84477,13.91263 -2.24119,3.56269 -3.55631,7.69392 -5.12237,16.09098 -2.17239,11.64821 -2.59997,12.86425 -6.59148,18.74607 -1.46295,2.15577 -2.77357,6.22031 -3.45502,10.71482 -2.32595,15.34073 -4.30874,23.01429 -7.8783,30.48963 L 446.5,373.5 l -0.5,892 -0.5,892 -2.05474,3.4978 c -2.83153,4.82 -5.36013,5.875 -11.68479,4.8753 -2.8676,-0.4534 -6.79932,-0.6105 -8.73714,-0.3494 -6.21635,0.8379 -53.18896,0.9889 -148.11991,0.4763 z m 151.61322,-13.587 c 2.11986,-1.0521 4.78333,-3.1835 5.91883,-4.7363 l 2.06453,-2.8234 v -443.1766 c 0,-441.1767 -0.009,-443.1948 -2,-447.1767 -2.6266,-5.2532 -4.70151,-5.5185 -7.39928,-0.9461 -3.85732,6.5376 -17.25183,20.3344 -21.05305,21.6853 -2.31058,0.8212 -8.15884,1.1873 -16.7714,1.0501 -13.57542,-0.2164 -17.21885,-1.0916 -20.3491,-4.8885 -0.78494,-0.9521 -4.70692,-3.2283 -8.7155,-5.0582 -7.16512,-3.2708 -7.34065,-3.4413 -10.38245,-10.0848 -3.4099,-7.4475 -3.69885,-11.031 -2.68175,-33.2578 0.64072,-14.0018 1.9675,-17.485 9.64675,-25.3259 8.57167,-8.752 9.51184,-9.0979 25.20578,-9.272 24.90247,-0.2763 38.26402,2.7286 42.67779,9.5979 4.97726,7.7463 5.31591,8.0737 7.26919,7.0284 4.78784,-2.5624 4.53591,18.9893 4.81388,-411.80707 0.23244,-360.24524 0.0952,-404.59907 -1.26035,-407.22035 -0.83667,-1.61793 -2.52905,-3.51644 -3.76086,-4.21891 -1.78182,-1.01613 -26.05467,-1.27772 -118.73965,-1.27965 -124.41621,-0.003 -119.1795,-0.21049 -122.50413,4.86355 -1.33597,2.03893 -1.50404,100.49057 -1.50325,880.55683 7.8e-4,779.3715 0.17011,878.6179 1.50384,881.4285 3.1102,6.5543 -4.82523,6.0934 115.50354,6.7077 60.225,0.3075 111.56153,0.4933 114.08117,0.413 2.51965,-0.08 6.31561,-1.0068 8.43547,-2.059 z M 240.5,1987.9854 c -8.80057,-0.9342 -13.29824,-2.8107 -19.68185,-8.2116 -10.00406,-8.4641 -11.48378,-10.221 -13.28523,-15.7738 -0.98138,-3.025 -2.96526,-7.075 -4.40862,-9 -2.38286,-3.178 -2.6243,-4.3356 -2.6243,-12.5824 0,-8.6028 0.21066,-9.5003 3.99021,-17 3.84742,-7.6342 14.32786,-20.4393 18.93281,-23.1322 1.43845,-0.8411 8.31777,-1.2254 22.37664,-1.25 22.13417,-0.039 24.51329,0.4438 27.23076,5.5214 0.80283,1.5001 3.11744,3.774 5.14358,5.053 3.73801,2.3597 4.60816,3.3679 9.83068,11.3902 l 2.92952,4.5 0.004,16.8366 c 0.004,16.3659 -0.0755,17.0088 -2.82552,23 -3.08044,6.7109 -4.88065,8.6678 -12.93766,14.0633 -9.97921,6.6829 -18.50439,8.302 -34.67462,6.5855 z m 19,-12.1785 c 5.97081,-1.4963 11.40534,-7.7404 15.545,-17.8605 2.89615,-7.0802 3.43407,-9.5786 3.32561,-15.4464 -0.0712,-3.85 -0.65788,-8.938 -1.30381,-11.3067 -1.3733,-5.036 -6.7292,-11.3586 -13.01258,-15.3612 -4.18047,-2.6631 -5.09446,-2.8321 -15.31574,-2.8321 -6.13784,0 -11.82086,0.4928 -13.05422,1.1319 -3.94167,2.0426 -13.69557,12.2353 -18.34828,19.1738 -5.23064,7.8004 -5.23951,8.389 -0.3014,19.991 1.68624,3.9618 3.47078,8.1876 3.96564,9.3906 0.49486,1.203 3.28475,3.7798 6.19976,5.7261 2.91501,1.9464 6.34831,4.3033 7.62956,5.2376 5.2358,3.8177 14.7288,4.6473 24.67046,2.1559 z m 22.53807,-173.9347 c -4.33672,-3.6237 -6.50998,-6.4462 -8.91772,-11.5818 -1.75097,-3.7347 -4.29436,-8.3194 -5.65197,-10.1883 -2.20925,-3.0412 -2.46838,-4.3866 -2.46838,-12.8157 0,-9.5289 0.87533,-12.7623 4.06891,-15.0302 0.96333,-0.6841 2.95122,-4.3834 4.41753,-8.2207 2.11948,-5.5466 3.62415,-7.7581 7.33979,-10.7877 16.57756,-13.5166 19.35198,-14.6212 35.39286,-14.0917 10.08588,0.333 10.58891,0.4601 15.8487,4.0035 2.98772,2.0128 7.18314,4.2628 9.32317,5 4.10138,1.4129 4.47851,1.822 10.45432,11.3404 6.65553,10.6011 8.82794,23.7916 5.76433,35 -0.75166,2.75 -3.78382,9.9432 -6.73813,15.985 l -5.37148,10.9849 -6,2.416 c -5.67616,2.2855 -7.23405,2.4257 -28.8639,2.5968 l -22.86389,0.1808 z m 46.66544,-8.3597 c 3.23624,-1.303 5.44654,-3.4075 9.60542,-9.1455 l 5.40192,-7.4531 0.67807,-9.6463 c 0.67069,-9.5414 0.64632,-9.6906 -2.23775,-13.707 -1.60371,-2.2333 -3.60553,-5.7115 -4.44848,-7.7293 -2.95428,-7.0715 -17.0871,-15.8313 -25.54182,-15.8313 -1.36187,0 -4.76769,1.7366 -7.5685,3.859 -2.8008,2.1225 -7.47074,4.6921 -10.37763,5.7102 -7.70297,2.6981 -7.30154,2.0207 -15.11958,25.5131 -0.64742,1.9455 -0.2102,4.1048 1.77274,8.7551 2.11255,4.9543 4.1659,7.5508 10.40247,13.1537 4.27371,3.8396 8.77371,7.2014 10,7.4708 8.53828,1.8754 21.53459,1.4256 27.43314,-0.9494 z M 304.5,1644.9314 c -20.10143,-0.76 -23.65249,-1.8934 -32.28912,-10.3056 -3.45901,-3.3692 -7.63254,-8.3758 -9.2745,-11.1258 -1.64196,-2.75 -4.37056,-6.8569 -6.06355,-9.1265 -2.59286,-3.4759 -3.23579,-5.5255 -4.07797,-13 -0.54989,-4.8804 -0.79151,-14.1986 -0.53694,-20.7072 0.4625,-11.8242 0.46668,-11.8409 5.24678,-21 5.06994,-9.7144 16.44244,-23.1992 21.34296,-25.3072 14.5422,-6.2555 21.14353,-8.5171 27.40058,-9.3874 10.59885,-1.4741 19.15963,-0.034 27.48864,4.6236 3.67723,2.0565 10.07826,4.9137 14.2245,6.3493 l 7.53862,2.6104 3.71326,7.3689 c 2.0423,4.053 4.61392,8.3277 5.71472,9.4994 2.89592,3.0826 7.98205,16.0149 9.28365,23.6053 1.51286,8.8223 -0.1443,23.2842 -3.6802,32.1167 -2.27177,5.6748 -4.36118,8.3568 -14.83777,19.0461 -12.00555,12.2493 -12.28622,12.4588 -18.19366,13.5818 -8.54328,1.624 -14.83674,1.8449 -33,1.1582 z m -11,-194.5776 c -1.1,-0.2374 -3.07003,-0.6622 -4.37785,-0.9439 -3.68589,-0.7939 -14.06784,-11.3027 -16.70585,-16.9099 -1.29379,-2.75 -3.37924,-6.269 -4.63433,-7.82 -1.98879,-2.4577 -2.32617,-4.1735 -2.62601,-13.3548 l -0.34404,-10.5348 3.45023,-5.1452 c 1.89762,-2.8299 4.45056,-7.6917 5.6732,-10.8041 1.98176,-5.0448 3.17691,-6.3739 11.01421,-12.2486 11.6724,-8.7494 14.84767,-9.8402 29.05044,-9.9796 10.662,-0.1047 11.90078,0.087 17,2.6354 12.97529,6.4835 16.75246,9.4854 21.06102,16.7377 3.87067,6.5153 4.17648,7.6049 5.11453,18.2218 1.45944,16.5181 0.85438,20.1904 -5.20347,31.5814 -6.18646,11.6328 -7.76287,13.4583 -13.82047,16.0041 -3.86955,1.6263 -7.846,2.0422 -23.65161,2.4736 -10.45,0.2852 -19.9,0.3243 -21,0.087 z m 6,-355.5793 c -4.4,-0.5038 -9.02818,-1.1217 -10.28484,-1.3731 -2.95029,-0.5901 -15.71286,-13.1388 -16.68094,-16.4014 -0.40799,-1.375 -2.32574,-6.0549 -4.26167,-10.3997 -4.98118,-11.1795 -4.50692,-16.9405 2.70537,-32.8629 4.33948,-9.5801 5.94882,-12.1076 9.09953,-14.2911 2.10522,-1.4589 4.52826,-3.7218 5.38453,-5.0286 2.21652,-3.3829 5.72363,-4.9214 16.53802,-7.2549 7.8067,-1.6846 10.77019,-1.8895 16.6262,-1.1494 8.41921,1.0641 15.56518,3.6175 22.40246,8.005 10.4425,6.7009 14.45264,14.2481 16.07535,30.254 1.50582,14.853 0.69115,21.3217 -3.4593,27.4683 -1.76754,2.6176 -4.06402,6.694 -5.10329,9.0586 -3.85302,8.7665 -10.58439,12.2784 -27.04142,14.1082 -10.83158,1.2043 -10.29415,1.2075 -22,-0.133 z M 286.65519,930.54135 c -2.11465,-0.75397 -4.81465,-2.2596 -6,-3.34583 -1.18536,-1.08623 -4.63019,-3.54568 -7.65519,-5.46545 -6.53603,-4.14797 -7.93181,-5.64292 -11.41884,-12.23007 -1.45576,-2.75 -4.09456,-6.95426 -5.864,-9.3428 L 252.5,895.81439 252.5399,874.1572 c 0.0442,-24.02903 -0.43544,-21.95908 7.85316,-33.88856 4.84667,-6.97563 16.34709,-19.524 19.38217,-21.14833 1.08938,-0.58302 8.39896,-2.87394 16.24352,-5.09093 l 14.26282,-4.0309 13.20906,3.44503 c 9.35365,2.43952 16.22837,4.99365 23.55357,8.75077 10.27195,5.26851 10.37563,5.35832 14.78218,12.80572 2.44072,4.125 5.73991,11.03237 7.33154,15.34971 1.59163,4.31734 3.60729,9.22931 4.47925,10.91548 2.41338,4.66698 2.16981,15.73553 -0.55531,25.23481 -4.77195,16.63411 -5.71337,18.33005 -15.54281,28 -5.03164,4.95 -10.12731,10.40681 -11.3237,12.12624 -1.52823,2.19634 -3.50274,3.46051 -6.63811,4.25 -6.66595,1.67851 -48.00887,1.41689 -52.92202,-0.33489 z M 300.5,757.31497 c -1.1,-0.29865 -3.83596,-1.6146 -6.07991,-2.92432 -2.24395,-1.30973 -6.60556,-3.25028 -9.69247,-4.31234 -7.50125,-2.58081 -19.72631,-14.54672 -23.39396,-22.89805 C 259.96163,724.05612 257.7789,720.375 256.48315,719 252.63811,714.9198 252,711.63225 252,695.90278 c 0,-15.6372 0.88092,-19.97491 4.95305,-24.38913 1.02167,-1.10751 3.2717,-5.02774 5.00005,-8.71162 2.18144,-4.64961 4.16554,-7.33027 6.48783,-8.76552 1.83996,-1.13716 4.51822,-3.60524 5.95171,-5.48463 1.84161,-2.41448 5.95094,-5.04955 14.00548,-8.9809 l 11.39916,-5.56381 11.85136,-0.427 c 14.37458,-0.51791 19.20373,0.28335 24.6672,4.0928 2.30129,1.60459 5.49259,3.48227 7.09179,4.17262 3.3176,1.43215 11.63634,8.35651 18.69721,15.56319 3.56254,3.63611 5.85815,7.39546 8.85431,14.5 L 375.004,681.5 374.95811,695 c -0.033,9.70948 -0.48085,14.62312 -1.59498,17.5 -0.852,2.2 -2.42074,6.47325 -3.48609,9.49611 -1.06536,3.02287 -3.03517,7.15555 -4.37737,9.18375 -3.18171,4.80789 -15.0338,14.51815 -22.36108,18.32014 -3.17992,1.65 -7.32448,4.125 -9.21013,5.5 -3.23475,2.35875 -4.21947,2.51011 -17.42846,2.67899 -7.7,0.0984 -14.9,-0.0654 -16,-0.36402 z m 94.51587,503.90693 c 3.56627,-2.0779 8.58273,-4.5753 11.14768,-5.5497 4.33802,-1.6479 4.84504,-2.2249 7.26342,-8.2659 1.42993,-3.5719 3.94383,-9.0129 5.58645,-12.0911 3.61253,-6.7697 3.66472,-8.0573 0.57146,-14.0984 -2.93466,-5.7315 -18.19262,-19.9571 -22.83258,-21.2878 -1.7815,-0.511 -7.42249,-0.929 -12.53554,-0.929 -12.7265,0 -17.17944,2.3232 -24.4076,12.7338 -3.30869,4.7655 -3.30915,4.7679 -3.24656,16.7662 0.0583,11.1747 0.27011,12.4479 3.07989,18.5132 3.00148,6.479 3.07193,6.5432 13.43741,12.2457 5.73105,3.1529 11.55224,5.7345 12.93597,5.7368 1.38373,0 5.43373,-1.6958 9,-3.7738 z m 25.81012,-892.07267 8.32599,-0.69173 5.83342,-6.03547 c 4.27234,-4.42031 6.12644,-7.22453 6.92839,-10.47874 0.60223,-2.44381 1.99951,-7.36829 3.10507,-10.94329 1.10556,-3.575 2.0036,-8.78623 1.99563,-11.58052 -0.0101,-3.54321 0.76574,-6.56911 2.56401,-10 1.41818,-2.70571 3.63587,-8.74448 4.92821,-13.41948 1.29233,-4.675 3.24148,-11.68298 4.33145,-15.57329 1.08996,-3.8903 3.37227,-9.26591 5.0718,-11.94578 3.73099,-5.88316 3.88395,-8.77793 0.63549,-12.02638 L 462.09091,264 315.79545,264.004 c -144.07826,0.004 -146.34471,0.0338 -149.54545,1.9853 -3.53281,2.154 -4.10043,4.72868 -2.13756,9.69586 0.61184,1.54831 1.50069,6.48045 1.97522,10.96032 0.60229,5.68589 1.90416,10.51685 4.31178,16 3.64441,8.29987 6.02223,17.22612 7.65439,28.73433 0.56356,3.97361 2.70334,10.99025 4.96805,16.29097 2.18797,5.12108 3.97812,9.78313 3.97812,10.36011 0,2.50593 4.24198,9.03658 6.7555,10.40028 2.3837,1.29326 16.94248,1.48382 110.7445,1.44954 59.4,-0.0217 111.7467,-0.35076 116.32599,-0.73122 z m 46.8508,-118.73781 c 1.55277,-1.14872 3.94821,-4.07372 5.32321,-6.5 l 2.5,-4.41142 0.22221,-89 c 0.14097,-56.458349 -0.14479,-90.850275 -0.78154,-94.060421 -0.61701,-3.110677 -2.21499,-6.529856 -4.14742,-8.874233 -6.30067,-7.643804 6.94778,-7.033884 -159.38035,-7.337404 -148.79224,-0.27152 -149.09223,-0.26802 -151.68267,1.769622 -4.80238,3.777553 -4.874,5.480973 -4.5407,108.002436 0.33169,102.02856 0.19885,99.41425 5.17455,101.83559 1.45442,0.70777 50.37167,0.97959 153.31271,0.85191 L 464.85358,252.5 Z M 72.96558,1632.0273 c -8.209712,-1.0306 -11.664424,-2.5181 -20.648765,-8.8906 -9.281954,-6.5836 -12.018414,-10.3094 -14.931838,-20.3305 -2.930048,-10.0783 -3.002782,-16.5471 -0.305154,-27.1396 2.61654,-10.2741 4.342199,-13.0454 13.242428,-21.2667 10.925292,-10.0919 12.776908,-10.6893 31.552673,-10.181 17.349653,0.4698 21.191126,1.4847 31.482416,8.3177 5.5271,3.6698 6.1612,4.6036 11.83775,17.4323 2.89795,6.5492 3.30491,8.5194 3.30491,16 0,7.1933 -0.34566,9.0157 -2.20418,11.6211 -1.2123,1.6995 -3.17014,5.7495 -4.35076,9 -1.76767,4.8668 -3.64711,7.371 -10.64736,14.1868 -4.67542,4.5523 -9.91758,9.0218 -11.649235,9.9324 -3.675504,1.9326 -16.673196,2.5747 -26.682885,1.3181 z M 67.325774,739.44308 c -7.043028,-2.65681 -17.38572,-10.54262 -21.224323,-16.18252 -1.430798,-2.10222 -3.687759,-5.03739 -5.01547,-6.52262 C 37.643972,712.88758 33.003799,700.37351 33.025637,695 c 0.01006,-2.475 0.889175,-6.41869 1.953593,-8.76376 1.064419,-2.34507 2.217429,-5.94507 2.562246,-8 1.2662,-7.54591 2.610133,-9.94033 9.312152,-16.59099 7.226412,-7.17104 6.659895,-6.90296 27.389432,-12.96087 4.463122,-1.30429 13.613243,0.024 24.936694,3.61981 6.456006,2.05016 8.286806,3.22077 14.499876,9.27112 6.37338,6.20646 7.32806,7.65073 9.20434,13.92469 1.15137,3.85 2.99553,8.35 4.09813,10 2.87043,4.29551 2.70895,12.68855 -0.37844,19.6697 -1.31799,2.9802 -3.32901,8.55026 -4.46893,12.3779 -1.91119,6.41743 -2.61879,7.44 -9.08694,13.13183 -6.35325,5.59072 -7.55788,6.23892 -12.78108,6.87739 -3.171688,0.38771 -7.920869,1.54603 -10.55373,2.57405 -6.391675,2.49568 -14.618023,2.24295 -22.387206,-0.68779 z"
       id="path7613" />
  </g>
</svg>
