<?xml version="1.0" encoding="UTF-8" standalone="no"?>
<!-- Created with Inkscape (http://www.inkscape.org/) -->

<svg
   version="1.1"
   id="svg5408"
   width="515"
   height="2340"
   viewBox="0 0 515 2340"
   sodipodi:docname="d+.svg"
   inkscape:version="1.1.1 (3bf5ae0d25, 2021-09-20)"
   xmlns:inkscape="http://www.inkscape.org/namespaces/inkscape"
   xmlns:sodipodi="http://sodipodi.sourceforge.net/DTD/sodipodi-0.dtd"
   xmlns="http://www.w3.org/2000/svg"
   xmlns:svg="http://www.w3.org/2000/svg">
  <defs
     id="defs5412" />
  <sodipodi:namedview
     id="namedview5410"
     pagecolor="#ffffff"
     bordercolor="#666666"
     borderopacity="1.0"
     inkscape:pageshadow="2"
     inkscape:pageopacity="0.0"
     inkscape:pagecheckerboard="0"
     showgrid="false"
     inkscape:zoom="0.33418803"
     inkscape:cx="-86.777494"
     inkscape:cy="1170"
     inkscape:window-width="1920"
     inkscape:window-height="986"
     inkscape:window-x="-11"
     inkscape:window-y="-11"
     inkscape:window-maximized="1"
     inkscape:current-layer="g5414" />
  <g
     inkscape:groupmode="layer"
     inkscape:label="Image"
     id="g5414">
    <path
       style="fill:#000000"
       d="m 298.24138,2326.6748 c -5.94939,-3.3041 -6.92457,-8.6982 -4.82245,-26.6748 0.86825,-7.425 1.57919,-15.4125 1.57986,-17.75 L 295,2278 h -22.25 c -20.29034,0 -22.53146,-0.1754 -25.44574,-1.9523 -4.02262,-2.4528 -5.25438,-7.6073 -3.20358,-13.4061 2.86492,-8.1008 10.51864,-10.6371 26.67707,-8.8404 5.94791,0.6614 13.83116,1.2025 17.51832,1.2025 H 295 l 0.006,-16.25 c 0.006,-17.3314 0.90258,-22.8326 4.34027,-26.6289 4.58513,-5.0635 13.51786,-6.6735 17.79337,-3.2071 2.34736,1.9032 2.36078,2.0352 2.36078,23.2331 v 21.3189 l 11.5,-0.3173 c 8.6066,-0.2376 12.60128,-0.7994 15.87712,-2.2331 6.12912,-2.6824 13.28954,-2.5383 16.61947,0.3344 4.448,3.8373 5.41928,13.8341 1.89117,19.4648 -2.69265,4.2974 -4.96956,4.7622 -25.88776,5.2852 l -20,0.5 v 21.5 c 0,23.3379 -0.54868,26.2016 -5.5,28.706 -3.20043,1.6188 -12.82187,1.5997 -15.75862,-0.031 z m 109.34891,-168.4139 c -0.12938,-0.1316 -51.14323,-0.2547 -113.36411,-0.2737 l -113.12887,-0.034 -3.03059,-2.5501 c -1.66683,-1.4026 -3.50394,-4.2044 -4.08248,-6.2264 -0.73159,-2.5569 -1.1177,-276.197 -1.26806,-898.6763 l -0.21618,-895 -3.18842,-5 c -2.53028,-3.9679 -3.38516,-6.69678 -4.14147,-13.22006 -0.78341,-6.75693 -1.50635,-8.97243 -4.06158,-12.447 -2.39532,-3.25713 -3.11149,-5.27156 -3.12143,-8.77994 -0.007,-2.50415 -0.9071,-7.40559 -2,-10.89209 C 154.89419,301.6744 154,296.63927 154,293.97173 c 0,-4.22042 -0.51862,-5.4493 -3.99467,-9.46557 -4.26185,-4.92418 -4.61528,-5.88998 -5.35878,-14.64364 -0.26335,-3.10062 -1.26977,-7.15062 -2.23649,-9 -1.65036,-3.15724 -1.74788,-10.48374 -1.59743,-120.01174 0.0997,-72.581136 0.52692,-117.613652 1.13084,-119.202101 C 144.22477,15.648403 133.79538,16 309.5,16 485.4821,16 475.02033,15.639159 476.73551,21.768189 477.15598,23.270685 477.5,74.9 477.5,136.5 v 112 l -3.65334,8.5 c -2.00934,4.675 -4.14375,11.65 -4.74314,15.5 -0.9692,6.22534 -6.25965,22.69647 -10.46288,32.57481 -0.83659,1.96615 -2.04392,6.69115 -2.68294,10.5 -0.65089,3.87959 -2.43632,9.2274 -4.05978,12.16004 -2.0049,3.62168 -2.89792,6.63614 -2.89792,9.78212 0,2.501 -0.7875,6.22031 -1.75,8.26515 -1.66145,3.52975 -1.7753,49.20872 -2.25,902.71788 -0.45614,820.1313 -0.63994,899.3071 -2.0951,902.5 -2.79225,6.1268 -3.72355,6.4505 -20.14081,7 -8.21621,0.275 -15.04442,0.3924 -15.1738,0.2609 z m 16.069,-15.1971 c 3.21239,-1.5301 6.74071,-3.7926 7.84071,-5.0279 1.99398,-2.2391 1.99968,-3.5853 1.89334,-446.8909 -0.12707,-529.7862 -0.12719,-416.5835 9.4e-4,-908.82931 L 433.5,376.13138 l -2.74669,-2.86696 c -6.15521,-6.42471 -0.91037,-6.1593 -122.75331,-6.21181 -66.02324,-0.0285 -112.11002,0.3325 -114.5,0.89679 -2.36772,0.55903 -5.12219,2.19674 -6.75,4.01329 l -2.75,3.06886 v 880.03385 c 0,766.4988 0.18692,880.3954 1.44889,882.8358 2.38522,4.6125 6.2769,6.5371 14.55111,7.1963 4.125,0.3286 54.82168,0.6314 112.65929,0.6729 l 105.15928,0.075 5.84072,-2.782 z M 227.80007,1978.9203 c -9.3716,-1.3743 -14.61331,-4.7092 -21.60302,-13.7446 -3.3941,-4.3875 -6.62693,-9.1762 -7.18407,-10.6416 -1.70051,-4.4726 -1.28851,-35.9336 0.52797,-40.3162 1.84699,-4.4563 16.49406,-18.9168 21.11761,-20.8486 3.8451,-1.6066 36.29367,-1.909 42.84144,-0.3993 2.57992,0.5948 4.88755,2.0341 6.5,4.0541 1.375,1.7225 4.57738,5.2746 7.11641,7.8936 6.41661,6.6187 7.63351,11.1081 8.45782,31.2026 l 0.68179,16.6204 -12.76003,12.7046 c -7.01801,6.9875 -13.85491,13.1209 -15.19311,13.6296 -2.92668,1.1128 -22.5381,1.0133 -30.50281,-0.1546 z m 21.29889,-12.0195 c 1.97943,-0.4931 5.12943,-2.0221 7,-3.3978 1.87057,-1.3757 5.97692,-4.1892 9.12522,-6.2521 5.90312,-3.8681 7.02039,-5.5645 8.7275,-13.2509 1.43374,-6.4555 1.27537,-11.8556 -0.5299,-18.0685 -1.29375,-4.4525 -2.75493,-6.5523 -8.10639,-11.6495 -8.44177,-8.0406 -14.13346,-10.282 -26.1095,-10.282 -12.19511,0 -14.21232,0.809 -22.16608,8.89 -5.99146,6.0873 -7.00141,7.6467 -7.65008,11.8116 -1.23677,7.9409 -0.82427,17.563 0.89235,20.8152 2.34148,4.436 18.68797,20.1738 22.71792,21.872 3.5423,1.4927 8.78629,1.3338 16.09896,-0.488 z M 297.5,1797.1195 c -9.18416,-0.5025 -13.1146,-1.167 -16.75,-2.8318 -2.6125,-1.1964 -4.75,-2.6535 -4.75,-3.238 0,-0.5845 -2.65757,-3.6794 -5.90571,-6.8775 -5.44277,-5.3589 -5.96107,-6.2578 -6.61189,-11.4668 -0.3884,-3.1086 -0.53925,-12.1081 -0.33521,-19.9989 0.36017,-13.9289 0.4671,-14.534 3.6716,-20.7766 4.38354,-8.5395 7.38484,-11.8334 15.30654,-16.7989 8.24734,-5.1695 14.42213,-6.3967 29.99411,-5.9611 l 11.80103,0.3301 4.28976,4.2068 c 2.35938,2.3138 7.21477,5.6888 10.78977,7.5 6.46948,3.2777 6.51104,3.3261 8.85123,10.2932 1.85784,5.5311 2.46526,9.9777 2.89464,21.1902 0.4907,12.8138 0.32785,14.8605 -1.67902,21.1019 -1.45266,4.5178 -3.75411,8.779 -6.64464,12.3027 -2.43221,2.9651 -4.42221,5.757 -4.42221,6.2043 0,0.4474 -2.0803,1.7336 -4.62289,2.8583 -5.37323,2.3768 -16.83786,3.0038 -35.87711,1.9621 z m 21.69838,-12.7233 c 6.99376,-2.1937 9.03326,-3.3574 12.94572,-7.3869 3.96112,-4.0795 4.88028,-5.8213 6.25,-11.8435 1.98693,-8.7359 2.06204,-17.4002 0.18176,-20.9655 -2.23644,-4.2405 -12.408,-13.4523 -19.96784,-18.0837 -7.47698,-4.5806 -15.10153,-6.6399 -19.04014,-5.1424 -3.01778,1.1474 -23.39166,21.681 -24.64767,24.8409 -0.50612,1.2733 -0.92021,7.0805 -0.92021,12.9048 v 10.5898 l 3.76449,3.5951 c 2.07047,1.9774 4.80177,5.0586 6.06955,6.8472 3.05055,4.3039 5.10971,5.2856 13.02419,6.2097 11.20483,1.3082 13.74564,1.1302 22.34015,-1.5655 z M 296.5,1635.0405 c -12.49642,-0.8702 -17.03669,-2.2867 -25.22825,-7.8713 -5.83741,-3.9796 -17.0497,-14.9915 -19.0089,-18.6692 -0.586,-1.1 -1.3761,-4.25 -1.75578,-7 -0.44689,-3.2368 -1.94319,-6.863 -4.24315,-10.2829 -3.18385,-4.7343 -3.55935,-5.9948 -3.6156,-12.1377 -0.0544,-5.9373 0.3226,-7.4371 2.8166,-11.2058 1.58365,-2.393 3.49211,-7.2741 4.24102,-10.8469 1.53424,-7.3192 1.16456,-6.7068 11.17779,-18.5181 7.14579,-8.429 14.76933,-14.8658 24.11627,-20.3624 4.03715,-2.374 5.70083,-2.6825 16.17494,-2.9993 9.8787,-0.2988 12.87887,0 19.5,1.9209 17.86988,5.1932 29.39806,13.4626 40.53675,29.0779 l 4.71169,6.6053 0.23704,20.8745 0.23705,20.8745 -2.61327,4.5 c -1.4373,2.475 -3.28535,6.8048 -4.10677,9.6218 -2.00991,6.8928 -4.28441,11.0975 -6.70347,12.3921 -1.10294,0.5903 -4.19013,3.0137 -6.86042,5.3853 -8.57299,7.614 -24.50821,10.3895 -49.61354,8.6413 z m -12.18821,-196.9859 c -3.57885,-1.6248 -7.34844,-4.7096 -17.41566,-14.2519 -3.25721,-3.0873 -4.10013,-9.3438 -3.73964,-27.7568 0.31453,-16.0657 0.53123,-17.8477 2.56877,-21.1239 5.66824,-9.114 12.98464,-16.1499 21.20076,-20.3881 4.48308,-2.3126 21.41304,-3.2379 29.27511,-1.6001 8.89212,1.8525 26.13195,14.1673 32.30684,23.0777 l 2.99203,4.3175 -0.0324,16.0855 c -0.0393,19.5099 -1.25904,23.3519 -10.64242,33.5204 -8.62077,9.342 -10.75231,9.9722 -33.82521,9.9994 -16.07538,0.019 -19.04891,-0.2274 -22.68821,-1.8797 z m 79.2568,-173.1757 c -1.06227,-0.6497 -7.24388,-6.4656 -13.73689,-12.9242 -11.43794,-11.3773 -11.85214,-11.9407 -13.30382,-18.0988 -0.82407,-3.4957 -1.50497,-10.7537 -1.5131,-16.1287 -0.0131,-8.6735 0.33076,-10.596 3.057,-17.0907 4.58423,-10.921 11.97648,-18.2171 22.42822,-22.1365 7.67363,-2.8776 8.5632,-2.9884 21.80527,-2.7153 17.66269,0.3643 22.94204,2.0758 30.24475,9.8052 2.77751,2.9398 6.69878,6.0339 8.71394,6.8759 2.01515,0.842 4.20887,2.5441 4.87493,3.7826 0.7909,1.4705 1.36791,9.5436 1.66327,23.2713 l 0.45226,21.0197 -3.37721,3.3352 c -6.89076,6.805 -15.42266,13.0359 -23.62271,17.2516 l -8.43542,4.3368 -13.65954,0.2986 c -9.23659,0.2019 -14.28493,-0.084 -15.59095,-0.8827 z m -65.74455,-179.9584 c -13.03936,-3.4108 -14.66922,-4.2304 -22.84243,-11.4871 -11.6964,-10.3848 -11.43888,-9.688 -11.75473,-31.8068 l -0.27312,-19.1266 3.05151,-5.2643 c 3.0418,-5.2475 5.49813,-7.3601 16.86701,-14.5062 6.93206,-4.35729 17.94261,-8.73734 21.90055,-8.71214 5.12137,0.0326 16.68424,2.97156 22.08275,5.61281 6.25174,3.05873 17.71327,13.49373 22.10709,20.12723 L 352,1024.3429 v 15.172 c 0,20.6624 -1.23877,24.3244 -11.5571,34.1647 -7.03493,6.709 -8.00006,7.2868 -14.72507,8.8164 -3.95819,0.9003 -8.60457,2.507 -10.3253,3.5704 -3.82169,2.362 -4.27002,2.3327 -17.56849,-1.1459 z M 282.94383,920.10298 C 277.73478,919.53767 276.9836,919.09391 270.92014,913 254.56972,896.56745 252.4417,893.82455 251.18379,887.56094 c -0.6531,-3.25199 -2.63496,-8.1473 -4.43252,-10.94856 -3.05378,-4.75889 -3.25127,-5.61474 -3.25127,-14.08952 0,-8.15628 0.29989,-9.59912 3.12241,-15.02286 1.71732,-3.3 3.887,-8.65493 4.82149,-11.89984 1.5767,-5.47487 2.60779,-6.78705 14.31443,-18.21675 11.62779,-11.35271 12.97255,-12.36327 17.17851,-12.90926 2.50974,-0.32579 7.80792,-1.72994 11.77373,-3.12032 8.25895,-2.89553 15.01053,-2.8828 26.78943,0.0505 3.85,0.95878 8.87839,2.20896 11.17421,2.77818 6.5006,1.61174 25.28243,19.79556 29.88344,28.93194 L 366,839.95004 v 21.33069 c 0,21.11614 -0.0249,21.36437 -2.47119,24.6802 -1.35916,1.84223 -3.23122,5.63771 -4.16013,8.4344 -3.51004,10.56776 -20.89099,23.67808 -33.87945,25.55502 -7.4111,1.07097 -33.22977,1.16357 -42.5454,0.1526 z M 296,744.63538 c -3.20455,-1.24624 -9.0879,-3.91229 -22.50919,-10.20007 -2.75506,-1.29073 -8.23365,-5.40419 -12.17465,-9.14104 -6.00428,-5.69324 -7.42075,-7.67446 -8.74081,-12.22577 -0.86644,-2.98733 -1.57703,-7.03733 -1.57909,-9 -0.003,-3.27467 -0.7327,-4.79094 -6.241,-12.97593 -1.12444,-1.67085 -1.7466,-4.52192 -1.75,-8.01939 -0.004,-4.55937 0.55016,-6.23772 3.46953,-10.5 2.39141,-3.49145 3.95866,-7.41155 5.02671,-12.57318 1.58497,-7.65977 3.45201,-11.19644 11.3656,-21.5294 3.43894,-4.49031 5.70948,-6.31089 10.68323,-8.56609 3.47388,-1.57513 8.45929,-4.22302 11.07869,-5.88419 4.7568,-3.01668 4.78075,-3.02032 19.85666,-3.02032 17.26528,0 22.69494,1.06946 33.71085,6.63988 9.02332,4.56282 19.88878,14.98789 21.76113,20.87912 0.69588,2.18955 1.8818,4.96502 2.63537,6.1677 2.5095,4.00513 3.29645,10.65343 3.46976,29.3133 l 0.17182,18.5 -4.22534,10.5 c -2.32394,5.775 -4.96423,11.26313 -5.86731,12.19584 -1.83992,1.9003 -8.74011,5.83205 -20.64196,11.76186 -4.4,2.19219 -9.2688,5.01101 -10.81955,6.26405 -2.50537,2.02438 -4.06543,2.30591 -14,2.52651 C 303.0907,745.91679 298.37594,745.55938 296,744.63538 Z M 423,354.11523 c 3.025,-1.31163 6.66962,-3.60526 8.09915,-5.09695 C 433.94596,346.04768 438,332.95337 438,326.72895 438,323.00828 439.74737,318 441.04551,318 c 1.87519,0 4.14045,-5.79218 4.89434,-12.51463 0.59862,-5.33784 1.63561,-8.763 3.69456,-12.20303 2.25664,-3.77032 2.87933,-6.05203 2.94258,-10.78234 0.0477,-3.5714 0.94592,-8.22622 2.21897,-11.5 2.96467,-7.62393 2.88805,-14.09333 -0.20956,-17.69424 L 452.1728,250.5 H 308.3364 c -154.11537,0 -149.58119,-0.14816 -152.32424,4.97728 -1.97089,3.68264 -0.55196,10.8401 3.44162,17.36049 2.41144,3.93719 3.80061,7.78254 4.55979,12.62189 0.60049,3.82782 2.23446,9.22782 3.63105,12 1.90968,3.79068 2.41012,6.01452 2.01843,8.96958 -0.3642,2.74762 0.0656,5.07875 1.42928,7.75174 1.07255,2.10237 3.01033,8.30878 4.30618,13.792 1.55369,6.57425 3.45848,11.68742 5.59303,15.01383 3.71472,5.7889 11.1353,12.6899 14.33104,13.32761 1.19758,0.23898 51.67742,0.3785 112.17742,0.31004 L 417.5,356.5 Z m 33.64527,-116.44038 c 3.6939,-1.9213 6.94669,-5.44953 8.28812,-8.98995 C 465.66087,226.76487 466,196.48639 466,133.45514 466,28.805545 466.51079,35.535893 458.1267,29.713207 L 453.5,26.5 H 307.45676 C 142.61669,26.5 158.31339,25.662172 153.8643,34.69816 L 151.5,39.5 l -0.26562,90.91472 c -0.23249,79.57423 -0.0716,91.67208 1.28986,96.98636 1.76974,6.90796 3.74985,10.39496 6.47511,11.40271 1.03551,0.38292 67.78714,0.61964 148.33697,0.52605 127.33977,-0.14795 146.8268,-0.36395 149.30895,-1.65499 z M 57.925274,1621.5155 c -3.618034,-1.1656 -7.104967,-3.9824 -16.673872,-13.4695 -11.569413,-11.4704 -12.150945,-12.2451 -13.282258,-17.6946 -0.650712,-3.1345 -1.013552,-10.2797 -0.806309,-15.8782 0.330377,-8.925 0.696376,-10.6621 2.970525,-14.0985 1.426547,-2.1557 3.602189,-5.9344 4.834759,-8.3971 2.841314,-5.677 9.364268,-12.5254 14.531881,-15.257 3.361463,-1.7769 6.200249,-2.1811 17.783059,-2.5319 7.580683,-0.2296 17.166878,-0.1004 21.302656,0.2872 l 7.519596,0.7046 7.823669,6.9391 c 5.48725,4.8669 8.81486,8.7968 11.14274,13.1598 2.99562,5.6144 3.34499,7.1464 3.58504,15.7206 0.37188,13.2833 -1.12586,21.0152 -6.00419,30.9957 -4.49414,9.1946 -6.38731,10.9529 -18.431606,17.1186 -5.940783,3.0412 -6.964319,3.2322 -19,3.5447 -9.242405,0.24 -13.971927,-0.073 -17.29569,-1.1435 z M 69.260053,729.03143 c -2.331971,-1.05855 -7.41294,-2.36435 -11.291042,-2.90177 -6.760161,-0.93682 -7.327912,-1.23374 -13.760053,-7.19624 -3.689927,-3.42051 -7.243045,-7.39233 -7.895818,-8.82626 C 26.612715,688.7984 27,690.12125 27,678.29617 v -11.02034 l 3.75,-4.82707 c 8.262459,-10.63559 19.254507,-19.71484 27.731073,-22.90541 10.560595,-3.975 15.689236,-4.21745 26.11435,-1.23451 4.897517,1.40132 11.400411,3.24103 14.450874,4.08823 6.720973,1.86661 9.321723,4.45296 11.841053,11.7755 1.05536,3.06746 3.30782,7.49464 5.00548,9.83818 l 3.08665,4.261 -0.0991,14.76703 c -0.0609,9.07939 -0.53844,15.51387 -1.23974,16.70607 -3.13942,5.33696 -7.80613,11.20108 -14.14062,17.76889 -6.751836,7.00052 -7.346081,7.36824 -16.761958,10.37204 -11.409502,3.63981 -11.910995,3.67268 -17.477989,1.14565 z"
       id="path5511" />
  </g>
</svg>
