<?xml version="1.0" encoding="UTF-8" standalone="no"?>
<!-- Created with Inkscape (http://www.inkscape.org/) -->

<svg
   version="1.1"
   id="svg1487"
   width="515"
   height="2340"
   viewBox="0 0 515 2340"
   sodipodi:docname="d.svg"
   inkscape:version="1.1.1 (3bf5ae0d25, 2021-09-20)"
   xmlns:inkscape="http://www.inkscape.org/namespaces/inkscape"
   xmlns:sodipodi="http://sodipodi.sourceforge.net/DTD/sodipodi-0.dtd"
   xmlns="http://www.w3.org/2000/svg"
   xmlns:svg="http://www.w3.org/2000/svg">
  <defs
     id="defs1491" />
  <sodipodi:namedview
     id="namedview1489"
     pagecolor="#ffffff"
     bordercolor="#666666"
     borderopacity="1.0"
     inkscape:pageshadow="2"
     inkscape:pageopacity="0.0"
     inkscape:pagecheckerboard="0"
     showgrid="false"
     inkscape:zoom="0.33418803"
     inkscape:cx="-86.777494"
     inkscape:cy="1170"
     inkscape:window-width="1920"
     inkscape:window-height="986"
     inkscape:window-x="-11"
     inkscape:window-y="-11"
     inkscape:window-maximized="1"
     inkscape:current-layer="g1493" />
  <g
     inkscape:groupmode="layer"
     inkscape:label="Image"
     id="g1493">
    <path
       style="fill:#000000"
       d="m 189.71043,2152 c -11.43332,-0.5298 -11.09994,-0.3797 -14.39338,-6.4834 -1.47565,-2.7348 -1.62875,-75.0943 -1.83768,-868.5 C 173.35401,800.98249 173.17338,409.7 173.07796,407.5 c -0.0954,-2.2 -0.14737,-13.45 -0.11544,-25 0.0732,-26.48078 -0.0957,-28.16986 -3.28554,-32.85058 -1.44325,-2.11782 -2.82529,-5.26782 -3.07119,-7 -1.80907,-12.74335 -2.66836,-15.93507 -5.0531,-18.76918 C 159.68863,321.66494 159,319.69553 159,316.57983 c 0,-2.3467 -0.87154,-6.79991 -1.93676,-9.89603 -1.06522,-3.09611 -2.25874,-8.89679 -2.65226,-12.8904 -0.65223,-6.61913 -1.04946,-7.60181 -4.49301,-11.11475 -3.39391,-3.46231 -3.8389,-4.53023 -4.38196,-10.51615 -0.33244,-3.66437 -1.59678,-8.9125 -2.80963,-11.6625 -1.89392,-4.29422 -2.1937,-6.69387 -2.12379,-17 0.0448,-6.6 0.265,-59.12719 0.48941,-116.72709 L 141.5,22.045821 144.27055,19.27291 147.0411,16.5 174.27055,16 c 14.9762,-0.275 88.07959,-0.275 162.45199,0 l 135.22254,0.5 2.27746,2.277545 2.27746,2.277546 0.27079,112.932999 0.2708,112.93299 -3.9279,9.28946 c -2.16034,5.1092 -4.23012,11.76446 -4.59951,14.78946 -0.67694,5.54367 -5.31568,20.40935 -9.82936,31.5 -1.34304,3.3 -2.97869,9.15 -3.63478,13 -0.69286,4.06581 -2.42046,9.14688 -4.12146,12.12173 -2.06917,3.61872 -2.92858,6.46905 -2.92858,9.71298 0,2.52519 -0.89802,6.86954 -1.99559,9.65411 -1.98879,5.04559 -1.9957,8.11345 -2.02498,898.78698 -0.0161,491.5483 -0.39611,895.3025 -0.84435,897.2315 -1.16188,5.0002 -3.25219,7.9699 -6.1222,8.6978 -2.94899,0.7479 -231.64179,1.0206 -247.30245,0.2949 z m 234.7413,-14.6289 c 2.28384,-1.2765 5.13697,-3.3688 6.34029,-4.6497 l 2.18786,-2.3289 -0.17285,-443.9462 c -0.20678,-531.1092 -0.20722,-413.9497 0.003,-903.88299 0.15867,-369.09958 0.0283,-407.16053 -1.40246,-409.34411 -0.86757,-1.32408 -3.90178,-3.46214 -6.74268,-4.75125 L 419.5,366.12412 305.95657,366.31206 c -106.49914,0.17628 -113.71005,0.29709 -116.22919,1.94736 -1.47717,0.96768 -3.37301,3.08841 -4.21298,4.71273 -1.36626,2.64206 -1.52485,95.35767 -1.50475,879.75245 0.0222,865.3857 0.0477,876.8405 1.95866,879.9829 1.06492,1.7511 3.17526,3.9958 4.68966,4.9882 2.59515,1.7006 8.59096,1.833 104.29774,2.3043 120.96756,0.5956 123.83066,0.5375 129.49602,-2.6289 z M 228.77674,1973.9174 c -10.59558,-1.5528 -15.23639,-4.3256 -21.90774,-13.0895 -8.67212,-11.3922 -8.8726,-12.0957 -8.84704,-31.0458 0.0185,-13.6992 0.3153,-16.9166 1.8711,-20.2821 2.72307,-5.8905 17.6523,-20.0029 22.6194,-21.3818 4.96631,-1.3788 32.34017,-1.4643 39.60105,-0.1237 4.16766,0.7695 5.95218,1.6992 7.88649,4.1091 1.375,1.713 4.41871,5.038 6.7638,7.389 6.34173,6.3577 7.79653,11.7037 8.62948,31.711 l 0.69541,16.7037 -12.67636,12.6213 c -6.972,6.9417 -13.77125,13.0376 -15.10945,13.5463 -2.92637,1.1126 -21.53675,1.0133 -29.52614,-0.1575 z m 22.87853,-12.9278 c 2.2854,-0.9863 6.39153,-3.525 9.12474,-5.6415 2.73321,-2.1164 6.30578,-4.5745 7.93903,-5.4622 2.45647,-1.3353 3.25563,-2.753 4.62526,-8.2055 3.6961,-14.7143 1.17465,-24.3737 -8.65724,-33.165 -8.05458,-7.202 -14.16152,-9.523 -24.97457,-9.4915 -4.51687,0.013 -9.82804,0.3995 -11.8026,0.8586 -4.96305,1.154 -16.8734,13.0643 -18.02741,18.0274 -1.38088,5.9388 -1.04822,19.8762 0.54633,22.8898 2.27454,4.2987 19.88073,21.1773 23.12382,22.1683 3.96415,1.2112 13.00049,0.2237 18.10264,-1.9784 z m 32.5297,-170.0777 c -6.89018,-2.3779 -18.6287,-14.1324 -20.29576,-20.3233 -1.68759,-6.2673 -0.6978,-35.1509 1.36552,-39.8485 3.72664,-8.4844 8.87816,-14.7292 15.89517,-19.2684 8.70801,-5.6332 12.19004,-6.417 28.64294,-6.4473 l 13.29284,-0.024 4.92071,4.6027 c 2.70639,2.5316 7.65578,5.8963 10.99864,7.4772 4.95128,2.3416 6.36967,3.5726 7.65178,6.6412 2.33096,5.5787 4.33506,19.5069 4.33938,30.1579 0.004,10.8507 -3.1372,21.4687 -7.87648,26.621 -1.51773,1.65 -3.5198,4.2281 -4.44903,5.7292 -3.50045,5.6545 -6.18316,6.2525 -28.67068,6.3908 -17.50518,0.1077 -21.27647,-0.1418 -25.81503,-1.7081 z m 38.17983,-11.865 c 7.68968,-2.9849 13.04752,-8.3759 15.14794,-15.2418 2.36561,-7.7327 3.08445,-19.8098 1.36732,-22.9721 -5.52994,-10.1838 -24.07178,-23.4812 -34.19967,-24.5265 l -5.45536,-0.5631 -12.36251,12.3091 -12.36252,12.3091 -0.33176,12.3289 -0.33177,12.329 4.33177,4.336 c 2.38247,2.3849 5.45676,5.7735 6.83176,7.5304 3.15844,4.0355 8.00273,5.0988 21.5,4.719 7.51672,-0.2115 11.45639,-0.8467 15.8648,-2.558 z m -39.75904,-150.1411 c -8.13362,-2.7974 -15.997,-8.4007 -23.19616,-16.5292 -7.16892,-8.0943 -7.9416,-9.4279 -8.9096,-15.3766 -0.83766,-5.1477 -1.83654,-7.3452 -5.14857,-11.3267 -1.97902,-2.3791 -2.35143,-3.9435 -2.35143,-9.8783 0,-5.9375 0.45825,-7.8607 2.90059,-12.1733 1.59533,-2.8169 3.40542,-7.6041 4.02242,-10.6382 1.32322,-6.5068 2.30616,-8.1166 11.73,-19.211 8.1971,-9.6502 22.33742,-20.0701 29.46668,-21.7137 2.40917,-0.5555 8.24454,-1.0209 12.9675,-1.0344 10.19726,-0.029 23.87375,3.6625 33.41281,9.0187 6.73764,3.7832 18.10779,14.6627 23.99223,22.9569 l 3.90205,5.5 0.34915,20.8331 c 0.34482,20.5743 0.31887,20.885 -2.08801,25 -1.34045,2.2918 -3.1199,6.4717 -3.95433,9.2887 -2.3043,7.7792 -4.02176,10.4209 -10.39015,15.982 -11.1684,9.7525 -17.28734,11.3745 -42.81094,11.3479 -15.44341,-0.016 -18.83717,-0.3066 -23.89424,-2.0459 z m 5.21479,-193.3532 c -5.03382,-1.299 -8.14609,-3.4549 -16.96614,-11.7523 -7.51881,-7.0733 -8.13827,-9.5883 -7.69945,-31.2601 0.33517,-16.5527 0.42486,-17.176 3.13493,-21.7863 3.72271,-6.3331 12.05309,-14.7154 18.21011,-18.3237 4.90694,-2.8757 5.26986,-2.9302 19.5,-2.9302 16.22839,0 16.68327,0.1305 28,8.0357 8.28649,5.7885 15.46575,12.8496 17.69356,17.4024 2.72427,5.5674 2.30947,30.6056 -0.64109,38.6978 -2.58213,7.0818 -12.60712,18.4063 -18.61409,21.027 -4.97882,2.1721 -35.20306,2.8031 -42.61783,0.8897 z m 76.99179,-173.4659 c -1.47821,-0.4842 -8.16303,-6.3558 -14.85516,-13.0479 -11.38796,-11.3879 -12.25458,-12.5317 -13.52672,-17.8531 -0.74757,-3.1272 -1.38299,-10.1857 -1.41206,-15.6857 -0.0452,-8.5529 0.34762,-11.0722 2.71438,-17.4092 3.95093,-10.5786 11.06613,-17.902 21.27535,-21.8979 9.54801,-3.7371 14.93904,-4.3856 28.05108,-3.3744 12.99711,1.0024 21.94319,4.6269 25.94805,10.5128 1.37101,2.0149 4.31803,4.526 6.54895,5.5801 2.23091,1.0542 4.60811,2.5817 5.28266,3.3945 2.71715,3.2739 3.48101,40.5015 0.9642,46.9913 -0.59663,1.5384 -2.31252,3.432 -3.8131,4.208 -1.50057,0.776 -5.08447,3.422 -7.96421,5.8801 -2.87975,2.4581 -8.93768,6.3463 -13.46207,8.6404 -8.12627,4.1204 -8.377,4.1757 -20.64493,4.5562 -6.83032,0.2119 -13.62821,-0.011 -15.10642,-0.4952 z m -58.26619,-177.7086 c -2.17461,-0.778 -7.85842,-2.3312 -12.63068,-3.4516 -9.1319,-2.1439 -10.76817,-3.0839 -20.76244,-11.9265 C 263.60758,1060.5545 263,1058.6994 263,1038 c 0,-15.4653 0.22462,-17.8325 2.04975,-21.6028 2.4607,-5.0831 8.31285,-10.4283 17.59007,-16.0663 14.33391,-8.71109 22.98584,-10.21061 36.00484,-6.24025 8.75969,2.67142 14.42426,6.29655 22.28751,14.26325 10.22636,10.3608 10.03361,9.8146 10.31929,29.2433 0.21595,14.6863 6e-4,17.4929 -1.64222,21.4028 -2.30287,5.4808 -15.3587,18.6851 -19.3446,19.5646 -7.133,1.5738 -13.51341,3.6448 -16.49529,5.354 -2.96767,1.7011 -3.63419,1.7435 -7.2232,0.4595 z M 279,917.30848 c -1.4752,-0.5248 -8.59029,-7.04616 -13.83063,-12.67652 -1.46815,-1.57741 -4.76274,-4.9817 -7.32131,-7.56507 -4.169,-4.20943 -6.82396,-9.58422 -6.84248,-13.85218 -0.003,-0.7069 -1.85163,-4.7569 -4.10791,-9 -3.9585,-7.44424 -4.0869,-7.97765 -3.6624,-15.21471 0.34134,-5.81943 1.1294,-8.85617 3.51691,-13.55228 1.69235,-3.32875 3.84848,-8.70612 4.79142,-11.9497 1.58874,-5.46507 2.63798,-6.79717 14.3122,-18.17046 11.5643,-11.26619 12.96885,-12.32118 17.12099,-12.85998 2.48777,-0.32282 7.8478,-1.72193 11.91118,-3.10913 5.59029,-1.90847 8.75352,-2.41423 13,-2.07855 7.20942,0.56991 24.63472,4.41698 28.00978,6.18386 1.43124,0.74927 7.17159,5.78894 12.75634,11.19927 8.04857,7.7972 10.89974,11.33514 13.75,17.06201 L 366,838.95007 v 20.35352 20.35352 l -2.88174,4.42145 c -1.58495,2.43179 -3.49745,6.19056 -4.25,8.35282 -2.86495,8.23175 -17.86991,20.95912 -28.47131,24.14967 -3.50979,1.05629 -10.48869,1.39877 -27.30588,1.34 C 290.66598,917.87763 279.825,917.60197 279,917.30848 Z m 18,-174.20567 c -1.375,-0.44433 -5.2,-2.14922 -8.5,-3.78866 -3.3,-1.63944 -8.57336,-4.00232 -11.71857,-5.25086 -7.63399,-3.03042 -20.38638,-13.91598 -22.86392,-19.51687 -1.02292,-2.31248 -2.16031,-6.86894 -2.52754,-10.12546 -0.68438,-6.06896 -1.64802,-8.39484 -5.93249,-14.31884 C 243.64126,687.59089 243,685.42095 243,681.78638 c 0,-5.22364 0.91196,-7.62061 4.57559,-12.02638 1.25316,-1.507 2.79086,-5.332 3.41712,-8.5 1.97269,-9.97908 3.13809,-12.53839 9.75486,-21.4225 5.76765,-7.74402 7.10385,-8.94207 12.60208,-11.29916 3.38269,-1.45016 8.10601,-4.02349 10.49627,-5.71851 3.84728,-2.72826 5.33886,-3.13582 13,-3.55207 4.75974,-0.25862 13.54622,-0.006 19.52551,0.5604 9.89947,0.93846 11.68756,1.44013 20,5.61118 5.43124,2.72532 11.44912,6.73701 14.85792,9.90473 4.88163,4.53639 6.33691,6.78396 9.8355,15.19022 l 4.10615,9.86607 0.38829,19.89944 0.38829,19.89944 -4.11315,10.65038 c -2.26224,5.85771 -4.83794,11.41351 -5.72379,12.34622 -1.86699,1.96576 -9.49545,6.29111 -19.94417,11.30838 -4.03343,1.93678 -8.94668,4.75315 -10.91832,6.2586 -3.35783,2.56388 -4.2864,2.75018 -14.66647,2.94252 C 304.48676,743.81828 298.375,743.54714 297,743.10281 Z M 409.10279,356.05894 c 8.64838,-0.91033 20.0206,-5.01685 22.54286,-8.14025 1.82668,-2.26203 5.35435,-15.24873 5.35435,-19.7114 0,-5.21009 1.44582,-8.99303 4.76801,-12.47534 2.18301,-2.28824 2.76681,-4.08757 3.36788,-10.38027 0.57511,-6.02085 1.38928,-8.67741 3.89452,-12.70751 2.79144,-4.49048 3.09258,-5.6594 2.53697,-9.84776 -0.49499,-3.73141 -0.17947,-5.63645 1.46856,-8.86685 4.28848,-8.40612 4.41089,-19.35515 0.25167,-22.51001 -1.48488,-1.12631 -26.00465,-1.36038 -144.78761,-1.38217 -93.4357,-0.0171 -144.26225,0.32438 -146.64176,0.98531 -4.95474,1.37624 -6.21628,3.23592 -6.08565,8.97103 0.10928,4.79732 1.74465,9.06211 5.37084,14.00628 1.00846,1.375 2.46305,6.13106 3.23242,10.56902 0.76936,4.43797 2.37071,9.97404 3.55854,12.30238 1.45698,2.85592 2.09276,5.76186 1.95396,8.93098 -0.13562,3.09661 0.49034,6.06087 1.83668,8.69762 1.12332,2.2 2.82996,7.6 3.79252,12 2.56537,11.72661 7.58354,20.42412 15.08591,26.14696 l 3.7402,2.85304 101.57817,0.51169 c 55.86799,0.28144 102.25317,0.61094 103.07817,0.73224 0.825,0.1213 5.37126,-0.18695 10.10279,-0.68499 z M 455.5786,237.10367 c 4.82223,-2.19015 8.05591,-5.98637 9.35653,-10.98422 1.31693,-5.06052 0.5648,-185.766261 -0.78779,-189.271499 -1.30964,-3.393968 -5.73709,-7.57773 -9.90452,-9.359389 -2.74083,-1.171761 -26.20253,-1.36049 -148,-1.190535 -109.0444,0.15216 -145.2491,0.492909 -146.79559,1.381603 -1.12902,0.648796 -3.2593,3.396421 -4.73395,6.105833 l -2.68117,4.926202 -0.0847,92.721655 c -0.0778,85.05439 0.0575,93.17391 1.6355,98.19081 0.98922,3.14497 2.77556,6.29925 4.20356,7.42251 2.43801,1.91773 5.13903,1.95296 148.09844,1.9314 139.58724,-0.0211 145.78398,-0.0986 149.69374,-1.87437 z M 59.856512,1617.6795 c -5.041223,-1.429 -15.841216,-10.612 -25.531821,-21.7092 -6.006417,-6.8783 -6.753049,-10.0936 -6.172702,-26.5825 0.311127,-8.8399 0.627362,-10.2587 2.98379,-13.3878 1.449678,-1.925 3.634238,-5.525 4.854578,-8 2.793564,-5.6657 9.304544,-12.5257 14.509643,-15.2873 3.691484,-1.9586 5.542582,-2.1226 24,-2.1256 16.480756,0 20.527887,0.28 23,1.6067 5.13743,2.7572 16.35088,15.2388 19.11539,21.2773 2.44353,5.3373 2.5554,6.3189 2.20275,19.3259 l -0.37152,13.703 -4.43492,9.9062 c -4.86,10.8557 -6.08508,12.0196 -19.774498,18.7856 -5.725058,2.8296 -7.270581,3.1258 -18,3.4496 -7.710974,0.2328 -13.330064,-0.097 -16.38069,-0.9619 z M 69.5,726.96751 c -2.2,-1.02883 -6.475,-2.15427 -9.5,-2.50097 -7.918556,-0.90756 -7.866202,-0.88083 -15.120462,-7.72256 -5.72297,-5.39752 -7.315841,-7.7463 -11.75,-17.32604 L 28,688.33588 v -11.48951 -11.48951 l 5.377945,-6.74879 c 2.957869,-3.71183 6.445369,-7.45863 7.75,-8.32623 1.30463,-0.86759 4.182347,-3.30431 6.394926,-5.41494 5.103506,-4.86834 15.042867,-8.89517 23.668348,-9.58899 5.518684,-0.44392 8.76053,0.0216 18.5,2.65666 18.690341,5.05672 18.461861,4.90202 21.693511,14.68856 0.93045,2.81772 3.012,6.86772 4.62568,9 l 2.93395,3.87687 0.0278,16.15539 0.0278,16.15538 -3.54299,4.24069 c -1.94865,2.33237 -4.04353,5.18745 -4.65531,6.34461 -0.61178,1.15716 -4.04662,4.92067 -7.63297,8.36334 -5.891211,5.65519 -7.421875,6.54811 -15.856652,9.25 -10.716626,3.43285 -12.334143,3.51985 -17.812078,0.9581 z"
       id="path1572" />
  </g>
</svg>
