<?xml version="1.0" encoding="UTF-8" standalone="no"?>
<!-- Created with Inkscape (http://www.inkscape.org/) -->

<svg
   version="1.1"
   id="svg1686"
   width="515"
   height="2340"
   viewBox="0 0 515 2340"
   sodipodi:docname="d#.svg"
   inkscape:version="1.1.1 (3bf5ae0d25, 2021-09-20)"
   xmlns:inkscape="http://www.inkscape.org/namespaces/inkscape"
   xmlns:sodipodi="http://sodipodi.sourceforge.net/DTD/sodipodi-0.dtd"
   xmlns="http://www.w3.org/2000/svg"
   xmlns:svg="http://www.w3.org/2000/svg">
  <defs
     id="defs1690" />
  <sodipodi:namedview
     id="namedview1688"
     pagecolor="#ffffff"
     bordercolor="#666666"
     borderopacity="1.0"
     inkscape:pageshadow="2"
     inkscape:pageopacity="0.0"
     inkscape:pagecheckerboard="0"
     showgrid="false"
     inkscape:zoom="0.33418803"
     inkscape:cx="-86.777494"
     inkscape:cy="1170"
     inkscape:window-width="1920"
     inkscape:window-height="986"
     inkscape:window-x="-11"
     inkscape:window-y="-11"
     inkscape:window-maximized="1"
     inkscape:current-layer="g1692" />
  <g
     inkscape:groupmode="layer"
     inkscape:label="Image"
     id="g1692">
    <path
       style="fill:#000000"
       d="m 191.95395,2153.6839 c -1.03792,-1.7067 -2.1281,-4.2463 -2.42263,-5.6435 -0.29453,-1.3972 -0.64706,-405.0654 -0.78341,-897.0404 L 188.5,356.5 l -3.87994,-7.8593 c -2.4857,-5.03508 -4.69954,-11.72918 -6.16075,-18.62849 -1.28868,-6.08471 -3.31377,-12.45326 -4.65548,-14.6407 -3.99728,-6.51689 -4.80684,-9.18898 -5.84292,-19.28529 -1.19798,-11.67401 -2.15118,-15.26425 -5.32656,-20.06257 -1.32482,-2.00194 -3.39578,-7.5797 -4.60213,-12.39503 l -2.19336,-8.75514 0.0791,-111.18674 c 0.0435,-61.152706 0.0798,-112.417141 0.0806,-113.920963 8.7e-4,-1.606512 1.20492,-4.081171 2.91931,-6 L 161.83566,20.5 322.66783,20.26524 C 450.57299,20.078542 484.01182,20.288958 486,21.293021 c 1.42637,0.72034 3.00318,2.792225 3.67168,4.824477 1.38372,4.206554 2.12016,233.058892 0.76067,236.382502 -0.44994,1.1 -2.06248,3.97094 -3.58342,6.37987 -1.52093,2.40893 -3.07537,6.45893 -3.4543,9 -0.37894,2.54107 -1.52275,6.56994 -2.5418,8.95304 -1.1106,2.59717 -1.85283,6.71611 -1.85283,10.28211 0,6.28688 -1.63409,11.50916 -4.29067,13.71226 -0.88027,0.73 -2.13001,3.88 -2.77722,7 -1.60716,7.74775 -6.77267,26.83249 -8.50964,31.44016 -0.78113,2.07209 -1.97321,5.67209 -2.64908,8 -0.96597,3.32715 -1.34057,195.36633 -1.75112,897.73256 -0.45378,776.3318 -0.71172,893.8705 -1.96696,896.325 -3.10784,6.0772 4.85531,5.7473 -135.14278,5.5983 L 193.84107,2156.787 Z M 330.5,2144.6424 c 101.79162,-0.1394 104.10617,-0.1852 109,-2.1589 3.72428,-1.502 5.4474,-2.9053 6.75351,-5.5 1.66461,-3.3069 1.74065,-25.9659 1.5,-446.9835 -0.19858,-347.408 -0.51898,-444.0958 -1.47876,-446.25 -1.60369,-3.5994 -4.5771,-3.5359 -6.92655,0.1478 -2.93192,4.5971 -19.82699,19.9865 -23.73407,21.619 -2.49621,1.0429 -7.19548,1.4767 -15.83201,1.4612 -13.30535,-0.024 -11.58635,0.4689 -27.2303,-7.8038 -5.58891,-2.9554 -7.88313,-4.9458 -11.72738,-10.1742 -7.77998,-10.5813 -9.93168,-15.3787 -10.54711,-23.5161 -0.62904,-8.3173 2.03907,-19.0878 5.95283,-24.0301 1.24841,-1.5764 3.84836,-6.0316 5.77766,-9.9003 3.72325,-7.466 4.49763,-8.0808 14.90742,-11.8352 4.69257,-1.6924 7.79817,-1.9889 19.43988,-1.8557 11.95672,0.1368 14.90261,0.51 21.5,2.7241 9.50316,3.1892 14.93804,7.2415 19.72628,14.708 4.13125,6.442 6.01867,6.9341 8.41099,2.1931 1.3349,-2.6455 1.53626,-49.6902 1.75766,-410.66101 l 0.25006,-407.67321 -2.44461,-2.90525 c -4.49759,-5.34509 -3.52656,-5.30483 -125.55417,-5.20485 -123.22405,0.10096 -116.00119,-0.25494 -119.16612,5.87179 -1.1102,2.14914 -1.36808,150.29212 -1.53028,879.06473 -0.18964,852.1106 -0.14342,876.5967 1.66236,880.679 2.85587,6.4561 10.22808,9.6478 20.03271,8.6728 3.025,-0.3009 52.3,-0.6111 109.5,-0.6894 z m -78.16862,-165.3869 c -12.50308,-0.4475 -12.6137,-0.5014 -23.7173,-11.5658 -5.62415,-5.6044 -11.4381,-11.1992 -12.9199,-12.4331 -2.48366,-2.0681 -2.71173,-2.8885 -2.91876,-10.5 -0.31046,-11.4138 0.13535,-19.5775 1.31162,-24.0184 1.88142,-7.1031 15.03505,-24.1226 21.1133,-27.3184 2.06303,-1.0847 7.25526,-1.4185 22,-1.4142 22.15479,0.01 26.0758,0.7286 28.8049,5.3058 1.04567,1.7537 3.8256,4.5701 6.17763,6.2586 3.39001,2.4336 4.78263,4.4028 6.71856,9.5 2.23739,5.8909 2.42949,7.718 2.29127,21.7925 -0.14478,14.7422 -0.27887,15.6832 -3.32087,23.3063 -2.83765,7.1109 -3.80038,8.4288 -9.18246,12.5702 -7.67202,5.9035 -17.18828,9.4533 -24.27629,9.0556 -2.88768,-0.162 -8.32444,-0.4046 -12.0817,-0.5391 z m 16.23712,-12.732 c 3.48356,-1.0431 5.51872,-2.3794 6.9315,-4.5514 1.1,-1.6912 3.88213,-4.632 6.18251,-6.5351 6.43044,-5.3201 8.67433,-12.2305 8.01867,-24.6949 -0.61254,-11.6448 -1.86831,-14.3825 -9.87129,-21.5208 -4.91444,-4.3834 -6.41513,-5.1505 -11.26035,-5.7559 -6.99615,-0.8741 -19.44301,0.2375 -22.93294,2.0481 -4.06622,2.1096 -12.52012,9.5442 -13.16573,11.5783 -0.31761,1.0007 -2.35349,3.9687 -4.52417,6.5955 -3.77809,4.572 -3.9467,5.0799 -3.9467,11.8893 0,6.5618 0.29827,7.5711 3.84716,13.0184 4.40728,6.7647 5.32589,7.6056 14.0402,12.8518 10.80986,6.5078 17.59167,7.7981 26.68114,5.0767 z M 299.5,1795.9112 c -6.17674,-3.2988 -9.49873,-6.8721 -12.46785,-13.4112 -1.4984,-3.3 -3.49829,-6.6422 -4.44419,-7.4272 -2.60969,-2.1656 -4.2799,-6.0294 -5.04306,-11.6665 -0.73967,-5.4637 0.8994,-23.5144 2.38356,-26.2497 0.49437,-0.9111 6.30404,-7.1424 12.9104,-13.8473 13.9082,-14.1155 13.19132,-13.8093 32.32656,-13.8093 h 12.66543 l 4.33457,3.257 c 2.38402,1.7914 7.12934,4.6003 10.54516,6.2421 3.41582,1.6418 6.76232,4.0011 7.43667,5.243 1.80632,3.3264 6.01436,20.4118 6.59032,26.7579 0.54903,6.0493 -1.28867,23.9607 -2.88869,28.155 -1.32369,3.4699 -15.01402,15.7452 -18.7577,16.8189 -1.60102,0.4591 -11.614,1.1135 -22.25106,1.4542 -18.46848,0.5914 -19.5204,0.523 -23.34012,-1.5169 z m 39.8643,-11.2204 c 5.34248,-2.4459 10.7855,-8.0365 14.01117,-14.3911 1.87078,-3.6855 2.28023,-19.4449 0.61875,-23.8149 -0.55317,-1.455 -3.39179,-5.1968 -6.30804,-8.3151 -2.91625,-3.1183 -6.75109,-7.5502 -8.52188,-9.8485 -2.35599,-3.0579 -4.56626,-4.6261 -8.24004,-5.8464 -5.85476,-1.9446 -8.61919,-1.4778 -14.92426,2.5202 -2.475,1.5694 -6.525,3.6323 -9,4.5843 -6.35705,2.4453 -7.64466,3.8429 -9.96553,10.8171 -1.12819,3.3902 -3.20455,7.8613 -4.61414,9.9357 -4.55618,6.705 -4.24107,8.9293 2.85708,20.1679 7.43477,11.7716 10.92504,14.2683 21.48953,15.3719 14.29094,1.493 17.07413,1.3475 22.59736,-1.1811 z m -36.0946,-149.685 c -5.89082,-1.246 -12.0853,-4.127 -19.06502,-8.8668 -6.98038,-4.7403 -16.35465,-17.7417 -18.23394,-25.2891 -0.74901,-3.0081 -1.03044,-11.4827 -0.79699,-24 0.41585,-22.298 0.79833,-23.6546 10.17809,-36.0995 7.9599,-10.561 14.63144,-16.1815 21.12183,-17.7942 2.21448,-0.5502 6.86116,-2.41 10.32595,-4.1329 5.41506,-2.6926 7.67597,-3.1987 16.10155,-3.6044 11.17777,-0.5382 15.01219,0.3813 22.60992,5.4222 2.75609,1.8287 7.48109,4.0571 10.5,4.9522 10.91085,3.2348 12.79995,4.75 17.1138,13.7264 2.16219,4.4992 5.02691,9.6845 6.36605,11.5231 5.09462,6.9945 6.65189,13.4596 6.28531,26.094 -0.22414,7.7256 -0.89939,13.0567 -2.03459,16.0632 -0.9345,2.475 -1.94683,6.5414 -2.24963,9.0365 -0.55436,4.568 -2.37769,7.162 -11.92347,16.9635 -9.46765,9.7213 -11.55765,11.2092 -19.29818,13.7392 -6.89458,2.2535 -9.7428,2.5748 -25.27038,2.8506 -9.625,0.1709 -19.40363,-0.092 -21.7303,-0.584 z M 299,1438.8943 c -5.40656,-3.2412 -8.96261,-6.9555 -11.59139,-12.1074 -1.32269,-2.5922 -3.82996,-6.3361 -5.57171,-8.3199 -2.94012,-3.3486 -3.22576,-4.3355 -3.99022,-13.7869 -0.75186,-9.2956 -0.56484,-14.6163 0.76586,-21.7878 0.5414,-2.9178 12.51377,-16.0037 16.38746,-17.9116 1.375,-0.6773 4.83979,-3.0122 7.69954,-5.1887 6.69141,-5.0928 12.52894,-6.792 23.33366,-6.792 9.67905,0 14.76318,1.3946 21.22778,5.8227 2.33146,1.597 6.11579,3.8561 8.40962,5.0203 4.67905,2.3747 6.44218,5.9947 10.39647,21.3459 4.03263,15.6554 1.17213,35.9007 -5.97278,42.2726 -1.87394,1.6712 -5.3619,4.9299 -7.75103,7.2416 -2.38912,2.3117 -6.03123,4.6717 -8.09356,5.2444 -2.06234,0.5727 -12.2997,1.0422 -22.7497,1.0432 -17.51959,0 -19.27271,-0.1617 -22.5,-2.0964 z m 19.6807,-350.5026 c -1.55062,-0.8405 -5.99502,-2.1904 -9.87644,-2.9997 -3.88143,-0.8093 -8.23774,-2.0924 -9.6807,-2.8515 -3.61554,-1.9019 -10.54267,-9.3134 -12.65551,-13.5405 -0.96219,-1.925 -2.79383,-4.7515 -4.07031,-6.2811 -3.53986,-4.2417 -4.38878,-8.9549 -4.36226,-24.2189 l 0.0243,-14 7.33228,-7.5 c 16.23387,-16.6052 21.66665,-19.49656 38.25729,-20.36084 10.35897,-0.53964 11.5996,-0.40012 17.5,1.96812 3.49284,1.40192 7.92562,3.76452 9.85062,5.25012 1.925,1.4857 4.67204,3.443 6.10453,4.3496 1.57107,0.9944 3.52848,3.9587 4.9331,7.4707 1.28071,3.2023 2.97823,6.8429 3.77226,8.0903 1.07967,1.6961 1.47476,6.1087 1.5669,17.5 l 0.12321,15.232 -3.42364,7.3056 c -2.16044,4.61 -4.55872,8.096 -6.5,9.4481 -1.692,1.1784 -4.87636,4.0351 -7.07636,6.3481 -3.7019,3.8921 -4.50589,4.2589 -10.78814,4.9224 -4.60748,0.4866 -7.91451,1.4813 -10.29441,3.0964 -4.03138,2.7358 -6.75185,2.9311 -10.73675,0.7711 z M 300.5,921.64643 c -1.65,-0.74021 -4.35,-2.44602 -6,-3.79069 -1.65,-1.34467 -5.025,-3.29049 -7.5,-4.32404 -5.27388,-2.20236 -8.41621,-4.93831 -11.36576,-9.89588 C 274.46041,901.66286 271.7,897.50737 269.5,894.4014 l -4,-5.64721 V 865.1271 c 0,-23.43873 0.0199,-23.65989 2.5,-27.74024 4.80402,-7.90386 9.55753,-13.88353 17.12222,-21.53891 7.18619,-7.27235 7.96929,-7.77654 13.68942,-8.81379 3.33696,-0.60511 8.62121,-1.9789 11.74277,-3.05288 6.67338,-2.29598 13.6248,-2.73038 18.4738,-1.15444 1.90948,0.62059 6.83164,1.82772 10.93812,2.68251 9.83802,2.04784 14.65737,5.01715 25.83692,15.91872 11.14845,10.87125 14.45431,15.3762 17.84056,24.31157 2.31823,6.11716 2.51689,7.75936 2.08811,17.26036 -0.3951,8.75456 -1.11665,12.41167 -4.34062,22 l -3.86675,11.5 -11.01228,11.107 c -6.05675,6.10886 -12.58727,11.95886 -14.51227,13 -3.0933,1.67303 -6.11449,1.9216 -26,2.13914 -17.13742,0.18747 -23.21501,-0.0746 -25.5,-1.09971 z M 316,748.06078 c -2.475,-0.36959 -6.50335,-1.71496 -8.9519,-2.98971 -2.44854,-1.27474 -6.82029,-3.13256 -9.71499,-4.12849 -4.26152,-1.46618 -7.24724,-3.7739 -15.68937,-12.12667 -5.73444,-5.67375 -11.55897,-11.25764 -12.9434,-12.40865 -3.43346,-2.85457 -3.97856,-8.23381 -3.55008,-35.0333 0.34576,-21.62515 0.38019,-21.92576 3.02677,-26.42752 3.45574,-5.87811 16.39666,-18.16295 22.54142,-21.39859 2.62985,-1.3848 6.7391,-3.98708 9.13167,-5.78284 L 304.20024,624.5 h 18.23678 18.23677 l 9.70813,5 c 5.33946,2.75 11.6515,6.8 14.02675,9 2.37524,2.2 5.84248,5.37103 7.70498,7.04673 4.48334,4.0337 8.51547,12.5371 11.47273,24.19497 4.55362,17.95088 2.98959,28.72717 -6.85891,47.2583 -6.85919,12.9064 -13.95171,21.27116 -19.58172,23.09428 -2.00516,0.64931 -6.24568,2.48148 -9.42338,4.07148 -4.41399,2.20861 -8.0723,3.11417 -15.5,3.83678 -5.3473,0.52022 -10.17237,0.89734 -10.72237,0.83805 -0.55,-0.0593 -3.025,-0.41021 -5.5,-0.77981 z M 435.4468,359.37429 c 8.00698,-2.62355 10.04804,-4.59997 13.55586,-13.12663 1.75305,-4.26121 4.27504,-9.63708 5.60444,-11.94637 1.3294,-2.30929 3.31971,-8.58551 4.42291,-13.94715 1.15659,-5.62112 3.69176,-13.4084 5.98791,-18.39303 3.15214,-6.84289 3.98208,-9.82156 3.98208,-14.2917 0,-5.3357 3.0868,-18.99544 5.20033,-23.01255 1.66956,-3.17329 0.0339,-6.65019 -3.98592,-8.47276 -3.43167,-1.55591 -14.52335,-1.67199 -145.71441,-1.52495 -154.19356,0.17281 -148.25714,-0.046 -151.44791,5.58259 -1.33512,2.35519 -1.1629,3.28264 2.21082,11.90621 2.01229,5.14363 4.15495,12.50205 4.76146,16.35205 0.61049,3.87533 2.21191,8.90186 3.58755,11.26061 1.38152,2.36883 2.72257,6.58699 3.02028,9.5 0.2945,2.88166 1.35954,7.26439 2.36675,9.73939 1.00722,2.475 2.34302,7.425 2.96845,11 0.62543,3.575 2.02159,7.73006 3.10258,9.23346 1.08099,1.50341 3.46604,6.00341 5.3001,10 1.83406,3.9966 4.20308,8.03509 5.2645,8.97443 2.58616,2.28872 1.90198,2.27435 122.31222,2.57031 93.07255,0.22876 102.90918,0.1003 107.5,-1.40391 z m 37.2223,-117.19392 c 1.94078,-0.80814 3.87873,-2.7461 5,-4.99999 C 479.40516,233.69064 479.5,228.55321 479.5,138 V 42.5 l -2.21402,-4.139631 c -1.41899,-2.653145 -3.39397,-4.628122 -5.5,-5.5 -2.70977,-1.121823 -29.03385,-1.407058 -150.11959,-1.626623 l -146.8336,-0.266254 -2.73002,2.922488 c -5.54269,5.933476 -5.43504,3.775805 -5.23296,104.88816 0.17195,86.03238 0.32212,93.64361 1.93327,97.98292 1.08175,2.91348 2.68918,5.17498 4.22188,5.93979 3.74663,1.86954 295.11988,1.36343 299.64414,-0.52048 z M 78.733404,1621.9117 c -4.314995,-1.0165 -6.277304,-2.1944 -16.973774,-10.1888 -8.103468,-6.0563 -9.784889,-8.3098 -11.73184,-15.7229 -0.650023,-2.475 -2.329381,-6.1817 -3.731907,-8.2371 -3.212798,-4.7084 -3.346795,-11.4783 -0.311562,-15.7409 1.876463,-2.6352 2.795825,-6.1609 4.569035,-17.522 0.782045,-5.0106 6.760621,-11.0388 14.895058,-15.0186 5.035286,-2.4635 7.380365,-2.8874 20.370969,-3.6826 28.950997,-1.7721 33.459907,-0.01 44.596367,17.4777 4.81797,7.5636 7.87964,19.2395 7.00742,26.7235 -2.22653,19.1045 -7.46035,28.0503 -21.26363,36.3443 -4.43418,2.6644 -9.77156,5.2412 -11.86085,5.7262 -4.790564,1.112 -20.587472,1.0139 -25.565286,-0.1588 z m 25.154336,-12.5668 c 13.15736,-8.3776 17.09718,-13.6474 20.49331,-27.4113 1.4554,-5.8985 1.46809,-7.0682 0.12468,-11.5 -0.82254,-2.7135 -2.90417,-6.5086 -4.62585,-8.4336 -1.72168,-1.925 -4.19653,-5.1747 -5.49966,-7.2215 -1.30313,-2.0468 -3.76074,-4.441 -5.46134,-5.3205 -4.0404,-2.0893 -18.069354,-3.4761 -24.41888,-2.4138 -2.75,0.4601 -5.620756,0.8634 -6.379458,0.8962 -0.758702,0.033 -4.439041,3.2367 -8.178531,7.1198 -5.372212,5.5786 -7.233794,8.3475 -8.870542,13.1942 -2.671258,7.91 -2.668547,16.1532 0.0076,22.9586 2.671046,6.7925 4.04215,8.238 10.709307,11.2904 3.017091,1.3812 7.291342,4.1427 9.498336,6.1366 l 4.012716,3.6253 7.845443,-0.5378 c 5.145408,-0.3526 8.842619,-1.1726 10.742919,-2.3826 z M 84.282308,731.90541 c -2.437941,-1.56148 -12.188633,-4.0511 -19.075528,-4.87052 -0.161272,-0.0192 -2.944536,-2.76134 -6.185033,-6.09366 -4.522555,-4.65071 -6.528029,-7.73001 -8.629404,-13.25 -1.505675,-3.95518 -3.784911,-9.17075 -5.064967,-11.59017 C 42.663491,691.06609 42.329931,684.42034 44.46905,679 c 0.759695,-1.925 2.792401,-7.325 4.517124,-12 2.814675,-7.6294 3.847282,-9.17199 10.081744,-15.06091 5.98506,-5.65335 8.086148,-6.94715 15.188982,-9.35303 12.317838,-4.17231 21.210994,-4.47978 31.2431,-1.08022 14.08783,4.77393 15.09857,5.36848 21.34689,12.55695 5.01302,5.7673 6.19868,7.86165 7.1746,12.67315 0.64302,3.17023 2.02623,7.73376 3.07382,10.14118 2.41996,5.56125 2.42866,12.71592 0.0229,18.83586 -1.03498,2.63286 -2.43443,7.48702 -3.10988,10.78702 -1.05235,5.14137 -2.03304,6.85863 -6.85292,12 -6.38031,6.80588 -9.91534,9.07212 -15.65541,10.0364 -2.2,0.36958 -7.76284,1.75008 -12.361867,3.06778 -10.111278,2.89706 -10.781719,2.91065 -14.855825,0.30123 z"
       id="path1771" />
  </g>
</svg>
