<?xml version="1.0" encoding="UTF-8" standalone="no"?>
<!-- Created with Inkscape (http://www.inkscape.org/) -->

<svg
   version="1.1"
   id="svg1885"
   width="515"
   height="2340"
   viewBox="0 0 515 2340"
   sodipodi:docname="e.svg"
   inkscape:version="1.1.1 (3bf5ae0d25, 2021-09-20)"
   xmlns:inkscape="http://www.inkscape.org/namespaces/inkscape"
   xmlns:sodipodi="http://sodipodi.sourceforge.net/DTD/sodipodi-0.dtd"
   xmlns="http://www.w3.org/2000/svg"
   xmlns:svg="http://www.w3.org/2000/svg">
  <defs
     id="defs1889" />
  <sodipodi:namedview
     id="namedview1887"
     pagecolor="#ffffff"
     bordercolor="#666666"
     borderopacity="1.0"
     inkscape:pageshadow="2"
     inkscape:pageopacity="0.0"
     inkscape:pagecheckerboard="0"
     showgrid="false"
     inkscape:zoom="0.33418803"
     inkscape:cx="-86.777494"
     inkscape:cy="1170"
     inkscape:window-width="1920"
     inkscape:window-height="986"
     inkscape:window-x="-11"
     inkscape:window-y="-11"
     inkscape:window-maximized="1"
     inkscape:current-layer="g1891" />
  <g
     inkscape:groupmode="layer"
     inkscape:label="Image"
     id="g1891">
    <path
       style="fill:#000000"
       d="m 195.5,2165 c -12.14823,-0.5522 -15.86274,-1.9583 -18.94159,-7.1704 -1.6131,-2.7308 -1.72273,-54.6579 -1.88555,-893.1145 -0.1685,-867.78258 -0.22005,-890.3159 -2.0457,-894.2151 -1.03006,-2.2 -2.18884,-7.64183 -2.57508,-12.09295 -0.59475,-6.85417 -1.18474,-8.76754 -3.8544,-12.5 -2.28461,-3.19413 -3.40661,-6.196 -4.0767,-10.90705 -0.50849,-3.575 -1.80713,-8.75 -2.88586,-11.5 -1.07873,-2.75 -2.28039,-6.75183 -2.67035,-8.89296 -0.38997,-2.14113 -2.02658,-6.22751 -3.6369,-9.08086 -2.43445,-4.3136 -2.93527,-6.35394 -2.97176,-12.10704 -0.0242,-3.81413 -0.74814,-8.71417 -1.61322,-10.91914 -0.86312,-2.2 -2.60259,-6.925 -3.86548,-10.5 -1.26289,-3.575 -3.23102,-8.57649 -4.37361,-11.11442 -2.06167,-4.57939 -2.07784,-5.45043 -2.13032,-114.7457 -0.0364,-75.811151 0.28335,-111.37997 1.02608,-114.138253 2.06126,-7.65491 -12.93493,-7.055087 169.09294,-6.76344 150.25125,0.240734 163.65188,0.39584 166.44286,1.926499 6.32021,3.4662 5.96464,-3.522687 5.96464,117.236704 V 254.5 l -2.91489,3.81058 c -2.05267,2.6834 -3.46095,6.38031 -4.76089,12.49791 -1.21171,5.70238 -3.00354,10.57784 -5.2149,14.18942 -2.57006,4.1974 -3.75311,7.78416 -4.98912,15.12596 -0.89111,5.29312 -1.6202,11.45133 -1.6202,13.6849 0,5.37015 -1.38697,8.77028 -5.38084,13.19102 -2.79595,3.09477 -3.39034,4.64688 -3.90977,10.20941 -0.41965,4.49385 -2.28125,10.76914 -5.91098,19.9253 L 440.5,370.5 440.26352,1263 c -0.21468,810.2141 -0.382,892.8875 -1.81483,896.7032 -0.86809,2.3117 -2.33668,4.4275 -3.26352,4.7017 -2.00206,0.5922 6.07956,0.5371 -124.18517,0.8467 -57.475,0.1366 -109.45,0.023 -115.5,-0.2516 z m 226.68358,-13.2847 c 2.13455,-0.9027 4.33964,-2.8264 5.24367,-4.5746 1.40647,-2.7198 1.56198,-46.6571 1.5794,-446.2345 0.0173,-396.9305 -0.14109,-443.4624 -1.51671,-445.5619 -0.86052,-1.3133 -2.529,-2.3443 -3.79385,-2.3443 -2.60336,0 -14.20406,9.4197 -17.19609,13.9631 -3.66523,5.5657 -7.2356,6.5369 -24.03041,6.5369 h -15.03042 l -4.97876,-3.5753 c -2.73831,-1.9664 -7.14739,-4.4035 -9.79795,-5.4158 -4.95965,-1.8941 -5.26952,-2.206 -11.43641,-11.5089 l -3.64592,-5.5 0.13601,-16.2398 c 0.18414,-21.9868 1.18009,-25.3037 10.4764,-34.8911 3.86333,-3.9842 8.46064,-7.9257 10.21625,-8.7588 3.90557,-1.8533 24.47503,-4.0294 30.4187,-3.218 6.20676,0.8472 20.11359,5.2558 23.90671,7.5786 1.77881,1.0893 4.85852,4.2414 6.84381,7.0048 1.98528,2.7634 4.22495,5.0243 4.97705,5.0243 0.78197,0 2.04516,-2.2478 2.95028,-5.25 1.43305,-4.7532 1.57585,-43.5707 1.50912,-410.22075 -0.0657,-360.88754 -0.23947,-405.22371 -1.59639,-407.29463 -0.83747,-1.27814 -2.73663,-2.8663 -4.22037,-3.52925 C 421.14505,376.78821 393.83922,376.5 309,376.5 H 197.5 l -4.73161,2.78138 c -2.60238,1.52975 -5.19299,3.64347 -5.7569,4.69715 -1.44879,2.70709 -1.41596,1530.06657 0.033,1535.25967 1.26259,4.5252 3.39076,5.8285 7.9872,4.8914 2.48034,-0.5057 4.03802,-1.6694 5.46831,-4.0854 4.43137,-7.4853 15.76996,-16.4629 23.74504,-18.8008 3.69212,-1.0823 9.15961,-1.345 22.08107,-1.061 15.31172,0.3365 17.62423,0.615 21.32716,2.5685 4.94776,2.6102 9.42215,7.7665 11.25546,12.9708 0.73202,2.0781 2.82756,6.8516 4.65674,10.6079 3.81559,7.8355 5.86869,16.4246 5.16274,21.5982 -0.26809,1.9647 -2.37914,8.0722 -4.69123,13.5722 -4.58715,10.9119 -7.64458,14.5247 -17.13716,20.2501 -9.29914,5.6087 -14.57659,6.6302 -28.4335,5.5035 -13.37595,-1.0877 -16.3272,-2.1678 -23.59345,-8.6352 -2.54493,-2.2651 -5.85012,-4.9591 -7.34488,-5.9867 -1.51792,-1.0434 -3.9524,-4.62 -5.51436,-8.1013 -2.88583,-6.432 -4.19465,-7.5304 -8.97297,-7.5304 -2.89508,0 -5.2467,1.9896 -5.73365,4.8509 -0.72279,4.2472 -1.49405,40.6329 -1.44454,68.1491 0.0302,16.775 0.0735,48.9771 0.0962,71.5602 l 0.0413,41.0601 3.25,3.328 c 6.94372,7.1102 -2.59024,6.4913 109.70571,7.1223 119.28286,0.6703 118.41542,0.6798 123.22787,-1.3553 z M 287.71771,1803.4631 c -8.29476,-1.6497 -14.4284,-4.9061 -17.31605,-9.1934 -1.19666,-1.7766 -2.90252,-6.4485 -3.79079,-10.3819 -0.88828,-3.9334 -2.96411,-9.5096 -4.61296,-12.3915 -2.35429,-4.1148 -2.99791,-6.4475 -2.99791,-10.8651 0,-4.962 0.39391,-6.068 3.34001,-9.3783 1.837,-2.0641 4.77903,-6.9029 6.53784,-10.7529 2.90407,-6.3569 3.9921,-7.5971 11.84392,-13.5 12.79211,-9.6169 12.01325,-9.3443 26.93373,-9.427 l 13.1555,-0.073 4.3445,3.252 c 2.38948,1.7886 6.65007,4.3452 9.46799,5.6814 5.03459,2.3873 9.37651,6.6044 9.37651,9.1068 0,0.6988 1.48632,3.0496 3.30293,5.2239 2.70663,3.2396 3.71263,5.8734 5.57223,14.5882 2.68368,12.5769 2.0181,18.2803 -3.06607,26.2728 -1.70552,2.6812 -4.35203,7.6552 -5.88113,11.0534 -3.18966,7.0886 -5.05648,8.5669 -13.5723,10.7479 -7.68909,1.9692 -32.81264,1.9909 -42.63795,0.037 z M 323.5,1791.3914 c 3.67044,-1.7763 6.32956,-4.1925 10,-9.0863 9.07358,-12.0978 10.3776,-17.4741 6.16232,-25.4062 -1.28573,-2.4194 -3.10043,-6.6968 -4.03266,-9.5053 -1.91981,-5.7837 -3.63255,-7.5795 -12.16077,-12.7506 -10.01328,-6.0717 -17.60643,-7.2519 -22.96889,-3.5701 -1.65,1.1329 -6.58072,3.8417 -10.95715,6.0196 -4.37643,2.1779 -8.31885,4.5105 -8.76094,5.1837 -1.833,2.7909 -6.94475,21.0455 -6.45498,23.0514 2.21345,9.0654 5.05364,14.498 10.45341,19.995 3.14581,3.2024 6.61966,6.3381 7.71966,6.9684 2.10921,1.2084 19.24095,2.6106 23.5,1.9235 1.375,-0.2218 4.75,-1.4922 7.5,-2.8231 z m -41,-149.5281 c -1.1,-0.6197 -3.44023,-2.4841 -5.20051,-4.1432 -1.76029,-1.6591 -6.03529,-4.4123 -9.5,-6.1183 -4.21172,-2.0738 -6.96233,-4.2054 -8.29949,-6.4318 -1.1,-1.8315 -3.88782,-5.5312 -6.19517,-8.2216 -2.30734,-2.6904 -4.66733,-6.5919 -5.24442,-8.67 -1.37838,-4.9636 -1.35509,-38.6452 0.0303,-43.7784 0.59374,-2.2 2.72873,-6.6694 4.74442,-9.932 4.99308,-8.0819 18.86897,-22.2195 22.67966,-23.1075 1.64188,-0.3826 6.42908,-2.2232 10.63822,-4.0903 9.04912,-4.014 19.69354,-5.664 28.50447,-4.4186 6.269,0.8861 13.01842,3.748 15.28767,6.4823 0.72124,0.869 4.96613,2.6988 9.43311,4.0661 7.1678,2.1941 8.89778,3.2266 14.72846,8.791 7.88875,7.5284 8.04354,7.795 11.34431,19.5347 2.44833,8.7079 2.55812,10.0725 1.96714,24.4485 -0.80829,19.6622 -2.6621,26.4213 -8.97573,32.7258 C 347.80058,1629.6265 341,1636.9744 341,1637.8464 c 0,0.515 -1.9125,1.7399 -4.25,2.7219 -3.59434,1.5101 -7.95256,1.8346 -28.25,2.1036 -16.50128,0.2187 -24.62489,-0.034 -26,-0.8086 z m 40.00942,-11.6608 c 4.51505,-1.5613 7.72801,-3.324 17.6859,-9.7025 3.10788,-1.9908 8.63999,-9.9266 12.89644,-18.5 4.98828,-10.0475 2.97163,-28.6119 -4.07075,-37.4736 -1.66155,-2.0908 -3.02101,-4.2229 -3.02101,-4.7381 0,-2.0962 -12.01802,-13.368 -19.55937,-18.3448 -12.82201,-8.4618 -20.67317,-9.4229 -29.7825,-3.6459 -2.64579,1.6779 -7.7592,4.2312 -11.36313,5.6739 -8.99501,3.601 -12.7715,6.7576 -16.00548,13.3784 -1.51792,3.1075 -4.56653,7.3212 -6.77469,9.3636 L 258.5,1569.927 v 12.9689 c 0,12.7807 0.0399,13.0106 2.74624,15.8373 1.51043,1.5776 3.88295,5.7705 5.27226,9.3176 1.81903,4.6442 3.98915,7.8647 7.75375,11.5067 2.87526,2.7817 5.92256,6.1042 6.77177,7.3833 2.05983,3.1028 11.04824,4.843 25.45598,4.9286 7.97865,0.047 12.37593,-0.4105 16.00942,-1.6669 z m -38.36975,-182.2082 c -3.55944,-0.8335 -11.91811,-8.3064 -15.09377,-13.4943 -1.01,-1.65 -2.14518,-5.3221 -2.52262,-8.1602 -0.43881,-3.2995 -1.9189,-7.0735 -4.10477,-10.4663 -2.94889,-4.5771 -3.41851,-6.1539 -3.41851,-11.4776 0,-5.3396 0.44615,-6.8269 3.30986,-11.0337 1.82043,-2.6742 4.35593,-7.47 5.63444,-10.6573 1.99362,-4.97 3.38212,-6.6073 9.75247,-11.5 12.05051,-9.2553 12.20036,-9.3184 24.43255,-10.3017 13.98426,-1.1241 20.18953,0.1594 29.58165,6.1187 3.73397,2.3692 7.7828,4.9066 8.99742,5.6387 3.50781,2.1142 12.0982,20.63 13.50007,29.0982 1.45502,8.7893 0.36728,14.013 -4.63131,22.2412 -1.83769,3.025 -4.73442,8.28 -6.43719,11.6779 -5.33239,10.6406 -9.10617,11.9588 -36.13996,12.6237 -10.725,0.2637 -21.01215,0.1255 -22.86033,-0.3073 z M 301,1092.8731 c -1.375,-0.55 -6.325,-1.2697 -11,-1.5994 l -8.5,-0.5993 -6.26969,-6.5787 c -6.13586,-6.4384 -8.21269,-10.5375 -8.22473,-16.2335 -0.003,-1.4508 -1.67345,-5.0508 -3.71196,-8 -3.09457,-4.4771 -3.77447,-6.4001 -4.11889,-11.6499 -0.37807,-5.7626 -0.12441,-6.7646 3.03776,-12 1.89765,-3.1417 4.23148,-7.8318 5.18629,-10.4222 0.95481,-2.5905 2.71818,-5.575 3.91862,-6.6323 1.20043,-1.0573 4.70218,-4.2264 7.78166,-7.0424 4.80549,-4.3943 6.70613,-5.4032 13.40997,-7.1177 10.81962,-2.7672 21.26312,-2.6363 30.12433,0.3776 13.72668,4.6687 18.87234,8.7073 23.95589,18.8019 8.49496,16.8688 9.71924,25.23 5.68457,38.8228 -1.2244,4.125 -2.44432,8.6333 -2.71093,10.0184 -0.57867,3.0064 -12.46412,13.1271 -18.7853,15.9962 -2.35267,1.0678 -6.11857,1.9514 -8.36866,1.9634 -2.25009,0.012 -6.30009,0.6921 -9,1.5112 -5.6247,1.7063 -8.8536,1.8062 -12.40893,0.3839 z M 279.5,927.00076 c -17.81475,-12.2427 -17.9211,-12.33745 -21,-18.71032 -1.65,-3.41526 -4.9125,-8.15729 -7.25,-10.53785 L 247,893.4243 v -21.64705 c 0,-12.20245 0.44216,-22.81002 1.01343,-24.31257 1.1319,-2.97713 8.75184,-13.78663 13.74493,-19.4983 1.79209,-2.05 5.44769,-4.66911 8.12355,-5.82023 2.67585,-1.15112 6.71987,-3.64249 8.9867,-5.53638 4.14865,-3.46609 13.13866,-7.01633 20.72653,-8.18509 6.5994,-1.0165 27.44066,3.46859 34.90486,7.51162 2.75,1.48955 7.62606,3.75616 10.83569,5.03691 4.32913,1.72747 6.48484,3.30958 8.35024,6.12838 1.383,2.08986 3.63203,4.53195 4.99784,5.42686 3.12043,2.04459 5.31623,7.19498 5.31623,12.46956 0,2.23424 1.17856,6.8612 2.61902,10.28212 2.41037,5.72435 2.5761,7.01654 2.08038,16.21987 -0.66625,12.36936 -4.74204,25.81664 -10.38708,34.27016 -2.15706,3.23021 -4.48144,7.22391 -5.16529,8.87489 -1.2279,2.96441 -6.48929,6.7423 -16.14703,11.59421 -4.26026,2.1403 -5.8319,2.27572 -29.5,2.54196 -23.85853,0.26837 -25.13698,0.18708 -28,-1.78046 z M 302,754.1194 c -9.06874,-0.53497 -11.04524,-0.97877 -14.5,-3.2558 -2.2,-1.45002 -6.25,-3.44243 -9,-4.42758 -5.9302,-2.12441 -19.07946,-14.71493 -22.58057,-21.62106 -1.20312,-2.37323 -3.58968,-6.27789 -5.30346,-8.67703 L 247.5,711.77587 v -19.23809 -19.23809 l 4.07499,-5.89985 c 2.24125,-3.24491 4.7048,-7.47484 5.47457,-9.39984 0.76976,-1.925 4.33601,-6.41033 7.925,-9.9674 5.03481,-4.99003 9.03821,-7.73123 17.52544,-12 l 11,-5.5326 15,0.007 c 13.79153,0.006 15.36254,0.19579 19.5,2.35537 2.475,1.29184 6.29152,3.26214 8.48115,4.37845 4.85787,2.47661 19.45126,15.60735 22.90989,20.61371 1.38532,2.00524 4.00156,7.2459 5.81386,11.6459 3.24045,7.86731 3.29318,8.2431 3.17924,22.65704 -0.12119,15.3312 -0.0665,15.06617 -6.25816,30.34296 -2.2326,5.50857 -18.07379,20.93907 -25.12598,24.47458 -3.025,1.51654 -7.3,3.70434 -9.5,4.86176 -4.7901,2.52009 -11.41972,3.11365 -25.5,2.28306 z m -50.68982,1220.8465 c 9.5398,-1.8598 14.54352,-7.6893 19.67521,-22.9225 1.92277,-5.7077 2.01081,-6.9757 0.96589,-13.9118 -1.54999,-10.2887 -3.13148,-13.7077 -9.18252,-19.8515 -6.64954,-6.7516 -11.72109,-8.0961 -24.85295,-6.5889 l -8.98608,1.0313 -6.77137,6.907 c -6.14108,6.2641 -7.0354,7.7186 -9.60776,15.6264 -3.5486,10.9088 -3.53768,12.6125 0.13619,21.2441 2.77862,6.5282 3.47623,7.33 10.35098,11.8966 8.32605,5.5306 16.25768,8.7603 19.96223,8.1284 1.375,-0.2345 5.11458,-0.9361 8.31018,-1.5591 z M 418.36198,364.58963 c 4.87129,-1.14605 6.77843,-2.28417 11.2847,-6.73438 3.61728,-3.57227 5.78439,-6.68701 6.509,-9.35525 0.59745,-2.2 2.13316,-7.375 3.4127,-11.5 1.27953,-4.125 2.58799,-9.53966 2.90769,-12.03257 0.31969,-2.49292 1.58087,-6.05672 2.8026,-7.91957 4.35425,-6.63919 4.69202,-7.62063 4.70659,-13.67574 0.008,-3.37033 0.66996,-7.69604 1.47079,-9.61269 0.80083,-1.91665 1.90168,-6.25191 2.44633,-9.63392 0.67381,-4.18396 1.99131,-7.543 4.12259,-10.51075 3.71087,-5.1673 3.69475,-9.01067 -0.0495,-11.79275 -2.44206,-1.81454 -7.28091,-1.87492 -148.18437,-1.8491 -82.05868,0.015 -146.67097,0.4133 -147.9755,0.91212 -1.2736,0.487 -3.16316,1.82635 -4.19903,2.97636 -1.84591,2.04928 -1.84331,2.18596 0.13024,6.86476 1.10751,2.62562 2.32284,8.14885 2.70075,12.27385 0.91884,10.02962 2.35147,15.63885 5.30331,20.76427 2.92047,5.07099 6.20794,17.1014 6.23196,22.80573 0.0135,3.20763 0.7742,4.95445 3.59011,8.24422 3.14148,3.67011 3.73716,5.26689 4.93247,13.22198 1.47236,9.79893 3.71345,14.75556 7.5493,16.69682 3.78982,1.91796 222.12327,1.78202 230.30724,-0.14339 z M 458.42495,247.5958 c 4.38685,-1.83294 9.15855,-7.88463 10.53869,-13.36567 1.37439,-5.45819 1.50029,-181.884474 0.13236,-185.469482 -0.47443,-1.243357 -3.36318,-4.623148 -6.41944,-7.510648 -4.86042,-4.592035 -6.09698,-5.261701 -9.8667,-5.343362 -2.37042,-0.05135 -70.18422,-0.05511 -150.69734,-0.0083 -111.28685,0.06463 -146.72999,0.369275 -147.81593,1.27053 -0.78566,0.652033 -2.18629,2.56829 -3.11253,4.258348 C 149.63749,44.249122 149.5,52.545502 149.5,143.04387 c 0,93.3774 0.0948,98.68857 1.8083,101.30379 0.99456,1.51796 2.79456,3.15056 4,3.62802 1.20543,0.47745 69.17427,0.89045 151.04186,0.91778 122.63827,0.0409 149.41801,-0.18758 152.07479,-1.29766 z M 63.047018,1629.8621 c -6.15867,-1.0211 -9.277898,-2.6717 -20.248786,-10.7153 -11.383833,-8.3464 -12.046539,-10.2568 -11.625761,-33.5131 0.386913,-21.3845 0.631192,-22.0786 11.093372,-31.5204 13.07766,-11.8021 12.483021,-11.5878 32.141112,-11.5799 16.243439,0.01 17.366421,0.1344 22.593045,2.5715 3.025,1.4105 8.20075,4.8123 11.50168,7.5596 5.36052,4.4615 6.35571,5.9053 9.31574,13.5149 2.26032,5.8108 3.49975,10.975 3.89806,16.2416 0.52967,7.0035 0.32396,8.2966 -2.21121,13.9004 -8.23412,18.2009 -8.0429,17.9144 -17.05458,25.5481 -4.757841,4.0302 -10.064941,7.7334 -11.793554,8.2291 -3.897792,1.1179 -20.286961,0.9775 -27.609118,-0.2365 z M 65,737.77613 c -2.475,-1.15489 -6.75,-3.14201 -9.5,-4.41582 -4.923257,-2.28048 -12.225942,-8.56114 -17.885566,-15.38245 -6.296238,-7.58861 -6.115229,-6.74538 -6.104805,-28.43902 C 31.519071,669.88765 32.469196,663 35.170559,663 c 0.510356,0 3.606816,-2.68723 6.881024,-5.97162 5.514944,-5.53209 6.707354,-6.21275 16.200761,-9.24783 13.336064,-4.26359 18.870679,-4.19054 32.296629,0.42626 9.268651,3.18722 10.576317,3.97517 16.840157,10.14718 6.4758,6.38086 6.97189,7.21302 10.68239,17.91882 4.58081,13.21689 4.75601,16.44743 1.44288,26.60597 -1.36707,4.19167 -2.97845,9.60441 -3.58084,12.02832 -0.83949,3.37796 -2.53587,5.79108 -7.26441,10.33373 -3.39303,3.25965 -6.68666,6.35671 -7.31916,6.88236 -0.63251,0.52566 -3.954792,1.40743 -7.38285,1.9595 -3.428058,0.55208 -8.859492,2.10932 -12.069854,3.46054 -7.033064,2.96018 -10.937239,3.01399 -16.897286,0.2329 z"
       id="path1970" />
  </g>
</svg>
