<?xml version="1.0" encoding="UTF-8" standalone="no"?>
<!-- Created with Inkscape (http://www.inkscape.org/) -->

<svg
   version="1.1"
   id="svg824"
   width="515"
   height="2340"
   viewBox="0 0 515 2340"
   sodipodi:docname="error.svg"
   inkscape:version="1.1.1 (3bf5ae0d25, 2021-09-20)"
   xmlns:inkscape="http://www.inkscape.org/namespaces/inkscape"
   xmlns:sodipodi="http://sodipodi.sourceforge.net/DTD/sodipodi-0.dtd"
   xmlns="http://www.w3.org/2000/svg"
   xmlns:svg="http://www.w3.org/2000/svg">
  <defs
     id="defs828" />
  <sodipodi:namedview
     id="namedview826"
     pagecolor="#ffffff"
     bordercolor="#666666"
     borderopacity="1.0"
     inkscape:pageshadow="2"
     inkscape:pageopacity="0.0"
     inkscape:pagecheckerboard="0"
     showgrid="false"
     inkscape:zoom="0.31965812"
     inkscape:cx="256.52406"
     inkscape:cy="1170"
     inkscape:window-width="1920"
     inkscape:window-height="986"
     inkscape:window-x="-11"
     inkscape:window-y="-11"
     inkscape:window-maximized="1"
     inkscape:current-layer="g830" />
  <g
     inkscape:groupmode="layer"
     inkscape:label="Image"
     id="g830">
    <path
       style="fill:#aa0000"
       d="m 207.22666,1581.6162 c -29.19693,-11.083 -46.15601,-46.2408 -39.81384,-82.5377 2.86341,-16.3876 8.89485,-28.3239 19.82427,-39.2323 20.48317,-20.4439 52.63661,-20.8973 73.08418,-1.0305 18.26752,17.7486 25.53765,46.4609 19.01722,75.1058 -4.68866,20.5978 -17.80581,38.1544 -34.33849,45.9603 -7.1084,3.3562 -8.12655,3.5561 -19.5,3.8284 -10.63641,0.2547 -12.71286,0.017 -18.27334,-2.094 z M 215.5,1342.2672 c -3.80924,-0.9537 -7.56758,-4.4661 -10.27763,-9.605 L 202.5,1327.5 202.5472,1304 c 0.0506,-25.1947 1.63143,-38.3766 6.8527,-57.1428 6.48642,-23.3135 19.57808,-50.798 33.98939,-71.3572 6.34163,-9.047 29.8457,-38.43 41.99585,-52.5 20.84156,-24.1348 39.58303,-51.9749 52.84484,-78.5 15.26203,-30.5257 23.12258,-65.02858 23.12404,-101.5 8.4e-4,-20.76718 -1.28647,-31.40905 -5.8297,-48.19295 C 346.18641,860.31034 323.72743,831.76858 294.5,817.2549 276.43133,808.28241 260.40196,805 234.65421,805 c -21.99018,0 -40.4632,2.711 -57.9677,8.50701 -10.15248,3.36164 -24.06908,9.47556 -26.02849,11.43497 -0.48189,0.48189 -1.49687,11.60458 -2.25552,24.71709 -2.08657,36.06454 -3.23984,47.44023 -6.47219,63.84093 -2.41875,12.27261 -3.77203,16.63643 -7.44272,24 -7.658,15.36231 -13.23828,19.7961 -24.98759,19.85379 -7.88218,0.0387 -11.243436,-1.31863 -16.142201,-6.51847 C 85.10047,942.0705 82.052126,929.14828 82.021642,902.78027 81.989799,875.23739 85.629445,855.11774 94.170145,835.62438 113.51966,791.46091 156.19829,760.81865 208,753.89721 c 13.23469,-1.76835 42.21757,-2.28608 53,-0.94676 31.57487,3.92201 43.23472,6.87985 65.18169,16.53509 24.42738,10.74646 47.70293,28.92256 65.24454,50.95007 29.22806,36.70254 42.71166,98.23118 34.96749,159.56439 -4.61132,36.5213 -21.14634,78.8074 -41.8399,107 -15.97383,21.7625 -50.60761,61.4007 -92.18558,105.506 -18.69944,19.8361 -29.19091,34.2073 -38.32224,52.494 -10.65122,21.3304 -13.80148,33.3993 -15.13943,58 -1.08091,19.8747 -2.7671,29.591 -5.89842,33.9886 -3.46175,4.8615 -10.59022,7.0108 -17.50815,5.2786 z"
       id="path932" />
  </g>
</svg>
