<?xml version="1.0" encoding="UTF-8" standalone="no"?>
<!-- Created with Inkscape (http://www.inkscape.org/) -->

<svg
   version="1.1"
   id="svg2084"
   width="515"
   height="2340"
   viewBox="0 0 515 2340"
   sodipodi:docname="f.svg"
   inkscape:version="1.1.1 (3bf5ae0d25, 2021-09-20)"
   xmlns:inkscape="http://www.inkscape.org/namespaces/inkscape"
   xmlns:sodipodi="http://sodipodi.sourceforge.net/DTD/sodipodi-0.dtd"
   xmlns="http://www.w3.org/2000/svg"
   xmlns:svg="http://www.w3.org/2000/svg">
  <defs
     id="defs2088" />
  <sodipodi:namedview
     id="namedview2086"
     pagecolor="#ffffff"
     bordercolor="#666666"
     borderopacity="1.0"
     inkscape:pageshadow="2"
     inkscape:pageopacity="0.0"
     inkscape:pagecheckerboard="0"
     showgrid="false"
     inkscape:zoom="0.33418803"
     inkscape:cx="-86.777494"
     inkscape:cy="1170"
     inkscape:window-width="1920"
     inkscape:window-height="986"
     inkscape:window-x="-11"
     inkscape:window-y="-11"
     inkscape:window-maximized="1"
     inkscape:current-layer="g2090" />
  <g
     inkscape:groupmode="layer"
     inkscape:label="Image"
     id="g2090">
    <path
       style="fill:#000000"
       d="m 195.06063,2152.2931 c -5.3964,-0.5186 -9.27482,-3.1174 -11.42989,-7.6588 -1.48269,-3.1246 -1.6303,-63.4652 -1.79132,-732.2697 C 181.7429,1011.4891 181.68143,680.8 181.70281,677.5 c 0.13361,-20.62016 0.10255,-290.39287 -0.0346,-301 -0.13334,-10.30816 -0.53373,-13.66888 -1.93364,-16.23028 -0.97102,-1.77665 -2.60571,-7.40165 -3.63265,-12.5 -1.28115,-6.36038 -2.87189,-10.88435 -5.06842,-14.41423 -2.57879,-4.14419 -3.47608,-7.11079 -4.61463,-15.25678 -2.03936,-14.59086 -3.07655,-18.52254 -6.47478,-24.54386 -4.00787,-7.10157 -4.84575,-10.20671 -5.891,-21.83175 -0.7677,-8.53825 -1.29539,-10.42568 -4.16515,-14.8978 -2.92591,-4.55965 -3.33018,-6.06371 -3.68853,-13.7231 -0.27731,-5.9273 0.1107,-10.57128 1.24781,-14.93454 1.46857,-5.63517 1.64291,-14.93852 1.5835,-84.5 -0.0367,-42.99222 -0.13329,-86.75148 -0.2146,-97.242816 -0.13153,-16.96971 0.0636,-19.501243 1.76804,-22.935466 1.05374,-2.12317 3.10288,-4.727003 4.55365,-5.786295 2.57957,-1.883497 6.13658,-1.923001 161.24377,-1.790763 122.23777,0.104215 159.46422,0.416395 162.34878,1.361451 7.19536,2.357383 6.73944,-5.238212 7.0367,117.230509 l 0.267,110.00428 -3.86046,5.1378 c -3.47778,4.62847 -3.92504,5.91676 -4.51182,12.99572 -0.80534,9.71581 -4.5923,22.78479 -8.16793,28.18793 -2.26224,3.41846 -2.82544,5.70303 -3.54195,14.3674 -0.91802,11.10109 -3.08759,19.84043 -5.40238,21.76153 -2.21973,1.84221 -4.32432,8.67267 -5.55878,18.04106 -0.81836,6.21051 -1.16996,249.57024 -1.30537,903.5 -0.17482,844.268 -0.28279,895.1781 -1.90494,898.1416 -0.95797,1.7501 -3.17253,3.7107 -5,4.4266 -2.59892,1.018 -28.62453,1.323 -125.28038,1.4682 -67.1,0.1008 -123.99772,-0.01 -126.43937,-0.2433 z m 237.71245,-14.1921 c 2.90019,-1.3019 6.39381,-3.6991 7.76359,-5.3269 l 2.4905,-2.9598 0.12211,-461.1572 c 0.0672,-253.6364 0.12588,-462.9571 0.13049,-465.1571 0.005,-2.2 -0.0598,-189.2569 -0.14309,-415.68205 l -0.15145,-411.68205 -2.52105,-2.9961 c -1.38658,-1.64786 -4.64576,-3.81594 -7.24262,-4.81795 C 428.75391,366.59797 422.42091,366.5 315.45841,366.5 c -107.27042,0 -113.1823,0.0921 -115.79774,1.80433 -1.51588,0.99239 -3.63449,3.24239 -4.708,5 -1.93194,3.16306 -1.94921,11.04692 -1.69281,772.69567 0.24098,715.8397 0.3756,769.8717 1.93043,774.8309 1.53526,4.8968 1.54429,5.8741 0.11087,12 -1.33558,5.7078 -1.62771,20.05 -2.02667,99.5015 -0.25639,51.0578 -0.18881,94.3108 0.15017,96.1177 0.64757,3.4519 6.32994,10.0775 9.94931,11.6009 1.21938,0.5133 49.46229,0.793 113.12603,0.656 l 111,-0.2389 z M 236.5,1974.3569 c -1.1,-0.2798 -3.72829,-0.9529 -5.84064,-1.4957 -2.11234,-0.5429 -5.71234,-2.663 -8,-4.7112 -2.28765,-2.0483 -6.05285,-4.9388 -8.36711,-6.4233 -4.81887,-3.0912 -5.87938,-5.8403 -6.83821,-17.7267 -0.33275,-4.125 -1.04926,-9.8448 -1.59224,-12.7106 -0.84348,-4.4519 -0.61478,-6.6101 1.57047,-14.8204 l 2.55772,-9.6096 8.82987,-8.788 c 11.09242,-11.0397 12.13107,-11.3507 35.71257,-10.6939 21.02679,0.5857 23.43964,1.234 27.59315,7.4142 1.7404,2.5895 4.42998,6.06 5.97686,7.712 4.49644,4.8022 6.11056,10.6532 6.64645,24.0927 0.36697,9.2035 0.1058,13.3887 -1.09203,17.5 -1.69674,5.8236 -8.663,16.1918 -13.29645,19.7897 -8.61282,6.6879 -10.927,8.1893 -14.23049,9.2321 -3.77729,1.1924 -26.1367,2.1272 -29.62992,1.2387 z m 24.96923,-13.2403 c 6.03601,-2.67 17.28712,-13.4456 19.73236,-18.8984 2.7288,-6.0851 3.50425,-16.9814 1.4781,-20.7696 -0.86739,-1.6217 -5.31372,-6.8289 -9.88072,-11.5715 -7.60228,-7.8945 -8.77775,-8.7289 -13.91672,-9.879 -3.85135,-0.8619 -8.68003,-1.0262 -15.38479,-0.5235 l -9.77173,0.7326 -6.81503,6.883 c -7.70838,7.7852 -8.27282,9.3426 -8.30314,22.9098 -0.0157,7.0122 0.40307,9.3414 2.39235,13.3068 3.28575,6.5499 12.55311,16.5703 17.46552,18.8848 5.16718,2.4345 16.23983,1.9171 23.0038,-1.075 z M 304,1792.8354 c -10.04817,-1.2143 -16.33255,-3.4213 -18.5,-6.4972 -1.1,-1.561 -3.87401,-4.6382 -6.16446,-6.8382 -2.62147,-2.5179 -4.56088,-5.5001 -5.23437,-8.0488 -1.52731,-5.7797 -1.64505,-39.1787 -0.15139,-42.9468 2.0596,-5.1957 6.08841,-9.5642 13.2426,-14.3592 12.65745,-8.4835 13.00878,-8.6005 25.8908,-8.624 11.21974,-0.02 11.73916,0.076 16.55465,3.0661 2.73431,1.698 7.50433,4.2468 10.60005,5.6641 4.23566,1.9391 6.29365,3.6498 8.31598,6.9127 1.47807,2.3847 3.72519,5.4609 4.99361,6.8359 1.26841,1.375 3.49347,5.65 4.94456,9.5 2.4658,6.5422 2.59335,7.6867 1.95022,17.5 -0.7997,12.2023 -2.74356,18.2208 -8.39754,26 -2.19859,3.025 -4.57057,6.3074 -5.27107,7.2943 -2.47575,3.4878 -9.45691,4.985 -23.77364,5.0986 -7.425,0.059 -15.975,-0.192 -19,-0.5575 z m 22.6944,-12.1615 c 1.75691,-0.6456 5.58191,-3.3049 8.5,-5.9095 2.91808,-2.6045 6.77705,-5.9795 8.57548,-7.5 7.11893,-6.0185 6.55748,-20.7777 -1.23697,-32.517 -2.48602,-3.7442 -5.40973,-6.4673 -9.78884,-9.1171 -3.43424,-2.0781 -7.69464,-4.8171 -9.46757,-6.0868 -3.74769,-2.6839 -10.89386,-4.0232 -14.36424,-2.6922 -2.40998,0.9244 -22.12079,20.8013 -23.87172,24.0729 -1.58677,2.965 -2.3158,11.6811 -1.56412,18.7002 0.63807,5.9582 1.13794,7.1432 4.37201,10.3642 2.00836,2.0003 4.77657,5.0847 6.15157,6.8542 1.8356,2.3623 3.69592,3.446 7,4.0777 6.58564,1.2591 21.99975,1.1112 25.6944,-0.2466 z M 284.43715,1628.175 c -2.16543,-1.5834 -6.34742,-5.533 -9.2933,-8.7769 -2.94589,-3.244 -6.8144,-7.4731 -8.59669,-9.3981 -1.78229,-1.925 -4.28019,-5.3 -5.55089,-7.5 -1.2707,-2.2 -3.66697,-5.4512 -5.32505,-7.2248 -2.98319,-3.1911 -3.01946,-3.3652 -3.47048,-16.6635 -0.54548,-16.0838 0.01,-19.6411 3.72761,-23.8831 1.55633,-1.7757 4.88045,-7.5036 7.38692,-12.7286 6.85156,-14.2828 9.18381,-17.1066 16.22925,-19.6497 3.27551,-1.1823 8.58042,-3.7406 11.78867,-5.685 3.20825,-1.9444 8.0679,-4.0145 10.79922,-4.6003 6.31363,-1.354 17.34644,-1.3706 21.87419,-0.033 1.92137,0.5677 6.82432,1.9382 10.89545,3.0457 7.09554,1.9302 21.09795,9.2298 21.09795,10.9987 0,0.4667 2.63745,3.5189 5.86101,6.7828 5.15097,5.2153 6.07072,6.7645 7.59205,12.7875 0.95207,3.7692 2.36462,8.6682 3.13899,10.8866 1.98568,5.6885 1.96281,33.1328 -0.0314,37.6827 -0.79164,1.8061 -2.37862,6.5432 -3.52662,10.5268 -1.8848,6.5403 -2.72113,7.8498 -8.62223,13.5 -11.51808,11.0283 -14.39037,11.7768 -47.47464,12.3702 l -24.56285,0.4407 -3.93715,-2.8788 z m 49.86251,-9.7585 c 4.2974,-2.1262 25.55579,-24.074 26.47256,-27.3309 0.40028,-1.4221 0.72778,-9.1106 0.72778,-17.0856 0,-19.3982 -1.43462,-23.862 -10.5,-32.6705 -4.97642,-4.8353 -8.10906,-6.9341 -13.36469,-8.9539 -3.77558,-1.4509 -8.30329,-3.9012 -10.06158,-5.445 -6.75657,-5.9324 -19.31872,-6.4926 -24.90934,-1.1108 -1.74042,1.6754 -5.90025,4.2269 -9.24409,5.67 -4.14648,1.7896 -7.04615,3.8814 -9.11906,6.5785 -1.67165,2.175 -4.54777,4.9711 -6.39139,6.2135 -2.57314,1.734 -3.97892,3.9572 -6.05,9.568 -1.48389,4.02 -3.9644,9.1366 -5.51225,11.3701 -2.28317,3.2946 -2.81427,5.1388 -2.81427,9.7724 0,5.0237 0.49192,6.4439 4.08548,11.7956 2.24702,3.3464 4.6537,8.1137 5.34818,10.5942 1.35229,4.8299 2.31013,6.0245 8.53301,10.642 15.31295,11.3626 16.17618,11.6369 37.29966,11.8511 9.40307,0.095 13.05334,-0.2481 15.5,-1.4587 z M 299,1436.3729 c -8.02504,-1.5481 -12.58496,-3.8826 -17.58277,-9.0017 C 273.69398,1419.4606 273,1416.6137 273,1392.8421 c 0,-24.614 0.2694,-25.4734 10.42304,-33.2505 11.76045,-9.0077 14.88814,-10.074 29.57696,-10.0835 11.65279,-0.01 12.83889,0.1735 17.5,2.6706 2.75,1.4734 7.36407,3.8696 10.2535,5.325 3.61302,1.8198 6.23604,4.106 8.40002,7.3212 1.73059,2.5713 3.97193,5.5966 4.98076,6.7228 1.00883,1.1262 2.79143,4.7262 3.96133,8 3.02988,8.4786 2.86245,27.4115 -0.31352,35.4523 -2.58779,6.5517 -12.75304,18.4127 -17.20107,20.0705 -3.10913,1.1587 -36.84777,2.2156 -41.58102,1.3024 z m 25.82568,-11.9138 c 4.06984,-1.2086 6.90343,-3.1731 13.14093,-9.1103 10.42267,-9.921 11.86949,-13.4063 10.23122,-24.6465 -0.75177,-5.1578 -1.98332,-9.2393 -3.4349,-11.3834 -2.19668,-3.2447 -15.68059,-15.1341 -19.45432,-17.1537 -3.31806,-1.7758 -15.74908,-2.5337 -18.41024,-1.1225 -1.3191,0.6995 -6.75205,5.6295 -12.07322,10.9555 -11.14325,11.1534 -11.18104,11.2515 -10.66645,27.695 l 0.3413,10.9063 6.85724,6.6551 c 5.93313,5.7582 7.48292,6.7371 11.5,7.2638 2.55352,0.3348 5.31776,0.7529 6.14276,0.9292 3.97433,0.849 11.14673,0.401 15.82568,-0.9885 z m 48.92714,-162.3948 c -1.51095,-0.4894 -4.88595,-2.4476 -7.5,-4.3515 -2.61405,-1.9039 -6.55282,-4.3703 -8.75282,-5.4808 -2.2,-1.1106 -4.77056,-2.8713 -5.71235,-3.9127 -2.99731,-3.3145 -6.88019,-19.827 -7.4887,-31.8467 -0.52383,-10.3472 -0.40449,-11.3341 1.93487,-16 1.37123,-2.7349 3.01485,-6.5476 3.6525,-8.4726 0.63765,-1.925 3.51158,-6.1205 6.38652,-9.3232 7.18764,-8.0073 13.10886,-9.6808 34.20552,-9.667 13.86064,0.01 15.43131,0.2005 20.32221,2.4774 2.91531,1.3572 7.86531,4.9052 11,7.8844 3.13469,2.9792 7.36042,6.1053 9.39052,6.9469 5.00795,2.0761 5.98358,6.1403 6.165,25.6815 0.1609,17.3299 -0.99341,21.7269 -6.44379,24.5454 -1.5499,0.8014 -4.18525,3.4444 -5.85631,5.8732 -2.96062,4.3031 -13.59956,12.2545 -19.62312,14.666 -3.61717,1.4481 -27.91407,2.1995 -31.68005,0.9797 z M 313.5,1083.6177 c -2.2,-0.6867 -6.925,-1.846 -10.5,-2.5764 -9.08947,-1.8569 -15.65257,-5.1524 -21.62144,-10.8567 -7.46063,-7.1299 -8.29978,-10.4658 -8.47328,-33.6846 -0.18265,-24.4427 0.17252,-25.7693 8.74762,-32.6726 10.01779,-8.06481 9.88482,-7.99174 18.13363,-9.96582 20.09511,-4.80912 39.20005,0.78971 51.06927,14.96622 7.69739,9.1937 11.44949,24.163 9.36777,37.3736 -2.15828,13.6964 -3.51724,16.6552 -11.44204,24.9115 -6.97136,7.2631 -7.55736,7.6393 -13.75693,8.8313 -3.56147,0.6848 -8.15605,2.1025 -10.21016,3.1505 -4.28145,2.1842 -5.77155,2.2531 -11.31444,0.523 z M 288.08466,917.2826 c -0.77844,-0.30772 -6.87221,-6.00969 -13.54172,-12.67105 -11.1773,-11.16364 -12.53399,-12.93671 -17.33465,-22.65481 L 252,871.41347 v -12.09452 -12.09453 l 3.50181,-5.09073 c 1.92599,-2.79991 4.87971,-8.5879 6.56381,-12.86221 4.31239,-10.94505 6.82659,-14.35641 13.04217,-17.69616 2.96572,-1.59354 6.9911,-4.14252 8.94529,-5.6644 2.67445,-2.08279 5.14731,-2.93431 10,-3.44343 3.54581,-0.37201 8.8638,-1.75438 11.81776,-3.07194 6.23533,-2.78113 14.69288,-3.18964 19.07894,-0.92152 1.56775,0.81072 6.15791,2.00327 10.20034,2.65013 4.04243,0.64685 8.47488,1.74466 9.84988,2.43956 1.375,0.69491 6.92059,5.56149 12.32354,10.81461 8.82259,8.57795 10.18229,10.39534 13.34444,17.8364 l 3.52091,8.28527 0.54132,19.70088 0.54132,19.70088 -3.02141,4.79912 c -1.66177,2.63952 -3.53615,6.42115 -4.16529,8.40363 -0.62915,1.98247 -2.75548,5.48727 -4.72519,7.78843 -4.35029,5.08234 -18.36323,14.47437 -23.85964,15.99168 -4.08401,1.12742 -48.69658,1.47274 -51.41534,0.39798 z M 294.5,740.92555 c -2.75,-1.76128 -7.4186,-4.03511 -10.37466,-5.05296 -4.19329,-1.44387 -7.07578,-3.55653 -13.11395,-9.61162 -7.18073,-7.20085 -7.94131,-8.37443 -10.53849,-16.26097 -1.53956,-4.675 -4.07543,-11.2 -5.63526,-14.5 -2.38064,-5.03651 -2.83619,-7.28919 -2.83685,-14.02821 -6.9e-4,-7.04277 0.40895,-8.88398 3.33727,-15 1.83593,-3.83449 4.38006,-10.12179 5.65362,-13.97179 2.03655,-6.15651 3.25136,-7.93193 10.08153,-14.73395 5.79409,-5.7702 9.13299,-8.24542 13.14979,-9.74829 2.9611,-1.10789 6.92294,-3.14988 8.80408,-4.53774 4.95553,-3.65607 8.91731,-4.34359 23.47292,-4.07344 l 13,0.24128 6.06077,3.95356 c 3.33342,2.17445 8.05842,4.58828 10.5,5.36405 6.60237,2.09779 20.97732,16.7821 25.24217,25.78538 L 374.5,661.5 v 18.04398 c 0,15.12809 -0.26826,18.45339 -1.66004,20.57752 -0.91302,1.39344 -2.36278,4.89992 -3.22168,7.79217 -0.85891,2.89224 -2.44906,6.69449 -3.53367,8.44943 -3.04887,4.93318 -16.98019,16.70078 -22.83905,19.29184 -2.89297,1.27941 -7.13496,3.56794 -9.42664,5.08563 -4.01714,2.66038 -4.70786,2.7707 -19.24281,3.07336 L 299.5,744.12787 Z M 430.93903,354.51308 c 1.40853,-0.73853 4.40427,-2.93193 6.65719,-4.87422 4.8499,-4.18121 6.616,-9.07104 8.88576,-24.60215 1.00717,-6.89169 2.51669,-12.57366 4.42225,-16.64576 1.59122,-3.40035 4.14037,-11.46094 5.66479,-17.91241 1.83611,-7.77062 3.54853,-12.65322 5.0732,-14.46519 C 465.0243,271.99397 466,268.66016 466,261.12346 c 0,-5.40705 -0.40477,-7.18081 -2.03896,-8.9349 L 461.92209,250 H 316.92893 c -157.76126,0 -151.07825,-0.23755 -152.49835,5.42057 -0.35233,1.4038 -0.14335,5.40782 0.46441,8.89781 0.60775,3.49 1.10501,8.03142 1.10501,10.09206 0,3.02129 0.77068,4.53283 3.98088,7.80772 4.0755,4.15763 4.44009,5.24123 5.47818,16.28184 0.35462,3.77154 1.64182,8.07952 3.46572,11.59898 3.79234,7.31785 7.06912,18.05248 7.09908,23.25636 0.0354,6.152 1.62529,11.97457 3.66946,13.43857 0.99367,0.71165 4.63041,3.0716 8.08164,5.24433 l 6.27496,3.95041 83.72504,0.25568 c 111.19757,0.33956 139.87601,-0.007 143.16407,-1.73125 z m 35.01659,-117.49044 c 3.76999,-1.9233 7.00296,-5.54856 8.41145,-9.43208 1.03804,-2.8621 0.78535,-187.059473 -0.26039,-189.809978 -1.09471,-2.879289 -8.28381,-9.51723 -11.72406,-10.825209 -4.1122,-1.563458 -290.25599,-1.240869 -293.38262,0.33075 -1.375,0.691151 -3.85,3.722017 -5.5,6.735258 l -3,5.478619 -0.2421,92.39257 -0.24209,92.39256 2.6519,5.90923 c 1.61702,3.60321 3.6627,6.45875 5.2421,7.3174 2.19271,1.19207 24.96236,1.41431 148.38003,1.4482 143.301,0.0394 145.856,0.006 149.66578,-1.93732 z M 67.221673,1617.5857 c -6.890691,-2.2411 -18.268403,-9.4911 -20.081136,-12.796 -0.902295,-1.6451 -3.034816,-5.3619 -4.738935,-8.2597 -1.704119,-2.8978 -3.616619,-7.3268 -4.25,-9.8422 -1.462339,-5.8075 -1.487644,-25.9372 -0.03916,-31.1546 1.275543,-4.5944 12.718283,-17.0994 19.833342,-21.6745 L 62.391564,1531 H 84.411782 106.432 l 7.03693,7.25 c 7.51741,7.745 11.32631,15.0905 14.05652,27.1078 2.1832,9.6097 0.43127,22.1346 -4.52562,32.3545 -3.3357,6.8774 -4.89206,8.8837 -9.57478,12.3431 -9.89406,7.3091 -13.18133,8.3076 -28.425047,8.6333 -9.511429,0.2033 -14.764031,-0.1226 -17.778327,-1.103 z M 78.5,727.00399 c -2.2,-1.07335 -5.35,-1.9683 -7,-1.98877 -8.138456,-0.101 -10.214758,-1.10187 -17.395073,-8.38518 -11.261555,-11.42309 -15.959404,-17.33742 -16.635948,-20.9437 -0.346521,-1.84712 -0.4813,-9.4147 -0.299508,-16.81685 L 37.5,665.41103 l 4.833568,-7.06949 c 6.429117,-9.4031 15.565301,-16.61713 25.844728,-20.40728 10.192647,-3.75815 15.763672,-3.75462 28.329036,0.0179 8.835648,2.65277 10.383868,3.48953 15.264638,8.25 4.67961,4.56427 9.64477,10.463 15.14309,17.99035 1.01791,1.39353 1.51078,5.91849 1.7561,16.12236 0.29088,12.09895 0.0828,14.64337 -1.41506,17.30115 -7.75674,13.7637 -17.72227,23.55705 -28.109413,27.62374 -9.684467,3.79159 -15.476776,4.28652 -20.646687,1.7642 z"
       id="path2169" />
  </g>
</svg>
