<?xml version="1.0" encoding="UTF-8" standalone="no"?>
<!-- Created with Inkscape (http://www.inkscape.org/) -->

<svg
   version="1.1"
   id="svg8482"
   width="515"
   height="2340"
   viewBox="0 0 515 2340"
   sodipodi:docname="f#++.svg"
   inkscape:version="1.1.1 (3bf5ae0d25, 2021-09-20)"
   xmlns:inkscape="http://www.inkscape.org/namespaces/inkscape"
   xmlns:sodipodi="http://sodipodi.sourceforge.net/DTD/sodipodi-0.dtd"
   xmlns="http://www.w3.org/2000/svg"
   xmlns:svg="http://www.w3.org/2000/svg">
  <defs
     id="defs8486" />
  <sodipodi:namedview
     id="namedview8484"
     pagecolor="#ffffff"
     bordercolor="#666666"
     borderopacity="1.0"
     inkscape:pageshadow="2"
     inkscape:pageopacity="0.0"
     inkscape:pagecheckerboard="0"
     showgrid="false"
     inkscape:zoom="0.33418803"
     inkscape:cx="-86.777494"
     inkscape:cy="1170"
     inkscape:window-width="1920"
     inkscape:window-height="986"
     inkscape:window-x="-11"
     inkscape:window-y="-11"
     inkscape:window-maximized="1"
     inkscape:current-layer="g8488" />
  <g
     inkscape:groupmode="layer"
     inkscape:label="Image"
     id="g8488">
    <path
       style="fill:#000000"
       d="m 287.94309,2332.9431 c -1.93262,-1.9326 -2.0147,-2.7786 -1.35834,-14 L 287.28333,2307 H 274.71309 C 260.81861,2307 259,2306.3057 259,2301.0012 c 0,-1.9233 0.89813,-3.5643 2.75,-5.0246 2.52854,-1.994 3.67612,-2.1407 14.25,-1.8226 l 11.5,0.346 0.5,-11.1021 c 0.31765,-7.053 0.98109,-11.6796 1.8191,-12.6857 1.83913,-2.208 6.63873,-3.0727 9.26211,-1.6687 2.103,1.1255 2.16985,1.5844 1.53872,10.563 -0.91271,12.9844 -0.45509,14.3935 4.67459,14.3935 2.24274,0 6.93462,-0.7165 10.42641,-1.5922 5.82724,-1.4614 6.55119,-1.4595 8.81389,0.023 1.99553,1.3075 2.46518,2.4448 2.46518,5.9697 0,6.3405 -1.32092,7.0143 -14.89807,7.5994 l -11.60193,0.5 0.36986,12.1301 c 0.34426,11.2907 0.22314,12.2769 -1.75,14.25 -2.79972,2.7998 -8.40842,2.8313 -11.17677,0.063 z m 0,-80 c -1.93262,-1.9326 -2.0147,-2.7786 -1.35834,-14 L 287.28333,2227 H 274.71309 C 260.81861,2227 259,2226.3057 259,2221.0012 c 0,-1.9233 0.89813,-3.5643 2.75,-5.0246 2.52854,-1.994 3.67612,-2.1407 14.25,-1.8226 l 11.5,0.346 0.5,-11.1021 c 0.31765,-7.053 0.98109,-11.6796 1.8191,-12.6857 1.83913,-2.208 6.63873,-3.0727 9.26211,-1.6687 2.103,1.1255 2.16985,1.5844 1.53872,10.563 -0.91271,12.9844 -0.45509,14.3935 4.67459,14.3935 2.24274,0 6.93462,-0.7165 10.42641,-1.5922 5.82724,-1.4614 6.55119,-1.4595 8.81389,0.023 1.99553,1.3075 2.46518,2.4448 2.46518,5.9697 0,6.3405 -1.32092,7.0143 -14.89807,7.5994 l -11.60193,0.5 0.36986,12.1301 c 0.34426,11.2907 0.22314,12.2769 -1.75,14.25 -2.79972,2.7998 -8.40842,2.8313 -11.17677,0.063 z m -101.93508,-88.5815 c -1.48885,-0.6262 -3.67597,-2.7063 -4.86026,-4.6225 l -2.15326,-3.4841 0.10231,-101.8775 c 0.0563,-56.0326 0.0304,-108.1775 -0.0576,-115.8775 -0.0879,-7.7 -0.24524,-360.05 -0.34956,-783 l -0.18967,-769 -3.18914,-9 c -1.75402,-4.95 -3.885,-12.03729 -4.7355,-15.74953 -0.8505,-3.71224 -2.7528,-8.57258 -4.22734,-10.80076 -2.11395,-3.1944 -2.82979,-5.78534 -3.3846,-12.25047 -0.38699,-4.50958 -1.24912,-9.54924 -1.91585,-11.19924 -0.66672,-1.65 -1.58663,-5.27058 -2.04423,-8.04574 -0.4576,-2.77516 -2.254,-7.33326 -3.99201,-10.12912 -2.56109,-4.11994 -3.31704,-6.66992 -3.98856,-13.45426 -1.1715,-11.83561 -4.50836,-23.91056 -8.28735,-29.98908 L 139.5,260.67761 139.22407,152.1222 c -0.19375,-76.223493 0.0524,-110.137071 0.82652,-113.86589 0.75494,-3.63652 1.82229,-5.782137 3.38607,-6.806766 2.00438,-1.313322 22.2627,-1.492025 165.67348,-1.461443 106.14624,0.02264 164.66338,0.386517 167.02486,1.038621 6.70624,1.851881 6.365,-4.474369 6.365,118.000098 v 110.52682 l -3.73658,4.5598 c -3.15661,3.85204 -4.03609,6.04867 -5.66621,14.15213 -1.13324,5.63339 -3.02446,11.46052 -4.58234,14.11885 -2.91596,4.9757 -6.48084,20.28154 -6.50173,27.91524 -0.0147,5.38243 -1.58672,9.04528 -5.41813,12.62465 -1.42725,1.33338 -2.59501,3.47873 -2.59501,4.76745 0,5.75838 -4.43994,22.03302 -8.08114,29.62148 l -3.95837,8.24947 -0.23024,889.96869 c -0.2142,827.9219 -0.34635,890.2244 -1.89559,893.6381 -0.91594,2.0182 -2.56077,4.1487 -3.65518,4.7344 -2.92802,1.5671 -246.47419,2.0126 -250.17147,0.4577 z M 425.70072,2150.75 c 1.12715,-1.2375 2.55559,-3.2329 3.17432,-4.4343 C 429.70334,2144.7075 430,2027.4108 430,1701.5203 v -442.6112 l -2.45455,-2.4546 c -1.35,-1.35 -3.11583,-2.4545 -3.92407,-2.4545 -0.80824,0 -5.89119,4.4603 -11.29545,9.9118 -11.51132,11.6119 -12.62193,12.0745 -29.01083,12.0826 -12.68477,0.01 -14.21444,-0.3974 -20.08449,-5.3017 -2.32395,-1.9416 -6.41191,-4.2565 -9.08436,-5.1441 -5.82917,-1.9362 -8.20802,-4.3406 -11.15096,-11.2707 -2.09888,-4.9426 -2.19225,-6.2543 -1.74397,-24.5 0.28046,-11.4153 0.95761,-20.4787 1.66027,-22.2222 0.65265,-1.6193 4.4733,-6.2309 8.49033,-10.2479 6.48514,-6.4852 7.89586,-7.416 12.58738,-8.3058 6.80566,-1.2906 28.70942,-1.2792 36.70951,0.019 10.62174,1.7239 14.77994,4.0856 18.3589,10.4272 1.72324,3.0534 3.56858,5.8207 4.10074,6.1496 1.71068,1.0573 4.60199,-2.5895 5.78827,-7.3006 1.67811,-6.6644 1.51668,-809.18614 -0.16352,-812.87378 -2.58265,-5.6683 2.62001,-5.42446 -115.48354,-5.41251 -59.83981,0.006 -110.55744,0.30133 -112.70585,0.65618 -2.65412,0.43838 -5.01012,1.79713 -7.35023,4.239 l -3.44405,3.59381 0.13042,762.5 c 0.0717,419.375 0.49646,764.0856 0.94385,766.0235 1.51049,6.543 5.52162,11.5295 8.38922,10.4291 1.39064,-0.5337 5.73698,-9.0131 5.73698,-11.1925 0,-1.7053 12.55176,-14.1651 15.3151,-15.2029 3.8039,-1.4285 39.44142,-1.3866 43.56606,0.051 1.80188,0.6282 3.82874,2.3637 4.67772,4.0055 0.82396,1.5933 3.17279,3.9657 5.21962,5.2719 4.60383,2.938 7.05856,5.69 10.80534,12.1142 2.84309,4.8747 2.92452,5.4037 3.24987,21.1127 l 0.33371,16.1127 -3.03437,6.011 c -3.88779,7.7017 -7.44062,11.1935 -16.3984,16.1165 -8.94457,4.9158 -17.14875,6.6267 -28.07847,5.8553 -11.0838,-0.7822 -17.11684,-2.9993 -23.32059,-8.5704 -2.84043,-2.5508 -6.51872,-5.6562 -8.17399,-6.9009 -1.98352,-1.4916 -3.57254,-4.0485 -4.66084,-7.5 -3.07632,-9.7564 -3.62124,-10.7369 -5.96709,-10.7369 -2.86264,0 -5.06681,2.4861 -7.13688,8.0496 -1.50012,4.0318 -1.63902,12.7243 -1.47668,92.4127 0.17545,86.1269 0.22102,88.03 2.18413,91.2064 1.10271,1.7842 3.21787,4.1494 4.70035,5.256 2.66263,1.9875 4.05824,2.0123 114.7711,2.0436 L 423.65137,2153 Z M 288.8447,1804.5232 c -8.22418,-2.8767 -15.22495,-6.9037 -17.06804,-9.818 -0.76703,-1.2129 -2.16355,-4.2662 -3.10338,-6.7851 -0.93983,-2.519 -3.0508,-5.8657 -4.69103,-7.4371 -2.92669,-2.804 -2.98225,-3.0466 -2.98225,-13.0222 0,-9.2387 0.22587,-10.4747 2.47859,-13.5629 2.59281,-3.5545 3.41439,-5.1261 7.04847,-13.483 1.84113,-4.2339 3.69788,-6.2012 11.09212,-11.7527 11.98552,-8.9987 13.67651,-9.6803 25.6527,-10.3412 14.03294,-0.7744 15.24027,-0.3855 32.11679,10.3427 1.58876,1.01 5.14652,5.1158 7.90613,9.1241 4.09046,5.9414 5.25603,8.6203 6.30873,14.5 0.71019,3.9667 1.30991,9.2372 1.3327,11.7122 0.0552,5.9959 -4.76512,20.8319 -9.58118,29.489 -3.77309,6.7822 -4.10941,7.0849 -11.37157,10.2332 -7.40363,3.2096 -7.64887,3.2436 -22.98348,3.1866 -13.56317,-0.05 -16.33162,-0.3486 -22.1553,-2.3856 z M 287,1642.8499 c -3.575,-0.3576 -8.30423,-1.3756 -10.50939,-2.2623 -4.62207,-1.8586 -13.76495,-11.5699 -18.56455,-19.7188 -1.73921,-2.9528 -4.57157,-7.152 -6.29413,-9.3314 L 248.5,1607.5747 v -18.5752 -18.5752 l 5.29798,-10.9622 c 3.45226,-7.1431 6.76188,-12.4083 9.5,-15.1133 2.31111,-2.2832 5.10202,-5.3467 6.20202,-6.8078 1.25658,-1.6691 4.20531,-3.3819 7.93287,-4.6079 3.26308,-1.0732 7.48898,-2.8695 9.3909,-3.9916 5.25617,-3.1012 13.71169,-4.9415 22.70483,-4.9415 9.6637,0 17.65406,2.1217 22.54452,5.9863 1.96521,1.553 6.7536,3.7708 10.64086,4.9285 6.19329,1.8445 7.93273,2.9495 14.05897,8.9316 6.90572,6.7433 7.00641,6.9175 8.23253,14.2402 0.68271,4.0774 2.17778,9.6634 3.32237,12.4134 1.73226,4.1619 2.08154,7.1092 2.08384,17.5841 0.003,11.9106 -0.17822,13.0522 -3.37961,21.3329 -2.64303,6.8365 -4.10677,9.2412 -6.69625,11.0008 -1.82262,1.2385 -4.5928,4.0136 -6.15596,6.167 -1.56315,2.1534 -3.9306,4.4958 -5.26098,5.2055 -1.33039,0.7097 -3.42672,2.8337 -4.65852,4.7202 -4.43785,6.7962 -5.24576,6.9895 -29.21919,6.9895 -11.84765,0 -24.46618,-0.2925 -28.04118,-0.6501 z m 38,-12.1665 c 9.16759,-3.1945 17.12941,-8.7039 22.3127,-15.44 4.85918,-6.3149 11.6873,-21.5766 11.6873,-26.1227 0,-3.0233 -5.20753,-19.7295 -7.4993,-24.0585 -2.078,-3.9251 -17.27791,-18.3487 -23.91347,-22.692 -9.212,-6.0297 -10.0969,-6.3997 -16.80629,-7.0262 -6.14622,-0.5739 -6.43388,-0.4919 -11.2939,3.2217 -2.74287,2.0959 -7.16174,4.6383 -9.81971,5.6498 -8.51356,3.24 -16.40536,7.636 -18.5088,10.3101 -1.12457,1.4296 -2.5694,4.2587 -3.21073,6.2869 -0.64133,2.0281 -2.53955,5.439 -4.21827,7.5796 -2.74357,3.4986 -3.14412,4.9308 -3.96123,14.1636 -0.76872,8.686 -0.66267,10.7479 0.68702,13.3579 0.87782,1.6975 1.97195,3.0864 2.4314,3.0864 0.86691,0 3.652,5.3192 6.74018,12.873 1.15025,2.8136 3.12784,5.2599 5.54546,6.8598 2.06671,1.3676 4.92166,4.0128 6.34434,5.878 4.93364,6.4683 10.25815,8.1978 25.4833,8.2774 9.47417,0.05 12.64503,-0.3388 18,-2.2048 z m -39.14722,-182.0741 c -2.00597,-0.7166 -6.1878,-3.5094 -9.29295,-6.2061 -4.50071,-3.9088 -6.59283,-6.8299 -10.31569,-14.4032 -4.50228,-9.1589 -4.6713,-9.826 -4.70706,-18.5779 -0.0338,-8.2691 0.20421,-9.4272 2.6714,-13 1.48966,-2.1571 3.62236,-6.8855 4.73932,-10.5075 2.20782,-7.1591 3.06283,-8.1648 10.5522,-12.4111 2.75,-1.5592 6.73745,-4.3087 8.861,-6.1101 4.53969,-3.851 10.58503,-5.3934 21.139,-5.3934 9.63502,0 16.54303,1.538 21.2245,4.7253 2.07653,1.4138 5.5755,3.5745 7.7755,4.8015 5.88071,3.28 13.73837,15.172 15.49533,23.4512 1.19315,5.6223 1.15672,7.8715 -0.28649,17.6908 -1.50537,10.2421 -2.11954,12.0815 -6.85864,20.5403 -2.86287,5.11 -5.87443,10.0832 -6.69235,11.0516 -0.81793,0.9683 -4.38545,2.6558 -7.92783,3.75 -5.45612,1.6852 -9.21442,1.9826 -24.58536,1.9454 -12.27289,-0.03 -19.32493,-0.4655 -21.79188,-1.3468 z m 39.23996,-12.3972 c 3.97966,-1.8192 17.40342,-17.7358 18.5279,-21.9687 0.9745,-3.6682 -0.41425,-8.5216 -4.24207,-14.825 -1.97669,-3.2551 -4.23915,-7.7184 -5.02768,-9.9184 -1.53572,-4.2846 -8.19419,-11.7888 -12.44451,-14.025 -3.41791,-1.7983 -11.9216,-2.8823 -16.24626,-2.071 -1.89717,0.3559 -5.18432,2.0315 -7.30476,3.7236 -2.12045,1.6921 -6.42592,4.3785 -9.56771,5.9699 -6.38462,3.2338 -7.20753,4.3803 -9.89886,13.7914 -2.40583,8.4127 -2.37504,11.7133 0.18092,19.3926 1.66705,5.0087 3.36301,7.5306 8.71743,12.9627 8.48199,8.6051 12.19291,9.9286 25.6365,9.143 4.38412,-0.2561 9.59675,-1.2278 11.6691,-2.1751 z m -20.10134,-340.554 c -0.27209,-0.2721 -4.31896,-0.9903 -8.99305,-1.5959 -12.66484,-1.641 -12.78589,-1.692 -19.62282,-8.2571 -4.40901,-4.2338 -6.93565,-7.6389 -8.30654,-11.1948 -1.08359,-2.8107 -3.10671,-7.8103 -4.49584,-11.1103 -3.60198,-8.5569 -3.57552,-17.7439 0.0666,-23.1105 1.45185,-2.1392 3.47722,-6.3645 4.50084,-9.3895 2.633,-7.7811 3.63575,-9.4367 6.87444,-11.3498 1.57205,-0.9286 4.79521,-3.4946 7.16259,-5.7021 4.75807,-4.4369 10.03082,-6.404 21.91866,-8.1773 6.83752,-1.02 8.53934,-0.906 17.03829,1.1412 7.10531,1.7115 10.96284,3.3031 15.58709,6.4312 10.32909,6.9871 14.01082,13.2399 18.58165,31.5575 l 2.09625,8.4008 -2.63392,7.5992 c -3.02943,8.7404 -13.2631,24.8763 -18.03832,28.442 -4.20111,3.1369 -8.45815,4.3406 -18.12997,5.1264 -4.34648,0.3531 -9.0746,0.8764 -10.50695,1.1628 -1.43234,0.2865 -2.82688,0.2983 -3.09897,0.026 z M 283.78539,931.05606 c -1.49304,-0.47529 -4.64304,-2.407 -7,-4.29269 -2.35697,-1.88569 -5.90832,-4.40067 -7.89191,-5.58883 -5.22784,-3.13148 -8.90927,-7.09951 -10.92679,-11.77747 -0.97324,-2.25661 -3.0979,-5.63161 -4.72146,-7.5 -1.62356,-1.86839 -3.46792,-4.37999 -4.09858,-5.58133 -1.32474,-2.5235 -1.53222,-35.37725 -0.26472,-41.9162 0.99105,-5.11273 10.40943,-19.57292 16.24254,-24.93743 2.40654,-2.21321 5.95053,-4.65765 7.87553,-5.4321 1.925,-0.77444 5.3,-2.85121 7.5,-4.61503 3.82242,-3.06457 12.06598,-6.04481 22.6478,-8.18771 5.17394,-1.04777 11.08924,-0.3946 17.8522,1.97124 2.475,0.86581 7.10694,2.32946 10.2932,3.25256 7.24893,2.10011 20.26966,9.05189 22.29425,11.90293 5.91322,8.32702 10.59091,16.67198 12.41083,22.14083 1.17083,3.51834 3.00019,7.5048 4.06525,8.8588 1.62577,2.06684 1.92943,4.04099 1.89258,12.3041 -0.0286,6.40812 -0.58486,11.23794 -1.5943,13.84227 -0.85272,2.2 -2.21998,6.025 -3.03834,8.5 -3.66215,11.07551 -4.76,13.35255 -8.87103,18.39928 -2.47274,3.03553 -6.75368,6.70854 -9.86635,8.46523 -3.02411,1.7067 -6.00434,4.04848 -6.62273,5.20395 -2.45186,4.58134 -6.7881,5.3418 -31.96336,5.60556 -12.925,0.13541 -24.72158,-0.14268 -26.21461,-0.61796 z m 17.17843,-173.92613 c -5.83163,-0.5432 -8.31964,-1.28571 -11,-3.2828 -1.9051,-1.41945 -6.29323,-3.51694 -9.7514,-4.66109 -5.31307,-1.75786 -7.39071,-3.21214 -13.40512,-9.38316 -3.91465,-4.01658 -7.76105,-8.87788 -8.54755,-10.80288 -0.78651,-1.925 -3.30421,-6.4034 -5.59488,-9.952 L 248.5,712.59599 v -17.57171 -17.57171 l 3.71588,-5.06378 c 2.04373,-2.78508 4.57942,-7.04941 5.63487,-9.47629 1.05544,-2.42687 5.08681,-7.68755 8.9586,-11.69038 5.69006,-5.88265 8.14626,-7.65862 12.81218,-9.26393 3.1749,-1.09233 8.10899,-3.59521 10.96462,-5.56197 l 5.19207,-3.57591 16.01048,0.33985 16.01049,0.33984 3.87057,3.11242 c 2.12882,1.71184 5.82102,4.10747 8.2049,5.32363 4.48872,2.28998 18.93514,14.26062 22.05667,18.27668 0.9778,1.258 2.34176,4.08727 3.03103,6.28727 0.68927,2.2 2.55471,6.35568 4.14543,9.23485 2.79754,5.0635 2.89221,5.68719 2.89221,19.05366 0,12.63483 -0.2092,14.24259 -2.44168,18.76515 -1.34292,2.72049 -3.39931,7.53134 -4.56976,10.69078 -1.69646,4.57931 -3.78727,7.37058 -10.30833,13.76184 -5.05017,4.94965 -10.28474,9.02078 -13.68023,10.63965 -3.025,1.44224 -7.31406,3.9175 -9.53125,5.50058 -3.61511,2.58122 -5.00866,2.91999 -13.5,3.28186 -5.20781,0.22194 -12.86003,0.0876 -17.00493,-0.29844 z M 258.43428,1973.9975 c 4.60854,-2.2698 8.35214,-7.1844 11.04321,-14.4975 1.01194,-2.75 2.89348,-6.567 4.1812,-8.4821 4.48512,-6.6706 2.02622,-19.1561 -5.80286,-29.4654 -5.21575,-6.868 -9.66855,-8.8985 -20.5713,-9.3806 -13.96299,-0.6174 -15.36582,-0.1364 -23.74382,8.1407 -8.429,8.3275 -14.54071,16.8692 -14.54071,20.322 0,1.3257 1.66154,6.5627 3.69231,11.6378 3.54387,8.8566 6.59471,13.7276 8.59803,13.7276 0.51794,0 3.08655,1.5745 5.70803,3.4988 7.19563,5.2821 10.61375,6.4185 19.43591,6.4621 5.97644,0.029 8.93751,-0.455 12,-1.9634 z m 133.71291,-710.0217 c 2.00595,-0.5572 4.37983,-2.1312 5.27529,-3.4978 0.89546,-1.3667 3.47084,-3.6481 5.72307,-5.0699 2.48453,-1.5684 4.53473,-3.8284 5.2132,-5.7466 0.61503,-1.7388 3.03591,-6.8692 5.37974,-11.4007 4.80212,-9.2845 5.11356,-11.6703 2.25487,-17.2738 -2.23581,-4.3826 -13.3657,-15.7434 -19.42939,-19.8326 -3.68706,-2.4865 -4.61536,-2.6474 -14.67547,-2.5431 -9.68424,0.1004 -11.18066,0.3699 -15.22998,2.7429 -5.36281,3.1429 -10.08039,7.6951 -12.43772,12.0019 -1.35984,2.4844 -1.71829,5.661 -1.70882,15.1439 0.0113,11.3052 0.18499,12.3474 3,18 2.76739,5.557 3.64595,6.3856 11.89855,11.2229 11.40109,6.6827 17.57264,8.2428 24.73666,6.2529 z m 38.5533,-901.26657 c 6.55683,-6.68649 7.11815,-7.60208 7.74118,-12.62707 0.36946,-2.97981 1.37471,-7.02981 2.2339,-9 0.85919,-1.97019 1.64359,-6.78617 1.74311,-10.70217 0.18087,-7.11658 0.56047,-8.09828 5.56039,-14.37999 1.19439,-1.50059 2.36521,-5.19502 2.92878,-9.24156 0.51641,-3.70786 2.0984,-9.19249 3.51554,-12.18807 1.41713,-2.99559 2.57661,-6.61435 2.57661,-8.04169 0,-1.42734 1.125,-4.81525 2.5,-7.52868 3.29352,-6.49945 3.30598,-11.24188 0.0352,-13.38499 C 457.29474,264.14701 443.81795,264 311.48552,264 c -128.22808,0 -145.93486,0.181 -148.52069,1.51819 -3.52259,1.8216 -4.5911,5.27776 -3.00324,9.71416 0.64326,1.79721 1.52213,6.64269 1.95306,10.76774 0.52229,4.99958 1.8029,9.66713 3.84109,14 1.68167,3.57495 4.26307,11.89991 5.73644,18.49991 1.47337,6.6 3.59846,13.8 4.72243,16 1.12396,2.2 2.65402,5.15848 3.40012,6.5744 0.7461,1.41592 1.85002,6.12234 2.45316,10.45871 1.12636,8.09828 2.62987,12.14123 5.3567,14.4043 4.68513,3.88832 5.14968,3.90325 122.64094,3.94281 l 113.56553,0.0382 7.06943,-7.20922 z M 462.1001,250.82358 c 2.12983,-1.19703 5.08695,-3.92899 6.57138,-6.07103 l 2.69897,-3.89461 0.0648,-93.17897 c 0.0634,-91.25017 0.0234,-93.261529 -1.93522,-97.167342 -1.30235,-2.597131 -3.71672,-5.038902 -6.92145,-7 L 457.65711,40.5 H 307.90923 158.16135 l -2.55166,2.39705 C 150.3874,47.802926 150.5,45.486917 150.5,148 c 0,93.5079 0.0417,95.58294 2,99.47631 1.24682,2.47887 2.94148,4.23014 4.5,4.65032 1.375,0.37071 69.71373,0.71887 151.86385,0.77369 L 458.22769,253 Z M 63.976198,1630.693 C 58.139402,1629.0558 44.920392,1620.8123 41.03422,1616.3862 36.250365,1610.9377 34,1605.6651 34,1599.9051 c 0,-2.846 -0.507961,-7.9313 -1.128801,-11.3007 -0.990321,-5.3747 -0.863552,-7.1495 1.033337,-14.4674 1.189176,-4.5877 3.202394,-9.8721 4.473817,-11.7432 3.208875,-4.7223 17.118135,-17.2293 19.951949,-17.9406 1.283592,-0.3221 9.27188,-0.6684 17.751751,-0.7695 17.769548,-0.2117 22.173776,0.823 32.690207,7.68 5.89459,3.8435 6.56726,4.6933 11.17154,14.113 4.49366,9.1935 4.91686,10.6856 5.11177,18.0233 0.28959,10.9025 0.28176,10.9457 -2.60551,14.377 -1.40246,1.6667 -3.467,5.746 -4.58785,9.065 -2.02234,5.9885 -3.00625,7.2671 -12.45691,16.1887 -7.961146,7.5154 -10.119083,8.2732 -24.4053,8.5708 -7.847648,0.1635 -14.183706,-0.2119 -17.023802,-1.0085 z M 75.077461,743.18957 C 70.228882,742.44125 55.423447,735.83148 52.5,733.11004 c -1.65,-1.53598 -4.357028,-3.71964 -6.015617,-4.85257 -1.710175,-1.16816 -5.168254,-5.89046 -7.988283,-10.90867 -4.966354,-8.83757 -4.97313,-8.86222 -5.338933,-19.42135 -0.405463,-11.70394 1.047143,-23.48807 3.47377,-28.18065 2.114247,-4.08851 10.130737,-12.5722 13.551239,-14.34101 1.509823,-0.78076 6.92102,-2.81861 12.024882,-4.52856 7.998031,-2.67959 10.247497,-3.03612 16.286345,-2.58133 3.853628,0.29022 10.831663,1.81975 15.506745,3.39896 7.560082,2.55374 9.248772,3.60894 15.269312,9.54121 5.99383,5.90597 7.28456,7.90011 11.26894,17.41021 5.4444,12.99494 6.11752,16.57279 4.11145,21.85372 -0.83571,2.2 -3.05846,8.275 -4.93944,13.5 -3.00016,8.33386 -4.14362,10.2167 -9.31519,15.33859 -6.73875,6.67401 -10.535731,8.65636 -16.613101,8.67346 -2.628767,0.007 -5.849184,0.9083 -8.34076,2.33332 -4.766192,2.72596 -7.05688,3.3546 -10.363898,2.8442 z"
       id="path8567" />
  </g>
</svg>
