<?xml version="1.0" encoding="UTF-8" standalone="no"?>
<!-- Created with Inkscape (http://www.inkscape.org/) -->

<svg
   version="1.1"
   id="svg6186"
   width="515"
   height="2340"
   viewBox="0 0 515 2340"
   sodipodi:docname="f#+.svg"
   inkscape:version="1.1.1 (3bf5ae0d25, 2021-09-20)"
   xmlns:inkscape="http://www.inkscape.org/namespaces/inkscape"
   xmlns:sodipodi="http://sodipodi.sourceforge.net/DTD/sodipodi-0.dtd"
   xmlns="http://www.w3.org/2000/svg"
   xmlns:svg="http://www.w3.org/2000/svg">
  <defs
     id="defs6190" />
  <sodipodi:namedview
     id="namedview6188"
     pagecolor="#ffffff"
     bordercolor="#666666"
     borderopacity="1.0"
     inkscape:pageshadow="2"
     inkscape:pageopacity="0.0"
     inkscape:pagecheckerboard="0"
     showgrid="false"
     inkscape:zoom="0.33418803"
     inkscape:cx="-86.777494"
     inkscape:cy="1170"
     inkscape:window-width="1920"
     inkscape:window-height="986"
     inkscape:window-x="-11"
     inkscape:window-y="-11"
     inkscape:window-maximized="1"
     inkscape:current-layer="g6192" />
  <g
     inkscape:groupmode="layer"
     inkscape:label="Image"
     id="g6192">
    <path
       style="fill:#000000"
       d="m 298.24138,2326.6748 c -5.94939,-3.3041 -6.92457,-8.6982 -4.82245,-26.6748 0.86825,-7.425 1.57919,-15.4125 1.57986,-17.75 L 295,2278 h -22.25 c -20.29034,0 -22.53146,-0.1754 -25.44574,-1.9523 -4.02262,-2.4528 -5.25438,-7.6073 -3.20358,-13.4061 2.86492,-8.1008 10.51864,-10.6371 26.67707,-8.8404 5.94791,0.6614 13.83116,1.2025 17.51832,1.2025 H 295 l 0.006,-16.25 c 0.006,-17.3314 0.90258,-22.8326 4.34027,-26.6289 4.58513,-5.0635 13.51786,-6.6735 17.79337,-3.2071 2.34736,1.9032 2.36078,2.0352 2.36078,23.2331 v 21.3189 l 11.5,-0.3173 c 8.6066,-0.2376 12.60128,-0.7994 15.87712,-2.2331 6.12912,-2.6824 13.28954,-2.5383 16.61947,0.3344 4.448,3.8373 5.41928,13.8341 1.89117,19.4648 -2.69265,4.2974 -4.96956,4.7622 -25.88776,5.2852 l -20,0.5 v 21.5 c 0,23.3379 -0.54868,26.2016 -5.5,28.706 -3.20043,1.6188 -12.82187,1.5997 -15.75862,-0.031 z M 185.5,2146.8027 c -6.50659,-3.7657 -6.49085,-3.5561 -6.48882,-86.4031 0.0159,-646.112 -0.31554,-1686.81 -0.54021,-1696.25248 -0.27708,-11.64533 -0.43854,-12.5045 -2.81883,-15 -3.32843,-3.48954 -4.26014,-6.19513 -5.1303,-14.89787 -0.55656,-5.56639 -1.39406,-8.23785 -3.60521,-11.5 -2.00632,-2.95996 -2.88576,-5.50062 -2.89843,-8.37352 -0.01,-2.26835 -0.67891,-5.99694 -1.48645,-8.28574 -0.80754,-2.2888 -2.14401,-7.72376 -2.96993,-12.07768 -1.16451,-6.13882 -2.29427,-8.95457 -5.03175,-12.54086 -2.72093,-3.56461 -3.5349,-5.58125 -3.55116,-8.79805 -0.0116,-2.29537 -1.02986,-7.0984 -2.26279,-10.6734 l -2.24169,-6.5 0.35946,-116.80664 0.35947,-116.806631 2.31667,-2.693364 L 151.82669,16.5 311.66335,16.213716 c 87.91016,-0.157456 161.29803,-0.02478 163.08416,0.294846 2.30428,0.412342 3.75652,1.51206 5,3.786284 1.63388,2.988219 1.77312,10.514949 2.05724,111.205154 0.21268,75.37455 -0.0281,109.96357 -0.79698,114.5 -0.60594,3.575 -2.39719,9.21492 -3.98056,12.53316 -1.74351,3.65388 -3.1358,8.58349 -3.53041,12.5 -0.35837,3.55676 -1.50563,8.71684 -2.54946,11.46684 -1.04383,2.75 -2.36559,7.15837 -2.93724,9.79639 -0.57165,2.63801 -2.14485,6.91301 -3.49601,9.5 -1.35116,2.58698 -3.14201,8.30361 -3.97966,12.70361 -0.83766,4.4 -2.65058,10.17903 -4.02872,12.84229 -1.37814,2.66325 -2.50571,5.93421 -2.50571,7.26878 0,1.33457 -1.125,5.64649 -2.5,9.58204 l -2.5,7.15555 v 891.38284 c 0,643.9832 -0.30475,892.5931 -1.09801,895.7434 -0.6039,2.3984 -2.21506,5.4101 -3.58036,6.6929 l -2.48236,2.3322 -127.16963,0.2301 c -94.86195,0.1716 -127.67774,-0.064 -129.16964,-0.9274 z m 243.74065,-13.5132 c 2.8532,-1.3303 5.53916,-3.5201 6.74626,-5.5 1.99951,-3.2795 2.00553,-4.6184 1.97848,-439.7895 -0.0203,-325.7546 -0.32112,-438.4028 -1.18584,-444 -1.44252,-9.3372 -1.39776,-39.9114 0.0857,-58.5 0.79749,-9.9933 1.11974,-128.0801 1.12601,-412.61514 0.009,-396.98392 6e-4,-398.62554 -1.98936,-401.15537 C 431.35368,365.82029 435.25029,366 311.7722,366 c -123.91234,0 -116.99245,-0.34235 -120.24577,5.9489 -1.45335,2.81045 -1.74901,328.70727 -1.53604,1693.0889 l 0.01,61.5377 2.75,3.2599 c 5.23081,6.2006 0.1112,5.9554 121.19696,5.8034 L 424.5,2135.5 Z m -196.126,-163.4177 c -7.62782,-1.2667 -14.89364,-5.5015 -18.55396,-10.814 -1.68338,-2.4432 -4.50437,-6.0769 -6.26887,-8.0749 -1.7645,-1.998 -3.677,-4.8658 -4.25,-6.3729 -0.57501,-1.5124 -1.03198,-10.2163 -1.01986,-19.4251 0.0258,-19.626 1.01233,-23.023 8.1263,-27.9828 2.39346,-1.6687 6.24312,-5.0698 8.55481,-7.5581 2.61904,-2.8191 5.63404,-4.9214 8,-5.5785 4.98815,-1.3851 33.78608,-1.3684 40.27604,0.023 3.98301,0.8542 5.66426,1.8568 7.79923,4.6507 1.49691,1.9589 4.58624,5.4064 6.86518,7.661 5.98303,5.9193 7.44948,11.149 8.29987,29.5994 0.68884,14.9454 0.62751,15.7147 -1.71407,21.5 -2.99025,7.388 -4.4403,9.0625 -10.51522,12.1431 -2.63225,1.3349 -6.45725,3.9213 -8.5,5.7476 -2.04276,1.8264 -4.69702,3.8356 -5.89836,4.465 -2.56526,1.3439 -23.14177,1.3546 -31.20109,0.016 z m 16.50026,-10.9652 c 6.39211,-1.1131 9.39034,-2.7353 19.88067,-10.7562 7.52259,-5.7518 10.4813,-11.8561 10.49386,-21.6504 0.0129,-10.0928 -3.62541,-17.4714 -11.58502,-23.4944 -7.54923,-5.7126 -13.97978,-7.9316 -23.1052,-7.973 -12.88331,-0.058 -16.05473,1.1386 -22.69945,8.5677 -6.6217,7.4032 -7.54075,10.0694 -7.57591,21.9783 -0.0219,7.4139 0.23611,8.471 3.13618,12.8493 3.35833,5.0702 17.83279,19.6108 20.65733,20.7518 2.42943,0.9814 3.79151,0.947 10.79754,-0.2731 z m 49.87421,-170.0327 c -10.42296,-1.2144 -15.90541,-3.9562 -22.80737,-11.4063 -3.39996,-3.67 -6.71885,-8.089 -7.37531,-9.8201 -1.52996,-4.0346 -1.67634,-30.775 -0.19763,-36.1012 1.57253,-5.664 8.75985,-17.2924 12.69104,-20.5329 8.63945,-7.1213 18.36906,-10.0134 33.68742,-10.0134 10.91569,0 14.42168,1.033 17.46174,5.1449 1.27504,1.7246 4.7223,4.1402 7.90592,5.54 3.10479,1.3651 6.66623,3.431 7.91431,4.5909 3.81052,3.5414 6.28914,13.695 7.18329,29.4261 0.79825,14.0439 0.21501,21.2194 -2.07775,25.5624 -1.54092,2.9188 -12.78118,14.0801 -15.81473,15.7036 -1.29784,0.6945 -7.12978,1.4481 -12.95988,1.6745 -5.83009,0.2264 -12.62517,0.5287 -15.10017,0.6717 -2.475,0.143 -7.20489,-0.055 -10.51088,-0.4402 z m 32.6417,-13.7582 c 4.68987,-3.2178 7.03275,-7.0666 10.31945,-16.9523 3.81094,-11.4626 3.40716,-19.3901 -1.26705,-24.8762 -1.7747,-2.083 -5.47032,-6.5517 -8.21248,-9.9306 -6.94452,-8.557 -15.34034,-12.2781 -24.57737,-10.8929 -4.0001,0.5999 -5.58564,1.8263 -16.61209,12.8497 l -12.18991,12.1866 -0.41027,6.2199 c -0.39053,5.9209 -0.13642,6.7705 5.2842,17.6673 3.13196,6.2961 6.44602,12.117 7.36458,12.9353 2.82552,2.5172 10.09807,3.5454 23.74802,3.3575 11.98247,-0.1649 13.36898,-0.3797 16.55292,-2.5643 z m -45.1349,-149.9776 c -6.84432,-2.222 -16.86496,-8.9666 -20.60259,-13.8668 -1.55227,-2.0352 -4.45421,-5.3322 -6.44874,-7.3267 -3.16128,-3.1613 -3.71142,-4.4396 -4.28909,-9.9665 -0.36447,-3.4871 -1.44856,-7.44 -2.40909,-8.7844 -4.86564,-6.81 -5.23596,-7.7857 -5.24115,-13.8088 -0.004,-4.6333 0.48584,-6.7395 2.02135,-8.6916 2.73664,-3.4791 4.96862,-9.0245 4.99535,-12.4112 0.0396,-5.0108 3.61321,-10.625 13.25253,-20.8194 10.71818,-11.3355 19.54133,-17.7618 27.67775,-20.1589 11.43014,-3.3675 31.6854,-1.1974 40.29057,4.3167 2.05854,1.3191 6.18946,3.4804 9.17981,4.8029 3.67089,1.6234 5.93918,3.3756 6.98295,5.394 0.85027,1.6442 3.03649,3.9107 4.85828,5.0366 1.82178,1.126 4.28725,3.7818 5.47882,5.9019 1.19157,2.1202 3.53693,5.5793 5.21191,7.6869 L 371,1546.275 v 20.7204 20.7203 l -3.25,6.3921 c -1.7875,3.5157 -4.05682,8.757 -5.04293,11.6473 -1.16328,3.4096 -2.7436,5.8548 -4.5,6.9628 -1.48889,0.9393 -4.99979,3.7651 -7.80201,6.2796 -7.52219,6.7498 -9.6486,7.2057 -35.40506,7.5909 -19.49505,0.2917 -23.23509,0.098 -28.00408,-1.4503 z m 44.13196,-10.5552 c 1.85466,-0.7794 5.22875,-2.7667 7.49797,-4.4163 2.26922,-1.6496 5.93984,-3.9247 8.15692,-5.0558 3.10476,-1.5839 4.38359,-3.0393 5.56517,-6.3336 8.52214,-23.7603 7.96981,-21.3148 7.23238,-32.0219 -1.00264,-14.5576 -4.28645,-22.4244 -12.99627,-31.1342 -7.2091,-7.2091 -8.54682,-7.976 -15.7596,-9.0349 -2.90099,-0.4259 -6.08438,-1.806 -8.3875,-3.6363 -2.30285,-1.8301 -4.8935,-2.9533 -6.82445,-2.9589 -1.71188,0 -9.1875,2.1326 -16.6125,4.75 l -13.5,4.759 -8.09635,8 c -7.23689,7.1508 -8.22764,8.5838 -9.33311,13.5 -0.68021,3.025 -1.92306,7.6753 -2.76188,10.3339 -1.36972,4.3413 -1.36757,5.4113 0.021,10.5 0.85038,3.1164 1.85256,8.2666 2.22705,11.4449 0.50635,4.2974 1.70518,7.3736 4.67644,12 8.94565,13.9287 12.67583,17.0964 22.76682,19.334 7.99147,1.772 31.887,1.7523 36.12788,-0.03 z M 295.3264,1432.9922 c -5.93278,-1.2251 -8.81912,-2.9489 -17.41652,-10.4019 -5.6442,-4.8928 -7.88664,-7.5694 -8.74672,-10.4401 -1.85143,-6.1795 -1.67787,-34.9826 0.23843,-39.5689 2.68902,-6.4357 10.64012,-16.2776 16.29924,-20.1752 6.79229,-4.678 13.36307,-6.4061 24.35817,-6.4061 9.6524,0 16.36492,1.6517 21.78827,5.3613 2.009,1.3742 6.66258,3.6918 10.34128,5.1503 10.47572,4.1534 12.56572,9.1973 13.86771,33.4676 0.83615,15.5867 0.76745,16.7989 -1.26848,22.3827 -1.7415,4.7762 -3.05312,6.5505 -6.86898,9.2919 -2.59405,1.8636 -5.47199,4.5415 -6.39541,5.9508 -2.95071,4.5034 -7.3144,5.5158 -25.42356,5.8986 -9.12991,0.193 -18.47795,-0.037 -20.77343,-0.511 z m 35.55032,-12.5784 c 3.51288,-2.0752 9.56531,-11.5054 12.18063,-18.9785 4.1411,-11.833 0.86691,-25.7945 -7.35514,-31.3631 -2.08878,-1.4147 -6.36037,-4.5972 -9.49242,-7.0722 -5.33286,-4.2141 -6.07629,-4.4984 -11.70221,-4.4752 -4.68851,0.019 -6.99564,0.6107 -10.50758,2.6929 -2.475,1.4674 -6.525,3.7693 -9,5.1154 -4.9606,2.698 -14.66045,13.4658 -15.63771,17.3596 -0.34185,1.362 -0.40214,7.0328 -0.13397,12.6017 l 0.48757,10.1253 3.97977,3.5402 c 2.18888,1.947 4.97915,4.9966 6.2006,6.7767 3.00869,4.3848 6.10484,5.0678 23.44945,5.1732 11.87899,0.072 15.38233,-0.2268 17.53101,-1.496 z m 32.74689,-165.5564 c -2.92868,-2.9465 -6.40458,-6.3212 -7.72424,-7.4993 -1.31965,-1.178 -3.56336,-3.428 -4.98602,-5 -1.42265,-1.5719 -3.75027,-3.8055 -5.17249,-4.9634 -4.0093,-3.2642 -5.19087,-9.1315 -4.88972,-24.2806 0.32755,-16.4776 2.36253,-22.5774 10.4192,-31.2316 5.47381,-5.8797 8.78344,-7.3804 21.95937,-9.9573 7.59419,-1.4852 26.86335,-0.2338 34.57129,2.2453 5.24413,1.6866 6.74838,2.7026 8.96834,6.0571 1.72293,2.6036 4.19892,4.6872 6.99307,5.8849 6.7793,2.9059 7.58642,5.7357 8.04389,28.2017 0.27463,13.4868 0.0314,19.6634 -0.85892,21.8128 -0.70809,1.7095 -3.78335,4.7986 -7.15349,7.1858 -3.2513,2.303 -8.2475,5.8727 -11.10267,7.9328 -10.9942,7.9325 -11.64917,8.1297 -28.46699,8.5697 l -15.27576,0.3996 z m 27.05138,-6.7642 c 6.44901,-1.8495 18.6055,-12.1263 24.11911,-20.3896 2.35222,-3.5253 2.5393,-4.6747 2.61952,-16.0939 l 0.0864,-12.2974 -5.89287,-6.4061 c -3.24108,-3.5234 -6.94707,-6.9797 -8.23554,-7.6806 -1.28846,-0.7009 -6.67712,-1.6844 -11.97479,-2.1856 -14.34361,-1.357 -19.12681,0.3676 -29.0827,10.4863 -9.35406,9.5071 -11.01973,13.6819 -9.2538,23.1935 1.65852,8.9331 9.58581,21.3029 16.9397,26.4329 7.94892,5.545 13.74112,6.9291 20.67499,4.9405 z m -79.89221,-166.155 c -0.94447,-0.5505 -5.83006,-1.8798 -10.85686,-2.954 -5.02681,-1.0743 -10.56559,-2.8345 -12.30841,-3.9116 -4.50867,-2.7865 -17.36955,-16.2902 -18.602,-19.5318 -0.57001,-1.4992 -1.11289,-10.2217 -1.20641,-19.3833 -0.14712,-14.4127 0.0764,-17.1274 1.65851,-20.1442 2.68945,-5.1283 8.2062,-11.3998 11.84469,-13.4652 1.75323,-0.9953 5.4377,-3.31634 8.1877,-5.15797 C 296.29954,992.83659 305.05049,990 312.29874,990 c 7.64385,0 18.21848,3.14325 23.53766,6.99645 7.31719,5.30055 16.72968,15.35575 19.19306,20.50355 2.2091,4.6165 2.38221,6.1123 2.25667,19.5 -0.13129,14.0024 -0.23938,14.7059 -3.14977,20.5 -4.92059,9.7961 -18.12064,20.2958 -25.71688,20.4561 -1.14429,0.024 -4.29429,1.167 -7,2.5397 -5.27379,2.6756 -7.90821,3.0328 -10.6367,1.4424 z M 290.1641,914.93706 c -1.28474,-0.51489 -4.20974,-2.26098 -6.5,-3.88019 -2.29025,-1.61922 -5.9641,-3.65588 -8.1641,-4.52593 -2.56648,-1.01497 -6.46822,-4.28635 -10.88717,-9.12824 -6.24001,-6.83726 -7.01693,-8.16542 -8.26816,-14.13455 -0.75955,-3.62351 -2.83163,-9.10369 -4.60463,-12.17818 -2.78825,-4.83501 -3.22473,-6.53536 -3.23183,-12.58997 -0.007,-5.94506 0.47437,-7.92187 3.19391,-13.11704 1.76117,-3.36438 3.71272,-8.31438 4.33678,-11 1.88327,-8.10462 2.97297,-10.11919 6.97304,-12.89123 2.1063,-1.45967 4.99667,-4.41745 6.42304,-6.57284 C 270.86135,812.7635 272.4275,811 272.91532,811 c 0.48782,0 2.87555,-2.0171 5.30607,-4.48244 3.93682,-3.99323 5.23,-4.64262 11.84887,-5.95013 4.08636,-0.80724 9.79707,-2.39014 12.69047,-3.51756 6.60394,-2.57326 8.62248,-2.5632 19.73927,0.0984 20.0268,4.79479 18.93869,4.29046 27.30289,12.65466 4.24827,4.24827 9.12119,8.71892 10.8287,9.93478 1.88366,1.34128 4.58204,5.20082 6.86153,9.81415 l 3.75696,7.60349 0.0385,20.6995 0.0385,20.6995 -3.42605,4.48838 c -1.88433,2.4686 -4.08561,6.50638 -4.89173,8.97284 -2.33118,7.13263 -15.94214,19.05552 -25.74779,22.55449 -4.4385,1.5838 -43.3055,1.8867 -47.09732,0.36704 z M 306.5,741.96179 c -2.75,-0.29601 -7.925,-1.92824 -11.5,-3.62716 -3.575,-1.69893 -9.2,-3.90121 -12.5,-4.89395 -5.17273,-1.55612 -7.11125,-2.91738 -14.05965,-9.87284 -9.26825,-9.27767 -11.13359,-12.68805 -12.38321,-22.64003 -0.70626,-5.62471 -1.60367,-8.16094 -4.13466,-11.68528 -2.59662,-3.61573 -3.25129,-5.52479 -3.32755,-9.70332 -0.0823,-4.50785 0.33681,-5.69396 3.14062,-8.88894 3.3784,-3.84973 3.7697,-4.94328 4.70541,-13.15027 0.68777,-6.03228 3.40269,-11.4193 10.05904,-19.95938 4.48477,-5.75395 6.23656,-7.0655 17,-12.72781 l 12,-6.31281 17.5,0.002 17.5,0.002 10.39497,5.16523 c 8.15665,4.05302 11.64119,6.47488 16.18254,11.24737 3.18316,3.34517 6.09572,7.09474 6.47236,8.33238 0.37664,1.23763 1.78678,4.69118 3.13364,7.67455 3.71079,8.21959 4.50489,14.7286 4.14526,33.97766 L 370.5,702.5 l -4.32282,9 c -2.37755,4.95 -5.01585,9.76656 -5.86288,10.70347 -2.5593,2.83086 -14.47633,9.61595 -20.57323,11.71359 -3.14979,1.08369 -7.38096,3.23317 -9.40261,4.77664 -3.06499,2.34002 -4.93541,2.88938 -11.25709,3.3063 -4.16975,0.275 -9.83137,0.25781 -12.58137,-0.0382 z M 426.66344,353.47102 c 3.30036,-0.94379 6.06294,-2.54556 7.65637,-4.43925 2.97294,-3.53314 7.27223,-16.27978 8.16635,-24.21179 0.35329,-3.13419 1.3138,-6.239 2.14299,-6.92716 2.68,-2.2242 4.18451,-6.31727 5.30565,-14.43411 0.87753,-6.35322 1.79084,-8.96735 4.52743,-12.95871 4.19461,-6.11791 7.79424,-21.142 7.33621,-30.61981 -0.26301,-5.44228 -0.63374,-6.42513 -3.12243,-8.27785 L 455.85203,249.5 H 314.17601 c -137.75786,0 -141.78312,0.0532 -145.54904,1.92232 -6.60018,3.27591 -8.82663,12.77995 -4.27554,18.25095 3.68232,4.42662 4.40425,6.33539 5.57221,14.73274 0.62951,4.52598 2.12478,9.80984 3.52976,12.47319 1.34068,2.54144 2.62445,6.1958 2.85284,8.1208 0.22839,1.925 1.89108,9.74143 3.69488,17.36985 2.76222,11.68168 3.92798,14.82725 7.38925,19.93838 2.2603,3.3377 5.79883,7.41383 7.86341,9.05808 3.42304,2.72615 4.61248,3.03995 13.5,3.56162 5.36042,0.31464 55.42122,0.44778 111.24622,0.29586 85.91333,-0.23379 102.29291,-0.50295 106.66344,-1.75277 z m 35.83615,-117.36781 c 8.04199,-3.55736 7.56194,2.83077 7.57647,-100.82092 0.007,-50.48026 -0.007,-93.243494 -0.0316,-95.029409 -0.0567,-4.141183 -5.71696,-10.625902 -10.86044,-12.442371 -2.95902,-1.045007 -32.1497,-1.301982 -148.3279,-1.305781 -143.23018,-0.0047 -144.66588,0.01482 -146.89518,1.995271 -1.23822,1.1 -3.12188,3.946068 -4.18592,6.324595 -1.87071,4.181759 -1.93095,7.402073 -1.82358,97.500005 0.0685,57.44572 0.48753,94.5771 1.09285,96.83074 0.53999,2.01043 1.83482,4.71043 2.8774,6 1.80285,2.22994 2.64621,2.36912 17.23695,2.84466 8.43774,0.275 74.70876,0.37321 147.26893,0.21824 125.40841,-0.26783 132.13237,-0.37234 136.07201,-2.11503 z M 62.5,1613.1128 c -5.063903,-2.3335 -26.098321,-23.781 -27.198206,-27.7323 C 34.860807,1583.7962 34.5,1576.615 34.5,1569.4222 c 0,-12.5529 0.104696,-13.2153 2.608124,-16.5 1.434469,-1.8822 3.768533,-5.6722 5.186809,-8.4222 3.09279,-5.9968 11.957186,-15.2432 15.593762,-16.2658 4.179028,-1.175 42.355515,-0.8859 44.416415,0.3364 4.16024,2.4674 19.74167,18.8946 21.63862,22.8132 1.79883,3.7159 2.05627,6.1527 2.05627,19.464 0,16.8872 -0.50974,18.9943 -6.50453,26.8871 -4.28411,5.6405 -15.98751,13.6971 -22.926971,15.7829 -7.508389,2.2567 -28.8427,2.0031 -34.068499,-0.405 z m 17,-886.0381 c -1.65,-0.40706 -4.440153,-1.4904 -6.20034,-2.40741 -1.760187,-0.91701 -4.910187,-1.6698 -7,-1.67287 -7.302075,-0.0107 -10.517725,-1.6498 -16.590915,-8.45672 -3.18519,-3.57001 -6.460678,-8.18895 -7.278862,-10.26431 C 41.611699,702.19802 39.377881,697.35 37.465844,693.5 c -2.833998,-5.70642 -3.498723,-8.22194 -3.59706,-13.61234 -0.105928,-5.80654 0.307671,-7.39078 3.393919,-13 1.933001,-3.51322 4.028136,-8.01023 4.655856,-9.99338 0.737046,-2.32853 3.875839,-6.24816 8.861375,-11.06581 7.493792,-7.24144 8.009342,-7.54466 17.58965,-10.34527 l 9.869583,-2.88517 6.630417,1.82869 c 3.646729,1.00579 10.455416,2.6855 15.130416,3.7327 4.675,1.0472 9.625,2.71839 11,3.71376 1.375,0.99537 3.56675,4.4686 4.87056,7.71829 1.30381,3.24969 4.11631,8.10481 6.25,10.78916 L 126,665.26126 v 13.90149 c 0,14.69968 -0.86711,18.68309 -4.83675,22.2194 -1.16203,1.03519 -3.02297,3.76235 -4.13542,6.06036 C 112.00712,717.81392 89.560343,729.55666 79.5,727.0747 Z"
       id="path6271" />
  </g>
</svg>
