<?xml version="1.0" encoding="UTF-8" standalone="no"?>
<!-- Created with Inkscape (http://www.inkscape.org/) -->

<svg
   version="1.1"
   id="svg6388"
   width="515"
   height="2340"
   viewBox="0 0 515 2340"
   sodipodi:docname="g+.svg"
   inkscape:version="1.1.1 (3bf5ae0d25, 2021-09-20)"
   xmlns:inkscape="http://www.inkscape.org/namespaces/inkscape"
   xmlns:sodipodi="http://sodipodi.sourceforge.net/DTD/sodipodi-0.dtd"
   xmlns="http://www.w3.org/2000/svg"
   xmlns:svg="http://www.w3.org/2000/svg">
  <defs
     id="defs6392" />
  <sodipodi:namedview
     id="namedview6390"
     pagecolor="#ffffff"
     bordercolor="#666666"
     borderopacity="1.0"
     inkscape:pageshadow="2"
     inkscape:pageopacity="0.0"
     inkscape:pagecheckerboard="0"
     showgrid="false"
     inkscape:zoom="0.33418803"
     inkscape:cx="-86.777494"
     inkscape:cy="1170"
     inkscape:window-width="1920"
     inkscape:window-height="986"
     inkscape:window-x="-11"
     inkscape:window-y="-11"
     inkscape:window-maximized="1"
     inkscape:current-layer="g6394" />
  <g
     inkscape:groupmode="layer"
     inkscape:label="Image"
     id="g6394">
    <path
       style="fill:#000000"
       d="m 298.24138,2326.6748 c -5.94939,-3.3041 -6.92457,-8.6982 -4.82245,-26.6748 0.86825,-7.425 1.57919,-15.4125 1.57986,-17.75 L 295,2278 h -22.25 c -20.29034,0 -22.53146,-0.1754 -25.44574,-1.9523 -4.02262,-2.4528 -5.25438,-7.6073 -3.20358,-13.4061 2.86492,-8.1008 10.51864,-10.6371 26.67707,-8.8404 5.94791,0.6614 13.83116,1.2025 17.51832,1.2025 H 295 l 0.006,-16.25 c 0.006,-17.3314 0.90258,-22.8326 4.34027,-26.6289 4.58513,-5.0635 13.51786,-6.6735 17.79337,-3.2071 2.34736,1.9032 2.36078,2.0352 2.36078,23.2331 v 21.3189 l 11.5,-0.3173 c 8.6066,-0.2376 12.60128,-0.7994 15.87712,-2.2331 6.12912,-2.6824 13.28954,-2.5383 16.61947,0.3344 4.448,3.8373 5.41928,13.8341 1.89117,19.4648 -2.69265,4.2974 -4.96956,4.7622 -25.88776,5.2852 l -20,0.5 v 21.5 c 0,23.3379 -0.54868,26.2016 -5.5,28.706 -3.20043,1.6188 -12.82187,1.5997 -15.75862,-0.031 z M 190.30775,2154.8272 c -1.20574,-0.5947 -3.00574,-2.9366 -4,-5.2042 -1.73869,-3.9655 -1.81663,-38.3857 -2.04008,-900.958 l -0.23234,-896.83502 -3.52263,-7.80185 c -2.07031,-4.58529 -4.52096,-12.69279 -5.9441,-19.66499 -1.33181,-6.52473 -4.44066,-17.93814 -6.90855,-25.36314 -2.46789,-7.425 -4.81113,-15.3 -5.20721,-17.5 -0.7721,-4.28862 -2.84758,-9.03097 -5.0618,-11.56589 -0.75228,-0.86124 -2.3226,-5.36124 -3.48959,-10 -2.10079,-8.35052 -2.12189,-9.56986 -2.12906,-123.03043 -0.005,-83.900097 0.29821,-115.167083 1.1331,-116.727087 0.62719,-1.171916 2.06255,-2.624304 3.18968,-3.227528 1.46467,-0.783868 48.16351,-1.069387 163.6862,-1.000783 161.57901,0.09595 161.63763,0.09672 163.82187,2.148706 1.47486,1.385558 2.37332,3.734711 2.76438,7.227865 0.31865,2.846331 0.68634,56.31228 0.81709,118.813217 l 0.23773,113.63808 -3.75706,6.08692 c -3.27382,5.30401 -3.94028,7.47282 -5.18152,16.86192 -1.62483,12.29078 -3.60347,19.60212 -7.246,26.77501 -1.39651,2.75 -3.34037,8.15 -4.31971,12 -0.97933,3.85 -2.51699,9.925 -3.41701,13.5 -0.90003,3.575 -2.45901,8.75 -3.46439,11.5 -1.00538,2.75 -2.42395,7.025 -3.15237,9.5 -1.09312,3.71414 -1.41696,160.71219 -1.85439,899 -0.50868,858.5359 -0.60228,894.6324 -2.32789,897.793 -2.20107,4.0314 -5.84541,5.562 -11.45756,4.8123 -5.21208,-0.6963 -243.15899,-0.8793 -246.41714,-0.1895 -1.28007,0.271 -3.31391,0.01 -4.51965,-0.5886 z m 246.43283,-14.098 c 1.78232,-0.974 4.03232,-2.9792 5,-4.456 1.67135,-2.5508 1.77364,-24.5865 2.0436,-440.2292 0.19351,-297.9341 -0.0467,-440.0742 -0.7528,-445.4738 -0.57034,-4.3614 -1.73122,-8.9894 -2.57975,-10.2844 l -1.54277,-2.3545 -11.36903,11.5497 c -6.38838,6.4899 -12.92568,12.2001 -14.92231,13.0343 -2.52769,1.0562 -7.32912,1.4847 -16.63506,1.4847 -13.43228,0 -16.66409,-0.7384 -21.31734,-4.8706 -1.00918,-0.8962 -4.60918,-2.9794 -8,-4.6294 -4.98525,-2.4259 -6.64357,-3.8728 -8.66512,-7.5603 -1.375,-2.5082 -3.49298,-5.6096 -4.70662,-6.892 -4.84322,-5.1177 -6.71849,-10.9212 -6.63947,-20.5477 0.10898,-13.2744 3.36029,-20.2749 15.22462,-32.7805 9.33828,-9.843 10.19761,-10.1649 28.22178,-10.571 26.42216,-0.5954 36.8939,3.1452 43.67623,15.6015 1.87168,3.4375 4.06061,6.25 4.86429,6.25 0.80367,0 2.22576,-1.6875 3.1602,-3.75 1.58842,-3.506 1.71452,-30.2001 1.93788,-410.25 0.16876,-287.15465 -0.0759,-407.45928 -0.8333,-409.76739 -0.65167,-1.98589 -2.31421,-3.94694 -4.2389,-5 -2.94333,-1.61039 -11.32988,-1.75302 -118.89039,-2.0219 -128.62711,-0.32155 -120.40242,-0.74317 -123.3551,6.32359 -1.22469,2.93109 -1.41818,124.71655 -1.39926,880.6836 0.0213,850.4186 0.0784,877.4064 1.86617,881.3424 3.63282,7.9981 -5.63255,7.4554 122.61187,7.1824 106.92817,-0.2276 114.20102,-0.3525 117.24058,-2.0135 z M 241,1977.3637 c -6.01459,-1.1432 -9.11323,-2.7177 -11.18937,-5.6857 -1.22267,-1.7479 -6.51774,-7.3921 -11.76683,-12.5428 l -9.5438,-9.3647 -0.34112,-9.8024 c -0.42017,-12.0739 1.10146,-22.5466 3.76843,-25.9364 1.09551,-1.3924 3.31969,-4.7817 4.94261,-7.5317 1.62293,-2.75 5.66095,-7.5875 8.97338,-10.75 l 6.02259,-5.75 h 21.50196 c 11.82607,0 22.63787,0.4319 24.02621,0.9597 1.38834,0.5279 3.74691,2.8073 5.24128,5.0654 1.49437,2.2582 4.0095,4.7741 5.58919,5.591 2.06211,1.0664 3.86603,3.6567 6.39615,9.1846 l 3.524,7.6993 -0.4176,15 c -0.42655,15.3213 -1.16343,18.5287 -6.94721,30.2387 -1.33766,2.7083 -11.58558,9.5403 -17.78515,11.8569 -4.44934,1.6626 -26.21988,2.8657 -31.99472,1.7681 z m 23.5399,-12.8159 c 4.88013,-2.0391 16.17912,-13.6584 18.59687,-19.1241 2.73725,-6.188 3.35173,-13.5768 1.87046,-22.4914 -1.20781,-7.2689 -1.38083,-7.5779 -7.87109,-14.0561 -5.81717,-5.8064 -7.23452,-6.7105 -11.48483,-7.3261 -5.38602,-0.7801 -18.77592,0.1956 -22.65131,1.6505 -4.67657,1.7557 -12.98097,8.8418 -14.99996,12.7993 -1.10678,2.1695 -3.47206,5.6083 -5.25618,7.6418 -2.92352,3.3322 -3.23695,4.2978 -3.17385,9.7778 0.0605,5.2578 0.56263,6.8247 3.71081,11.5805 6.302,9.5202 7.26518,10.3795 17.65271,15.75 11.13361,5.7562 16.75479,6.6605 23.60637,3.7978 z m 28.29611,-172.1582 c -5.98077,-4.0247 -7.59878,-5.9947 -10.15253,-12.3611 -0.99908,-2.4907 -3.47408,-6.2393 -5.5,-8.3303 l -3.68348,-3.8018 0.0302,-13.6982 c 0.0232,-10.5206 0.40861,-14.5101 1.66156,-17.1982 1.92066,-4.1206 21.88291,-25.8453 25.68605,-27.9538 1.80691,-1.0018 6.85327,-1.5799 16.23027,-1.8596 15.09725,-0.4502 13.32706,-0.9231 30.39195,8.1193 7.25936,3.8465 8.28312,4.77 11.05806,9.9746 1.68194,3.1546 3.59444,6.272 4.25,6.9276 0.82545,0.8254 1.18545,6.1269 1.17085,17.2419 -0.019,14.4463 -0.26598,16.744 -2.47188,22.996 -2.11692,5.9997 -3.42543,7.868 -9.60543,13.7142 -3.93505,3.7225 -8.56021,7.1941 -10.27812,7.7147 -1.71791,0.5205 -12.21743,1.1937 -23.33226,1.4959 l -20.20879,0.5494 -5.24642,-3.5306 z m 44.19731,-11.1396 c 3.90006,-1.9891 6.74534,-4.5324 10.28336,-9.1921 l 4.89142,-6.442 -0.36175,-10.569 -0.36176,-10.569 -4.66364,-5.989 c -6.53279,-8.3892 -14.8057,-16.1668 -19.10902,-17.9648 -5.56407,-2.3248 -9.7268,-1.9005 -15.16015,1.5452 -2.66187,1.6881 -7.69638,4.419 -11.18778,6.0686 -6.23142,2.9442 -6.37644,3.1036 -7.89615,8.6807 -1.54468,5.6687 -4.0036,11.2379 -7.24929,16.4189 -1.68535,2.6903 -1.64595,2.8669 2.28324,10.2295 9.66714,18.1144 13.08748,20.2275 33.06889,20.4306 9.12299,0.093 10.57808,-0.1564 15.46263,-2.6476 z m -45.0503,-150.5369 c -9.50439,-3.8126 -16.55123,-9.6999 -22.62611,-18.903 -3.11487,-4.7188 -6.10593,-10.6697 -6.92119,-13.7702 -1.89737,-7.2158 -1.96463,-35.5651 -0.10141,-42.7479 1.87357,-7.2228 8.74264,-17.559 17.20491,-25.8889 6.31104,-6.2123 7.79251,-7.1767 11.88598,-7.7378 2.61522,-0.3584 6.11012,-1.7346 7.92939,-3.1222 6.07763,-4.6356 9.75955,-5.5446 22.36329,-5.5211 12.534,0.023 15.51526,0.8502 23.03822,6.3894 1.79085,1.3186 6.45133,3.368 10.35662,4.5542 8.48327,2.5767 10.89409,4.7639 13.79394,12.5145 1.20484,3.2202 3.49684,7.5042 5.09334,9.5199 4.40224,5.5583 6.80995,13.2943 7.5364,24.2147 0.53944,8.1091 0.30776,10.9187 -1.40183,17 -1.12644,4.0069 -2.33216,9.5032 -2.67938,12.2139 -0.64904,5.0671 -1.34637,6.033 -12.17,16.8566 -15.749,15.749 -15.42653,15.6332 -45.11634,16.2047 -21.61256,0.416 -22.92592,0.3332 -28.18583,-1.7768 z m 42.93176,-10.1779 c 2.97812,-0.7926 7.70312,-2.8843 10.5,-4.6482 2.79687,-1.7638 6.31163,-3.8374 7.81058,-4.608 2.93071,-1.5065 6.77464,-5.85 6.77464,-7.6552 0,-0.6086 1.62453,-3.4652 3.61006,-6.3481 4.89703,-7.1103 7.3787,-20.9042 5.42077,-30.1304 -0.70119,-3.3042 -2.00748,-7.0941 -2.90287,-8.4219 -7.29153,-10.8134 -9.66935,-13.8538 -14.31973,-18.31 -8.80227,-8.4347 -18.74388,-14.3785 -26.08373,-15.5948 -6.043,-1.0013 -6.69569,-0.9037 -13.28981,1.9886 -3.81408,1.6729 -9.00538,3.5623 -11.53621,4.1986 -6.0404,1.5186 -15.04471,8.6635 -18.53839,14.71 -1.52035,2.6313 -4.06114,6.425 -5.6462,8.4305 -2.28291,2.8884 -3.09142,5.2786 -3.88989,11.5 -1.11404,8.6801 -0.33873,24.4906 1.36121,27.7584 1.38795,2.6681 10.41832,12.4377 14.05883,15.2097 1.52725,1.1629 4.09261,3.9307 5.7008,6.1508 4.14864,5.727 8.25273,6.8878 25.05516,7.0867 6.36796,0.075 12.63087,-0.4427 15.91478,-1.3167 z m -35.17389,-182.6014 c -1.87869,-0.3113 -4.76975,-1.5302 -6.42459,-2.7086 -4.09197,-2.9137 -10.15444,-9.7424 -11.567,-13.0289 -0.63739,-1.483 -2.48675,-4.6001 -4.10969,-6.9269 -3.32602,-4.7686 -4.51303,-10.334 -4.53645,-21.2694 -0.0258,-12.0628 0.95456,-15.1886 6.75408,-21.5342 2.82852,-3.0948 5.14276,-6.066 5.14276,-6.6026 0,-0.5366 1.9125,-1.8307 4.25,-2.8758 2.3375,-1.0451 6.42905,-3.7137 9.09232,-5.9301 5.52798,-4.6005 8.91448,-5.7166 20.15768,-6.643 5.8428,-0.4814 9.65743,-0.2344 14.14662,0.9161 5.93478,1.521 19.76478,9.1711 22.65476,12.5316 4.13239,4.8052 9.57387,31.9162 8.45756,42.138 -0.89696,8.2133 -5.35593,16.9797 -11.58693,22.7799 -9.80899,9.131 -8.28915,8.6606 -29.79509,9.2201 -10.57113,0.275 -20.75735,0.2452 -22.63603,-0.066 z m 37.09154,-13.1838 c 5.41564,-2.9383 12.90546,-11.8359 13.74921,-16.3335 1.16811,-6.2265 -0.13595,-20.56 -2.29171,-25.1892 -1.09437,-2.35 -5.62578,-7.8362 -10.06979,-12.1916 -8.6805,-8.5073 -11.38902,-9.7276 -19.54883,-8.8079 -4.48413,0.5054 -18.96318,8.2989 -22.47314,12.0964 -2.22473,2.4069 -9.11245,19.3538 -9.90035,24.3593 -0.36928,2.346 0.14124,4.0559 1.94072,6.5 1.343,1.8241 2.98908,4.7084 3.65795,6.4096 1.71391,4.359 10.07625,12.2802 14.70602,13.9301 2.39596,0.8539 8.17101,1.4059 14.99021,1.4329 9.65858,0.038 11.62886,-0.247 15.23971,-2.2061 z m -22.72524,-339.2449 c -2.06233,-1.457 -5.59164,-2.6667 -9,-3.0849 -3.08395,-0.3784 -6.54268,-1.0374 -7.68607,-1.4643 -3.87441,-1.4467 -15.01233,-13.4146 -18.7357,-20.1319 -3.19958,-5.7722 -3.84849,-8.079 -4.79374,-17.0409 -1.16763,-11.0702 -0.96529,-12.1215 3.99995,-20.7831 1.10351,-1.925 3.14544,-5.9996 4.53763,-9.0548 1.90785,-4.1867 3.51202,-6.1059 6.51343,-7.7928 2.1902,-1.231 4.92641,-3.5642 6.08048,-5.1849 2.79655,-3.92743 12.1957,-6.62815 25.74328,-7.39703 9.78072,-0.5551 10.64585,-0.43635 18.28551,2.50981 11.62255,4.48212 15.76684,7.99972 18.54174,15.73792 1.24614,3.4751 2.91649,7.3115 3.7119,8.5255 0.9995,1.5254 1.66692,6.8325 2.16079,17.1817 l 0.71458,14.9746 -4.03665,7.8671 c -3.07823,5.9992 -5.67786,9.3453 -10.94902,14.0928 -6.50751,5.861 -7.27352,6.2634 -13.07891,6.8701 -6.38459,0.6674 -10.81698,2.3994 -13.06167,5.1041 -1.82498,2.1989 -4.98412,1.8709 -8.94753,-0.929 z m 18.00923,-15.5208 c 2.08672,-0.5796 6.39491,-3.5505 10.18516,-7.0236 5.93947,-5.4424 6.68431,-6.5671 7.77515,-11.7399 2.51273,-11.9154 0.21357,-26.2972 -4.95367,-30.9863 -4.29086,-3.8939 -18.35503,-12.8342 -22.12306,-14.0631 -4.56842,-1.49 -12.09798,0.4327 -19.28634,4.9249 -7.42681,4.6411 -9.49934,6.7113 -10.81301,10.8008 -0.63657,1.9816 -2.67463,6.3461 -4.52902,9.699 -4.21236,7.6162 -4.30837,11.351 -0.41678,16.2125 1.62517,2.0303 3.61088,5.2664 4.41269,7.1914 2.5442,6.1082 12.8267,13.7031 20.23184,14.9437 7.0605,1.1829 15.34265,1.2001 19.51704,0.041 z M 299.5,919.10442 c -4.25937,-0.77393 -9.9602,-3.42198 -11.00444,-5.1116 -0.34719,-0.56177 -2.51323,-1.96448 -4.81341,-3.11713 -5.69068,-2.85167 -9.42498,-6.50639 -12.19636,-11.93648 -1.28025,-2.50843 -3.92229,-6.46936 -5.87121,-8.80207 -1.94892,-2.3327 -3.82519,-5.74285 -4.16948,-7.57811 -0.3443,-1.83525 -0.46745,-12.49932 -0.27368,-23.69793 0.39261,-22.68918 -0.24473,-20.3153 9.11645,-33.95596 C 276.05678,816.49897 288.96351,804 291.87502,804 c 1.0267,0 6.53733,-1.34721 12.24585,-2.9938 5.70852,-1.64659 11.73218,-2.99659 13.3859,-3 1.65372,-0.003 8.17872,1.1519 14.5,2.56737 10.17562,2.27852 13.26739,3.45869 21.49323,8.2042 1.1,0.6346 4.42576,2.15183 7.39057,3.37164 5.13123,2.11112 5.54939,2.56633 8.69178,9.46185 1.81566,3.98422 4.38216,8.96409 5.70332,11.06638 4.16563,6.62858 7.06028,17.03378 7.04449,25.32236 -0.0171,8.99744 -5.17943,29.58383 -8.80386,35.10845 -3.48362,5.30998 -21.54461,22.90426 -25.0263,24.3796 -3.48257,1.47571 -42.66132,2.7681 -49,1.61637 z m 2,-177.90557 c -4.4,-2.15605 -9.26025,-4.2221 -10.80056,-4.59121 -1.74216,-0.41749 -7.57605,-5.45355 -15.43681,-13.32573 -11.49117,-11.50786 -12.70455,-13.06817 -13.38984,-17.21826 -1.07427,-6.50583 -1.00228,-42.79938 0.0943,-47.52881 0.60203,-2.59654 2.33171,-5.30901 5.01119,-7.85854 2.25051,-2.14136 4.95868,-5.59254 6.01816,-7.66929 2.58556,-5.06811 7.26378,-9.59491 12.87538,-12.45864 2.54551,-1.29903 5.93993,-3.74344 7.54315,-5.43201 4.67327,-4.92206 7.68583,-5.42358 27.70186,-4.61162 15.20797,0.61691 18.47841,1.03278 21.64872,2.75284 2.05396,1.11438 5.71569,3.0348 8.13719,4.26759 2.42149,1.23279 6.27092,4.20645 8.55429,6.60814 2.28337,2.40168 5.70214,5.77338 7.59728,7.49266 1.89514,1.71929 4.91325,5.57447 6.70691,8.56708 4.08822,6.82094 8.2388,22.78685 8.2388,31.69194 0,8.77976 -4.46433,28.44386 -7.73491,34.0701 -2.61176,4.4929 -17.90992,19.9967 -19.76509,20.03077 -0.55,0.0101 -4.6,1.91452 -9,4.23204 l -8,4.21367 -14,0.34369 -14,0.34369 -8,-3.9201 z m 100.21434,508.40385 c 2.71633,-1.8685 7.23248,-4.2119 10.03591,-5.2076 2.80342,-0.9957 5.8587,-2.3672 6.78952,-3.0478 1.68034,-1.2287 9.39608,-21.2937 9.43823,-24.5444 0.0121,-0.9334 -1.103,-3.8129 -2.478,-6.3989 -1.375,-2.586 -2.5,-5.3488 -2.5,-6.1395 0,-2.1619 -12.03433,-14.3344 -15.71788,-15.8983 -1.98974,-0.8448 -6.97834,-1.3662 -13.07069,-1.3662 -15.24957,0 -20.38426,3.272 -31.30074,19.9458 -3.60986,5.5137 -3.77974,10.6294 -0.58295,17.5542 1.26951,2.75 2.90378,7.156 3.6317,9.7911 1.43713,5.2024 3.0826,6.8297 12.42453,12.2871 6.43198,3.7574 12.91433,6.2995 16.25382,6.3741 1.17578,0.026 4.36023,-1.4811 7.07655,-3.3496 z M 434.5,355.00529 c 4.41719,-2.08704 10.15976,-6.71872 12.62817,-10.18529 2.22,-3.1177 3.39678,-7.49618 6.93951,-25.82 1.15341,-5.9657 3.4956,-13.73879 5.42377,-18 2.13354,-4.71509 3.79005,-10.4313 4.46112,-15.39424 1.35711,-10.03666 3.65553,-18.91724 6.17338,-23.85265 2.50381,-4.90787 1.71056,-7.46843 -2.97231,-9.5944 -3.33848,-1.51563 -15.80162,-1.68173 -144.48397,-1.92562 -93.45102,-0.17712 -142.1051,0.0763 -144.61946,0.75339 -5.50198,1.48153 -9.05021,4.60299 -9.05021,7.96167 0,1.54164 1.06171,5.22148 2.35935,8.17742 1.29764,2.95594 3.14432,8.97443 4.10374,13.37443 0.95942,4.4 3.04772,10.6933 4.64066,13.98511 1.94253,4.01425 2.89625,7.54181 2.89625,10.71249 0,2.60006 0.87361,7.10676 1.94135,10.01489 1.06774,2.90813 2.23779,7.08751 2.60009,9.28751 0.36231,2.2 1.96164,6.5651 3.55406,9.70021 1.59242,3.13512 3.80198,8.1235 4.91013,11.08529 3.33607,8.91645 5.30214,10.11011 17.81996,10.819 5.87093,0.33247 57.24941,0.54009 114.17441,0.46137 87.02661,-0.12035 103.97749,-0.36874 106.5,-1.56058 z M 468,237.69356 c 2.51805,-0.8587 4.06111,-2.31579 5.5,-5.19356 1.95812,-3.91623 2,-6 2,-99.5 0,-93.5 -0.0419,-95.58377 -2,-99.5 -3.74842,-7.496845 7.29174,-7 -155.54374,-7 -137.38839,0 -145.69466,0.09888 -148.23714,1.764625 -1.48137,0.970544 -3.61359,3.568364 -4.73828,5.772933 -2.01291,3.945636 -2.04799,5.489406 -2.24365,98.735372 -0.18927,90.20798 -0.11049,94.9311 1.65136,99.00395 3.41425,7.89264 -10.74926,7.22957 153.08396,7.16668 111.16516,-0.0427 147.8812,-0.34757 150.52749,-1.25 z M 75.717502,1619.9745 c -4.990259,-1.2622 -8.917177,-3.3349 -16.396485,-8.6542 -8.211863,-5.8403 -11.740356,-10.0395 -13.847023,-16.479 -0.96105,-2.9377 -2.810855,-7.1808 -4.110679,-9.4292 -3.194741,-5.5259 -3.042855,-10.606 0.520595,-17.4121 1.583792,-3.025 3.213271,-7.075 3.621067,-9 1.994686,-9.4159 10.258244,-19.5491 19.495023,-23.9058 5.266163,-2.4839 6.244026,-2.5942 23,-2.5942 16.30855,0 17.86,0.1627 22.78768,2.3894 5.52507,2.4966 11.60779,8.5238 15.75442,15.6106 3.58237,6.1225 8.4579,21.7138 8.4579,27.0473 0,7.1976 -5.49164,20.671 -10.85828,26.64 -5.09044,5.6618 -15.0656,12.9688 -20.14172,14.7543 -4.509082,1.586 -23.372192,2.2749 -28.282498,1.0329 z m 2.4016,-892.46653 c -4.059494,-1.37939 -8.109494,-2.52772 -9,-2.55186 -3.869467,-0.1049 -9.327613,-3.02173 -15.00352,-8.01787 -6.307686,-5.55225 -7.497345,-7.81981 -8.509734,-16.22002 -0.316964,-2.62997 -1.703049,-7.2451 -3.08019,-10.25584 -3.8864,-8.49654 -4.106872,-12.05495 -1.141883,-18.43 1.398621,-3.00718 3.119552,-7.7174 3.824291,-10.46715 1.045322,-4.07863 2.596121,-6.31859 8.419162,-12.16056 6.902816,-6.92526 7.495615,-7.27868 18.005296,-10.73481 16.43252,-5.40386 16.139226,-5.39785 30.638296,-0.62799 12.44454,4.09396 12.84257,4.3168 18.95375,10.61137 7.47312,7.69736 7.25341,7.3251 8.76236,14.84676 0.66203,3.3 2.06079,7.9697 3.10838,10.37712 2.38889,5.48984 2.40206,9.35583 0.0552,16.21633 -1.0172,2.9736 -2.43726,8.55655 -3.15567,12.40655 -1.24434,6.66843 -1.62121,7.31543 -7.95622,13.65913 -5.15822,5.1653 -7.647,6.89851 -11.09432,7.7262 -2.44438,0.58689 -7.25106,1.9856 -10.68153,3.10825 -9.942783,3.25386 -13.81664,3.34384 -22.143688,0.51439 z"
       id="path6473" />
  </g>
</svg>
