<?xml version="1.0" encoding="UTF-8" standalone="no"?>
<!-- Created with Inkscape (http://www.inkscape.org/) -->

<svg
   version="1.1"
   id="svg2482"
   width="515"
   height="2340"
   viewBox="0 0 515 2340"
   sodipodi:docname="g.svg"
   inkscape:version="1.1.1 (3bf5ae0d25, 2021-09-20)"
   xmlns:inkscape="http://www.inkscape.org/namespaces/inkscape"
   xmlns:sodipodi="http://sodipodi.sourceforge.net/DTD/sodipodi-0.dtd"
   xmlns="http://www.w3.org/2000/svg"
   xmlns:svg="http://www.w3.org/2000/svg">
  <defs
     id="defs2486" />
  <sodipodi:namedview
     id="namedview2484"
     pagecolor="#ffffff"
     bordercolor="#666666"
     borderopacity="1.0"
     inkscape:pageshadow="2"
     inkscape:pageopacity="0.0"
     inkscape:pagecheckerboard="0"
     showgrid="false"
     inkscape:zoom="0.33418803"
     inkscape:cx="-86.777494"
     inkscape:cy="1170"
     inkscape:window-width="1920"
     inkscape:window-height="986"
     inkscape:window-x="-11"
     inkscape:window-y="-11"
     inkscape:window-maximized="1"
     inkscape:current-layer="g2488" />
  <g
     inkscape:groupmode="layer"
     inkscape:label="Image"
     id="g2488">
    <path
       style="fill:#000000"
       d="m 188.69151,2157.7824 c -1.43623,-1.4362 -2.91537,-4.599 -3.56292,-7.6184 -0.80498,-3.7535 -1.10383,-249.6902 -1.09485,-901.0215 0.007,-492.72235 -0.26589,-896.71014 -0.60597,-897.75066 -0.34008,-1.04051 -1.92452,-4.59184 -3.52099,-7.89184 -1.59646,-3.3 -3.84781,-10.725 -5.003,-16.5 -2.39226,-11.95931 -6.25494,-26.01515 -8.41775,-30.63118 -0.8069,-1.72214 -2.41009,-7.12214 -3.56263,-12 -1.23724,-5.23629 -3.2705,-10.65178 -4.96419,-13.22191 -1.58744,-2.40888 -3.66002,-7.76842 -4.6405,-12 -1.63969,-7.07655 -1.7736,-16.11256 -1.79528,-121.14691 -0.0129,-62.425 0.32121,-114.731808 0.74245,-116.23735 1.78185,-6.368582 -10.6779,-5.936614 167.86051,-5.819565 123.3704,0.08088 162.57002,0.389999 163.65511,1.290538 0.78477,0.651301 1.82601,2.234057 2.31388,3.517237 0.49137,1.292402 0.92098,44.577324 0.96315,97.0411 0.0419,52.08942 0.42235,101.68304 0.84552,110.20804 1.06823,21.52026 0.13294,30.63244 -3.71878,36.23072 -3.41504,4.96358 -4.7213,9.35349 -5.68717,19.11271 -0.84207,8.50828 -4.00068,20.11566 -6.63282,24.37455 -1.09418,1.77042 -3.94474,10.54563 -6.33459,19.50048 -2.38985,8.95485 -4.82566,17.40654 -5.4129,18.78154 -0.58724,1.375 -1.97898,6.3865 -3.09275,11.13667 L 455,365.77334 454.978,1258.1367 c -0.0216,876.7321 -0.0555,892.4371 -1.93531,896.578 -1.26872,2.7947 -2.69319,4.3721 -4.22804,4.6817 -2.42315,0.4889 -240.46376,0.073 -244.81469,-0.4279 -1.375,-0.1582 -4.82937,0.063 -7.67639,0.491 -4.70509,0.7077 -5.39997,0.555 -7.6321,-1.6771 z m 247.27386,-12.0888 c 1.98287,-0.683 4.44511,-2.6507 5.75552,-4.5997 l 2.29015,-3.406 -0.25552,-445.094 C 443.4837,1219.104 443.71344,1241 439.01718,1241 c -0.98294,0 -2.5915,1.2375 -3.57459,2.75 -0.98309,1.5125 -6.07927,6.9002 -11.32485,11.9727 -8.637,8.3519 -10.05236,9.3295 -14.99185,10.355 -2.99994,0.6228 -10.28383,0.967 -16.18642,0.765 -10.46679,-0.3583 -10.86427,-0.4582 -16.08573,-4.0429 -2.94455,-2.0215 -7.42299,-4.5582 -9.95206,-5.6371 -4.45995,-1.9026 -8.90168,-6.2025 -8.90168,-8.6175 0,-0.6517 -1.39064,-2.7285 -3.09032,-4.6151 -1.69967,-1.8866 -4.22951,-5.6609 -5.62186,-8.3873 -2.33366,-4.5698 -2.49652,-5.745 -2.08338,-15.0342 0.40417,-9.0876 0.78127,-10.7018 3.84128,-16.443 3.9231,-7.3605 16.43521,-21.1352 21.19831,-23.3375 5.26282,-2.4333 30.50418,-3.2371 39.25597,-1.2501 13.90221,3.1563 18.60115,6.3185 22.96922,15.4576 3.25752,6.8155 5.06286,7.428 7.52317,2.5522 1.33488,-2.6455 1.53749,-49.8489 1.76839,-411.9878 0.19514,-306.04148 -0.0282,-409.70188 -0.88715,-411.78822 -0.63136,-1.53352 -2.09871,-3.33352 -3.26078,-4 -1.61444,-0.92592 -29.88067,-1.27546 -119.82473,-1.48175 l -117.71188,-0.26996 -3.28812,2.93793 -3.28812,2.93794 -0.29079,880.33206 c -0.20391,617.3455 0.0255,881.4302 0.76807,884.0083 0.58236,2.022 2.43524,4.8345 4.11751,6.25 l 3.05866,2.5737 114.67328,-0.056 c 86.11724,-0.042 115.53622,-0.3537 118.13864,-1.25 z M 239.6873,1981.013 c -4.99467,-0.8979 -9.6873,-3.3389 -9.6873,-5.0393 0,-0.5392 -4.8375,-5.7817 -10.75,-11.6501 l -10.75,-10.6698 -0.34112,-9.744 c -0.42069,-12.017 1.10478,-22.4925 3.76843,-25.8781 1.09551,-1.3924 3.3056,-4.7817 4.91131,-7.5317 1.60571,-2.75 5.64049,-7.5875 8.96619,-10.75 l 6.04672,-5.75 12.82423,-0.2427 c 29.40422,-0.5563 33.4262,0.02 37.28366,5.3454 1.59389,2.2003 4.38099,4.9999 6.19356,6.2214 1.81258,1.2215 3.80836,3.3358 4.43508,4.6984 0.62672,1.3626 2.14947,4.5889 3.3839,7.1695 2.1027,4.3957 2.21424,5.6586 1.76648,20 -0.48699,15.598 -1.26754,19.0245 -6.95857,30.5467 -1.33906,2.7111 -11.59306,9.5447 -17.78515,11.8526 -5.19589,1.9366 -25.59836,2.8074 -33.30742,1.4217 z m 24.83869,-12.4594 c 1.90396,-0.7955 6.61423,-4.5493 10.46727,-8.3417 9.12488,-8.9813 11.38078,-14.7092 10.71725,-27.2119 -0.24938,-4.699 -1.20352,-10.2881 -2.13369,-12.4987 -2.10285,-4.9975 -10.49108,-12.9879 -15.30092,-14.5753 -4.06396,-1.3412 -21.10962,-0.7538 -25.29702,0.8718 -4.98428,1.9349 -13.97687,10.2647 -16.53826,15.3194 -1.38706,2.7372 -3.13744,5.213 -3.88972,5.5016 -0.75228,0.2887 -1.91987,1.8578 -2.59464,3.4868 -3.88995,9.3912 4.93891,25.2013 18.08067,32.3776 12.29898,6.7161 19.32946,8.0619 26.48906,5.0704 z m 34.31541,-169.5084 c -3.74364,-1.1594 -11.2579,-6.4949 -13.01109,-9.2386 -0.81064,-1.2686 -2.26194,-4.3316 -3.22512,-6.8066 -0.96318,-2.475 -3.40587,-6.2081 -5.42821,-8.2958 l -3.67698,-3.7958 -0.33767,-10.3377 c -0.4377,-13.3997 1.51099,-21.5749 6.32748,-26.5454 19.84312,-20.4776 21.42521,-21.9187 24.747,-22.5419 1.8782,-0.3524 9.71759,-0.4928 17.42089,-0.312 13.5381,0.3176 14.12755,0.4214 17.64527,3.1075 2.00161,1.5283 6.55512,4.0871 10.11893,5.6861 5.82912,2.6153 6.747,3.4407 9.14287,8.2211 1.46478,2.9226 3.36187,6.1071 4.21576,7.0767 1.28893,1.4634 1.51319,4.5074 1.32079,17.9276 -0.31639,22.0686 -1.78279,26.649 -11.5654,36.125 -3.86976,3.7485 -8.12944,7.2557 -9.46597,7.7937 -1.33653,0.5381 -10.16847,1.1611 -19.62654,1.3846 -9.45806,0.2234 -18.26454,0.6242 -19.56995,0.8905 -1.3054,0.2664 -3.56983,0.1138 -5.03206,-0.339 z M 337.46185,1785 c 3.45967,-1.7431 6.43628,-4.4416 9.83204,-8.9134 l 4.87018,-6.4134 -0.33203,-11.1308 c -0.32515,-10.8998 -0.40261,-11.2232 -3.73289,-15.5866 -6.23138,-8.1644 -17.69249,-18.5174 -21.89241,-19.7757 -5.94152,-1.7801 -7.14943,-1.535 -15.23834,3.092 -4.10762,2.3496 -9.2684,5.1621 -11.4684,6.25 -3.68489,1.8221 -4.20731,2.6106 -6.63151,10.0089 -1.44733,4.417 -3.80983,9.7673 -5.25,11.8895 -1.44017,2.1222 -2.61849,4.5155 -2.61849,5.3183 0,0.8029 1.51721,4.0026 3.37157,7.1105 1.85436,3.1079 4.57186,7.7857 6.03889,10.3951 4.32277,7.6891 12.85099,10.8106 28.58954,10.4645 7.87884,-0.1733 10.34673,-0.6355 14.46185,-2.7089 z m -45.26981,-150.9517 c -8.31343,-3.079 -17.05851,-10.1833 -21.98421,-17.8594 -8.26786,-12.8845 -8.54914,-13.8766 -9.01612,-31.7986 -0.56905,-21.8392 0.54983,-28.0658 6.76032,-37.6212 5.19151,-7.9877 16.60778,-20.2236 19.65878,-21.0702 1.03905,-0.2884 3.52928,-0.8001 5.53383,-1.1371 2.00456,-0.3371 5.32109,-1.9452 7.37008,-3.5735 5.08605,-4.0419 9.16771,-4.9762 21.7674,-4.9827 11.76966,-0.01 15.18434,0.9203 21.45776,5.8216 2.06807,1.6157 7.13512,3.932 11.26012,5.1474 4.125,1.2153 8.25339,2.8821 9.1742,3.704 0.9208,0.8218 2.92936,4.4928 4.46346,8.1578 1.53409,3.665 4.05766,8.2754 5.60793,10.2453 4.84413,6.1555 6.98588,13.288 7.51892,25.0395 0.37658,8.302 0.11148,11.7361 -1.21405,15.7269 -0.9327,2.8081 -2.08923,7.8888 -2.57005,11.2905 -0.7656,5.4164 -1.42561,6.755 -5.31173,10.7732 -2.44062,2.5235 -4.95456,5.5992 -5.58652,6.8349 -0.63197,1.2357 -2.85797,3.1186 -4.94668,4.1842 -2.08871,1.0656 -4.98601,3.4954 -6.43845,5.3997 -4.39751,5.7654 -8.82666,6.673 -35.19703,7.2128 -21.0891,0.4316 -23.441,0.3074 -28.30796,-1.4951 z m 44.34285,-10.6015 c 2.93849,-0.8542 7.05775,-2.7208 9.15391,-4.1479 2.09616,-1.4271 5.6112,-3.5939 7.8112,-4.8152 2.8017,-1.5552 4.89872,-3.885 7,-7.777 1.65,-3.0561 3.79775,-6.652 4.77278,-7.9909 2.2931,-3.1488 4.6967,-14.5654 4.67721,-22.2158 -0.0185,-7.2577 -2.54317,-15.0033 -6.51141,-19.9766 -13.52858,-16.9551 -27.88857,-27.7989 -38.4336,-29.0228 -5.05069,-0.5862 -6.64875,-0.2988 -12.64321,2.2742 -3.77397,1.6199 -8.92221,3.4952 -11.44052,4.1673 -5.96639,1.5923 -15.22336,8.993 -18.6333,14.8968 -1.48068,2.5636 -4.01494,6.3342 -5.6317,8.3791 -2.52852,3.1981 -3.08141,5.0501 -3.95405,13.2447 -0.68843,6.4648 -0.68591,12.2366 0.008,17.9577 l 1.02233,8.431 6.37681,7.0354 c 3.50725,3.8694 7.27996,7.544 8.38382,8.1658 1.10385,0.6217 3.67797,3.3095 5.72028,5.9728 2.9643,3.8657 4.57791,5.0358 8,5.8014 7.19639,1.61 28.27938,1.3766 34.32161,-0.38 z M 297,1440.2835 c -3.85978,-1.4372 -12.31852,-9.9539 -15.0448,-15.1478 -1.62699,-3.0996 -3.86317,-6.7631 -4.96929,-8.1411 -2.33792,-2.9124 -3.99041,-11.7256 -3.93657,-20.9946 0.0645,-11.1005 1.13381,-14.3258 6.8079,-20.5342 2.82852,-3.0948 5.14276,-6.0331 5.14276,-6.5295 0,-0.4965 2.3625,-2.0825 5.25,-3.5247 2.8875,-1.4421 6.6,-3.9019 8.25,-5.4662 4.66074,-4.4185 9.72704,-6.019 20.86806,-6.5924 12.17839,-0.6268 16.09342,0.3946 27.63529,7.2102 8.80281,5.198 9.19889,5.6764 12.15411,14.6784 4.95905,15.1061 6.30809,34.249 2.90755,41.2584 -1.0673,2.2 -2.44494,5.3944 -3.06142,7.0987 -1.417,3.9173 -13.97052,15.2446 -18.25746,16.4741 -3.41967,0.9808 -41.18966,1.1627 -43.74613,0.2107 z m 38.8946,-11.858 c 2.37593,-0.9507 5.95963,-3.9022 9.04481,-7.4493 6.15086,-7.0718 7.51317,-12.3554 6.18814,-24 -1.12007,-9.8435 -3.7546,-14.7645 -12.68546,-23.6954 -6.45537,-6.4554 -7.91388,-7.422 -12.51491,-8.2946 -6.86068,-1.3011 -10.32417,-0.2809 -21.41898,6.3091 l -8.99179,5.3409 -4.36872,10.4319 c -5.71726,13.6521 -6.04311,16.0053 -2.86838,20.7147 1.37819,2.0445 3.2419,5.3235 4.14158,7.2868 2.25095,4.912 9.49643,11.7838 14.18738,13.4556 5.59236,1.9931 24.21435,1.9297 29.28633,-0.1 z M 314.19954,1087.48 c -2.00752,-1.4286 -5.53325,-2.6228 -9,-3.0483 -3.13475,-0.3847 -6.59954,-1.058 -7.69954,-1.4961 -3.91183,-1.558 -14.25856,-12.5441 -18.32705,-19.4596 -3.7163,-6.3168 -4.24502,-8.0601 -5.25201,-17.3165 l -1.11971,-10.2925 5.09939,-10.2611 c 2.80466,-5.6437 5.09938,-10.7545 5.09938,-11.3575 0,-0.603 1.41843,-2.143 3.15207,-3.4223 1.73363,-1.2794 5.04967,-4.2378 7.36896,-6.5742 5.55906,-5.60026 10.53477,-7.25987 24.97897,-8.33159 12.98314,-0.96331 16.65317,-0.32019 26.60744,4.66259 7.38262,3.6955 10.58473,6.9623 12.4451,12.6966 0.93152,2.8713 2.56092,6.6603 3.6209,8.42 1.60341,2.6619 2.02134,5.8299 2.48736,18.8549 0.52502,14.6742 0.43222,15.8285 -1.48057,18.4157 -1.12238,1.5181 -2.73552,4.4231 -3.58476,6.4556 -1.50353,3.5985 -11.6458,14.4766 -15.2817,16.3904 -0.99757,0.5251 -4.66621,1.2801 -8.15254,1.6778 -4.94149,0.5637 -7.06471,1.3605 -9.63201,3.6146 -3.92335,3.4447 -6.87511,3.5415 -11.32968,0.3715 z M 334.5,1071.0686 c 6.50202,-3.0682 14.0912,-10.8843 15.60197,-16.0686 3.30252,-11.3328 0.52863,-28.6676 -5.35104,-33.4402 -5.08897,-4.1307 -16.8327,-11.696 -20.59836,-13.2694 -5.84672,-2.4429 -14.7091,0.3669 -24.90257,7.8953 -2.8875,2.1326 -5.25,4.4462 -5.25,5.1414 0,0.6953 -2.025,5.1995 -4.5,10.0094 -5.32136,10.3415 -5.57985,13.4318 -1.54515,18.4721 1.62517,2.0303 3.64021,5.3406 4.47787,7.3563 2.29571,5.5243 12.83389,13.612 19.40336,14.8915 7.5281,1.4662 18.47444,0.9891 22.66392,-0.9878 z M 294.39956,919.24845 c -1.70524,-0.96165 -5.21498,-3.09845 -7.79941,-4.74845 -2.58444,-1.65 -6.12447,-3.90797 -7.86673,-5.01771 -1.74227,-1.10974 -4.98253,-4.98462 -7.20059,-8.61086 C 269.31477,897.2452 266.15,892.33801 264.5,889.96655 l -3,-4.31173 -0.32927,-17.07741 c -0.50975,-26.43778 -0.23182,-27.88158 7.58196,-39.38738 8.55002,-12.58991 19.21861,-22.84091 24.74052,-23.77211 2.20373,-0.37164 7.57359,-1.7427 11.93302,-3.04681 C 309.78565,801.067 315.48325,800 318.08756,800 c 7.87095,0 25.77008,4.69528 31.91244,8.37123 3.025,1.81034 7.60205,4.06609 10.17123,5.01278 2.56918,0.94668 5.13631,2.28163 5.70474,2.96654 0.56843,0.68492 3.7481,6.55107 7.06593,13.03589 6.87047,13.42859 10.0581,22.75843 10.0581,29.43895 0,6.50202 -5.75214,29.86661 -8.56088,34.77343 -3.20344,5.59634 -22.66882,24.61186 -26.6856,26.06887 -2.12822,0.77197 -11.38151,1.20593 -26.75352,1.25468 -20.61286,0.0654 -23.88091,-0.14029 -26.60044,-1.67392 z M 311,745.92644 c -2.475,-0.35434 -7.65,-2.28135 -11.5,-4.28226 -3.85,-2.00091 -7.84225,-3.6394 -8.87166,-3.6411 -1.07233,-0.002 -7.54188,-5.7227 -15.14863,-13.39572 l -13.27696,-13.39263 -0.72832,-9.71436 c -1.04402,-13.9253 -0.13489,-41.41623 1.47163,-44.50037 0.71624,-1.375 2.60885,-3.55488 4.20581,-4.84417 1.59696,-1.28929 3.79386,-4.08928 4.88199,-6.2222 3.12125,-6.11816 7.83018,-10.83511 13.8795,-13.90313 3.07265,-1.55836 7.03917,-4.48484 8.8145,-6.50331 l 3.22785,-3.66994 21.27215,0.32138 L 340.5,622.5 l 6.91625,4 c 3.99386,2.30984 10.7834,7.80287 16.06839,13 11.00557,10.82264 14.36974,17.07823 17.62472,32.77284 l 2.23424,10.77284 -2.75463,13.72716 c -1.51505,7.54994 -3.61761,15.69743 -4.67236,18.10554 C 373.82425,719.65547 356.14571,738 353.63441,738 c -0.80757,0 -4.41663,1.56412 -8.02015,3.47582 -9.54062,5.06141 -20.50283,6.4709 -34.61426,4.45062 z m 90.62782,506.54386 c 1.82413,-1.3913 6.81661,-3.9926 11.09439,-5.7805 l 7.77779,-3.2509 4.27129,-12.2344 4.27129,-12.2345 -3.94014,-8.2554 c -4.67775,-9.8008 -13.31313,-18.8467 -19.6786,-20.614 -6.07962,-1.688 -18.22235,-1.36 -23.85832,0.6445 -5.74405,2.0428 -9.20835,5.2213 -15.94948,14.6333 -6.48004,9.0475 -6.93516,12.7809 -2.72691,22.369 1.71098,3.8983 3.11087,7.6194 3.11087,8.2691 0,3.6883 3.58417,8.2449 8.38949,10.6656 2.81078,1.4159 6.23551,3.3525 7.61051,4.3036 6.66896,4.6127 14.72756,5.2222 19.62782,1.4846 z m 34.10102,-897.0034 c 5.13487,-2.14241 13.14251,-10.2346 14.20486,-14.35486 2.21673,-8.59747 4.10538,-17.20339 5.56082,-25.33871 0.9303,-5.20003 2.96439,-11.65459 5.03335,-15.97179 1.90967,-3.98481 3.47213,-8.31212 3.47213,-9.61624 0,-4.94165 4.22213,-22.81188 6.52807,-27.63015 2.04266,-4.26814 2.21068,-5.31602 1.11658,-6.96381 -3.13456,-4.72091 0.13223,-4.62785 -152.75152,-4.35133 L 175.14639,251.5 l -2.82319,2.09934 c -3.82512,2.84437 -4.11663,7.35772 -0.93926,14.5423 1.36249,3.08083 2.77028,7.3468 3.12843,9.47993 1.2031,7.16566 3.66052,14.81249 5.66475,17.62717 1.26943,1.78275 2.26406,5.40765 2.74995,10.02209 0.97671,9.27575 4.32602,20.98306 9.07732,31.72917 2.06701,4.675 4.2978,9.91805 4.95731,11.65122 0.65951,1.73318 2.32407,4.20818 3.69903,5.5 l 2.49992,2.34878 105.66967,0.56509 c 112.88122,0.60366 121.89321,0.49016 126.89852,-1.59819 z m 29.96859,-116.49543 c 2.80723,-0.60204 5.76682,-1.85441 6.57688,-2.78305 3.79376,-4.34908 3.87292,-6.51086 3.80289,-103.84851 -0.0672,-93.418001 -0.0957,-94.746729 -2.12301,-98.93454 -1.37229,-2.834777 -3.11774,-4.686712 -5.25454,-5.575096 -2.60252,-1.082013 -30.4109,-1.380573 -149.00738,-1.599796 C 155.44073,25.926863 169.27128,25.251474 164.90773,33.789093 L 162.5,38.5 V 133 c 0,89.92414 0.0906,94.73479 1.87049,99.34894 1.39677,3.62088 2.66308,5.18427 5,6.173 4.1558,1.75829 288.21512,2.1892 296.32694,0.44953 z M 73.771668,1622.6525 c -4.56783,-1.2871 -12.765706,-6.3808 -21.454176,-13.3303 -3.08025,-2.4638 -4.724849,-4.8578 -6.240418,-9.0838 -1.13185,-3.1561 -3.228288,-7.9028 -4.65875,-10.5481 -3.463371,-6.4048 -3.507172,-11.9688 -0.139708,-17.747 1.424246,-2.4438 3.135621,-6.6933 3.803056,-9.4433 2.606569,-10.7397 10.016892,-19.8847 19.517645,-24.0863 5.529625,-2.4455 6.586245,-2.5579 23.13257,-2.461 22.023583,0.1291 26.093063,1.353 32.886763,9.8913 5.7563,7.2344 7.7042,11.021 11.50452,22.3643 3.63237,10.8418 3.5433,14.4122 -0.65589,26.2917 -2.4967,7.0631 -3.66548,8.8321 -9.98013,15.1049 -4.7507,4.7192 -9.42679,8.2247 -13.92624,10.4397 -6.25961,3.0816 -7.620148,3.3578 -17.917448,3.6375 -7.144014,0.194 -12.840486,-0.1755 -15.871794,-1.0296 z m 4.553921,-893.63898 c -2.845926,-1.01219 -7.658923,-2.35612 -10.695549,-2.98652 -4.299586,-0.89259 -7.026624,-2.3753 -12.325589,-6.70151 -7.841054,-6.40162 -8.788508,-7.88045 -9.716927,-15.16658 -0.374318,-2.9376 -2.00964,-8.68682 -3.634051,-12.77603 -3.307366,-8.32582 -3.648237,-12.13868 -1.462989,-16.36448 0.819766,-1.58525 2.591427,-6.34917 3.937025,-10.58648 2.245102,-7.06987 3.035399,-8.26016 9.598417,-14.4564 6.695671,-6.32148 7.846338,-6.98257 18.038904,-10.36385 13.95787,-4.63039 17.506652,-4.58931 31.81156,0.36825 11.02236,3.81994 11.57477,4.1539 17.75063,10.73136 5.78621,6.16246 8.34223,10.83034 8.37176,15.28872 0.005,0.825 1.0948,4.5984 2.42075,8.38532 2.63204,7.51716 2.57032,10.51289 -0.40413,19.61468 -0.98856,3.025 -2.12558,7.975 -2.52672,11 -0.67944,5.12369 -1.21821,5.98993 -7.87455,12.6607 -5.75661,5.76909 -7.91956,7.28605 -11.12967,7.80568 -2.19145,0.35474 -7.36756,1.74492 -11.502461,3.0893 -8.826468,2.86974 -13.578826,2.97508 -20.65641,0.45784 z"
       id="path2567" />
  </g>
</svg>
