<?xml version="1.0" encoding="UTF-8" standalone="no"?>
<!-- Created with Inkscape (http://www.inkscape.org/) -->

<svg
   version="1.1"
   id="svg2681"
   width="515"
   height="2340"
   viewBox="0 0 515 2340"
   sodipodi:docname="g#.svg"
   inkscape:version="1.1.1 (3bf5ae0d25, 2021-09-20)"
   xmlns:inkscape="http://www.inkscape.org/namespaces/inkscape"
   xmlns:sodipodi="http://sodipodi.sourceforge.net/DTD/sodipodi-0.dtd"
   xmlns="http://www.w3.org/2000/svg"
   xmlns:svg="http://www.w3.org/2000/svg">
  <defs
     id="defs2685" />
  <sodipodi:namedview
     id="namedview2683"
     pagecolor="#ffffff"
     bordercolor="#666666"
     borderopacity="1.0"
     inkscape:pageshadow="2"
     inkscape:pageopacity="0.0"
     inkscape:pagecheckerboard="0"
     showgrid="false"
     inkscape:zoom="0.33418803"
     inkscape:cx="-86.777494"
     inkscape:cy="1170"
     inkscape:window-width="1920"
     inkscape:window-height="986"
     inkscape:window-x="-11"
     inkscape:window-y="-11"
     inkscape:window-maximized="1"
     inkscape:current-layer="g2687" />
  <g
     inkscape:groupmode="layer"
     inkscape:label="Image"
     id="g2687">
    <path
       style="fill:#000000"
       d="m 179.53767,2151 c -1.78562,-0.9042 -3.97035,-3.4755 -5.5,-6.4734 l -2.53767,-4.9733 -0.14973,-885.0682 -0.14973,-885.06814 -2.60027,-7.53366 c -1.43015,-4.14351 -2.61127,-9.29983 -2.62472,-11.45848 -0.0369,-5.92015 -1.72516,-12.08633 -4.44067,-16.21881 -1.33941,-2.0383 -2.87137,-6.40601 -3.40437,-9.70601 -0.53299,-3.3 -1.89552,-8.025 -3.02783,-10.5 -1.13232,-2.475 -2.06864,-6.34498 -2.08072,-8.59996 -0.0156,-2.91979 -0.86253,-5.26034 -2.94214,-8.13116 -3.49568,-4.82564 -5.06515,-10.00779 -5.07864,-16.76888 -0.01,-4.97171 -4.4984,-19.8573 -9.0047,-29.86319 l -2.19021,-4.86319 -0.0766,-110.76099 c -0.0595,-86.049417 0.20031,-111.429446 1.16445,-113.757093 0.68257,-1.647854 2.37261,-3.511684 3.75567,-4.141844 1.85511,-0.845245 44.82652,-1.157931 163.84087,-1.192204 88.72944,-0.02555 162.9035,0.249436 164.83125,0.611084 4.57896,0.859018 7.35451,3.552132 8.66089,8.403646 0.72093,2.677329 0.97166,38.315199 0.78744,111.922971 L 476.5,244.85408 l -2.2554,2.82296 c -4.82407,6.03801 -5.45104,7.47573 -6.33697,14.53129 -0.65144,5.18807 -1.96854,9.30712 -4.56949,14.29037 -3.7327,7.15161 -6.18932,17.16732 -6.28553,25.6263 -0.0848,7.45311 -1.07139,10.53695 -4.74367,14.82717 -2.79462,3.26489 -3.63878,5.31178 -4.39613,10.65966 -0.51554,3.64037 -1.19339,7.03314 -1.50633,7.53949 -0.31295,0.50635 -0.95219,5.00577 -1.42055,9.9987 -0.63063,6.72283 -1.35354,9.63221 -2.7864,11.21402 -1.06416,1.17478 -2.78189,3.46616 -3.81718,5.09197 -1.83854,2.8872 -1.89399,23.65982 -2.38235,892.49999 l -0.5,889.544 -2.3326,3.7517 c -1.28293,2.0634 -3.30793,3.9774 -4.5,4.2532 -1.19207,0.2759 -57.0674,0.6126 -124.1674,0.7483 -106.79404,0.216 -122.36922,0.06 -124.96233,-1.2532 z m 240.8988,-13.9401 c 1.42844,-1.3421 3.05861,-4.0421 3.62259,-6 0.69561,-2.4149 0.93143,-145.2531 0.73318,-444.1039 -0.28091,-423.4577 -0.36256,-440.6513 -2.10544,-443.3113 -2.52831,-3.8586 -5.36689,-3.1255 -9.6508,2.4925 -5.45446,7.1531 -13.51044,13.4929 -18.85856,14.8409 -2.57259,0.6485 -10.09796,1.1882 -16.72304,1.1993 -13.23771,0.022 -14.34143,-0.2855 -25.4544,-7.0974 -10.13041,-6.2097 -10.57217,-6.6228 -14.3963,-13.4609 L 334,1235.175 v -16.55 c 0,-21.4575 1.13879,-24.9869 11.38169,-35.2742 8.68478,-8.7224 10.68409,-9.4235 28.73763,-10.0773 12.50796,-0.453 14.2624,-0.2904 21.5,1.9928 13.77892,4.3466 14.87001,5.0121 18.55304,11.3152 1.85296,3.1711 3.89353,5.9405 4.5346,6.1542 1.93014,0.6433 4.11723,-3.847 5.22895,-10.7357 1.38653,-8.5916 1.49362,-805.74006 0.10872,-809.3826 -0.52545,-1.38204 -2.19381,-3.32384 -3.70746,-4.3151 -2.60988,-1.70916 -8.49034,-1.80194 -113.79464,-1.79536 -61.07339,0.004 -112.20955,0.33221 -113.63591,0.72975 -3.1371,0.87433 -7.79364,5.34993 -9.08116,8.72827 -0.73173,1.92 -1.11168,1484.52234 -0.39215,1530.21874 0.16311,10.3594 1.61991,12.8163 7.59923,12.8163 4.59445,0 5.6175,-1.1787 7.00275,-8.0682 1.80779,-8.991 2.83609,-10.5918 10.31564,-16.0588 10.10382,-7.3851 13.27503,-8.1048 33.92301,-7.6986 15.45002,0.304 17.65127,0.5657 21.35027,2.5384 4.97923,2.6555 9.00414,7.2327 11.68376,13.2872 1.09541,2.475 3.01373,5.85 4.26294,7.5 3.48523,4.6034 6.42909,13.0432 6.42909,18.4317 0,8.9669 -5.93935,24.5128 -12.00422,31.4203 -3.7278,4.2458 -15.29948,11.3332 -21.5991,13.2291 -6.19816,1.8654 -16.63939,1.7993 -26.1518,-0.1655 -9.05638,-1.8707 -12.62992,-3.5474 -14.88033,-6.982 -0.90986,-1.3886 -3.47741,-3.7877 -5.70567,-5.3314 -3.20656,-2.2213 -4.69355,-4.3492 -7.13093,-10.2044 -2.93761,-7.0568 -3.23968,-7.4091 -6.55375,-7.6434 -5.47914,-0.3874 -7.06894,1.5742 -8.05253,9.9357 -0.47293,4.0204 -0.87514,45.2622 -0.8938,91.6483 -0.0338,83.9519 -0.0244,84.3506 2.04804,87 1.14509,1.4639 3.92548,3.9067 6.17867,5.4285 l 4.09669,2.7669 111.24401,-0.2669 L 417.8393,2139.5 Z M 285,1791.629 c -16.16835,-5.1174 -19.74769,-8.0714 -22.00562,-18.1612 -0.61144,-2.7323 -2.71624,-8.5233 -4.67734,-12.869 -3.10814,-6.8873 -3.49458,-8.5896 -3.01183,-13.2671 0.40335,-3.908 1.36916,-6.3954 3.55487,-9.155 1.65058,-2.0841 3.78186,-5.7889 4.73618,-8.2329 0.95431,-2.4441 2.59081,-5.6808 3.63668,-7.1926 2.34974,-3.3967 18.009,-14.6743 22.76706,-16.3965 1.99282,-0.7214 8.25346,-1.2858 14.53856,-1.3108 11.92372,-0.047 10.62947,-0.4403 24.93586,7.5688 6.18929,3.4649 7.60536,4.8603 12.57912,12.3959 7.89963,11.9684 9.32067,16.1677 8.70517,25.7246 -0.56767,8.8142 -2.76632,15.9365 -6.71939,21.7668 -1.49166,2.2 -3.96953,6.3391 -5.50638,9.1981 -4.52001,8.4084 -12.42495,11.3463 -32.03294,11.9055 -12.6188,0.3598 -14.73993,0.165 -21.5,-1.9746 z m -4.62153,-161.2717 c -1.16684,-0.2545 -4.52717,-2.5162 -7.46741,-5.0259 -2.94024,-2.5097 -7.69807,-5.6769 -10.57295,-7.0381 -5.39883,-2.5562 -6.98843,-4.3083 -9.33842,-10.2933 -0.75584,-1.925 -3.09575,-6.2578 -5.19978,-9.6283 -3.16522,-5.0706 -4.00815,-7.5733 -4.88361,-14.5 -1.19913,-9.4875 -0.31608,-27.5098 1.61063,-32.8717 2.15391,-5.9942 7.76027,-14.3548 14.94682,-22.2896 6.89596,-7.614 8.9456,-8.9722 15.51199,-10.2791 1.91715,-0.3816 5.96715,-1.9811 9,-3.5545 6.39907,-3.3198 18.03625,-5.2898 25.51426,-4.3191 9.01855,1.1705 21.8783,5.4456 28.61055,9.5112 3.6358,2.1956 9.75732,7.2408 13.60338,11.2116 6.56993,6.7829 7.18921,7.8243 10.24,17.2195 3.20216,9.8614 3.24074,10.208 2.78319,25 -0.4206,13.597 -0.74771,15.767 -3.49724,23.1996 -3.41925,9.2431 -11.08116,19.085 -17.40567,22.358 -2.01618,1.0434 -4.59787,3.2061 -5.7371,4.806 -4.04147,5.6757 -8.12586,6.508 -33.09711,6.7439 -12.375,0.1169 -23.45469,0 -24.62153,-0.2502 z M 290,1436.248 c -8.30773,-1.1945 -21.82977,-8.5879 -24.87824,-13.6025 -1.05173,-1.73 -2.24018,-5.6067 -2.64101,-8.6149 -0.41168,-3.0896 -2.1977,-8.2383 -4.10476,-11.8331 -3.97498,-7.4927 -4.3844,-12.9885 -1.35682,-18.2131 1.11055,-1.9164 3.77235,-7.1586 5.91512,-11.6494 3.35527,-7.0318 4.63633,-8.6616 9.23083,-11.7434 2.93418,-1.9682 7.08332,-4.9271 9.2203,-6.5754 4.86177,-3.7501 8.73974,-4.8342 20.1896,-5.6446 10.82098,-0.7658 13.3433,-0.097 26.24896,6.9617 8.18444,4.4763 9.88728,5.8981 13.93307,11.6331 8.50304,12.0534 11.60336,26.4486 7.70548,35.7775 -0.84561,2.0238 -1.81969,6.3798 -2.16462,9.6799 -0.59555,5.698 -0.93849,6.3162 -6.80763,12.2726 -9.52594,9.6676 -13.52662,11.0887 -32.49028,11.5412 -8.525,0.2034 -16.625,0.2081 -18,0.01 z m 7.5,-354.3802 c -1.65,-0.5281 -6.69514,-1.3249 -11.21143,-1.7706 l -8.21142,-0.8103 -6.28858,-5.7891 c -7.80342,-7.1836 -8.06076,-7.6214 -8.84853,-15.0552 -0.49764,-4.696 -1.46206,-7.2497 -4.29098,-11.3622 -4.66308,-6.779 -5.01701,-13.1969 -1.10821,-20.0959 1.39747,-2.4665 2.77379,-5.1595 3.05849,-5.9845 3.39037,-9.8247 5.1127,-12.6103 9.62054,-15.56 2.59119,-1.6955 5.62592,-4.2455 6.74383,-5.66673 2.78534,-3.54099 9.46124,-5.65388 22.95537,-7.26526 l 11.41908,-1.36358 7.72843,2.82053 c 17.70404,6.46114 26.17718,17.21874 30.65246,38.91654 1.50111,7.278 1.4857,7.4902 -1.09829,15.1212 -1.44142,4.2569 -2.62076,9.1017 -2.62076,10.7663 0,3.687 -9.57093,16.4406 -14.09262,18.7789 -1.63254,0.8442 -7.58181,1.9403 -13.22062,2.4357 -5.6388,0.4954 -11.5044,1.3768 -13.03466,1.9586 -3.23514,1.23 -4.10183,1.2221 -8.1521,-0.074 z M 276.49961,916.61409 c -1.65021,-0.7192 -3.6193,-2.05338 -4.37575,-2.96485 -0.75645,-0.91147 -4.00566,-3.25504 -7.22047,-5.20793 -6.46279,-3.92594 -8.64989,-6.55996 -11.4914,-13.83967 -1.27628,-3.26974 -3.1404,-5.76337 -5.60662,-7.5 -2.03205,-1.4309 -4.17675,-3.72664 -4.76601,-5.10164 -1.34773,-3.14487 -0.66668,-41.36916 0.80447,-45.15077 1.71021,-4.39614 12.77048,-19.31782 16.32892,-22.02975 1.82999,-1.39465 5.57725,-3.67593 8.32725,-5.06952 2.75,-1.39358 5.86576,-3.49183 6.9239,-4.66277 2.50228,-2.76902 17.63179,-7.41078 24.0761,-7.38659 7.37356,0.0277 27.82776,5.47144 37,9.84734 10.90128,5.20078 21.15724,15.23847 24.98377,24.45206 2.49987,6.01922 2.70274,7.5725 2.74279,21 0.0437,14.65715 -1.24536,23.34023 -5.04762,34 -1.89636,5.3165 -10.59909,18.51762 -13.58712,20.61022 -14.39389,10.0804 -15.73289,10.39884 -43.52332,10.35064 -16.31414,-0.0283 -23.39999,-0.40152 -25.56889,-1.34677 z m 45.9141,-10.58128 c 2.2359,-0.85009 7.36912,-5.75291 21.49773,-20.53281 4.23872,-4.43411 5.64323,-7.97548 7.57502,-19.09991 1.38512,-7.97634 0.52839,-14.66445 -3.04402,-23.76318 -1.59273,-4.05662 -8.5903,-12.88388 -14.3279,-18.07431 -1.86201,-1.68443 -5.37357,-5.00812 -7.80348,-7.38597 -7.59175,-7.42912 -13.02011,-8.53204 -27.97309,-5.6835 -5.39598,1.02793 -9.1712,2.42995 -12.11721,4.5 -2.35358,1.65378 -4.71455,3.00687 -5.24661,3.00687 -0.53206,0 -3.98001,2.925 -7.66211,6.5 -3.6821,3.575 -6.99624,6.5 -7.36476,6.5 -0.36852,0 -3.25711,3.37765 -6.41908,7.50588 l -5.74905,7.50589 0.37308,10.89966 c 0.35264,10.30287 0.54271,11.13753 3.47141,15.24412 1.70409,2.38945 3.71149,6.06015 4.4609,8.15711 1.80763,5.05806 20.29196,23.17032 25.04011,24.53608 4.44669,1.27904 32.03063,1.42292 35.28906,0.18407 z M 291.5,743.32516 c -1.1,-0.30425 -3.82832,-1.62031 -6.06294,-2.92457 -2.23461,-1.30426 -6.95961,-3.43078 -10.5,-4.7256 -5.03739,-1.84232 -7.89567,-3.7917 -13.14518,-8.96519 -3.68946,-3.63604 -7.91122,-8.99571 -9.38168,-11.91039 -1.47047,-2.91468 -4.02896,-7.1957 -5.68554,-9.51339 -4.00005,-5.59639 -4.8807,-11.74967 -4.0821,-28.52267 l 0.65403,-13.73666 6.16031,-9.88097 c 7.00787,-11.24043 17.44991,-22.38752 23.16784,-24.73214 2.13139,-0.87397 7.47526,-3.2246 11.87526,-5.22363 7.87097,-3.57596 8.20986,-3.63503 21.01148,-3.66227 l 13.01149,-0.0277 8.88027,4.5 c 12.27984,6.2227 28.28838,20.50845 31.54211,28.14763 1.25384,2.9438 3.41033,7.7647 4.79219,10.71311 2.4977,5.3292 2.50671,5.44981 1.5311,20.5 -0.89151,13.75279 -1.28977,15.87191 -4.34866,23.13926 -2.79819,6.64796 -4.78857,9.47719 -11.77702,16.74049 -5.96268,6.19717 -10.04407,9.50129 -14.02636,11.35513 -3.08913,1.43805 -7.84012,4.01944 -10.55777,5.73643 -4.81883,3.04449 -5.26447,3.12704 -18,3.33404 C 299.37648,743.78283 292.6,743.62941 291.5,743.32516 Z M 419.04446,353.77442 c 1.35055,-0.94907 4.85129,-3.90291 7.77943,-6.56409 5.0523,-4.59169 5.36637,-5.16682 6.1566,-11.27442 0.45799,-3.53975 1.54191,-8.09021 2.40871,-10.11213 0.86679,-2.02192 1.86796,-6.16042 2.22481,-9.19667 0.61245,-5.21106 1.2693,-6.69896 5.71655,-12.94924 1.20162,-1.68879 2.091,-5.43016 2.58859,-10.88944 0.41692,-4.5742 1.27801,-9.28831 1.91353,-10.47579 0.63552,-1.18749 1.66879,-4.55612 2.29615,-7.48585 0.62735,-2.92974 2.43001,-7.61318 4.00591,-10.40765 3.50648,-6.2179 3.59446,-8.78085 0.41071,-11.96459 L 452.09091,250 305.79545,250.004 c -144.07826,0.004 -146.34471,0.0338 -149.54545,1.9853 -3.67845,2.24279 -4.05831,4.46852 -1.83709,10.76413 0.7771,2.20254 1.72787,6.52543 2.11281,9.60641 0.5263,4.21238 1.55961,6.70527 4.16603,10.05072 3.05048,3.91543 3.56659,5.44668 4.3039,12.76931 2.12711,21.12532 2.97534,25.16865 5.94125,28.32039 4.00457,4.25548 4.72803,6.09787 5.49748,14 1.22496,12.58025 3.33854,16.17637 10.31889,17.55692 2.0607,0.40755 54.61674,0.67398 116.79119,0.59205 105.2939,-0.13876 113.21282,-0.26728 115.5,-1.87455 z m 36.32821,-116.15677 c 4.09277,-1.71007 8.26622,-6.64651 9.64872,-11.41272 0.74134,-2.55579 0.98223,-32.093 0.77664,-95.2307 L 465.5,39.44845 461.74766,34.337054 C 455.03622,25.194818 470.44748,26 302.1756,26 H 153.15345 l -2.90069,2.440772 c -1.59538,1.342424 -3.43037,4.208662 -4.07775,6.369417 -1.54687,5.16301 -1.73134,190.463691 -0.19513,196.009231 1.23163,4.44599 1.91915,5.50926 4.52012,6.99048 3.18266,1.81248 300.52343,1.62498 304.87267,-0.19225 z M 58,1617.0638 c -6.812809,-1.3747 -19.996171,-9.7479 -24.363925,-15.4743 C 28.514075,1594.8742 28,1592.3786 28,1574.2285 c 0,-16.1237 0.109903,-17.0564 2.598398,-22.0501 2.564037,-5.1454 14.294291,-16.8457 20.230032,-20.1784 2.102207,-1.1803 6.294598,-1.482 19.67157,-1.4154 19.86619,0.099 23.074676,0.8701 32.95827,7.9229 6.09035,4.346 7.05244,5.5413 10.7707,13.3824 3.80985,8.0341 4.1132,9.3237 4.5348,19.2775 0.52459,12.3853 -0.88147,18.0798 -6.17639,25.0144 -3.36017,4.4007 -19.309775,18.5607 -23.271639,20.6605 -2.388099,1.2657 -25.336248,1.428 -31.315741,0.2215 z M 57.9826,725.40297 c -6.814251,-2.77523 -9.813674,-4.72288 -15,-9.74012 C 39.417168,712.21367 34.7,706.95182 32.5,703.96985 l -4,-5.42176 v -17.20193 c 0,-16.33655 0.113198,-17.3439 2.250137,-20.02405 1.237576,-1.55216 4.071049,-6.34134 6.296608,-10.64261 C 41.19004,642.67187 44.443259,640 50.049909,640 c 1.162781,0 5.506526,-1.17089 9.652767,-2.60198 9.443937,-3.25961 15.192588,-3.23372 26.765909,0.12056 9.97971,2.8924 9.562849,2.64099 18.208125,10.98142 5.90093,5.69286 6.43283,6.60993 10.39061,17.91492 4.13276,11.80482 4.16073,11.97901 3.02611,18.84939 -0.62987,3.81396 -2.55064,10.60225 -4.26838,15.08508 -2.68396,7.0044 -4.12704,9.1529 -10.26159,15.27776 -6.980688,6.96966 -7.27902,7.14346 -13.501217,7.86563 -3.499536,0.40616 -8.657669,1.80705 -11.462518,3.11308 -6.767375,3.15112 -10.454621,2.93599 -20.61713,-1.20289 z"
       id="path2766" />
  </g>
</svg>
