<?xml version="1.0" encoding="UTF-8" standalone="no"?>
<!-- Created with Inkscape (http://www.inkscape.org/) -->

<svg
   version="1.1"
   id="svg3079"
   width="515"
   height="2340"
   viewBox="0 0 515 2340"
   sodipodi:docname="a.svg"
   inkscape:version="1.1.1 (3bf5ae0d25, 2021-09-20)"
   xmlns:inkscape="http://www.inkscape.org/namespaces/inkscape"
   xmlns:sodipodi="http://sodipodi.sourceforge.net/DTD/sodipodi-0.dtd"
   xmlns="http://www.w3.org/2000/svg"
   xmlns:svg="http://www.w3.org/2000/svg">
  <defs
     id="defs3083" />
  <sodipodi:namedview
     id="namedview3081"
     pagecolor="#ffffff"
     bordercolor="#666666"
     borderopacity="1.0"
     inkscape:pageshadow="2"
     inkscape:pageopacity="0.0"
     inkscape:pagecheckerboard="0"
     showgrid="false"
     inkscape:zoom="0.33418803"
     inkscape:cx="-86.777494"
     inkscape:cy="1170"
     inkscape:window-width="1920"
     inkscape:window-height="986"
     inkscape:window-x="-11"
     inkscape:window-y="-11"
     inkscape:window-maximized="1"
     inkscape:current-layer="g3085" />
  <g
     inkscape:groupmode="layer"
     inkscape:label="Image"
     id="g3085">
    <path
       style="fill:#000000"
       d="m 187.04938,2151.7193 c -1.98859,-0.7027 -4.20263,-2.5118 -5.22549,-4.2697 -1.69567,-2.9143 -1.78711,-42.9881 -2.04938,-898.1021 L 179.5,354.29575 l -3.69349,-4.08821 c -3.63303,-4.02128 -4.09826,-5.40195 -5.25064,-15.58225 -0.3071,-2.713 -1.88251,-7.20057 -3.55258,-10.11955 -2.54306,-4.44479 -2.9075,-5.92544 -2.38922,-9.70676 0.44091,-3.21674 0.13431,-5.38489 -1.09864,-7.76914 -0.94062,-1.81896 -2.56889,-7.57574 -3.61838,-12.79284 -1.47326,-7.32367 -2.55461,-10.22189 -4.74443,-12.71596 -2.25365,-2.56676 -2.96123,-4.54403 -3.44463,-9.62568 -0.33461,-3.51745 -1.76754,-11.2789 -3.1843,-17.24767 -1.77847,-7.49264 -2.35953,-11.98157 -1.87693,-14.5 0.38445,-2.00623 0.73371,-51.79769 0.77612,-110.64769 0.0819,-113.683474 -0.0737,-110.010965 4.77158,-112.604072 2.74906,-1.471251 323.11264,-1.337127 325.866,0.136427 4.44845,2.380742 4.44268,2.222068 4.38323,120.467645 l -0.0563,112 -2.80871,6.5 c -1.54479,3.575 -3.44565,9.2 -4.22412,12.5 -5.04834,21.40024 -6.90518,27.71522 -9.85027,33.5 -2.03452,3.99624 -2.91567,7.41387 -3.22283,12.5 -0.47359,7.84217 -3.96502,19.74 -8.6568,29.5 l -3.12465,6.5 -0.5,898 c -0.40338,724.4674 -0.74598,898.4304 -1.77292,900.2271 -0.7001,1.2249 -2.0501,2.6304 -3,3.1233 -2.84486,1.4764 -253.98948,1.3488 -258.1777,-0.1311 z m 243.68347,-14.1564 c 4.77606,-2.5365 5.98387,-3.7267 7.02826,-6.9256 1.73768,-5.3224 1.25212,-883.6866 -0.49238,-890.688 -1.65078,-6.6254 -1.71846,-27.4068 -0.13987,-42.9493 1.13699,-11.1946 1.37114,-82.521 1.37114,-417.67669 V 375.14662 l -2.09551,-2.82331 c -4.29542,-5.78728 0.13716,-5.58335 -124.07795,-5.70839 L 198.15309,366.5 l -2.82655,2.0964 c -1.5546,1.15302 -3.37949,3.17802 -4.05532,4.5 -0.96892,1.89527 -1.23218,187.87627 -1.24484,879.4036 l -0.016,877 2.13126,3.5 c 4.23969,6.9625 -2.58124,6.4483 92.8584,7 47.575,0.275 98.52978,0.5283 113.23285,0.5629 l 26.73284,0.063 5.76716,-3.0628 z M 231.5,1973.5943 c -2.75,-0.6796 -6.38382,-1.9622 -8.07515,-2.8503 C 220.14563,1969.0223 213,1961.6579 213,1960 c 0,-0.5468 -1.51006,-2.683 -3.35568,-4.7471 C 204.17056,1949.1312 204,1948.3858 204,1930.586 c 0,-12.514 0.37257,-17.4767 1.52904,-20.367 0.99995,-2.4991 4.961,-6.9805 11.44733,-12.951 8.50816,-7.8316 10.53003,-9.2118 14.22096,-9.7077 7.02072,-0.9433 37.04193,0.016 40.11856,1.2817 1.54875,0.6372 5.71595,4.196 9.26045,7.9083 9.33227,9.7741 10.66765,13.7585 11.20317,33.4264 0.38604,14.1777 0.21812,16.2812 -1.75618,22 -2.69607,7.8093 -3.885,9.1562 -10.92468,12.3758 -3.07926,1.4083 -6.72365,3.6088 -8.09865,4.8899 -5.19909,4.8441 -8.0508,5.5632 -21.70034,5.4726 -7.03981,-0.047 -15.04966,-0.6411 -17.79966,-1.3207 z m 27,-10.6898 c 2.72291,-0.7381 5.76848,-2.8914 9.53909,-6.7444 3.04651,-3.113 6.69376,-6.657 8.105,-7.8755 5.06452,-4.3727 6.44175,-20.6417 2.50159,-29.5511 -2.69276,-6.0888 -10.6741,-13.8163 -17.47836,-16.9224 -8.35631,-3.8146 -28.71993,-3.2689 -33.37446,0.8943 -0.93892,0.8399 -2.63063,4.2872 -3.75935,7.6608 -1.12872,3.3736 -3.66533,8.1588 -5.63691,10.6338 -3.4294,4.3051 -3.56871,4.7864 -3.21582,11.1109 0.335,6.0037 0.77594,7.1518 4.80088,12.5 2.43759,3.239 5.57642,6.7744 6.97517,7.8565 1.39874,1.0821 4.11817,3.6122 6.04317,5.6224 1.925,2.0102 4.4,4.1487 5.5,4.7522 2.58749,1.4195 14.85272,1.4578 20,0.062 z m 30,-172.8005 c -2.75,-1.5825 -6.40674,-4.3907 -8.12608,-6.2406 -1.71934,-1.8499 -4.69885,-4.8078 -6.62113,-6.5731 -5.68896,-5.2245 -7.02304,-15.3271 -4.7262,-35.7903 0.9682,-8.626 1.24838,-9.3516 6.7418,-17.4602 5.79599,-8.5552 9.03674,-11.2884 19.23161,-16.2193 3.54156,-1.7129 6.88219,-2.2713 15.6847,-2.6218 14.65791,-0.5837 19.25911,0.1759 23.99085,3.9603 2.10345,1.6823 6.07445,4.0698 8.82445,5.3055 2.75,1.2357 5.7392,3.0992 6.64267,4.1411 2.96567,3.4201 5.87046,16.3722 6.97686,31.1088 1.01816,13.5614 0.96492,14.5218 -1.15875,20.9035 -1.91232,5.7465 -3.19909,7.6184 -9.13266,13.2855 -3.79869,3.6281 -8.12653,7.1388 -9.61741,7.8015 -1.81832,0.8082 -9.45949,1.2167 -23.21071,1.2406 l -20.5,0.036 -5,-2.8772 z m 43.53872,-10.1238 c 5.06541,-2.5841 8.14693,-7.4001 11.37777,-17.7818 2.83804,-9.1195 3.30764,-17.2871 1.22356,-21.2809 -0.74119,-1.4203 -5.06209,-6.9071 -9.60199,-12.1928 C 326.25683,1718.5009 322.13487,1716 314.06526,1716 c -7.8287,0 -10.1015,1.447 -22.31526,14.2074 L 280,1742.4832 v 5.8055 c 0,4.8595 0.63814,6.9793 3.91605,13.0084 2.15383,3.9616 4.48859,9.1606 5.18836,11.5533 2.14158,7.3226 6.68489,8.8617 26.68543,9.04 10.49557,0.094 12.86784,-0.1853 16.24888,-1.9102 z m -43.72147,-151.284 c -3.40052,-1.2079 -7.22552,-3.1339 -8.5,-4.28 -1.27449,-1.1461 -4.39619,-3.2683 -6.93712,-4.7159 -3.08046,-1.755 -5.21106,-3.893 -6.39403,-6.4162 -0.97579,-2.0813 -3.08209,-5.6221 -4.68068,-7.8684 C 258.39803,1600.6275 253,1582.9719 253,1576.6153 c 0,-2.4001 0.675,-6.277 1.5,-8.6153 0.825,-2.3383 1.5,-7.3156 1.5,-11.0606 0,-3.7451 0.46131,-8.0225 1.02514,-9.5055 1.27966,-3.3658 14.2818,-17.6527 20.68631,-22.7304 10.71623,-8.4962 14.42054,-10.7633 19.93286,-12.1991 12.1779,-3.1719 27.35297,-1.2336 38.48485,4.9158 2.40396,1.328 6.25778,2.9122 8.56403,3.5204 2.69831,0.7116 5.01558,2.1998 6.5,4.1744 1.26875,1.6877 3.39955,4.0398 4.73512,5.2268 3.1219,2.7746 6.94117,6.8601 12.45454,13.3227 3.58478,4.2019 4.53278,6.1589 5.08643,10.5 0.37426,2.9345 1.3735,7.896 2.22053,11.0255 1.4458,5.3417 1.40826,6.3447 -0.61358,16.3904 -1.60279,7.9636 -2.90332,11.7515 -5.08478,14.81 -1.61215,2.2603 -3.87103,7.1737 -5.01974,10.9187 -1.87044,6.0979 -2.56092,7.1086 -6.61136,9.6773 -2.48753,1.5776 -5.94874,4.4729 -7.69157,6.4342 -4.91517,5.531 -11.09608,6.7705 -35.66878,7.1529 -19.02776,0.2961 -20.94402,0.1612 -26.68275,-1.8773 z m 43.7447,-10.2181 c 4.50442,-1.5892 17.56109,-9.8844 19.64075,-12.4781 0.66149,-0.825 1.50392,-2.85 1.87207,-4.5 0.36816,-1.65 2.14627,-6.6 3.95136,-11 3.14806,-7.6736 3.27321,-8.4897 3.06714,-20 -0.20816,-11.6265 -0.3314,-12.2397 -3.95974,-19.7029 -2.65587,-5.4628 -4.71643,-8.3032 -7.08574,-9.7676 -1.83747,-1.1356 -4.06665,-3.1724 -4.95374,-4.5263 -2.08118,-3.1763 -5.68719,-4.985 -12.90423,-6.4725 -3.79039,-0.7812 -6.96495,-2.2114 -9.13202,-4.1141 -3.97141,-3.4869 -8.79493,-3.8414 -14.34764,-1.0544 -2.04059,1.0242 -6.85688,2.8973 -10.70287,4.1623 -3.84599,1.2651 -8.15106,3.0146 -9.56683,3.8878 -3.79142,2.3385 -17.7842,15.2402 -18.48042,17.0394 -0.32953,0.8516 -1.44901,5.6688 -2.48774,10.705 -1.86817,9.0576 -1.86661,9.2903 0.1444,21.5 2.23826,13.5895 3.2194,15.6732 11.80073,25.0626 6.41498,7.019 10.10411,9.3528 17.68324,11.1867 8.27355,2.0018 29.86732,2.0458 35.46128,0.072 z m -38.67959,-182.5094 c -1.71471,-0.5265 -7.43975,-4.8497 -12.72233,-9.6071 -12.76706,-11.4978 -13.10228,-12.3921 -12.43882,-33.1851 0.31872,-9.9886 0.97584,-16.6918 1.78763,-18.2355 2.72301,-5.1781 9.4681,-12.149 13.95588,-14.4231 2.57963,-1.3072 5.85214,-3.9001 7.27223,-5.7619 3.49868,-4.587 8.0812,-5.756 22.56397,-5.756 13.34767,0 15.86392,0.6205 21.07712,5.1978 1.95871,1.7197 6.34192,4.3876 9.74048,5.9286 6.07072,2.7526 6.22529,2.9224 8.80556,9.6749 6.93455,18.1475 5.61039,46.8204 -2.45679,53.1981 -1.73961,1.3753 -5.03142,4.3855 -7.31511,6.6893 -2.2837,2.3038 -5.50218,4.7419 -7.15218,5.4181 -3.73423,1.5302 -38.66701,2.2285 -43.11764,0.8619 z m 38.33619,-12.5199 c 6.62144,-4.3386 14.12292,-20.6657 14.22301,-30.9568 0.045,-4.6244 -0.5453,-7.1575 -2.56337,-11 -3.41425,-6.5009 -5.04733,-8.2808 -9.8435,-10.7286 -2.18093,-1.113 -6.23093,-3.7307 -9,-5.8171 -2.76908,-2.0863 -6.16237,-4.074 -7.54064,-4.417 -3.42179,-0.8515 -24.02591,9.2136 -26.63546,13.0115 -1.02223,1.4877 -3.84609,4.914 -6.27526,7.614 -4.16655,4.631 -4.41666,5.2425 -4.41666,10.7982 0,3.8848 0.56492,6.682 1.65976,8.2182 0.91287,1.2808 2.41197,3.3702 3.33132,4.6431 0.91936,1.2728 2.6383,5.2954 3.81987,8.9391 2.59721,8.0091 4.91541,9.9779 13.02238,11.0598 9.68121,1.292 27.38423,0.4927 30.21855,-1.3644 z m 40.56804,-161.4174 c -1.76738,-0.4201 -5.74114,-3.074 -8.83059,-5.8976 -3.08945,-2.8236 -5.99077,-5.1338 -6.44738,-5.1338 -0.45661,0 -1.77433,-1.9503 -2.92826,-4.334 -1.15393,-2.3837 -3.26361,-5.4212 -4.68819,-6.75 -1.42458,-1.3288 -3.72089,-4.6378 -5.10291,-7.3533 -2.32244,-4.5633 -2.50323,-5.9077 -2.38681,-17.749 0.1651,-16.7924 2.04031,-21.9378 11.80988,-32.4052 5.0385,-5.3984 14.87581,-7.7439 33.33684,-7.9485 13.54938,-0.1502 16.31007,0.099 21.46548,1.9338 4.7799,1.7016 6.46648,2.9265 8.78061,6.3766 1.57537,2.3487 4.54601,5.1283 6.60142,6.1769 2.05541,1.0486 4.302,2.5872 4.99242,3.4191 1.59566,1.9226 3.04881,16.798 3.0838,31.5679 0.0376,15.8537 -0.6666,17.0901 -16.23044,28.4977 l -12.18631,8.9319 -9.52807,0.7695 c -11.57562,0.9348 -17.49661,0.9071 -21.74149,-0.102 z M 398,1247.5955 c 1.375,-1.2524 4.16434,-3.2712 6.19854,-4.4861 3.61809,-2.1609 10.4983,-9.6328 12.5316,-13.6094 1.59826,-3.1258 2.50152,-14.8232 1.71312,-22.1853 -0.70206,-6.5557 -0.83835,-6.8065 -7.03256,-12.94 -7.14752,-7.0775 -9.90812,-8.2118 -22.07264,-9.0699 -7.61652,-0.5373 -8.59517,-0.373 -14.64484,2.458 -3.81379,1.7847 -7.44876,4.3401 -8.82887,6.2068 -1.2903,1.7452 -3.99128,4.0978 -6.00218,5.228 -4.48069,2.5183 -5.95738,5.5164 -6.55188,13.3024 -0.61299,8.0282 1.29784,13.711 7.29231,21.6875 4.38685,5.8374 5.88778,7.0046 14.3974,11.1961 14.55469,7.1691 17.27112,7.4303 23,2.2119 z m -86.3193,-163.2038 c -1.55062,-0.8405 -6.05062,-2.1902 -10,-2.9994 -10.62144,-2.1761 -10.17158,-1.9295 -20.43946,-11.2032 -12.78658,-11.5484 -13.19308,-12.5387 -13.21312,-32.1891 -0.0118,-11.5671 0.34937,-16.2 1.42339,-18.259 2.58129,-4.9484 10.95711,-13.8027 15.04849,-15.9082 2.2,-1.1322 4.90454,-2.8847 6.01009,-3.89458 1.10555,-1.00984 4.70555,-3.03593 8,-4.50241 5.59553,-2.49077 6.69555,-2.63383 16.70737,-2.17285 8.73147,0.40204 11.54662,0.93298 15.19208,2.86526 2.46105,1.30448 8.02236,4.24988 12.35847,6.54538 l 7.88384,4.1737 3.67407,8.864 c 3.59534,8.674 3.67408,9.1453 3.67408,21.9909 0,12.243 -0.20697,13.6689 -3.07381,21.1764 -2.46396,6.4525 -3.74521,8.4645 -6.45778,10.1409 -1.86118,1.1503 -4.51625,3.4371 -5.90017,5.0818 -3.29431,3.915 -7.21123,5.8849 -11.71669,5.8925 -2.10961,0 -6.05392,1.2715 -9.35155,3.0062 -6.56315,3.4524 -6.13071,3.3911 -9.8193,1.3917 z m 14.02386,-15.214 c 5.12148,-1.1507 16.66443,-10.963 18.30378,-15.5594 0.61168,-1.7151 1.32936,-7.8433 1.59483,-13.6183 0.45934,-9.9922 0.34761,-10.766 -2.31024,-16 -1.73122,-3.4092 -4.05881,-6.2603 -6.12293,-7.5 -1.8315,-1.1 -5.53597,-3.892 -8.23217,-6.2045 -6.52563,-5.597 -11.26034,-6.9892 -18.36322,-5.3996 -7.94605,1.7782 -19.60984,9.9729 -25.69106,18.0498 -4.6166,6.1316 -4.88355,6.8235 -4.88355,12.658 0,5.3257 0.45089,6.8385 3.28861,11.0341 1.80874,2.6742 4.58217,7.9533 6.16318,11.7314 2.43482,5.8184 3.42329,7.0985 6.46139,8.3683 6.60976,2.7625 22.54698,4.0679 29.79138,2.4402 z M 290.5,916.85125 c -1.1,-0.63977 -3.59558,-2.58381 -5.54572,-4.32008 -1.95015,-1.73627 -5.71618,-3.76455 -8.36896,-4.50728 -3.86177,-1.08123 -5.48637,-2.26475 -8.14986,-5.93716 -1.82965,-2.5227 -4.69214,-5.48436 -6.3611,-6.58147 -3.49037,-2.29442 -4.69356,-4.91466 -5.59949,-12.19421 -0.40069,-3.21979 -1.81117,-7.01469 -3.71677,-10 -1.91465,-2.99948 -3.24789,-6.59553 -3.54075,-9.55018 -0.43073,-4.34579 -0.16875,-5.07226 3.15647,-8.75288 3.32697,-3.68257 3.62618,-4.51331 3.62618,-10.06805 0,-11.97469 3.10029,-17.71429 16,-29.621 1.375,-1.26915 4.63854,-4.31492 7.25231,-6.76837 3.24376,-3.04479 5.94197,-4.64986 8.5,-5.05636 2.06123,-0.32754 7.40288,-1.75822 11.87033,-3.17927 6.23335,-1.98276 9.3734,-2.45735 13.5,-2.04042 7.8981,0.79799 23.28592,3.55012 26.33832,4.71064 4.18937,1.59279 11.34991,7.47954 15.14711,12.45258 1.91595,2.50924 3.8784,4.56226 4.36101,4.56226 4.62901,0 14.18393,17.00568 16.67883,29.68466 1.55434,7.89912 1.53625,8.47588 -0.51869,16.53239 C 373.95815,870.80831 373,876.22083 373,878.24488 c 0,2.02405 -0.93084,6.16798 -2.06853,9.20873 -1.6627,4.44397 -3.53489,6.84623 -9.54278,12.24461 -4.11085,3.69379 -9.81751,8.42551 -12.68148,10.51493 -9.95789,7.26483 -9.8835,7.24844 -34.20721,7.53874 -15.34917,0.1832 -22.60462,-0.0891 -24,-0.90064 z m 43.43989,-13.76231 c 3.60806,-2.15108 8.81011,-4.96358 11.56011,-6.25 4.98816,-2.3334 5.00715,-2.36065 8.02088,-11.5089 1.66148,-5.04349 4.02398,-10.95475 5.25,-13.13616 1.89815,-3.37731 2.22265,-5.43071 2.18557,-13.83003 -0.0611,-13.83277 -0.98204,-17.42401 -6.53295,-25.4748 -6.45499,-9.36203 -15.43753,-15.9909 -27.09602,-19.99613 -7.43504,-2.55428 -9.69505,-2.92597 -14.32748,-2.35636 -3.025,0.37196 -8.46839,0.9659 -12.09642,1.31987 -6.22038,0.60688 -6.85958,0.91435 -11.2127,5.39357 -2.53895,2.6125 -5.05925,4.75 -5.60068,4.75 -0.54142,0 -4.31659,3.2999 -8.38926,7.3331 -7.34188,7.27076 -7.41058,7.38767 -8.07904,13.75 -0.37082,3.5293 -1.19606,8.54872 -1.83387,11.15429 -1.9879,8.12085 2.56213,24.12624 10.07342,35.43471 3.57067,5.37575 5.13214,6.69287 12.71975,10.72925 11.36759,6.04721 12.83386,6.40252 26.85869,6.50846 l 11.93988,0.0902 6.56012,-3.91106 z M 299.90578,741.14349 c -3.07682,-1.64857 -9.00875,-4.11262 -13.18207,-5.47567 -4.17332,-1.36304 -9.54122,-3.82222 -11.92867,-5.46483 -9.73288,-6.69639 -17.7643,-18.57458 -17.78527,-26.30377 -0.0117,-4.31904 -1.64186,-9.43089 -4.16272,-13.05359 -2.36674,-3.40121 -2.33026,-5.85698 0.15791,-10.63065 1.11226,-2.1339 2.44786,-7.60192 2.99967,-12.28079 1.65339,-14.01921 1.83893,-14.53773 8.94774,-25.00534 7.61806,-11.21748 8.39005,-11.92719 15.54763,-14.29341 2.75,-0.90912 6.89198,-3.15766 9.20439,-4.99674 4.14506,-3.2966 4.3805,-3.35139 16.68367,-3.88273 18.17039,-0.78472 24.97403,0.20877 35.27338,5.15074 12.22507,5.866 20.8065,14.51189 25.89838,26.0929 6.80589,15.47939 9.55366,24.86192 8.46903,28.91827 -0.5268,1.97017 -1.67448,8.05375 -2.55039,13.51907 -1.65109,10.3021 -7.10812,25.06818 -10.82504,29.29129 -2.79621,3.17701 -13.89985,9.66571 -22.52577,13.16352 -4.05479,1.64422 -8.47724,4.02871 -9.82767,5.29887 -2.20991,2.07854 -3.57201,2.3414 -13.62765,2.62981 -10.79164,0.30952 -11.36295,0.21831 -16.76655,-2.67695 z M 430.75673,353.6258 c 1.72693,-0.89303 4.22001,-3.08667 5.54016,-4.87475 C 439.98126,343.76076 444,331.66464 444,325.56523 c 0,-3.73679 0.49363,-5.72884 1.65848,-6.69279 2.36079,-1.95363 5.29371,-8.82534 5.31956,-12.46351 0.0367,-5.17054 2.66076,-12.23352 5.92708,-15.95365 2.26306,-2.57748 3.09807,-4.52341 3.10675,-7.24008 0.007,-2.04336 0.67619,-6.1902 1.48813,-9.2152 0.81194,-3.025 1.4816,-8.34712 1.48813,-11.82692 0.0106,-5.66749 -0.2928,-6.63159 -2.91121,-9.25 L 457.15385,250 H 316.51974 c -98.81034,0 -141.93091,0.32654 -144.99468,1.09801 -5.78554,1.45681 -8.62852,4.64027 -9.27629,10.38723 -0.45326,4.02138 -0.11653,5.17101 2.6382,9.0069 2.93113,4.08152 3.81239,7.01464 5.60126,18.64267 0.30755,1.99915 1.89032,5.59915 3.51728,8 2.02174,2.98344 2.97081,5.63135 2.99825,8.36519 0.0221,2.2 0.98489,6.025 2.13955,8.5 1.15466,2.475 2.41972,7.89298 2.81126,12.03997 0.59841,6.33811 1.36978,8.64938 4.83934,14.5 2.2701,3.82801 5.67439,8.76003 7.56508,10.96003 l 3.43763,4 112.35169,0.5 c 61.79343,0.275 113.50298,0.21864 114.91011,-0.12525 1.40713,-0.34389 3.97137,-1.35591 5.69831,-2.24895 z M 465.19576,237.1142 C 471.16514,234.04554 471,236.98802 471,133.69165 V 39.42378 l -2.25,-4.46189 C 467.17856,31.845633 465.29367,29.896833 462.5,28.5 458.5625,26.531252 456.22207,26.495789 312.72071,26.23049 207.73785,26.036402 166.3636,26.27022 164.87665,27.066014 c -1.13562,0.607769 -3.03495,3.204048 -4.22071,5.76951 L 158.5,37.5 V 133 c 0,76.78866 0.25991,96.23413 1.32653,99.2469 2.61347,7.38198 -10.80753,6.81447 154.16873,6.51904 124.21667,-0.22245 148.94563,-0.49259 151.2005,-1.65174 z M 64.174554,1617.4774 c -4.025613,-1.7484 -17.754209,-14.3296 -22.689603,-20.7933 -5.368199,-7.0305 -6.485896,-11.2678 -6.478362,-24.5598 0.0057,-10.0773 0.279831,-12.0235 2.0598,-14.6243 1.129266,-1.65 3.17316,-5.475 4.541986,-8.5 2.987918,-6.6031 9.410843,-13.545 14.891625,-16.095 3.470605,-1.6148 6.622589,-1.864 23.815741,-1.883 12.771997,-0.014 20.592159,0.3783 21.999999,1.1041 2.53948,1.3092 13.11391,10.2269 16.45137,13.8739 1.2583,1.375 3.40045,4.6225 4.76035,7.2168 2.36136,4.5046 2.47254,5.5188 2.47254,22.5542 v 17.8374 l -2.86558,4.4458 c -1.57606,2.4452 -4.16356,5.6362 -5.75,7.0911 -4.92219,4.514 -16.25179,10.8456 -22.161324,12.3848 -7.465511,1.9445 -26.524528,1.9122 -31.048542,-0.053 z M 80,729.00366 c -1.375,-0.32653 -4.525,-1.57604 -7,-2.77671 -2.475,-1.20066 -5.627971,-2.19291 -7.006602,-2.20499 -5.197048,-0.0455 -9.177675,-2.06009 -15.818007,-8.00532 -5.82474,-5.21502 -7.107261,-6.97806 -8.600509,-11.82281 C 40.60966,701.06222 38.624547,696.025 37.163519,693 c -2.099695,-4.34733 -2.624138,-6.81742 -2.502405,-11.78616 0.0847,-3.45738 0.642134,-6.87431 1.238731,-7.59316 0.596597,-0.71886 2.653072,-5.54009 4.569945,-10.71385 3.149973,-8.50197 4.136682,-10.04055 10.257717,-15.99492 6.038794,-5.87437 7.672948,-6.87647 15.084241,-9.25 9.900575,-3.17075 15.781494,-3.33989 24.332917,-0.69987 3.495434,1.07912 9.709331,2.66718 13.808655,3.52902 8.64914,1.81838 10.35069,3.07572 12.69581,9.3814 0.94655,2.54515 3.43772,7.0633 5.53594,10.04033 L 126,665.32558 v 15.88687 c 0,16.3547 -0.63828,19.58261 -4.50715,22.79349 -0.90146,0.74814 -2.48642,3.0213 -3.52213,5.05145 C 113.1579,718.4913 89.053346,731.15358 80,729.00366 Z"
       id="path3164" />
  </g>
</svg>
