<?xml version="1.0" encoding="UTF-8" standalone="no"?>
<!-- Created with Inkscape (http://www.inkscape.org/) -->

<svg
   version="1.1"
   id="svg6768"
   width="515"
   height="2340"
   viewBox="0 0 515 2340"
   sodipodi:docname="a#+.svg"
   inkscape:version="1.1.1 (3bf5ae0d25, 2021-09-20)"
   xmlns:inkscape="http://www.inkscape.org/namespaces/inkscape"
   xmlns:sodipodi="http://sodipodi.sourceforge.net/DTD/sodipodi-0.dtd"
   xmlns="http://www.w3.org/2000/svg"
   xmlns:svg="http://www.w3.org/2000/svg">
  <defs
     id="defs6772" />
  <sodipodi:namedview
     id="namedview6770"
     pagecolor="#ffffff"
     bordercolor="#666666"
     borderopacity="1.0"
     inkscape:pageshadow="2"
     inkscape:pageopacity="0.0"
     inkscape:pagecheckerboard="0"
     showgrid="false"
     inkscape:zoom="0.33418803"
     inkscape:cx="-86.777494"
     inkscape:cy="1170"
     inkscape:window-width="1920"
     inkscape:window-height="986"
     inkscape:window-x="-11"
     inkscape:window-y="-11"
     inkscape:window-maximized="1"
     inkscape:current-layer="g6774" />
  <g
     inkscape:groupmode="layer"
     inkscape:label="Image"
     id="g6774">
    <path
       style="fill:#000000"
       d="m 298.24138,2326.6748 c -5.94939,-3.3041 -6.92457,-8.6982 -4.82245,-26.6748 0.86825,-7.425 1.57919,-15.4125 1.57986,-17.75 L 295,2278 h -22.25 c -20.29034,0 -22.53146,-0.1754 -25.44574,-1.9523 -4.02262,-2.4528 -5.25438,-7.6073 -3.20358,-13.4061 2.86492,-8.1008 10.51864,-10.6371 26.67707,-8.8404 5.94791,0.6614 13.83116,1.2025 17.51832,1.2025 H 295 l 0.006,-16.25 c 0.006,-17.3314 0.90258,-22.8326 4.34027,-26.6289 4.58513,-5.0635 13.51786,-6.6735 17.79337,-3.2071 2.34736,1.9032 2.36078,2.0352 2.36078,23.2331 v 21.3189 l 11.5,-0.3173 c 8.6066,-0.2376 12.60128,-0.7994 15.87712,-2.2331 6.12912,-2.6824 13.28954,-2.5383 16.61947,0.3344 4.448,3.8373 5.41928,13.8341 1.89117,19.4648 -2.69265,4.2974 -4.96956,4.7622 -25.88776,5.2852 l -20,0.5 v 21.5 c 0,23.3379 -0.54868,26.2016 -5.5,28.706 -3.20043,1.6188 -12.82187,1.5997 -15.75862,-0.031 z M 185.6506,2142.8243 c -0.90785,-0.508 -2.43813,-2.3638 -3.40062,-4.124 C 180.58808,2135.6611 180.47483,2090.3781 180,1239 l -0.5,-896.5 -3.70484,-7.5 c -3.52115,-7.12813 -5.53957,-15.32321 -7.33601,-29.78526 -0.37792,-3.04239 -2.12551,-8.05342 -4.11814,-11.80831 -2.29774,-4.32985 -3.96738,-9.42067 -4.96589,-15.14125 -0.96611,-5.53492 -2.71937,-10.96996 -4.90063,-15.19169 -6.79797,-13.15719 -6.54561,-7.79014 -6.24531,-132.81908 C 148.52027,9.0609881 148.29594,13.978581 153.6259,11.952132 155.17358,11.363707 217.18172,11 315.95432,11 c 150.72386,0 159.94711,0.09964 161.98425,1.75 1.18807,0.9625 2.57719,3.55 3.08693,5.75 0.53471,2.307789 0.93807,45.670702 0.95346,102.5 0.0172,63.33109 0.40647,101.59658 1.09039,107.17281 1.4285,11.64695 -0.54193,23.77181 -4.98955,30.70283 -1.69389,2.6397 -3.0798,6.11303 -3.0798,7.71851 0,1.60548 -0.45718,4.49108 -1.01596,6.41245 -0.55878,1.92137 -1.89459,8.43499 -2.96848,14.47472 -1.31878,7.41708 -2.93948,12.86418 -4.99334,16.78237 -2.22856,4.25146 -3.46112,8.66397 -4.61422,16.51868 -0.86537,5.8947 -2.7068,13.41763 -4.09207,16.71763 -1.38527,3.3 -3.59806,8.83297 -4.9173,12.29549 L 450,356.09098 449.9761,1243.7955 c -0.0145,539.3363 -0.38638,889.2742 -0.94764,891.7045 -0.50809,2.2 -2.07541,4.9935 -3.48295,6.2079 l -2.55915,2.2079 -127.84258,-0.084 c -76.16401,-0.05 -128.50983,-0.4572 -129.49322,-1.0076 z m 246.23497,-13.1278 c 1.33901,-0.6581 3.37503,-2.467 4.5245,-4.0199 l 2.08993,-2.8233 v -443.1767 c 0,-414.8642 -0.10854,-443.4162 -1.69897,-446.9266 -0.93444,-2.0625 -2.37532,-3.75 -3.20196,-3.75 -0.82664,0 -2.83254,1.9125 -4.45755,4.25 -1.62501,2.3375 -6.54439,7.914 -10.93195,12.3922 -9.23937,9.4303 -11.79592,10.3889 -27.50879,10.3139 -10.04179,-0.048 -14.56987,-1.2368 -19.79098,-5.1965 -1.87539,-1.4223 -6.00393,-3.7283 -9.17454,-5.1243 -5.09379,-2.2429 -6.0033,-3.0968 -7.8143,-7.3368 -1.12726,-2.6392 -3.21459,-6.0201 -4.63851,-7.5132 -1.83996,-1.9293 -3.11636,-5.1117 -4.41191,-11 -2.64355,-12.015 -2.44851,-14.7202 1.47243,-20.4231 1.83863,-2.6742 3.67721,-6.6467 4.08573,-8.8276 0.40852,-2.181 1.36044,-5.16 2.11539,-6.6199 1.96684,-3.8034 11.42226,-12.9211 14.95591,-14.4216 1.65,-0.7007 9.33993,-1.5951 17.08874,-1.9876 11.60782,-0.588 15.48185,-0.4076 22,1.0242 13.01614,2.8594 18.11381,6.4328 22.42606,15.7203 2.23323,4.8098 4.65805,6.0634 6.77036,3.5 0.56653,-0.6875 1.52163,-3.9201 2.12245,-7.1837 1.47726,-8.0241 1.54564,-806.45973 0.0695,-811.5663 -0.55645,-1.925 -2.24145,-4.4 -3.74443,-5.5 -2.69035,-1.96901 -4.52228,-2.00406 -118.23269,-2.26177 -108.60638,-0.24615 -115.7089,-0.15662 -119,1.5 -2.37746,1.19672 -3.88281,2.88431 -4.69356,5.26177 -0.92099,2.70073 -1.20644,203.15264 -1.25,877.7821 -0.0486,752.055 0.14159,874.7561 1.36003,877.6722 2.6786,6.4108 4.70613,6.9874 26.53489,7.5457 10.75175,0.275 62.51262,0.3634 115.02415,0.1965 71.54992,-0.2275 96.08559,-0.6034 97.91006,-1.5 z M 234.21271,1965.8267 c -2.85563,-0.6389 -5.3601,-2.1304 -7.5,-4.4666 -1.76699,-1.929 -7.3369,-7.6537 -12.37757,-12.7215 -10.63606,-10.6932 -10.81667,-11.1866 -10.13652,-27.6944 0.43476,-10.5521 0.59291,-11.1844 4.87536,-19.4915 3.29293,-6.3877 6.25478,-10.3607 11.56944,-15.5192 L 227.78684,1879 h 19.86318 c 10.92475,0 21.43521,0.449 23.35658,0.9977 1.95853,0.5594 5.25086,2.8878 7.4934,5.2997 2.2,2.366 4.98446,4.9773 6.18769,5.8028 1.20323,0.8254 4.05668,4.799 6.341,8.8302 l 4.15331,7.3294 -0.37968,14.1201 c -0.36389,13.5331 -0.51014,14.3695 -3.51787,20.1201 -1.72601,3.3 -3.44367,7.2326 -3.81702,8.7392 -1.29784,5.2371 -11.91613,12.6018 -21.92753,15.2088 -6.65213,1.7322 -24.32222,1.9458 -31.32719,0.3787 z m 58.33385,-181.3232 c -6.30216,-3.4056 -11.44919,-8.6048 -14.12249,-14.2657 -1.49033,-3.1558 -4.22042,-7.5063 -6.06688,-9.6678 -3.31157,-3.8766 -3.35719,-4.0626 -3.35719,-13.6849 0,-10.611 0.86684,-14.0567 4.49932,-17.8851 1.30465,-1.375 3.3289,-4.75 4.49835,-7.5 2.42641,-5.7058 6.06186,-9.8148 14.18171,-16.0291 10.12142,-7.7461 10.81169,-7.9631 25.33839,-7.9672 h 13.01777 l 5.48223,3.5339 c 3.01523,1.9436 7.1032,4.2671 9.08438,5.1633 3.75177,1.6971 5.65579,3.7821 11.44119,12.5287 L 360,1723.9555 v 16.4956 c 0,15.492 -0.15482,16.8471 -2.54467,22.2741 -2.90729,6.6019 -12.70249,17.2305 -18.95533,20.5679 -3.61397,1.929 -5.88191,2.1676 -23.5,2.4726 -16.40284,0.2839 -19.96909,0.084 -22.45344,-1.2585 z M 292.5,1622.5979 c -11.21468,-3.5561 -21.9436,-12.0642 -28.4963,-22.5979 -2.56604,-4.125 -5.19162,-9.0297 -5.83462,-10.8992 -1.72767,-5.0234 -1.55771,-38.4916 0.22556,-44.417 3.36088,-11.1673 19.16917,-30.0913 27.35162,-32.7424 2.06456,-0.6689 6.22874,-2.448 9.25374,-3.9536 6.95971,-3.4638 14.14498,-4.9944 23.29922,-4.9634 9.86337,0.034 15.307,1.4422 21.25374,5.4999 2.77912,1.8963 7.57265,4.3147 10.65228,5.3743 8.77072,3.0176 9.81932,3.8789 12.84478,10.5515 1.56325,3.4476 3.9282,7.5693 5.25543,9.1592 3.46322,4.1486 5.1582,7.8254 7.78636,16.8907 3.351,11.5585 3.11424,23.7598 -0.68278,35.1866 -2.45665,7.3931 -3.79198,9.6084 -10.19319,16.9105 -4.05142,4.6216 -7.77955,8.4029 -8.28475,8.4029 -0.5052,0 -2.30183,1.9125 -3.99251,4.25 -1.69069,2.3375 -4.2639,4.8769 -5.71826,5.643 -5.02793,2.6487 -47.56425,3.974 -54.72032,1.7049 z M 286.32865,1423.75 c -3.0534,-2.8875 -6.85213,-7.725 -8.44162,-10.75 -1.58949,-3.025 -3.85645,-6.7097 -5.03768,-8.1883 -2.44419,-3.0594 -3.70315,-9.3348 -3.78974,-18.8903 -0.0526,-5.8049 0.32256,-7.1535 3.19039,-11.4681 1.7875,-2.6892 4.375,-7.5666 5.75,-10.8387 1.96942,-4.6865 3.77339,-6.9777 8.5,-10.7956 12.62631,-10.1989 15.08512,-11.0745 31.5004,-11.2183 12.52004,-0.1096 11.98953,-0.2716 27.26342,8.3217 4.95016,2.785 6.39457,4.3252 10.23194,10.9102 l 4.46811,7.6674 0.0181,16.275 0.0181,16.2749 -3.40878,6.7251 c -2.49157,4.9155 -5.29666,8.4057 -10.42492,12.9712 -3.85887,3.4354 -8.20421,6.6979 -9.65631,7.25 -1.46244,0.556 -12.00562,1.0038 -23.63495,1.0038 h -20.99476 l -5.55163,-5.25 z m 24.31989,-345.7207 c -3.8959,-2.9486 -5.23901,-3.3839 -14.02491,-4.5452 -4.27416,-0.5649 -5.64096,-1.4065 -11.06752,-6.8143 C 274.86375,1056.0143 269,1042.5003 269,1028.5133 c 0,-4.0654 0.59432,-5.9319 2.88689,-9.0663 1.58778,-2.1708 3.61933,-6.1195 4.51454,-8.7748 2.5897,-7.6813 4.29113,-10.3022 7.56936,-11.6601 1.6858,-0.69828 4.43813,-3.00319 6.11627,-5.12202 4.32891,-5.4657 12.52086,-7.89008 26.66046,-7.89008 13.07688,0 21.30522,2.29549 29.75248,8.30016 4.91443,3.49339 6.63325,5.52566 9.5,11.23244 l 3.5,6.9674 0.31146,17.6002 0.31145,17.6003 -2.57366,3.0586 c -1.41551,1.6822 -3.25837,4.9993 -4.09525,7.3713 -2.94836,8.3565 -10.08574,13.5667 -20.57633,15.0205 -7.86109,1.0894 -9.81343,1.845 -14.2044,5.4977 -1.55469,1.2933 -3.12969,2.3389 -3.5,2.3236 -0.3703,-0.015 -2.40643,-1.3396 -4.52473,-2.9429 z m 19.69472,-17.0089 c 1.18621,-0.4726 4.92879,-3.483 8.31685,-6.6898 6.85545,-6.4887 8.05025,-9.2719 9.0237,-21.0201 0.56002,-6.7587 0.38502,-7.6331 -2.92071,-14.5941 -2.06992,-4.3586 -4.71054,-8.2548 -6.41928,-9.4716 -1.59657,-1.1368 -4.92241,-4.0865 -7.39074,-6.5549 -3.89204,-3.89202 -5.22316,-4.57973 -10.02597,-5.1798 -7.06728,-0.883 -11.70044,0.38558 -20.45498,5.6007 -9.13121,5.4394 -10.94338,7.181 -12.3471,11.8662 -0.6436,2.1482 -2.51002,6.4528 -4.14761,9.5659 -3.72538,7.0821 -3.73105,9.5642 -0.0338,14.7936 1.61897,2.2899 3.65884,5.991 4.53304,8.2247 1.51822,3.8792 7.05699,8.9755 13.52338,12.443 5.08117,2.7247 22.48805,3.3488 28.34326,1.0162 z M 291.49961,910.61409 c -1.65021,-0.7192 -3.64829,-2.08831 -4.44016,-3.04246 -0.79188,-0.95416 -4.16671,-3.09864 -7.49962,-4.76552 -7.65857,-3.83027 -9.23914,-5.24747 -12.06338,-10.81658 -1.25806,-2.48075 -4.15589,-6.98075 -6.43962,-10 L 256.9046,876.5 257.2023,854 c 0.27116,-20.4944 0.47598,-22.7789 2.2977,-25.62882 12.67074,-19.82224 21.97882,-29.47372 30.60721,-31.7364 2.96604,-0.7778 8.0828,-2.20055 11.37059,-3.16166 12.83093,-3.75085 34.86511,0.24461 51.29932,9.30211 7.21839,3.97832 8.94758,5.43571 10.94518,9.22477 1.30483,2.475 3.70744,6.86692 5.33915,9.75982 1.6317,2.8929 4.2378,8.7429 5.79133,13 2.75988,7.56284 2.807,8.03803 2.0569,20.74018 -1.2981,21.9818 -2.70113,25.18564 -18.13673,41.41557 -14.54656,15.29512 -13.70227,14.99551 -42.27295,15.00152 -15.92959,0.003 -22.82789,-0.35618 -25.00039,-1.303 z m 42.02466,-13.29506 c 2.73665,-1.74954 7.72237,-4.3673 11.07938,-5.81725 4.8212,-2.08235 6.57158,-3.46883 8.33069,-6.59874 1.22487,-2.17936 3.53004,-4.92583 5.12262,-6.10327 5.24543,-3.87812 8.80732,-20.62986 6.91078,-32.50173 -1.34729,-8.43367 -3.27018,-12.95317 -7.35971,-17.29804 -1.81187,-1.925 -4.2919,-4.9574 -5.51119,-6.73866 C 349.36666,818.2728 337.40386,809.11499 334,808.40779 c -1.375,-0.28568 -6.19938,-1.69446 -10.72084,-3.13062 -9.69246,-3.07865 -11.84426,-2.72658 -22.45711,3.67433 -3.66085,2.20796 -9.28093,4.98024 -12.48907,6.16061 -7.37914,2.71502 -8.7008,3.8984 -10.81869,9.68685 -0.94602,2.58557 -3.36124,7.14859 -5.36716,10.14003 L 268.5,840.37798 v 12.56101 c 0,11.63657 0.19937,12.96579 2.70895,18.06101 1.77373,3.60121 4.44598,6.8715 7.74038,9.47266 2.76729,2.18496 6.41122,5.89398 8.09763,8.24226 7.13456,9.9347 13.14609,12.39048 29.47731,12.0418 11.60105,-0.24768 12.1994,-0.36868 17,-3.43769 z M 302.5,736.75697 c -16.07904,-6.82982 -21.00682,-10.07494 -31.37641,-20.66247 -5.70703,-5.82698 -11.10703,-11.69854 -12,-13.04791 -1.3414,-2.027 -1.68236,-6.18433 -1.96172,-23.91949 -0.42643,-27.07181 -0.15873,-28.92637 4.94166,-34.23485 2.19302,-2.2825 4.83429,-5.81021 5.86948,-7.83934 2.21426,-4.34031 8.38602,-10.15802 13.73193,-12.94418 2.08728,-1.08784 5.41961,-3.73469 7.40518,-5.8819 l 3.61011,-3.90401 12.38989,-0.60435 c 16.83823,-0.82134 29.67256,0.34117 34.01822,3.0813 1.85441,1.16929 5.39666,3.22846 7.87166,4.57593 2.475,1.34748 8.83112,6.65827 14.12471,11.80177 8.40056,8.16237 9.82944,10.04948 11.23434,14.83717 3.71897,12.6736 5.63961,22.31566 5.61906,28.20886 -0.0274,7.84598 -4.87976,27.22834 -8.25813,32.98621 -3.27245,5.57736 -17.82345,18.78058 -24.21998,21.97662 -2.75,1.37404 -6.49261,3.2922 -8.3169,4.26258 -4.35888,2.31857 -30.02522,3.28657 -34.6831,1.30806 z m 94.5993,503.88583 c 3.52038,-1.8464 8.6507,-4.1684 11.4007,-5.16 2.75,-0.9916 5.64253,-2.3895 6.42784,-3.1064 0.78532,-0.717 3.14904,-6.5891 5.25273,-13.0492 l 3.82487,-11.7458 -3.94456,-8.0407 c -4.79822,-9.7808 -13.41722,-18.7915 -19.56088,-20.4499 -2.2,-0.5938 -7.63181,-1.0822 -12.07069,-1.0852 -11.19048,-0.01 -17.09738,2.9849 -23.67436,11.9944 -2.60977,3.575 -5.87227,8.035 -7.25,9.911 -3.24631,4.4206 -3.16076,8.0045 0.36983,15.4922 1.58113,3.3532 3.19436,8.0015 3.58495,10.3294 0.74346,4.4309 4.35861,8.4697 8.78487,9.8144 1.24047,0.3768 3.76463,1.8164 5.60925,3.1992 2.872,2.1528 10.09782,4.8677 13.74545,5.1644 0.60461,0.049 3.97961,-1.4213 7.5,-3.2678 z m 33.05612,-891.15642 c 2.96328,-1.10073 10.47302,-7.659 13.12136,-11.45889 0.94777,-1.35987 1.72322,-3.53298 1.72322,-4.82911 0,-4.35325 7.01582,-31.29546 9.38006,-36.02139 3.23185,-6.46022 7.69802,-22.44978 8.2893,-29.67699 0.26999,-3.3 1.38289,-8.17366 2.47313,-10.83035 1.77059,-4.3146 1.82613,-5.06859 0.52024,-7.06164 -0.8041,-1.22721 -3.24688,-2.76606 -5.42839,-3.41965 C 457.2525,245.29498 421.34963,245 315.59414,245 c -138.98378,0 -140.7212,0.0242 -144.61798,2.01216 -5.45503,2.78295 -5.81397,5.19959 -2.50164,16.84266 4.4077,15.49333 5.66087,19.37661 7.79141,24.14373 1.10578,2.4742 2.37916,7.78578 2.82973,11.8035 0.95294,8.49739 3.69013,17.64923 8.43361,28.19795 1.8549,4.125 4.08433,9.79787 4.9543,12.60637 1.52857,4.93469 4.40381,8.61655 7.51643,9.6251 3.02184,0.97912 227.46979,0.25252 230.15542,-0.74509 z m 35.25703,-117.41355 c 0.94568,-0.78494 2.47725,-2.80994 3.40349,-4.5 C 470.36165,224.75243 470.5,216.61358 470.5,128.5 v -96 l -2.29088,-4.290293 c -1.33086,-2.492399 -3.40348,-4.713304 -4.94587,-5.299718 -2.81876,-1.071693 -294.91083,-1.36619 -297.68892,-0.30014 -0.81533,0.312875 -2.51561,2.666153 -3.77838,5.229507 L 159.5,32.5 v 96 c 0,91.17964 0.0923,96.18559 1.83838,99.69613 1.04934,2.10975 2.98074,4.11888 4.5,4.68113 1.7112,0.63327 55.36587,0.92032 150.25813,0.80387 126.19035,-0.15486 147.84588,-0.38811 149.31594,-1.6083 z M 71.842366,1609.6105 c -6.837927,-1.8416 -15.507534,-7.2975 -22.422467,-14.1105 -4.880847,-4.8089 -6.535318,-7.2903 -8.334331,-12.5 -5.458571,-15.8072 -5.457542,-15.7396 -0.463996,-30.5 2.932616,-8.6685 4.908615,-12.228 11.185881,-20.1499 3.475847,-4.3864 5.053736,-5.4736 10.644558,-7.3341 5.965935,-1.9854 8.088763,-2.1455 23.305895,-1.7578 9.208152,0.2346 18.415624,0.9648 20.461044,1.6226 8.27566,2.6615 16.64623,13.0988 21.61013,26.9457 4.9524,13.8148 5.078,17.2924 1.02792,28.4606 -3.02051,8.3291 -4.01424,9.8844 -10.3588,16.2129 -3.85978,3.85 -9.26338,8.1985 -12.00799,9.6634 -8.649785,4.6167 -24.463992,6.19 -34.647844,3.4471 z M 80.5,722.08106 c -1.65,-0.40357 -3.9,-1.21444 -5,-1.80193 -1.1,-0.58749 -5.803091,-1.78297 -10.451314,-2.65662 -8.029161,-1.50911 -8.719837,-1.85155 -13.827037,-6.85548 -6.482108,-6.35104 -7.741069,-8.63543 -8.641791,-15.68052 -0.380666,-2.97742 -1.791861,-8.02637 -3.135989,-11.21987 -2.959214,-7.03078 -2.970472,-7.43838 -0.40439,-14.64162 1.121713,-3.14876 2.693842,-9.08583 3.493619,-13.19349 1.395232,-7.16592 1.720191,-7.73658 8.021577,-14.08663 7.080811,-7.13549 9.701435,-8.35728 24.445325,-11.397 9.998599,-2.06139 12.140018,-1.97428 23.403024,0.9521 5.292086,1.375 9.893026,2.5 10.224316,2.5 0.33128,0 4.16087,3.46298 8.51019,7.6955 l 7.90786,7.6955 3.66906,11.44576 3.66906,11.44577 -1.75915,6.10873 c -2.6018,9.03496 -4.46324,16.61635 -5.14895,20.97107 -0.47083,2.99006 -2.03623,5.31161 -6.93149,10.27966 -5.73236,5.8176 -6.87098,6.51869 -12.18361,7.50185 -3.22317,0.59649 -8.33531,1.89364 -11.36031,2.88256 -7.429707,2.42889 -10.93766,2.92597 -14.5,2.05466 z M 93.712769,705.897 c 5.612749,-2.71708 17.411301,-14.1957 20.153651,-19.60716 3.02011,-5.95955 2.95585,-16.3642 -0.13287,-21.51337 -1.22845,-2.04793 -4.2063,-7.07548 -6.61744,-11.17231 -3.89004,-6.60967 -4.96024,-7.69357 -9.500003,-9.62164 -6.591072,-2.79926 -16.356689,-3.71166 -19.859839,-1.85548 -4.602437,2.43863 -19.688487,16.90116 -22.328011,21.40517 -3.098128,5.28655 -4.100687,13.29424 -2.435816,19.45547 0.962313,3.56126 3.01847,6.2935 9.960222,13.23525 4.811165,4.81117 10.27752,9.4116 12.147455,10.22318 5.052053,2.19268 13.461367,1.94458 18.612651,-0.54911 z"
       id="path6853" />
  </g>
</svg>
