<?xml version="1.0" encoding="UTF-8" standalone="no"?>
<!-- Created with Inkscape (http://www.inkscape.org/) -->

<svg
   version="1.1"
   id="svg6958"
   width="515"
   height="2340"
   viewBox="0 0 515 2340"
   sodipodi:docname="b+.svg"
   inkscape:version="1.1.1 (3bf5ae0d25, 2021-09-20)"
   xmlns:inkscape="http://www.inkscape.org/namespaces/inkscape"
   xmlns:sodipodi="http://sodipodi.sourceforge.net/DTD/sodipodi-0.dtd"
   xmlns="http://www.w3.org/2000/svg"
   xmlns:svg="http://www.w3.org/2000/svg">
  <defs
     id="defs6962" />
  <sodipodi:namedview
     id="namedview6960"
     pagecolor="#ffffff"
     bordercolor="#666666"
     borderopacity="1.0"
     inkscape:pageshadow="2"
     inkscape:pageopacity="0.0"
     inkscape:pagecheckerboard="0"
     showgrid="false"
     inkscape:zoom="0.33418803"
     inkscape:cx="-86.777494"
     inkscape:cy="1170"
     inkscape:window-width="1920"
     inkscape:window-height="986"
     inkscape:window-x="-11"
     inkscape:window-y="-11"
     inkscape:window-maximized="1"
     inkscape:current-layer="g6964" />
  <g
     inkscape:groupmode="layer"
     inkscape:label="Image"
     id="g6964">
    <path
       style="fill:#000000"
       d="m 298.24138,2326.6748 c -5.94939,-3.3041 -6.92457,-8.6982 -4.82245,-26.6748 0.86825,-7.425 1.57919,-15.4125 1.57986,-17.75 L 295,2278 h -22.25 c -20.29034,0 -22.53146,-0.1754 -25.44574,-1.9523 -4.02262,-2.4528 -5.25438,-7.6073 -3.20358,-13.4061 2.86492,-8.1008 10.51864,-10.6371 26.67707,-8.8404 5.94791,0.6614 13.83116,1.2025 17.51832,1.2025 H 295 l 0.006,-16.25 c 0.006,-17.3314 0.90258,-22.8326 4.34027,-26.6289 4.58513,-5.0635 13.51786,-6.6735 17.79337,-3.2071 2.34736,1.9032 2.36078,2.0352 2.36078,23.2331 v 21.3189 l 11.5,-0.3173 c 8.6066,-0.2376 12.60128,-0.7994 15.87712,-2.2331 6.12912,-2.6824 13.28954,-2.5383 16.61947,0.3344 4.448,3.8373 5.41928,13.8341 1.89117,19.4648 -2.69265,4.2974 -4.96956,4.7622 -25.88776,5.2852 l -20,0.5 v 21.5 c 0,23.3379 -0.54868,26.2016 -5.5,28.706 -3.20043,1.6188 -12.82187,1.5997 -15.75862,-0.031 z M 196,2152.3054 c -2.65224,-0.9901 -6.14039,-4.6996 -8.20376,-8.7242 -1.56742,-3.0573 -1.86869,-4.9774 -1.37037,-8.7339 0.35131,-2.6483 0.63725,-139.0349 0.63541,-303.0812 -0.002,-164.0464 0.0379,-500.0911 0.0882,-746.7661 0.0788,-386.33687 -0.1321,-637.97589 -0.58469,-697.5 -0.11928,-15.68682 -0.18343,-16.13702 -3.27738,-23 -2.39739,-5.31788 -3.25293,-8.82074 -3.56026,-14.57685 -0.28125,-5.26754 -1.05892,-8.77258 -2.55152,-11.5 C 173.81634,332.28472 168,313.21503 168,308.33954 c 0,-2.74455 -0.96495,-6.31027 -2.55894,-9.45585 -2.2099,-4.36102 -7.02774,-20.72062 -9.38964,-31.88369 -0.40729,-1.925 -2.3949,-6.59262 -4.4169,-10.37249 L 147.95816,249.75502 148.22908,137.9 148.5,26.044982 151.2725,23.272491 154.045,20.5 h 163.7275 c 125.58976,0 164.35589,0.280771 166.4252,1.205365 1.48374,0.662951 3.50874,2.443124 4.5,3.955939 1.70894,2.608096 1.8023,8.476675 1.8023,113.294636 V 249.5 l -3.63372,4.74151 c -2.75574,3.59587 -3.8025,6.09242 -4.33227,10.33258 -0.38421,3.0751 -1.56154,8.09936 -2.61628,11.16505 -1.05475,3.06568 -1.91773,7.89041 -1.91773,10.72163 0,4.05977 -0.66542,6.1929 -3.14861,10.09345 -2.44893,3.84674 -3.32582,6.61241 -3.94608,12.44578 -0.43861,4.125 -0.82174,7.58513 -0.85139,7.68918 C 470.02426,316.79323 468.2,318.9581 466,321.5 c -3.08757,3.56741 -4.00544,5.46317 -4.02386,8.31082 -0.0131,2.02905 -0.45636,5.48918 -0.98497,7.68918 -0.52861,2.2 -1.40627,7.78826 -1.95035,12.41836 -0.80649,6.86317 -1.45948,8.90919 -3.53472,11.07528 -1.40002,1.4613 -2.98808,4.19804 -3.52902,6.08164 -0.6413,2.23307 -0.99142,311.19117 -1.0062,887.92472 -0.0135,526.0819 -0.39051,886.0895 -0.9304,888.4226 -0.49924,2.1574 -1.77357,5.0824 -2.83184,6.5 l -1.92412,2.5774 -123.89226,0.1827 C 253.25152,2152.7832 196.825,2152.6134 196,2152.3054 Z m 237.79357,-13.7852 c 1.62086,-1.3638 3.4607,-3.7263 4.08854,-5.25 0.85081,-2.0647 1.07398,-114.3193 0.8763,-440.7702 -0.2813,-464.5361 -0.0627,-443.9869 -4.74936,-446.4952 -1.61546,-0.8645 -2.3523,-0.3662 -4.8702,3.2934 -3.60293,5.2367 -14.63734,12.6053 -21.56873,14.4033 -2.75329,0.7142 -9.87236,1.2985 -15.82017,1.2985 -11.17224,0 -15.9597,-1.1345 -18.69239,-4.4294 -0.79334,-0.9566 -4.39334,-3.2308 -8,-5.0537 -7.16512,-3.6216 -9.60414,-5.8934 -13.01561,-12.1231 -2.168,-3.959 -2.23511,-4.8551 -1.87239,-25 0.27005,-14.9974 0.75635,-21.5993 1.7232,-23.3938 1.378,-2.5576 11.91637,-13.0229 15.72282,-15.6138 5.47609,-3.7275 34.01655,-3.605 47.2743,0.2029 7.43668,2.136 9.60558,3.7856 13.17137,10.018 3.69436,6.457 5.8084,6.8655 8.50354,1.6429 1.90298,-3.6875 1.93949,-10.4832 2.19249,-408.03559 0.22899,-359.82987 0.0904,-404.60829 -1.26035,-407.22035 -0.8347,-1.61412 -2.37025,-3.39108 -3.41234,-3.94879 -1.24605,-0.66687 -40.33511,-1.03811 -114.17782,-1.0844 -108.10763,-0.0678 -112.37609,-9.8e-4 -114.78315,1.79616 -1.37503,1.0266 -3.32233,2.96791 -4.32734,4.31401 -1.76601,2.36538 -1.8266,27.86673 -1.80678,760.34126 0.0113,416.8416 0.30573,762.4374 0.65432,767.9908 0.68231,10.8699 2.10276,15.0643 5.46274,16.1307 3.47825,1.104 5.99432,-2.4357 7.53931,-10.6065 0.75298,-3.9822 1.86199,-7.8343 2.46446,-8.5602 2.60719,-3.1415 17.80112,-12.341 22.18651,-13.4333 7.01267,-1.7467 35.20266,-0.7989 39.20316,1.3182 4.78185,2.5305 10.79214,9.5249 16.76565,19.5107 7.79445,13.0298 8.53963,16.8091 5.72541,29.0373 -3.58793,15.5899 -8.16451,22.8478 -19.08211,30.2618 -8.30829,5.6421 -18.94367,8.3679 -29.16899,7.4759 -10.05209,-0.8768 -16.48244,-2.7994 -21.00002,-6.2785 -1.97047,-1.5176 -6.05068,-4.6546 -9.06712,-6.9712 -4.76685,-3.6608 -5.76406,-5.0522 -7.62149,-10.6338 -2.63006,-7.9033 -4.73584,-10.1048 -8.35067,-8.7305 -5.36723,2.0406 -5.17897,-1.2219 -5.48624,95.0763 -0.15707,49.225 -0.0619,90.4094 0.21153,91.5208 0.60047,2.441 6.26258,8.4005 9.05929,9.5351 1.10812,0.4495 51.59273,0.8459 112.18803,0.8807 l 110.17328,0.063 2.94702,-2.4798 z M 307,1795.2847 c -5.04466,-0.8753 -16.57355,-5.4848 -19.71946,-7.8843 -4.08207,-3.1135 -7.59513,-9.1938 -9.76475,-16.9004 -0.92904,-3.3 -3.00016,-8.3048 -4.60248,-11.1217 -4.0636,-7.144 -4.07597,-13.9825 -0.0336,-18.5935 1.58382,-1.8066 4.22692,-6.2098 5.87354,-9.7848 3.38733,-7.3543 8.43563,-12.5378 18.3563,-18.8479 5.64327,-3.5894 7.87019,-4.3727 15.23275,-5.3578 12.26805,-1.6414 18.26337,-0.3366 29.22186,6.36 10.24396,6.2599 15.05497,11.4954 20.53395,22.3457 3.79322,7.5119 4.01507,8.4271 3.63618,15 -0.34194,5.932 -1.93623,15.3918 -4.27381,25.3589 -0.30428,1.2974 -2.81054,4.7457 -5.56947,7.6628 -3.95535,4.1822 -6.64206,5.9391 -12.70362,8.307 -6.77863,2.6481 -9.22413,3.0555 -20.68737,3.4464 -7.15,0.2439 -14.125,0.2482 -15.5,0.01 z m -14,-163.8153 c -1.925,-0.8663 -4.88544,-2.9148 -6.57876,-4.5524 -1.69332,-1.6376 -5.95447,-4.8763 -9.46922,-7.1972 -4.97396,-3.2844 -6.93023,-5.3281 -8.8256,-9.2198 -1.33933,-2.75 -4.27818,-8.1374 -6.53078,-11.972 L 257.5,1591.556 v -18.028 c 0,-19.5672 -0.4156,-17.7205 6.82385,-30.3203 3.5663,-6.2069 17.55013,-21.2077 19.76994,-21.2077 0.62813,0 5.25149,-1.8752 10.27413,-4.167 8.76577,-3.9999 9.61343,-4.1849 21.13208,-4.6105 10.88807,-0.4024 12.812,-0.1956 20.76308,2.2315 11.15798,3.4061 24.0397,9.833 26.14317,13.0433 0.8951,1.3661 3.53237,4.4027 5.8606,6.748 3.38099,3.4059 5.01078,6.4138 8.0961,14.9419 l 3.86295,10.6776 -0.43858,14.3176 c -0.39121,12.7711 -0.74164,15.0737 -3.24433,21.3176 -1.54316,3.85 -3.24132,8.2136 -3.7737,9.6969 -1.31844,3.6735 -10.47417,13.1647 -14.76929,15.3105 -1.925,0.9618 -4.75734,3.2503 -6.2941,5.0858 -1.53675,1.8354 -4.46175,3.8529 -6.5,4.4833 -2.11462,0.654 -13.3672,1.3226 -26.2059,1.557 -18.95026,0.3461 -23.05218,0.1624 -26,-1.1641 z m 10,-193.1141 c -4.91618,-0.9529 -19.01408,-8.6073 -21.89396,-11.8873 -2.34601,-2.672 -3.07422,-4.6573 -3.63749,-9.917 -0.52794,-4.9299 -1.42581,-7.5724 -3.5864,-10.555 -3.37788,-4.663 -3.65551,-8.5661 -0.93812,-13.1888 1.06921,-1.819 3.08891,-7.7236 4.48822,-13.1213 1.3993,-5.3978 3.19516,-10.7436 3.99079,-11.8795 2.52969,-3.6116 17.76229,-13.784 22.94607,-15.3234 5.98116,-1.7762 22.87451,-1.9774 27.73167,-0.3303 1.86957,0.634 7.18993,3.4465 11.82302,6.25 10.25207,6.2036 15.56618,12.539 19.98345,23.824 3.41937,8.7356 3.41965,8.8061 0.0928,23.7733 -1.03916,4.675 -2.14899,10.1306 -2.46629,12.1236 -0.46082,2.8944 -1.97245,4.8639 -7.51183,9.787 -10.73284,9.5388 -13.4549,10.4347 -32.52188,10.7036 -8.8,0.1241 -17.125,0.01 -18.5,-0.2589 z m 4.5,-354.4024 c -2.75,-0.4951 -7.24678,-1.181 -9.99285,-1.5243 -4.54367,-0.5678 -5.64574,-1.2769 -12.25,-7.8811 C 278.11659,1067.4069 278,1067.2071 278,1062.113 c 0,-5.5537 -1.71766,-10.6673 -4.97339,-14.8063 -2.81123,-3.5739 -2.5333,-8.1404 0.89172,-14.6514 1.60508,-3.0513 3.59377,-8.8307 4.41932,-12.843 1.16575,-5.6657 2.0854,-7.7437 4.11752,-9.3037 1.43909,-1.1047 5.01985,-4.0915 7.95725,-6.6372 7.35867,-6.37756 12.62275,-7.92214 27.73085,-8.1368 16.10772,-0.22885 19.53327,1.00878 32.5647,11.7654 6.36971,5.2578 11.12158,12.2121 13.267,19.4159 2.65403,8.9118 2.55442,13.963 -0.47497,24.0841 -1.375,4.5938 -2.5,9.7549 -2.5,11.469 0,2.4817 -1.37507,4.559 -6.75,10.1969 -3.7125,3.8941 -7.75284,7.598 -8.97854,8.2308 -2.03206,1.0492 -10.91506,2.2022 -26.77146,3.4748 -3.3,0.2649 -8.25,0.077 -11,-0.4186 z m 22.87032,-13.182 c 4.70817,-1.4106 10.47477,-6.9916 16.68901,-16.152 l 4.151,-6.1189 -0.58184,-9 c -0.80591,-12.4659 -1.60616,-14.5116 -8.80714,-22.5144 -7.17348,-7.9722 -11.51952,-9.9048 -22.89524,-10.1813 -9.61178,-0.2336 -15.39822,2.6381 -21.16683,10.5044 -6.31014,8.6048 -8.66767,13.4842 -9.76108,20.2024 -0.97115,5.9669 -0.0932,12.5242 2.28307,17.0526 0.6703,1.2774 4.07163,5.2603 7.5585,8.8509 4.83586,4.9798 7.20805,6.6732 10,7.1388 2.01313,0.3357 4.11023,0.763 4.66023,0.9495 2.51441,0.8528 14.17493,0.3752 17.87032,-0.732 z M 291.30256,919.53123 c -3.76206,-1.63602 -13.43934,-8.53147 -18.03302,-12.84925 -1.79779,-1.68981 -4.55278,-6.21277 -6.21206,-10.19856 -1.63988,-3.93916 -4.57367,-10.48421 -6.51954,-14.54456 L 257,874.55642 V 858.9901 c 0,-17.23824 -0.0362,-17.10952 8.28462,-29.50101 5.11185,-7.61271 10.76277,-12.97301 17.01344,-16.13847 2.86107,-1.44891 6.55194,-3.62766 8.20194,-4.84169 3.72837,-2.74323 8.90618,-4.7244 18.20468,-6.96562 7.03123,-1.69473 7.35623,-1.68689 13.5,0.32552 3.46243,1.13412 9.4811,2.71239 13.37483,3.50726 10.89297,2.2237 24.77819,9.3988 31.66576,16.36308 4.87722,4.93155 6.19498,7.09878 8.7218,14.34412 2.70088,7.74445 2.98527,9.77961 3.0709,21.97578 0.0652,9.28295 -0.345,14.67834 -1.32589,17.44093 -0.78115,2.2 -1.74862,5.77974 -2.14994,7.95497 -0.90622,4.91191 -6.42671,16.67873 -10.39415,22.15494 -3.71003,5.12092 -15.33264,12.95917 -21.23205,14.31883 -7.00347,1.61412 -48.73231,1.29897 -52.63338,-0.39751 z m 45.01204,-10.46074 c 1.34465,-0.51123 7.679,-6.07228 14.07634,-12.35788 10.98881,-10.79687 11.77336,-11.83682 14.19834,-18.82049 2.1853,-6.29343 2.49386,-8.58116 2.07601,-15.39212 -0.26994,-4.4 -1.42391,-10.95908 -2.56439,-14.57572 -1.79319,-5.6865 -3.07778,-7.57971 -9.49935,-14 -12.50576,-12.5033 -20.23814,-18.74934 -24.69759,-19.95014 -6.87045,-1.85002 -22.82863,1.24096 -30.31013,5.87085 -8.68392,5.37401 -19.35809,16.42604 -22.80973,23.61718 -1.59393,3.3208 -3.96037,7.83783 -5.25874,10.03783 -4.20452,7.12426 -3.84997,15.61147 0.91283,21.85108 1.891,2.47735 3.96795,6.27246 4.61544,8.43357 1.53734,5.1312 17.24161,21.53915 23.20728,24.24717 3.55798,1.61508 6.59858,1.92778 18.92399,1.94622 8.0767,0.0121 15.78506,-0.39632 17.1297,-0.90755 z M 302.5,745.86937 c -1.1,-0.62838 -2.9,-1.92432 -4,-2.87987 -1.1,-0.95555 -5.04431,-2.73305 -8.76514,-3.95 -7.09555,-2.3207 -8.62553,-3.3809 -11.29361,-7.82589 -0.89585,-1.49248 -3.41146,-3.96452 -5.59023,-5.4934 -2.89976,-2.03481 -4.7676,-4.58078 -6.96965,-9.5 -1.65454,-3.69612 -4.21721,-7.98599 -5.69481,-9.53306 -2.66311,-2.78831 -2.68935,-2.95769 -3.00589,-19.40572 -0.17563,-9.12607 -0.0566,-17.63953 0.26445,-18.9188 0.32108,-1.27927 1.87313,-3.7967 3.44902,-5.59429 1.57588,-1.79759 4.22566,-6.27168 5.88841,-9.94243 2.17692,-4.80584 3.87568,-7.11493 6.06862,-8.24895 1.67499,-0.86617 4.30355,-3.26283 5.84123,-5.32591 3.37305,-4.52556 4.14151,-5.06094 11.8432,-8.25105 3.31958,-1.375 7.81958,-3.625 10,-5 3.75738,-2.36945 4.72157,-2.5 18.4644,-2.5 13.27158,0 14.79652,0.18844 18,2.22425 1.925,1.22333 7.1,4.02295 11.5,6.22138 5.60374,2.79986 10.29695,6.21208 15.66845,11.3918 6.90075,6.65439 7.88094,8.08265 9.79101,14.26674 1.16741,3.77964 2.7807,7.87652 3.58509,9.10417 1.07794,1.64514 1.5492,6.22774 1.79212,17.42678 0.30629,14.12061 0.17283,15.4895 -1.88797,19.36533 -1.21965,2.29386 -2.54948,5.70715 -2.95516,7.5851 -1.36206,6.30505 -4.23752,10.36948 -12.92923,18.27534 -5.83259,5.30523 -10.33643,8.49993 -13.85329,9.82653 -2.86606,1.0811 -6.4768,3.1687 -8.02387,4.63911 -2.78415,2.64619 -2.97806,2.67608 -19,2.92941 -10.75292,0.17002 -16.85858,-0.12761 -18.18715,-0.88657 z m 25.47653,-12.82648 c 1.93791,-0.97165 7.23121,-2.98916 11.76289,-4.48336 5.80205,-1.91307 9.05604,-3.62457 11,-5.78568 1.51832,-1.68792 4.19722,-4.56669 5.95311,-6.39726 3.66227,-3.81804 6.01194,-8.73974 9.25056,-19.37659 2.80649,-9.21754 2.41574,-15.44878 -1.80646,-28.80743 -2.60291,-8.23537 -3.61374,-10.02072 -8.7758,-15.5 -6.90817,-7.33269 -8.15482,-8.16693 -15.36083,-10.27919 -3.025,-0.88671 -7.85568,-2.91746 -10.73485,-4.51279 C 326.38598,636.30527 322.71034,635 321.09706,635 c -1.61327,0 -8.78964,1.93621 -15.94747,4.3027 -12.71015,4.20216 -13.1663,4.45475 -19.52166,10.81012 -4.21529,4.21528 -7.19901,8.24741 -8.47085,11.4473 -1.07989,2.71693 -3.61383,7.63988 -5.63097,10.93988 -3.45766,5.65665 -3.64848,6.40676 -3.33456,13.10802 0.27831,5.94103 0.86503,7.96392 3.57371,12.32127 1.78241,2.86728 3.99524,7.54368 4.91742,10.39198 1.28007,3.95373 3.28777,6.78128 8.48764,11.95355 5.96588,5.93422 7.83577,7.13672 15.07032,9.69155 4.54265,1.6042 9.83436,3.61852 11.75936,4.47626 4.12996,1.84023 10.65464,1.26859 15.97653,-1.39974 z m 72.36181,519.96811 c 1.01109,-0.01 7.31109,-5.4525 14,-12.1032 l 12.16166,-12.0922 -0.007,-7.1578 c -0.006,-5.9906 -0.47183,-7.9989 -2.85869,-12.3155 -3.41956,-6.1842 -17.26009,-19.0847 -22.47322,-20.9467 -4.36879,-1.5605 -16.23474,-1.7807 -21.22668,-0.394 -4.19395,1.1651 -11.0243,6.759 -15.06671,12.3394 -2.80088,3.8665 -2.86794,4.2577 -2.86794,16.7303 v 12.7711 l 6.58518,7.3288 c 3.62184,4.0308 8.21121,8.8037 10.19859,10.6064 4.27218,3.8752 11.32593,6.3586 16.21623,5.7092 1.925,-0.2556 4.32725,-0.4697 5.33834,-0.4758 z m 33.95562,-894.66301 c 5.00982,-2.59068 11.13186,-7.35633 12.4206,-9.66871 0.66802,-1.1986 1.23052,-4.32017 1.25,-6.93682 0.0419,-5.62816 5.31625,-24.28552 8.73137,-30.88627 1.64142,-3.17255 2.56502,-6.97442 2.91519,-12 0.49267,-7.07061 1.58803,-10.76235 8.39182,-28.28313 2.1222,-5.46497 2.88449,-8.80912 2.45438,-10.76738 C 469.10704,253.65791 477.97529,254 319.95079,254 c -130.77252,0 -144.46514,0.15024 -147.5605,1.61908 -4.31339,2.04684 -5.13156,5.12805 -3.1232,11.76199 0.85234,2.81541 1.85941,7.36252 2.23793,10.10468 0.50769,3.67788 1.58101,5.97396 4.09161,8.75288 3.163,3.50107 3.40337,4.24389 3.40337,10.51743 0,3.75243 0.88822,9.85625 2,13.74394 1.1,3.8465 2,8.43252 2,10.19117 0,2.25396 1.02277,4.31395 3.46596,6.98083 3.44659,3.76216 5.53404,9.91863 5.53404,16.32146 0,3.79617 3.04668,7.11067 11,11.96694 l 6.5,3.96888 110.8898,-0.0113 c 98.45688,-0.01 111.22777,-0.18603 113.90416,-1.57004 z m 36.83011,-117.41128 c 2.9803,-1.52044 4.61421,-3.29638 6.21016,-6.75 L 479.5,229.5 v -93 -93 l -2.90648,-3.799552 c -1.59857,-2.089753 -4.78811,-4.902253 -7.08786,-6.25 L 465.32428,31 H 316.06335 166.80242 l -2.83802,3.038114 c -1.75142,1.874896 -3.26928,5.033613 -3.96437,8.25 -0.80301,3.715682 -1.03645,32.053425 -0.81319,98.711886 0.34034,101.61414 0.12174,97.82722 5.81316,100.70599 1.9818,1.00241 33.54869,1.26758 152.28984,1.27927 149.36253,0.0147 149.80137,0.009 153.83423,-2.04855 z M 80,1620.3896 c -12.528832,-1.5022 -24.604486,-8.5483 -32,-18.6717 l -4.5,-6.1599 -0.316369,-16.8212 c -0.427039,-22.7054 0.117161,-24.3111 12.201241,-36.0012 5.959576,-5.7652 10.266923,-9.0997 12.587451,-9.7444 4.019234,-1.1166 30.620036,-1.1855 39.298797,-0.1018 5.24081,0.6544 6.28145,1.221 11.32478,6.1656 3.9912,3.9131 6.86898,8.1177 10.22888,14.945 l 4.67522,9.5 v 12 c 0,7.6125 -0.50143,13.4197 -1.37145,15.883 -1.72069,4.8718 -19.87722,23.5159 -25.78646,26.4789 -4.22527,2.1186 -18.405477,3.4792 -26.34209,2.5277 z M 73.613977,729.19606 c -8.950561,-3.06 -19.154487,-10.7673 -23.551188,-17.78884 -1.409534,-2.25103 -3.573607,-5.62603 -4.809051,-7.5 -2.08629,-3.16457 -2.246528,-4.51835 -2.25,-19.00934 -0.0036,-15.06823 0.08174,-15.71839 2.494228,-19 1.373881,-1.86883 4.099826,-6.74224 6.057654,-10.8298 1.957829,-4.08755 4.321244,-8.00528 5.252034,-8.70607 0.93079,-0.70078 4.167346,-1.76775 7.192346,-2.37104 3.025,-0.60329 8.611565,-2.21597 12.41459,-3.58373 9.193095,-3.30631 13.209377,-3.23259 25.08541,0.46044 9.35183,2.90809 10.46741,3.54913 17.21116,9.88989 6.50565,6.1169 7.42165,7.46324 9.36266,13.76134 1.18333,3.8396 3.00081,8.65066 4.03884,10.69125 3.19902,6.28869 2.52684,12.93765 -2.66633,26.37436 -4.15479,10.75002 -5.11177,12.34018 -10.92494,18.15335 -6.1093,6.1093 -6.65189,6.41487 -13.19633,7.43195 -3.75378,0.58337 -8.979219,1.90882 -11.61208,2.94543 -6.365162,2.5061 -10.653653,2.30997 -20.099003,-0.91919 z"
       id="path7043" />
  </g>
</svg>
