<svg width="24" height="24" viewBox="0 0 24 24" fill="none" xmlns="http://www.w3.org/2000/svg">
<g clip-path="url(#clip0_205_6)">
<path d="M20.5533 13.3333H19.3333C19.2668 12.0274 19.0016 10.7393 18.5467 9.51333L19.52 8.98666C19.6756 8.90268 19.7915 8.76032 19.8421 8.59092C19.8927 8.42151 19.874 8.23893 19.79 8.08333C19.706 7.92774 19.5637 7.81188 19.3943 7.76125C19.2248 7.71061 19.0423 7.72935 18.8867 7.81333L16.8867 8.66666H7.18667L5.13333 7.81333C4.97774 7.72935 4.79515 7.71061 4.62575 7.76125C4.45634 7.81188 4.31398 7.92774 4.23 8.08333C4.14601 8.23893 4.12728 8.42151 4.17791 8.59092C4.22855 8.76032 4.34441 8.90268 4.5 8.98666L5.5 9.52C5.04665 10.7441 4.78142 12.0298 4.71333 13.3333H3.44667C3.26985 13.3333 3.10028 13.4036 2.97526 13.5286C2.85024 13.6536 2.78 13.8232 2.78 14C2.78 14.1768 2.85024 14.3464 2.97526 14.4714C3.10028 14.5964 3.26985 14.6667 3.44667 14.6667H4.73333C4.79443 16.1026 5.17235 17.5073 5.84 18.78L4.58 19.66C4.4958 19.7035 4.42185 19.7645 4.36308 19.8389C4.30432 19.9133 4.26209 19.9993 4.23922 20.0913C4.21634 20.1833 4.21335 20.2791 4.23043 20.3724C4.24752 20.4656 4.28429 20.5541 4.3383 20.632C4.3923 20.7099 4.4623 20.7754 4.54362 20.8241C4.62494 20.8728 4.71571 20.9036 4.80987 20.9145C4.90404 20.9253 4.99944 20.916 5.0897 20.887C5.17997 20.8581 5.26303 20.8102 5.33333 20.7467L6.56 19.8867C7.14449 20.6064 7.86882 21.2002 8.68924 21.6322C9.50966 22.0642 10.4091 22.3254 11.3333 22.4V10H12.6667V22.4C13.5899 22.3271 14.4887 22.0679 15.3091 21.6383C16.1294 21.2086 16.8543 20.6173 17.44 19.9L18.6667 20.7467C18.7385 20.797 18.8195 20.8327 18.905 20.8517C18.9906 20.8708 19.0791 20.8728 19.1655 20.8576C19.2519 20.8424 19.3344 20.8104 19.4084 20.7634C19.4823 20.7163 19.5463 20.6551 19.5967 20.5833C19.647 20.5115 19.6827 20.4305 19.7017 20.345C19.7208 20.2594 19.7228 20.1709 19.7076 20.0845C19.6924 19.9981 19.6604 19.9156 19.6134 19.8416C19.5663 19.7677 19.5051 19.7037 19.4333 19.6533L18.1933 18.7867C18.8598 17.5114 19.2355 16.1044 19.2933 14.6667H20.5533C20.7301 14.6667 20.8997 14.5964 21.0247 14.4714C21.1498 14.3464 21.22 14.1768 21.22 14C21.22 13.8232 21.1498 13.6536 21.0247 13.5286C20.8997 13.4036 20.7301 13.3333 20.5533 13.3333ZM7.27333 11.8267C7.27333 11.5695 7.34958 11.3182 7.49242 11.1044C7.63527 10.8906 7.8383 10.724 8.07584 10.6256C8.31339 10.5272 8.57477 10.5015 8.82695 10.5516C9.07912 10.6018 9.31076 10.7256 9.49257 10.9074C9.67438 11.0892 9.79819 11.3209 9.84835 11.573C9.89851 11.8252 9.87277 12.0866 9.77438 12.3242C9.67598 12.5617 9.50936 12.7647 9.29557 12.9076C9.08179 13.0504 8.83045 13.1267 8.57333 13.1267C8.22855 13.1267 7.89789 12.9897 7.65409 12.7459C7.4103 12.5021 7.27333 12.1714 7.27333 11.8267ZM9.33333 18.3067C9.125 18.3067 8.92135 18.2449 8.74813 18.1291C8.57491 18.0134 8.4399 17.8489 8.36018 17.6564C8.28046 17.464 8.2596 17.2522 8.30024 17.0478C8.34088 16.8435 8.4412 16.6558 8.58851 16.5085C8.73582 16.3612 8.92351 16.2609 9.12784 16.2202C9.33216 16.1796 9.54395 16.2005 9.73643 16.2802C9.9289 16.3599 10.0934 16.4949 10.2091 16.6681C10.3249 16.8414 10.3867 17.045 10.3867 17.2533C10.3867 17.5327 10.2757 17.8006 10.0782 17.9982C9.88061 18.1957 9.61269 18.3067 9.33333 18.3067ZM14.9533 18.3067C14.7447 18.308 14.5404 18.2473 14.3663 18.1324C14.1922 18.0175 14.0562 17.8534 13.9754 17.6611C13.8947 17.4687 13.8729 17.2567 13.9128 17.052C13.9527 16.8472 14.0524 16.6589 14.1995 16.5109C14.3465 16.3629 14.5342 16.2619 14.7387 16.2208C14.9432 16.1796 15.1553 16.2 15.3482 16.2796C15.5411 16.3591 15.706 16.4941 15.822 16.6674C15.938 16.8408 16 17.0447 16 17.2533C16 17.5327 15.889 17.8006 15.6915 17.9982C15.4939 18.1957 15.226 18.3067 14.9467 18.3067H14.9533ZM15.7067 13.1267C15.4495 13.1267 15.1982 13.0504 14.9844 12.9076C14.7706 12.7647 14.604 12.5617 14.5056 12.3242C14.4072 12.0866 14.3815 11.8252 14.4316 11.573C14.4818 11.3209 14.6056 11.0892 14.7874 10.9074C14.9692 10.7256 15.2009 10.6018 15.453 10.5516C15.7052 10.5015 15.9666 10.5272 16.2042 10.6256C16.4417 10.724 16.6447 10.8906 16.7876 11.1044C16.9304 11.3182 17.0067 11.5695 17.0067 11.8267C17.0067 12.1714 16.8697 12.5021 16.6259 12.7459C16.3821 12.9897 16.0514 13.1267 15.7067 13.1267Z" fill="#888888"/>
<path d="M7.48667 3.50667C7.61907 3.45895 7.74123 3.38656 7.84667 3.29334C8.05567 3.40412 8.25425 3.53353 8.44 3.68C8.66948 3.86947 8.88145 4.0792 9.07334 4.30667C8.36484 4.95114 7.73391 5.67604 7.19334 6.46667C6.92667 6.84667 7.25334 7.32 7.76667 7.32H16.2933C16.8067 7.32 17.1333 6.84667 16.8667 6.46667C16.3158 5.6641 15.6713 4.93004 14.9467 4.28C15.1309 4.06258 15.3339 3.8618 15.5533 3.68C15.7391 3.53353 15.9377 3.40412 16.1467 3.29334C16.3352 3.4584 16.5735 3.55588 16.8237 3.57036C17.0739 3.58483 17.3218 3.51547 17.5281 3.37324C17.7345 3.23102 17.8875 3.02405 17.963 2.78508C18.0386 2.54611 18.0322 2.28879 17.9451 2.05381C17.858 1.81883 17.695 1.61961 17.4819 1.48767C17.2688 1.35573 17.0178 1.2986 16.7686 1.32532C16.5194 1.35204 16.2863 1.46108 16.106 1.6352C15.9257 1.80931 15.8087 2.03856 15.7733 2.28667C15.4615 2.43999 15.1666 2.62544 14.8933 2.84C14.6052 3.07715 14.3396 3.3405 14.1 3.62667C13.4891 3.17404 12.7591 2.90988 12 2.86667C11.2333 2.91934 10.4987 3.1951 9.88667 3.66C9.64132 3.36633 9.36902 3.09626 9.07334 2.85334C8.80005 2.63878 8.50512 2.45333 8.19334 2.3C8.15993 2.07187 8.05694 1.8596 7.89841 1.69218C7.73989 1.52476 7.53355 1.41035 7.30758 1.36456C7.0816 1.31877 6.84701 1.34384 6.63581 1.43634C6.42461 1.52884 6.24711 1.68427 6.12754 1.8814C6.00796 2.07854 5.95215 2.30778 5.9677 2.53782C5.98326 2.76786 6.06943 2.98749 6.21446 3.16673C6.35948 3.34597 6.55629 3.47609 6.77802 3.53932C6.99975 3.60254 7.23558 3.5958 7.45334 3.52L7.48667 3.50667Z" fill="#888888"/>
</g>
<defs>
<clipPath id="clip0_205_6">
<rect width="24" height="24" fill="white"/>
</clipPath>
</defs>
</svg>
