<?xml version="1.0" encoding="UTF-8" standalone="no"?>
<!-- Created with Inkscape (http://www.inkscape.org/) -->

<svg
   version="1.1"
   id="svg8292"
   width="515"
   height="2340"
   viewBox="0 0 515 2340"
   sodipodi:docname="c.svg"
   inkscape:version="1.1.1 (3bf5ae0d25, 2021-09-20)"
   xmlns:inkscape="http://www.inkscape.org/namespaces/inkscape"
   xmlns:sodipodi="http://sodipodi.sourceforge.net/DTD/sodipodi-0.dtd"
   xmlns="http://www.w3.org/2000/svg"
   xmlns:svg="http://www.w3.org/2000/svg">
  <defs
     id="defs8296" />
  <sodipodi:namedview
     id="namedview8294"
     pagecolor="#ffffff"
     bordercolor="#666666"
     borderopacity="1.0"
     inkscape:pageshadow="2"
     inkscape:pageopacity="0.0"
     inkscape:pagecheckerboard="0"
     showgrid="false"
     inkscape:zoom="0.33418803"
     inkscape:cx="-86.777494"
     inkscape:cy="1170"
     inkscape:window-width="1920"
     inkscape:window-height="986"
     inkscape:window-x="-11"
     inkscape:window-y="-11"
     inkscape:window-maximized="1"
     inkscape:current-layer="g8298" />
  <g
     inkscape:groupmode="layer"
     inkscape:label="Image"
     id="g8298">
    <path
       style="fill:#000000"
       d="m 283.5,2162 c -84.20215,-0.3726 -113.67636,-0.8029 -115.65397,-1.6887 -4.15894,-1.8629 -6.71701,-5.2448 -7.3428,-9.7076 C 160.18674,2148.3466 159.83155,1747.575 159.7139,1260 L 159.5,373.5 l -2.81921,-9 c -1.55056,-4.95 -4.21391,-11.84712 -5.91855,-15.32692 -2.36156,-4.82082 -3.25483,-8.28454 -3.75251,-14.55052 -0.36314,-4.57219 -1.60832,-10.64326 -2.80436,-13.67308 C 136.38364,301.13533 135.771,299.13637 135.02644,291 c -0.55739,-6.09101 -1.62249,-10.34217 -3.75813,-15 -1.63915,-3.575 -4.18533,-9.65 -5.65816,-13.5 l -2.67788,-7 0.28387,-112.72238 L 123.5,30.055249 125.7777,27.777624 128.0554,25.5 l 162.74243,-0.258863 162.74242,-0.258862 4.47988,2.258862 c 7.90403,3.985411 7.42582,-3.580247 7.45448,117.935633 l 0.0254,107.67677 -2.24337,2.82323 c -4.14015,5.21028 -5.38219,8.43289 -5.97488,15.50249 -0.51449,6.13688 -1.07758,7.67907 -4.43553,12.14808 -2.11542,2.81536 -3.85513,5.58095 -3.86603,6.14575 -0.0109,0.5648 -0.47684,4.17691 -1.03543,8.02691 -0.5586,3.85 -1.3933,10.70805 -1.8549,15.24012 -0.75815,7.44357 -1.17571,8.6125 -4.31956,12.09237 -2.98193,3.30064 -3.64832,4.982 -4.65371,11.74178 -0.65184,4.38268 -2.50092,10.78675 -4.15999,14.40762 -1.64262,3.58496 -3.87983,9.66668 -4.97159,13.51493 C 426.01173,371.45228 426,376.74716 426,1260.304 c 0,642.1152 -0.30476,890.0207 -1.09801,893.1709 -1.84014,7.3079 -3.64072,8.23 -16.90199,8.6558 -6.325,0.2031 -62.35,0.1443 -124.5,-0.1307 z m 124,-14.5 c 2.47743,-1.2387 4.66553,-3.3322 5.74845,-5.5 1.65664,-3.3162 1.74823,-26.5499 1.74442,-442.5 -0.003,-292.9267 -0.34061,-440.2118 -1.01556,-442.6418 -0.55635,-2.0029 -1.72047,-4.2301 -2.58693,-4.9492 -2.43622,-2.0219 -9.58375,2.2793 -17.87864,10.7588 -8.75666,8.9516 -10.7719,9.6098 -28.0666,9.1666 l -13.04829,-0.3344 -6.4824,-4.2267 c -3.56532,-2.3247 -7.9139,-4.7258 -9.66352,-5.3357 -2.4574,-0.8566 -4.32657,-3.0121 -8.21602,-9.4747 L 323,1244.0972 v -16.6556 c 0,-16.4276 0.0409,-16.7414 2.98776,-22.916 4.2685,-8.9438 14.7986,-18.7618 22.14559,-20.6479 8.65578,-2.2221 26.5873,-1.5273 37.04561,1.4354 11.81068,3.3459 16.69123,6.2157 20.32104,11.9491 1.72798,2.7294 3.63601,4.6266 4.5,4.4745 0.825,-0.1452 2.175,-2.0579 3,-4.2504 1.32246,-3.5145 1.53484,-51.6866 1.79435,-406.9863 0.20144,-275.80531 -0.0326,-404.13219 -0.74137,-406.5872 -0.56964,-1.97296 -1.98674,-4.44796 -3.14912,-5.5 -2.05123,-1.85653 -5.42911,-1.92065 -114.81981,-2.17948 l -112.70641,-0.26668 -4.35996,2.30561 c -2.39798,1.26808 -5.19397,3.42267 -6.21332,4.78797 -1.80075,2.41192 -1.85251,24.19709 -1.82369,767.61188 0.0163,420.8213 0.31046,766.5336 0.65366,768.2496 0.3432,1.7159 0.98736,3.3445 1.43147,3.619 0.4441,0.2744 3.41988,-0.7474 6.61284,-2.2708 3.95593,-1.8875 6.67574,-4.0442 8.53748,-6.7699 1.50266,-2.2 5.16891,-6.7 8.14722,-10 l 5.41509,-6 19.36079,-0.3195 c 26.74521,-0.4414 26.22111,-0.5624 35.17892,8.123 5.62849,5.4573 8.47169,9.2507 11.76467,15.6965 3.86197,7.5596 4.33336,9.2192 4.26055,15 -0.0861,6.8348 -4.27126,25.9384 -6.89283,31.463 -1.86021,3.9201 -12.62732,11.5299 -21.29951,15.0538 -12.30459,4.9998 -33.49536,2.5455 -41.96422,-4.8602 -2.02774,-1.7732 -5.42866,-4.5107 -7.55761,-6.0833 -2.45303,-1.8121 -4.78795,-4.8627 -6.37479,-8.3288 -2.21924,-4.8475 -3.13315,-5.7575 -8.0368,-8.0024 -9.54615,-4.3704 -8.68054,-13.194 -8.98711,91.6101 l -0.26952,92.1346 3.26952,3.4436 c 1.79823,1.8939 5.06951,4.3778 7.26951,5.5197 3.98667,2.0692 4.36331,2.0753 113,1.813 106.7259,-0.2576 109.08345,-0.3048 113,-2.2631 z M 272.1287,1801.1042 c -5.15421,-1.5921 -10.55421,-3.7596 -12,-4.8165 -1.44578,-1.0569 -4.2037,-4.8581 -6.1287,-8.4471 -1.925,-3.589 -4.7375,-7.9809 -6.25,-9.7598 -2.67396,-3.1448 -2.75,-3.5726 -2.75,-15.4704 0,-12.1364 0.0232,-12.2584 2.83914,-14.9563 1.56153,-1.496 4.49192,-6.0196 6.51198,-10.0523 3.07468,-6.1381 4.6731,-8.0463 9.81474,-11.717 3.37805,-2.4116 7.68768,-5.7041 9.57695,-7.3165 3.21174,-2.7411 4.19311,-2.9827 15.09612,-3.7176 13.15411,-0.8865 17.40105,-0.1487 23.61784,4.1029 2.22378,1.5208 5.61823,3.5561 7.54323,4.5227 4.90042,2.4609 7.86681,5.3731 10.21017,10.0237 1.10854,2.2 2.87251,4.9373 3.91993,6.0828 2.15839,2.3606 4.82651,13.6319 4.85254,20.4992 0.0108,2.845 -1.49356,8.8176 -3.96812,15.7546 -5.79564,16.247 -8.43319,21.0226 -12.56417,22.7486 -7.38552,3.0859 -15.47518,4.5209 -27.95035,4.9582 -12.20188,0.4277 -13.57534,0.2779 -22.3713,-2.4392 z m -7.9323,-162.5498 c -3.46697,-1.2878 -7.29197,-3.1621 -8.5,-4.1652 -6.48523,-5.3849 -10.00128,-9.3147 -11.64177,-13.0116 -1.00611,-2.2673 -3.43617,-5.901 -5.40014,-8.0749 -1.96397,-2.1739 -4.03967,-5.1856 -4.61267,-6.6927 -1.58008,-4.1559 -1.27279,-41.2169 0.38013,-45.8481 4.56965,-12.8032 18.94397,-29.078 28.46705,-32.2308 2.96396,-0.9813 7.84715,-3.0772 10.85155,-4.6576 5.21915,-2.7455 6.05324,-2.8735 18.72007,-2.8735 14.17759,0 14.15163,-0.01 27.03938,7.3233 1.65,0.9385 5.56881,2.625 8.70846,3.7478 4.82481,1.7255 6.79141,3.2685 12.70446,9.9678 8.17243,9.2593 10.5517,15.3064 12.34442,31.3745 2.02265,18.1289 -1.58798,34.6107 -9.38225,42.828 -4.61013,4.8604 -16.73118,17.8571 -18.67845,20.0278 -3.35324,3.7381 -10.40202,4.7336 -33.12814,4.6787 -20.08411,-0.048 -22.00233,-0.2132 -27.8721,-2.3935 z M 267.5,1444.8423 c -3.74092,-2.0517 -11.65441,-10.3284 -13.71292,-14.3423 -1.12826,-2.2 -3.50759,-5.6231 -5.28741,-7.607 -2.69292,-3.0016 -3.35485,-4.7164 -3.94393,-10.2171 -1.05373,-9.8396 0.11734,-17.4436 3.41528,-22.1759 1.53318,-2.2 4.12958,-6.9623 5.76978,-10.5828 2.28264,-5.0387 3.89432,-7.1362 6.87069,-8.9419 2.13868,-1.2975 5.86673,-4.0748 8.28456,-6.1718 5.77647,-5.01 12.14523,-6.8035 24.15972,-6.8035 10.71663,0 15.5581,1.2695 22.20521,5.8227 2.33146,1.597 6.06061,3.828 8.28699,4.9577 4.30693,2.1855 4.72818,2.8459 11.49836,18.0248 3.34932,7.5093 4.24433,10.7904 4.6372,17 0.45215,7.1465 0.27165,8.0867 -2.53319,13.1948 -1.66102,3.025 -4.81972,9.1565 -7.01935,13.6256 -6.9247,14.0693 -10.36742,15.3879 -40.06249,15.344 -12.98393,-0.019 -21.30599,-0.4349 -22.5685,-1.1273 z m 20.30449,-353.3588 c -0.38253,-0.3893 -5.02252,-1.0351 -10.31108,-1.4351 l -9.61558,-0.7273 -6.52136,-6.4105 c -4.74262,-4.6621 -7.77677,-8.8654 -11.12402,-15.4106 -4.34196,-8.4903 -4.62676,-9.5445 -5.02838,-18.6137 l -0.42573,-9.6136 5.63559,-11.0175 c 4.30848,-8.423 6.5319,-11.6387 9.44183,-13.6552 2.09343,-1.4508 5.10113,-3.9893 6.68376,-5.6412 1.94578,-2.031 5.48133,-3.8378 10.919,-5.5801 7.00053,-2.243 9.14179,-2.4995 16.54148,-1.9817 10.51429,0.7358 16.7542,2.5884 24.5,7.2737 8.86805,5.3641 10.27792,6.9531 15.00272,16.9085 5.2794,11.124 6.48452,15.3049 6.4917,22.5216 0.007,6.8871 -1.34446,11.0599 -5.47269,16.8992 -1.74975,2.475 -3.78651,6.075 -4.52614,8 -3.86507,10.0594 -10.45384,14.6664 -23.83844,16.6681 -15.97348,2.3889 -17.62824,2.5526 -18.35266,1.8154 z M 267.00714,926.44908 c -1.92107,-0.85622 -4.44291,-2.44929 -5.60408,-3.54015 -1.16117,-1.09086 -4.98938,-3.42914 -8.50714,-5.19616 -5.84356,-2.93531 -6.69932,-3.78997 -9.9091,-9.89623 -1.93224,-3.67591 -4.46351,-7.72591 -5.62503,-9 -4.54984,-4.9908 -4.73078,-6.17699 -4.47187,-29.31654 0.28351,-25.33724 0.2738,-25.29999 9.7714,-37.5 4.6804,-6.01215 7.09241,-8.13635 12.15853,-10.70774 3.47592,-1.76426 7.85305,-4.5539 9.72696,-6.19921 3.80316,-3.33922 17.00675,-7.95215 23.73145,-8.29105 7.99834,-0.40308 26.33212,4.70567 38.13221,10.62562 6.00076,3.0105 11.28619,6.05835 11.7454,6.77301 0.45921,0.71465 1.70733,3.59947 2.77361,6.4107 1.06627,2.81123 3.33409,7.31123 5.03959,10 1.7055,2.68877 4.25464,8.48867 5.66474,12.88867 2.20419,6.87783 2.48864,9.19231 2.02782,16.5 -0.87393,13.85884 -3.09634,21.31738 -9.8877,33.18376 -5.28875,9.24089 -6.74058,11.0245 -10.75011,13.20676 -2.54957,1.38765 -5.51043,3.49034 -6.5797,4.67265 -1.06927,1.18231 -3.74412,3.11263 -5.94412,4.2896 -3.70672,1.98306 -5.68634,2.15877 -27,2.39651 -19.05517,0.21256 -23.59908,-0.0104 -26.49286,-1.3002 z M 268,747.71459 c -12.41775,-6.18887 -22.5756,-15.23898 -26.1321,-23.28233 -1.19948,-2.71274 -3.68546,-7.12026 -5.52439,-9.79447 L 233,709.77558 l 0.0164,-18.63779 c 0.0158,-17.92002 0.10946,-18.79184 2.43152,-22.63779 1.32829,-2.2 4.05798,-7.002 6.06597,-10.67111 2.24982,-4.11101 5.08543,-7.66525 7.38902,-9.26164 2.05597,-1.42479 4.73937,-3.94477 5.96309,-5.59994 1.43863,-1.94586 6.00264,-4.85738 12.91418,-8.23836 l 10.68923,-5.22895 15.51527,0.004 c 12.41607,0.003 16.11452,0.32837 18.51527,1.62829 12.54456,6.79242 15.93698,9.19241 23.05681,16.31166 15.92139,15.92008 17.60625,19.94875 17.79778,42.55615 0.20096,23.72203 -2.58174,30.6351 -18.71756,46.5 -4.95249,4.86934 -9.70942,8.33852 -15.62828,11.39753 l -8.50875,4.39753 -16,0.32631 -16,0.32631 -10.5,-5.23309 z M 399.5,363.85924 c 8.59751,-1.35689 13.077,-3.54175 17.65845,-8.61286 2.55555,-2.82869 3.69793,-5.1819 4.16309,-8.57562 0.35259,-2.57243 1.5746,-6.50701 2.71557,-8.7435 1.36727,-2.68008 2.33943,-7.20637 2.85163,-13.27702 0.49184,-5.82924 1.39809,-10.15836 2.46852,-11.79205 3.25666,-4.97029 8.6058,-22.34282 10.16183,-33.00283 0.2926,-2.00456 1.87051,-5.32893 3.50646,-7.38751 3.83055,-4.82012 3.92608,-8.79813 0.26882,-11.1948 -2.55351,-1.67336 -10.81147,-1.78874 -146.87431,-2.05205 -136.14007,-0.26346 -144.43433,-0.17993 -148.93895,1.5 -6.79126,2.53269 -7.34249,3.90942 -4.13916,10.33768 1.83136,3.67507 2.65805,6.91817 2.65805,10.42757 0,6.49894 2.26881,15.27727 6.04554,23.39096 1.63264,3.50746 3.88054,10.85298 4.99533,16.32337 1.53404,7.52765 2.83583,11.12213 5.35362,14.78235 2.52442,3.66987 3.49815,6.36529 4.03756,11.17663 0.78771,7.02595 3.28174,13.54647 6.05881,15.84044 1.57714,1.30279 14.5817,1.56574 98.91251,2 107.46019,0.55337 117.95443,0.45991 128.09663,-1.14076 z M 446.26922,245.6263 c 1.4087,-1.30554 3.59841,-4.34304 4.86604,-6.75 2.28478,-4.33834 2.30617,-4.71892 2.46583,-43.8763 0.43844,-107.529411 0.33661,-139.798631 -0.4515,-143.074808 -0.99088,-4.119094 -5.32587,-11.869764 -7.98457,-14.275852 -1.66888,-1.51031 -14.07014,-1.646983 -152.00392,-1.675213 -97.64015,-0.01998 -150.83645,0.316943 -152.0436,0.96299 -2.73392,1.463148 -5.19136,7.379289 -6.19629,14.917164 C 134.43392,55.509426 134.1398,98.775 134.26761,148 c 0.21656,83.4025 0.35383,89.77251 2.01498,93.5 0.98042,2.2 2.52893,4.5625 3.44113,5.25 1.30981,0.98717 33.44233,1.25 152.82139,1.25 H 443.70795 Z M 45.929349,1626.6326 c -9.119331,-2.4588 -24.092658,-13.3859 -26.615048,-19.4228 -2.065827,-4.9442 -2.995269,-33.701 -1.348093,-41.7098 1.151051,-5.5966 1.74842,-6.4902 8.883911,-13.2899 C 39.06576,1540.5693 39.264794,1540.5 60.5,1540.5 c 17.410762,0 18.186086,0.087 23.684535,2.666 8.212883,3.8518 16.029565,11.8986 18.781135,19.334 4.3734,11.818 5.06228,24.7501 1.73195,32.5133 -0.82265,1.9177 -2.32325,5.5117 -3.33466,7.9867 -1.984811,4.857 -18.936648,22.4943 -23.17806,24.1152 -3.404699,1.3012 -26.946137,0.949 -32.255551,-0.4826 z M 45.465302,734.11915 c -4.969083,-2.54053 -11.07804,-6.04923 -13.575458,-7.7971 -5.106898,-3.57418 -12.64919,-12.99614 -13.902977,-17.36784 -1.178363,-4.10871 -1.166752,-33.7327 0.01566,-39.96756 0.858492,-4.52681 1.836472,-6.06537 7.284667,-11.46021 7.594951,-7.52058 7.945489,-7.71792 19.460188,-10.95541 12.027103,-3.38157 17.333601,-3.22947 31.252613,0.89578 11.059389,3.27772 11.682807,3.61185 16.271274,8.72075 6.69963,7.45951 9.642441,12.71479 12.366211,22.08354 2.99329,10.29582 2.96708,14.41894 -0.16026,25.21073 -3.21485,11.09376 -4.560864,13.62706 -11.284282,21.23783 -5.488836,6.21325 -7.661899,7.43028 -15.691538,8.78808 -2.199228,0.37189 -6.573168,1.75978 -9.719868,3.08421 -7.991329,3.3635 -11.705939,2.9519 -22.316235,-2.4728 z"
       id="path8377" />
  </g>
</svg>
