<?xml version="1.0" encoding="UTF-8" standalone="no"?>
<!-- Created with Inkscape (http://www.inkscape.org/) -->

<svg
   version="1.1"
   id="svg3875"
   width="515"
   height="2340"
   viewBox="0 0 515 2340"
   sodipodi:docname="c#+.svg"
   inkscape:version="1.1.1 (3bf5ae0d25, 2021-09-20)"
   xmlns:inkscape="http://www.inkscape.org/namespaces/inkscape"
   xmlns:sodipodi="http://sodipodi.sourceforge.net/DTD/sodipodi-0.dtd"
   xmlns="http://www.w3.org/2000/svg"
   xmlns:svg="http://www.w3.org/2000/svg">
  <defs
     id="defs3879" />
  <sodipodi:namedview
     id="namedview3877"
     pagecolor="#ffffff"
     bordercolor="#666666"
     borderopacity="1.0"
     inkscape:pageshadow="2"
     inkscape:pageopacity="0.0"
     inkscape:pagecheckerboard="0"
     showgrid="false"
     inkscape:zoom="0.33418803"
     inkscape:cx="-86.777494"
     inkscape:cy="1170"
     inkscape:window-width="1920"
     inkscape:window-height="986"
     inkscape:window-x="-11"
     inkscape:window-y="-11"
     inkscape:window-maximized="1"
     inkscape:current-layer="g3881" />
  <g
     inkscape:groupmode="layer"
     inkscape:label="Image"
     id="g3881">
    <path
       style="fill:#000000"
       d="m 298.24138,2326.6748 c -5.94939,-3.3041 -6.92457,-8.6982 -4.82245,-26.6748 0.86825,-7.425 1.57919,-15.4125 1.57986,-17.75 L 295,2278 h -22.25 c -20.29034,0 -22.53146,-0.1754 -25.44574,-1.9523 -4.02262,-2.4528 -5.25438,-7.6073 -3.20358,-13.4061 2.86492,-8.1008 10.51864,-10.6371 26.67707,-8.8404 5.94791,0.6614 13.83116,1.2025 17.51832,1.2025 H 295 l 0.006,-16.25 c 0.006,-17.3314 0.90258,-22.8326 4.34027,-26.6289 4.58513,-5.0635 13.51786,-6.6735 17.79337,-3.2071 2.34736,1.9032 2.36078,2.0352 2.36078,23.2331 v 21.3189 l 11.5,-0.3173 c 8.6066,-0.2376 12.60128,-0.7994 15.87712,-2.2331 6.12912,-2.6824 13.28954,-2.5383 16.61947,0.3344 4.448,3.8373 5.41928,13.8341 1.89117,19.4648 -2.69265,4.2974 -4.96956,4.7622 -25.88776,5.2852 l -20,0.5 v 21.5 c 0,23.3379 -0.54868,26.2016 -5.5,28.706 -3.20043,1.6188 -12.82187,1.5997 -15.75862,-0.031 z M 186.56502,2166.4921 c -1.13576,-0.5543 -2.86708,-2.6447 -3.84737,-4.6453 -1.70527,-3.4801 -1.79176,-42.3667 -2,-899.1939 L 180.5,367.0964 l -3.82599,-3.91818 c -4.0215,-4.1184 -5.6086,-8.57421 -5.65015,-15.86284 -0.0403,-7.07018 -2.88375,-18.24992 -6.53889,-25.70937 -2.8004,-5.71509 -3.77671,-9.39119 -4.98782,-18.78068 -1.64691,-12.76814 -1.78788,-13.26395 -5.63699,-19.82533 -1.45191,-2.475 -3.42397,-8.1 -4.38235,-12.5 -1.60177,-7.35383 -1.73559,-17.05138 -1.65684,-120.06212 0.0552,-72.228249 0.44186,-112.998973 1.08771,-114.697703 0.55113,-1.449569 2.11901,-3.36744 3.48418,-4.261936 2.26782,-1.485932 16.38903,-1.617174 163.54701,-1.520004 88.58568,0.0585 161.63599,0.32551 162.33402,0.593368 4.32674,1.660327 4.20962,-1.470653 4.52407,120.948395 0.16387,63.8 0.0431,117.39781 -0.26835,119.10625 -0.31147,1.70844 -1.90735,5.13088 -3.54642,7.60541 -1.63906,2.47454 -3.40538,6.74157 -3.92515,9.4823 -0.51977,2.74072 -1.61165,6.74329 -2.42641,8.89459 -0.81476,2.1513 -1.66955,7.35138 -1.89953,11.55574 -0.33354,6.09743 -0.98806,8.61676 -3.23451,12.45003 -1.54899,2.64316 -3.36929,7.52822 -4.04511,10.85571 -0.67582,3.32748 -2.1791,8.62623 -3.34062,11.77499 -1.16152,3.14876 -2.11186,6.76393 -2.11186,8.03372 0,1.26979 -1.575,4.75335 -3.5,7.74126 l -3.5,5.43256 -0.003,430.53372 c -0.002,236.79352 -0.11426,640.45872 -0.25,897.03372 -0.26236,495.888 -0.0209,471.4708 -4.6871,473.968 -0.95146,0.5093 -7.76663,0.9529 -15.14482,0.986 -131.07338,0.5875 -242.63196,0.3766 -244.34987,-0.4619 z m 242.09124,-12.5245 c 6.00199,-1.246 9.88687,-4.9182 10.84051,-10.247 0.317,-1.7713 0.44741,-201.6706 0.28979,-444.2206 -0.25283,-389.0908 -0.46312,-441.4692 -1.78656,-444.9863 -1.97101,-5.2381 -4.19311,-5.5553 -7.00816,-1.0005 -2.22947,3.6074 -9.2607,9.8575 -18.54729,16.4868 -9.21739,6.5799 -10.60511,6.9548 -25.44455,6.8741 -7.425,-0.04 -14.46908,-0.3661 -15.6535,-0.7238 -3.09317,-0.9341 -16.35307,-13.9095 -19.60078,-19.1803 -1.51486,-2.4585 -4.21486,-6.495 -6,-8.97 -2.90763,-4.0313 -3.28164,-5.3397 -3.59058,-12.561 -0.40858,-9.5507 1.24157,-16.0116 6.19324,-24.2486 1.88143,-3.1297 4.61884,-8.2535 6.08314,-11.3861 2.47508,-5.2951 3.06353,-5.8467 8.36542,-7.8426 10.72224,-4.0363 17.39062,-4.9062 30.5668,-3.9877 15.68344,1.0933 20.73437,2.8548 24.69571,8.6124 1.6588,2.411 3.96395,4.8909 5.12256,5.511 1.15861,0.6201 4.01192,2.8837 6.34068,5.0303 2.68958,2.4791 4.808,3.6826 5.80735,3.2991 4.31927,-1.6574 4.16996,13.2239 4.16996,-415.59621 v -407.6694 l -2.33469,-2.48519 c -1.28407,-1.36686 -3.83919,-2.76744 -5.67803,-3.11241 -6.25558,-1.17355 -232.22412,-0.7748 -234.44487,0.41371 -1.12333,0.60119 -2.82991,2.29494 -3.79241,3.7639 -1.66331,2.53853 -1.75,46.19048 -1.75,881.2148 0,843.855 0.071,878.6741 1.79855,881.8382 3.94759,7.2304 -5.20218,6.7306 118.74688,6.4869 75.94511,-0.1493 113.01413,-0.5669 116.61083,-1.3135 z M 237.85289,1988.9234 c -12.9783,-1.3757 -18.44316,-4.9268 -26.64586,-17.3147 -5.99933,-9.0604 -7.03709,-12.2808 -7.12439,-22.1087 -0.1483,-16.6965 2.40381,-23.1615 15.12166,-38.3062 7.73676,-9.2131 7.68807,-9.1977 28.99604,-9.1699 10.06481,0.013 19.97688,0.4134 22.0268,0.8895 2.60454,0.6049 5.53925,2.7061 9.74348,6.9761 3.30898,3.3608 6.4085,6.1105 6.88782,6.1105 0.47933,0 2.37642,3.4516 4.21578,7.6702 3.64257,8.3544 3.96379,12.0065 2.49169,28.3298 -0.70078,7.7706 -3.33893,16.6832 -7.13529,24.1057 -1.5399,3.0107 -12.72452,9.9939 -19.71557,12.3094 -5.15938,1.7089 -15.77208,1.8958 -28.86216,0.5083 z m 24.26159,-12.5859 c 2.07164,-0.8289 4.53978,-2.7064 5.48475,-4.1723 0.94498,-1.4659 3.51153,-4.2182 5.70346,-6.1164 5.16511,-4.4728 8.69731,-12.389 8.69731,-19.4919 0,-8.409 -4.86378,-19.9713 -11.31869,-26.9072 l -5.25796,-5.6497 -13.46167,0.01 c -20.35635,0.01 -23.79384,1.5563 -27.88686,12.557 -1.21502,3.2656 -3.64141,7.4261 -5.39197,9.2456 -2.93311,3.0486 -3.18271,3.8349 -3.18101,10.0216 0.002,6.1634 0.2885,7.075 3.5,11.1241 8.0302,10.1248 18.57747,20.2124 22.04067,21.0802 4.56532,1.144 16.34257,0.1957 21.07197,-1.6966 z m 30.91396,-169.4098 c -7.39809,-3.3558 -11.08193,-6.7965 -13.72364,-12.8178 -1.35365,-3.0855 -3.78352,-6.9891 -5.3997,-8.6747 -1.61618,-1.6857 -3.38099,-4.6077 -3.9218,-6.4934 -1.40694,-4.9057 -1.18535,-19.4504 0.39889,-26.1826 1.22113,-5.1891 2.22034,-6.6305 10.39824,-15 4.97601,-5.0925 10.23998,-10.7085 11.69771,-12.4799 3.59082,-4.3636 7.63118,-5.2672 23.58069,-5.2737 l 13.55883,-0.01 5.94117,3.6124 c 3.26764,1.9869 7.82467,4.4334 10.12673,5.4369 5.27299,2.2984 6.30721,3.9654 10.72282,17.2836 3.26141,9.837 3.59155,11.8597 3.59081,22 -10e-4,16.2851 -3.11852,23.358 -14.28944,32.4215 -8.62264,6.9959 -13.68946,8.2521 -33.16985,8.2236 -12.94348,-0.019 -15.66319,-0.3047 -19.51146,-2.0503 z m -0.83104,-162.4865 c -6.61817,-1.7812 -7.59306,-2.3082 -15.9253,-8.6087 -7.90881,-5.9803 -7.88135,-5.9451 -14.32351,-18.3339 L 257,1607.982 l 0.004,-22.241 c 0.003,-19.9328 0.19668,-22.5523 1.86286,-25.241 3.64603,-5.8834 21.98443,-24.1238 27.96433,-27.8148 8.83998,-5.4563 13.44472,-6.8034 25.34254,-7.4137 12.55671,-0.6441 17.94529,0.4446 25.82058,5.2164 3.02827,1.8349 8.43095,4.3094 12.00595,5.4988 9.23824,3.0737 10.84553,4.396 14.11895,11.6154 1.60092,3.5307 4.47908,8.4741 6.39591,10.9853 2.88915,3.785 3.48514,5.4071 3.48514,9.4852 0,2.7057 0.97532,7.7337 2.16737,11.1734 2.64916,7.6442 2.60603,14.7178 -0.13207,21.6644 -1.11941,2.84 -2.0353,6.6927 -2.0353,8.5615 0,1.8689 -0.48051,4.6647 -1.06781,6.213 -1.00561,2.6511 -7.44982,10.0159 -12.8681,14.7064 -1.33975,1.1598 -4.50491,4.2614 -7.03368,6.8924 -4.37412,4.5511 -5.05822,4.8788 -14.06409,6.7369 -11.79047,2.4327 -38.40387,2.672 -46.76892,0.4206 z m -2.25162,-196.3068 c -5.75672,-3.7105 -8.98638,-7.248 -13.3611,-14.6344 -6.74275,-11.3847 -6.87147,-11.8759 -6.94469,-26.5 -0.076,-15.1676 -0.0196,-15.3447 7.37535,-23.1822 2.75963,-2.9248 5.34762,-5.6729 5.75108,-6.1069 1.21206,-1.3037 13.44441,-9.4917 17.73358,-11.8703 3.5112,-1.9472 5.52751,-2.2258 16.5,-2.2794 13.61604,-0.067 14.04112,0.06 28.81236,8.5714 5.69022,3.2788 5.98601,3.7473 11.17939,17.7075 2.70531,7.2721 3.15008,9.8974 3.47305,20.5 l 0.37041,12.1599 -3.6676,7.362 c -2.32624,4.6694 -4.94768,8.3046 -7.16761,9.9394 -1.925,1.4175 -5.075,4.0403 -7,5.8284 -1.925,1.7881 -4.76679,3.7279 -6.3151,4.3107 -1.6345,0.6152 -11.09329,1.0595 -22.55422,1.0595 H 294.39156 Z M 311,1098.4712 c -2.29714,-1.5808 -6.03727,-2.7682 -10.88278,-3.4551 -7.00658,-0.9932 -7.69451,-1.332 -13.5,-6.6481 -3.36447,-3.0808 -7.24222,-7.4784 -8.61722,-9.7725 -1.375,-2.2941 -3.49875,-5.5542 -4.71943,-7.2447 -3.05108,-4.2254 -4.67909,-15.5618 -3.9198,-27.295 l 0.61116,-9.4442 5.26404,-5.4008 c 2.89521,-2.9705 6.59383,-6.5956 8.21915,-8.0558 1.62531,-1.4603 4.57973,-4.3639 6.56537,-6.4526 2.74667,-2.8892 5.45756,-4.3842 11.33298,-6.25 4.2475,-1.3488 9.3181,-2.4524 11.26801,-2.4524 6.10588,0 19.64228,3.9639 25.37852,7.4317 3.025,1.8287 7.34654,4.2552 9.60343,5.3921 3.13959,1.5817 4.5991,3.1958 6.21364,6.8718 1.16062,2.6424 3.02361,6.1544 4.13998,7.8044 1.83012,2.7049 2.02977,4.5738 2.02977,19 0,14.4104 -0.20114,16.298 -2.02465,19 -1.11356,1.65 -2.74892,4.4879 -3.63414,6.3064 -0.88521,1.8186 -3.23366,4.4913 -5.21876,5.9394 -1.9851,1.4481 -5.21544,4.1346 -7.17853,5.97 -2.81945,2.6361 -4.89968,3.5514 -9.9024,4.357 -6.59709,1.0625 -8.91603,1.9741 -12.9132,5.0763 -3.01688,2.3414 -3.82584,2.2738 -8.11514,-0.6779 z M 293.03866,931.86784 c -1.90374,-0.569 -5.05374,-2.27459 -7,-3.79018 -1.94626,-1.5156 -5.93485,-4.04295 -8.86352,-5.61632 -3.86032,-2.07389 -6.03905,-4.11221 -7.92151,-7.41101 C 267.82547,912.54765 265.22558,908.7 263.47609,906.5 257.03322,898.39801 257,898.22963 257,873.67539 c 0,-17.1022 0.34646,-23.40591 1.45987,-26.56164 1.04689,-2.96721 4.87521,-7.56985 13.53316,-16.27042 l 12.0733,-12.13271 8.71684,-2.42337 c 22.51994,-6.26076 18.62455,-6.00056 34.53698,-2.30691 7.79892,1.81031 15.75485,4.0973 17.67985,5.08219 4.06762,2.08113 21.22593,20.11466 25.24574,26.53349 3.25445,5.1967 7.75426,23.16149 7.75426,30.9577 0,2.95701 -0.62552,7.30461 -1.39005,9.66133 -0.76453,2.35672 -2.33965,7.50519 -3.50026,11.44103 -1.98035,6.71571 -2.79262,7.88494 -13.1995,19 -15.14996,16.18091 -14.0958,15.77271 -41.41019,16.03503 -12.92286,0.12411 -23.42814,-0.21557 -25.46134,-0.82327 z m 5.85211,-176.713 c -2.96492,-1.56484 -8.55111,-4.04014 -12.41374,-5.50067 -8.49386,-3.21168 -13.60573,-7.24146 -17.09691,-13.47779 -1.43985,-2.57201 -4.41437,-6.30668 -6.61004,-8.29928 -5.18957,-4.70956 -5.67187,-7.39705 -5.72653,-31.90917 -0.0509,-22.82746 0.70704,-26.77413 6.8891,-35.87241 6.87638,-10.12014 11.05802,-14.19611 17.63428,-17.18864 3.33681,-1.51843 6.67903,-3.49832 7.42716,-4.39976 3.32562,-4.00712 6.37943,-4.55658 25.57671,-4.60185 20.31485,-0.0479 18.00259,-0.56254 31.9292,7.10631 5.83367,3.21238 18.5,15.01775 18.5,17.24252 0,0.60856 1.87927,3.99087 4.17615,7.51626 7.09089,10.88352 10.85153,28.80688 7.74533,36.91454 -0.59319,1.54831 -2.10851,6.6401 -3.36739,11.3151 -1.25888,4.675 -4.27018,12.1 -6.69179,16.5 -4.12197,7.48952 -4.90135,8.29962 -12.21403,12.69556 -4.2961,2.58256 -10.67244,5.64776 -14.16962,6.81155 -3.49719,1.16378 -8.02243,3.43828 -10.05609,5.05443 -3.59512,2.85704 -4.0085,2.93846 -14.9193,2.93846 -10.40306,0 -11.615,-0.20757 -16.61249,-2.84516 z M 424.33308,368.84983 c 10.86614,-1.39352 13.11705,-3.07254 16.57277,-12.36212 1.22509,-3.29324 3.32074,-7.86493 4.657,-10.15931 2.94854,-5.06268 5.04041,-13.75508 6.25573,-25.99458 0.84359,-8.49582 1.184,-9.50038 4.65453,-13.7357 3.22741,-3.93863 3.86365,-5.57246 4.60823,-11.83382 0.86308,-7.25778 2.64401,-14.51534 4.9978,-20.36684 1.52493,-3.79093 0.87055,-5.72905 -2.7312,-8.08919 -2.62344,-1.71908 -9.69152,-1.8228 -143.30374,-2.1028 -77.29931,-0.16199 -142.45456,-0.0222 -144.78945,0.31056 -2.36409,0.33696 -5.57671,1.72545 -7.25,3.13342 -3.84782,3.23773 -3.99651,8.05449 -0.50475,16.35055 1.59601,3.79194 2.50202,7.84902 2.50558,11.21987 0.007,7.07035 1.43884,11.80602 4.87552,16.13051 1.87209,2.35572 3.08269,5.31899 3.5201,8.61638 0.36669,2.76422 1.49281,6.95308 2.5025,9.30858 1.00969,2.35551 2.35661,6.71123 2.99317,9.67937 0.63655,2.96815 2.44085,7.68008 4.00955,10.47096 1.5687,2.79088 3.60385,7.39524 4.52255,10.2319 0.9187,2.83666 2.74126,6.31308 4.05013,7.72538 l 2.37977,2.56781 108.16533,0.0358 c 77.05398,0.0255 110.79527,-0.30143 117.30888,-1.13677 z m 42.07941,-117.777 c 0.94566,-0.78494 2.47721,-2.80994 3.40345,-4.5 C 471.36131,243.75307 471.5,235.67611 471.5,148.5 c 0,-89.867486 -0.0994,-95.257776 -1.84084,-99.771295 -3.4741,-9.004545 11.41952,-8.192536 -155.9356,-8.5017 L 165.94712,39.95401 163.6012,42.485305 c -5.13344,5.539075 -5.10738,4.993872 -5.01929,105.014695 0.086,97.60867 0.15671,99.23862 4.49591,103.57782 1.94803,1.94803 3.81831,1.96894 151.79381,1.69725 128.01947,-0.23504 150.07168,-0.48275 151.54086,-1.70224 z M 70.441156,1633.1399 c -6.378464,-0.8314 -8.914817,-2.5148 -18.896565,-12.5422 -6.425771,-6.4552 -8.438758,-9.2133 -9.92407,-13.5977 -1.024788,-3.025 -2.821136,-6.85 -3.991886,-8.5 -2.864794,-4.0375 -2.772261,-14.5409 0.204022,-23.1586 5.833495,-16.8905 5.727244,-16.7125 12.931881,-21.666 10.717526,-7.3688 15.842472,-8.6835 33.642012,-8.6303 9.514917,0.028 16.0926,0.4904 17.79678,1.25 5.21659,2.3251 19.51679,15.4937 21.64207,19.9295 3.48604,7.2759 4.7166,16.7518 3.28322,25.2823 -0.68214,4.0596 -0.9537,8.9086 -0.60347,10.7755 0.83105,4.4299 -1.5351,10.078 -6.32398,15.0955 -5.86692,6.1471 -17.53135,13.3515 -23.480057,14.5023 -7.334792,1.419 -20.292764,2.0401 -26.279957,1.2597 z m 3.871415,-892.23471 c -2.303086,-1.05947 -6.353086,-2.18379 -9,-2.49851 -7.425668,-0.88291 -9.554061,-2.05042 -14.984312,-8.2195 -6.09202,-6.92089 -7.140372,-8.91784 -11.308661,-21.54121 -3.849578,-11.65818 -4.174254,-17.56514 -1.274589,-23.18914 1.146534,-2.22375 2.744998,-6.57209 3.552142,-9.66298 1.77263,-6.78814 2.499336,-7.84104 10.373946,-15.03055 6.771123,-6.18202 12.771892,-8.61977 27.517325,-11.17864 8.393772,-1.45663 8.755704,-1.40975 22.752238,2.94723 8.11449,2.52596 10.04998,3.57297 13.77831,7.45344 6.62901,6.89951 9.14925,11.06269 10.31899,17.04591 1.36302,6.97187 1.31426,31.91216 -0.0695,35.55176 -2.24582,5.90697 -19.02086,23.45071 -24.33367,25.44874 -1.724124,0.6484 -5.243192,2.03152 -7.820151,3.07359 -5.943618,2.40348 -14.02246,2.32057 -19.502048,-0.20014 z"
       id="path3960" />
  </g>
</svg>
