<?xml version="1.0" encoding="UTF-8" standalone="no"?>
<!-- Created with Inkscape (http://www.inkscape.org/) -->

<svg
   version="1.1"
   id="svg5616"
   width="515"
   height="2340"
   viewBox="0 0 515 2340"
   sodipodi:docname="d#+.svg"
   inkscape:version="1.1.1 (3bf5ae0d25, 2021-09-20)"
   xmlns:inkscape="http://www.inkscape.org/namespaces/inkscape"
   xmlns:sodipodi="http://sodipodi.sourceforge.net/DTD/sodipodi-0.dtd"
   xmlns="http://www.w3.org/2000/svg"
   xmlns:svg="http://www.w3.org/2000/svg">
  <defs
     id="defs5620" />
  <sodipodi:namedview
     id="namedview5618"
     pagecolor="#ffffff"
     bordercolor="#666666"
     borderopacity="1.0"
     inkscape:pageshadow="2"
     inkscape:pageopacity="0.0"
     inkscape:pagecheckerboard="0"
     showgrid="false"
     inkscape:zoom="0.33418803"
     inkscape:cx="-86.777494"
     inkscape:cy="1170"
     inkscape:window-width="1920"
     inkscape:window-height="986"
     inkscape:window-x="-11"
     inkscape:window-y="-11"
     inkscape:window-maximized="1"
     inkscape:current-layer="g5622" />
  <g
     inkscape:groupmode="layer"
     inkscape:label="Image"
     id="g5622">
    <path
       style="fill:#000000"
       d="m 298.24138,2326.6748 c -5.94939,-3.3041 -6.92457,-8.6982 -4.82245,-26.6748 0.86825,-7.425 1.57919,-15.4125 1.57986,-17.75 L 295,2278 h -22.25 c -20.29034,0 -22.53146,-0.1754 -25.44574,-1.9523 -4.02262,-2.4528 -5.25438,-7.6073 -3.20358,-13.4061 2.86492,-8.1008 10.51864,-10.6371 26.67707,-8.8404 5.94791,0.6614 13.83116,1.2025 17.51832,1.2025 H 295 l 0.006,-16.25 c 0.006,-17.3314 0.90258,-22.8326 4.34027,-26.6289 4.58513,-5.0635 13.51786,-6.6735 17.79337,-3.2071 2.34736,1.9032 2.36078,2.0352 2.36078,23.2331 v 21.3189 l 11.5,-0.3173 c 8.6066,-0.2376 12.60128,-0.7994 15.87712,-2.2331 6.12912,-2.6824 13.28954,-2.5383 16.61947,0.3344 4.448,3.8373 5.41928,13.8341 1.89117,19.4648 -2.69265,4.2974 -4.96956,4.7622 -25.88776,5.2852 l -20,0.5 v 21.5 c 0,23.3379 -0.54868,26.2016 -5.5,28.706 -3.20043,1.6188 -12.82187,1.5997 -15.75862,-0.031 z M 209.04703,2159.251 c -16.05758,-0.3426 -17.05353,-0.7106 -19.15491,-7.0779 -0.907,-2.7482 -1.21045,-212.6241 -1.30003,-899.1291 L 188.47523,357.5 184.33301,349 c -2.68144,-5.50241 -4.74715,-11.67391 -5.85757,-17.5 -1.12119,-5.88264 -3.07639,-11.698 -5.64478,-16.78927 -3.13667,-6.21779 -4.12537,-9.54666 -4.90063,-16.5 -1.49436,-13.40307 -1.95958,-15.33838 -4.97852,-20.71073 -1.54533,-2.75 -3.78194,-8.6 -4.97024,-13 -2.157,-7.98691 -2.16043,-8.18776 -2.09225,-122.72938 0.051,-85.730135 0.36387,-115.202698 1.23771,-116.601931 3.06687,-4.910841 -5.58235,-4.659101 165.21163,-4.808574 87.9111,-0.07694 161.0361,0.168683 162.5,0.545822 1.67589,0.431752 3.28531,1.964984 4.34562,4.139885 1.54435,3.167773 1.70644,13.116937 1.95494,119.991608 l 0.27097,116.53743 -3.59206,6.46257 c -1.97564,3.55441 -3.92274,8.4658 -4.32691,10.91419 -0.40416,2.44839 -1.57996,6.4232 -2.61288,8.8329 C 479.6573,290.63239 479,294.53423 479,298.93287 c 0,5.94337 -0.36795,7.27499 -3.02291,10.94006 -1.6626,2.29516 -3.50045,6.52517 -4.0841,9.40004 -1.51095,7.4424 -5.77703,23.2645 -8.01524,29.72703 -1.04767,3.025 -2.56594,8.65 -3.37394,12.5 -1.28569,6.12618 -1.47125,118.13532 -1.48645,897.2821 -0.015,767.1395 -0.21394,890.7526 -1.43858,893.6836 -2.93808,7.0318 3.38686,6.6531 -106.36633,6.369 C 296.9206,2158.6941 248.9,2158.5613 244.5,2158.5396 c -4.4,-0.022 -10.925,0.1988 -14.5,0.4901 -3.575,0.2913 -13.00383,0.3909 -20.95297,0.2213 z M 329.5,2146.6397 c 101.31542,-0.1361 104.14197,-0.1913 109.5,-2.1397 4.36578,-1.5876 5.86065,-2.7218 7.24886,-5.5 1.65729,-3.3167 1.74751,-26.4854 1.72322,-442.5 -0.0153,-261.7711 -0.39706,-441.5882 -0.94567,-445.4111 -1.57782,-10.9946 -2.09632,-10.9162 -15.47764,2.3416 -6.44006,6.3806 -13.13561,12.3815 -14.87899,13.3353 -2.54817,1.3941 -5.71916,1.7342 -16.16978,1.7342 -14.26197,0 -12.55702,0.5026 -28.57734,-8.4235 -4.88172,-2.72 -8.23449,-5.3522 -9.4246,-7.3992 -1.01599,-1.7475 -3.36262,-5.0467 -5.21472,-7.3316 -9.33872,-11.5209 -9.55507,-30.3697 -0.49965,-43.5313 1.698,-2.468 4.32277,-7.0966 5.83283,-10.2859 2.46778,-5.212 3.30896,-6.0502 8.31451,-8.2844 8.94191,-3.9912 10.85035,-4.3151 25.1967,-4.2761 10.60803,0.029 14.9596,0.4626 19.63835,1.9573 11.80903,3.7725 17.90218,8.2398 22.92204,16.8055 2.94512,5.0255 5.04082,5.2426 7.30427,0.757 1.33489,-2.6455 1.53641,-49.6732 1.75904,-410.4878 0.24602,-398.73937 0.2106,-407.56676 -1.6474,-410.60545 -3.50814,-5.73742 -0.79267,-5.61799 -125.50248,-5.51975 -124.93234,0.0984 -117.11908,-0.28787 -119.89618,5.9275 -0.93689,2.09681 -1.2628,197.93027 -1.46321,879.1977 -0.23618,802.8622 -0.12288,876.8605 1.34857,880.7915 2.5227,6.7394 10.6943,10.6715 19.90927,9.5801 2.75,-0.3257 51.8,-0.655 109,-0.7319 z M 251,1980.9587 c -6.325,-0.3826 -11.58862,-0.7548 -11.69693,-0.8271 -0.10831,-0.072 -6.18331,-6.0173 -13.5,-13.2109 L 212.5,1953.8414 l -0.34318,-9.9039 c -0.53098,-15.3236 1.06242,-22.5087 6.90195,-31.1232 6.05562,-8.9332 14.38525,-17.6111 17.83605,-18.5816 1.43285,-0.403 10.93018,-0.7153 21.10518,-0.694 21.73985,0.046 24.90905,0.7729 28.55854,6.554 1.3566,2.149 2.87638,3.9073 3.37728,3.9073 2.72341,0 7.08256,5.5569 9.23453,11.7719 2.09617,6.0538 2.30411,8.2241 2.07483,21.6551 -0.24066,14.0977 -0.42947,15.3646 -3.39877,22.8055 -2.88916,7.24 -3.67893,8.2818 -9.74518,12.8553 -6.9388,5.2314 -16.75786,9.0526 -22.45657,8.7393 -1.72956,-0.095 -8.31966,-0.4859 -14.64466,-0.8684 z m 19.25504,-13.0952 c 1.12459,-0.6019 5.17138,-4.221 8.99286,-8.0424 10.23757,-10.2376 12.47562,-18.2601 9.6387,-34.5509 -1.03863,-5.9643 -1.52544,-6.7929 -7.25,-12.3412 -7.50221,-7.2712 -10.74578,-8.3177 -23.85518,-7.6967 -8.28991,0.3927 -10.27447,0.833 -13.5,2.9951 -5.07006,3.3986 -11.38337,9.5907 -13.53254,13.2726 -0.96312,1.65 -2.87562,4.529 -4.25,6.3979 -2.07135,2.8165 -2.49811,4.5274 -2.4944,10 0.004,6.0881 0.33498,7.1017 4.25,13.02 3.43685,5.1955 5.73215,7.3357 12.05033,11.2358 4.29265,2.6497 9.91765,5.4928 12.5,6.3179 5.04087,1.6105 13.88023,1.3025 17.45023,-0.6081 z M 300.5,1798.2024 c -6.50435,-3.0784 -10.59029,-7.2172 -13.47737,-13.6517 -1.49316,-3.3279 -3.48877,-6.6929 -4.43467,-7.4779 -3.80272,-3.1556 -5.02397,-7.2841 -5.05029,-17.0728 -0.014,-5.225 0.34795,-12.1382 0.80444,-15.3628 0.81816,-5.7792 0.98536,-6.0192 11.74393,-16.8577 C 296.08872,1721.7322 301,1716.48 301,1716.1078 c 0,-0.3721 1.4625,-1.5611 3.25,-2.6422 2.86362,-1.7319 5.11022,-1.9656 18.89723,-1.9656 h 15.64723 l 4.35277,3.3004 c 2.39402,1.8153 6.64716,4.4046 9.45142,5.754 2.80425,1.3495 5.8506,3.2845 6.76967,4.3001 2.33541,2.5806 6.90433,20.2431 7.40999,28.6455 0.44882,7.4578 -1.2172,23.2511 -2.9173,27.655 -0.56372,1.4602 -4.42825,5.713 -8.58784,9.4506 -8.7594,7.8708 -8.45962,7.7954 -35.27317,8.8692 -13.92234,0.5575 -15.90714,0.428 -19.5,-1.2724 z m 42.19441,-13.5485 c 2.30692,-1.5653 5.90692,-5.3321 8,-8.3706 3.54718,-5.1493 3.82964,-6.096 4.15976,-13.9418 0.50854,-12.086 -0.24225,-14.7981 -5.73747,-20.7259 -2.60823,-2.8136 -6.51398,-7.3251 -8.67946,-10.0255 -3.9988,-4.9867 -9.94583,-8.5283 -14.38752,-8.5681 -2.61302,-0.024 -24.26643,10.3293 -26.01754,12.4392 -0.57352,0.6911 -1.9526,3.9009 -3.0646,7.133 -1.11201,3.2321 -3.17845,7.5456 -4.5921,9.5855 -4.02506,5.8081 -3.53658,8.9597 3.1205,20.1332 3.91262,6.567 6.83374,10.3234 8.83127,11.3563 7.21731,3.7322 10.16392,4.2705 22.17275,4.0506 11.36333,-0.2081 12.22254,-0.3708 16.19441,-3.0659 z M 306.5,1636.9996 c -7.56971,-0.9169 -13.24171,-3.2102 -21.60191,-8.734 -5.15346,-3.4051 -7.82459,-6.1615 -12.17478,-12.5638 -3.06508,-4.511 -6.05421,-10.0018 -6.64251,-12.2018 -1.58737,-5.9361 -1.38165,-38.9043 0.28279,-45.3209 1.73674,-6.6953 9.04734,-17.3169 17.60567,-25.5792 5.36698,-5.1814 7.79375,-6.7658 12.42476,-8.1121 3.16529,-0.9202 8.30607,-3.015 11.42395,-4.6551 5.55415,-2.9216 5.92469,-2.9754 18.30835,-2.6573 l 12.63946,0.3246 5.55388,3.8282 c 3.05464,2.1056 8.61984,4.7383 12.36711,5.8505 10.42958,3.0957 12.59418,4.812 16.17844,12.8281 1.72395,3.8555 4.46991,8.8536 6.10213,11.1068 5.38837,7.4384 7.03266,13.6282 7.03266,26.4736 0,8.6545 -0.40199,12.2895 -1.61943,14.6437 -0.89068,1.7224 -1.9723,5.977 -2.40359,9.4547 -0.70474,5.6826 -1.29639,6.9049 -5.84168,12.0687 -11.00277,12.4999 -17.94182,18.0804 -25.3928,20.4213 -9.7487,3.0628 -31.04753,4.4223 -44.2425,2.824 z m -6,-195.8184 c -4.92191,-2.3597 -11.04445,-8.4102 -13.64595,-13.4854 -1.0725,-2.0923 -3.44698,-5.7654 -5.27664,-8.1623 -3.17864,-4.1643 -3.35683,-4.8627 -4.0048,-15.6958 -0.99539,-16.6419 0.006,-20.4795 7.46632,-28.6215 3.33189,-3.6362 7.85223,-7.6304 10.0452,-8.876 2.19298,-1.2456 5.89812,-3.8306 8.23364,-5.7444 5.90025,-4.8348 8.64635,-5.6678 20.82554,-6.3169 10.46516,-0.5578 10.7497,-0.5142 17,2.6011 8.31594,4.1449 16.95138,9.6313 18.95459,12.0425 0.87884,1.0579 3.07084,6.9636 4.8711,13.1239 3.05277,10.4462 3.24089,11.9499 2.79321,22.3271 -0.67716,15.6966 -2.63084,20.3766 -12.02539,28.8069 -3.98025,3.5717 -8.35538,7.0898 -9.7225,7.8181 -1.73458,0.924 -8.38235,1.4414 -22,1.7123 -17.65961,0.3512 -19.89449,0.2058 -23.51432,-1.5296 z m 16,-352.2004 c -2.75,-1.0392 -7.58575,-2.3915 -10.7461,-3.0052 -4.75443,-0.9232 -6.71311,-1.9996 -11.3493,-6.2368 -3.08176,-2.8165 -6.94143,-7.3975 -8.57704,-10.1799 -1.63561,-2.7824 -3.8453,-6.458 -4.91042,-8.1679 -2.55146,-4.0962 -3.88184,-15.2959 -3.19149,-26.8672 l 0.55667,-9.3305 7.19163,-7.3467 c 9.38087,-9.583 17.22325,-15.7718 22.65173,-17.87541 2.55048,-0.98836 9.02959,-1.98131 15.53956,-2.38152 10.60623,-0.65202 11.47819,-0.55467 17.41579,1.94444 3.43781,1.44699 8.92542,4.50619 12.1947,6.79839 5.23997,3.6738 6.4283,5.1745 10.03094,12.6675 l 4.0868,8.5 0.0533,14.5123 c 0.0503,13.7002 -0.10653,14.91 -2.80218,21.617 -2.42236,6.0271 -3.93905,8.0817 -10,13.5463 -8.92371,8.0458 -8.14236,7.6198 -16.02481,8.7361 -4.01221,0.5682 -7.64842,1.7523 -9.2502,3.0123 -3.20862,2.5239 -6.30492,2.5375 -12.86954,0.057 z m -16,-166.33437 c -1.65,-0.74021 -4.35,-2.46046 -6,-3.82277 -1.65,-1.36232 -5.025,-3.26593 -7.5,-4.23026 -5.22446,-2.0356 -8.56673,-4.87085 -10.71954,-9.0934 -0.84123,-1.65 -3.06399,-4.89466 -4.93945,-7.21035 C 265.32265,890.85859 265,889.2248 265,866.18134 c 0,-23.12205 0.36541,-25.11355 5.9965,-32.68134 2.04623,-2.75 4.79662,-6.62033 6.11196,-8.60073 1.31535,-1.9804 5.65591,-6.5929 9.64569,-10.25 5.51032,-5.05085 7.96191,-6.64927 10.19838,-6.64927 1.61932,0 6.45496,-1.10524 10.74585,-2.45608 11.47545,-3.61267 15.34492,-4.01731 20.9552,-2.19135 2.66553,0.86754 8.19565,2.26199 12.28915,3.09877 9.19568,1.87977 15.20629,5.69768 26.06491,16.5563 10.14021,10.14021 13.23261,14.46169 16.53739,23.1102 2.43058,6.36077 2.63599,7.9613 2.27001,17.68788 -0.34327,9.12308 -0.97067,12.38386 -4.2703,22.19428 l -3.86791,11.5 -10.58842,10.80679 C 351.74134,923.97037 353.12787,923.44937 326,923.74614 c -17.13742,0.18747 -23.21501,-0.0746 -25.5,-1.09971 z M 308,746.46677 c -3.025,-1.44683 -7.97563,-3.64175 -11.00141,-4.87762 -4.33232,-1.76951 -8.26371,-4.95534 -18.5,-14.99163 L 265.5,713.85291 265.18543,689.40447 c -0.40667,-31.60738 -0.25316,-32.21162 11.08238,-43.61964 5.06656,-5.09896 10.5847,-9.53003 14.34989,-11.52296 3.36474,-1.78097 6.70696,-3.94814 7.42717,-4.81593 3.84442,-4.63225 14.70972,-6.16409 32.95513,-4.64618 11.17808,0.92995 11.77281,1.10254 21.24574,6.16534 5.36016,2.86474 10.62545,6.32698 11.70065,7.69388 1.0752,1.36689 4.00679,4.05198 6.51464,5.96687 11.54899,8.81831 19.03062,39.09505 13.94744,56.44265 -0.87535,2.98732 -4.33681,10.6065 -7.69215,16.9315 -6.50362,12.2597 -13.98962,21.34981 -18.51832,22.48644 -1.47975,0.37139 -6.06716,2.31077 -10.19423,4.30973 -7.32224,3.54653 -7.83037,3.64252 -21.00377,3.96783 -12.86766,0.31775 -13.75762,0.21015 -19,-2.29723 z m 130.48635,-387.7645 c 5.70638,-2.57341 8.21763,-5.29515 10.49042,-11.36973 1.09847,-2.93593 3.38329,-8.08384 5.07738,-11.43981 1.69409,-3.35597 3.9748,-10.21724 5.06825,-15.24725 1.09345,-5.03001 3.64045,-12.97048 5.66001,-17.64548 2.69904,-6.2479 3.82678,-10.48715 4.25638,-16 0.32145,-4.125 1.86485,-11.66152 3.42979,-16.74783 2.75319,-8.94834 2.78682,-9.31248 1.03847,-11.24438 -0.99378,-1.09811 -3.42691,-2.44658 -5.40696,-2.9966 -5.33693,-1.4825 -281.77799,-1.3729 -287.68321,0.11406 -4.44697,1.11976 -8.41688,4.7006 -8.41688,7.592 0,0.79614 1.37421,4.57853 3.0538,8.40532 1.67958,3.82678 3.67641,10.49907 4.43739,14.8273 0.76097,4.32823 2.57566,10.22194 4.03263,13.09713 1.46127,2.88369 2.89709,7.74419 3.20228,10.84031 0.30429,3.08698 1.32901,7.18769 2.27716,9.11269 0.94816,1.925 2.28839,6.54884 2.97831,10.27519 0.77623,4.19253 2.34622,8.38568 4.11859,11 1.57531,2.32365 3.55925,6.28964 4.40875,8.81333 0.8495,2.52368 2.86057,5.84934 4.46903,7.39035 l 2.92448,2.80183 23.79879,0.47329 c 13.08934,0.26031 23.87362,0.53465 23.96508,0.60965 0.0915,0.075 40.36646,-0.0886 89.5,-0.36364 83.20725,-0.46571 89.60709,-0.62329 93.32006,-2.29773 z m 35.17692,-116.9331 c 6.57806,-3.59928 6.40773,-0.66121 6.10678,-105.33758 -0.25211,-87.693287 -0.38766,-94.146808 -2.04086,-97.172172 -2.42713,-4.441644 -5.1287,-5.968737 -12.72919,-7.195324 -10.04996,-1.621887 -287.72123,-1.430385 -290.93063,0.200648 -1.33685,0.679392 -3.58685,3.485258 -5,6.235258 l -2.56937,5 0.0222,93.5 c 0.0238,100.1304 -0.001,99.61204 5.01791,104.63103 l 2.40113,2.40113 148.27937,-0.26608 c 138.41074,-0.24837 148.48991,-0.38127 151.44265,-1.99691 z M 80.714477,1624.0265 c -5.497781,-1.0005 -8.860556,-2.8372 -19.216585,-10.4958 -7.840774,-5.7986 -9.341192,-7.8585 -11.819257,-16.2265 -0.846264,-2.8577 -2.549639,-6.5633 -3.785278,-8.2346 -3.135647,-4.2412 -3.20732,-11.7967 -0.151143,-15.9329 1.474043,-1.995 2.708724,-5.9479 3.603908,-11.5382 1.578041,-9.8547 2.941751,-12.3244 9.171875,-16.6109 10.024086,-6.8967 12.186817,-7.4135 32.689034,-7.8109 18.193339,-0.3527 18.856359,-0.2943 24.145029,2.1269 5.64576,2.5848 10.96665,8.265 16.35507,17.4596 3.68011,6.2797 6.49578,18.468 5.7145,24.7368 -2.73214,21.9217 -8.75493,30.482 -28.18881,40.065 -4.24093,2.0913 -7.06608,2.669 -14.499997,2.9649 -5.078053,0.2022 -11.386308,-0.024 -14.018346,-0.5034 z m 20.388613,-12.0069 c 4.01011,-1.2527 14.75514,-9.8397 17.38293,-13.8919 4.96049,-7.6492 7.7805,-21.6663 5.54293,-27.5516 -1.96531,-5.1691 -13.29033,-18.7856 -16.95542,-20.3861 -4.50951,-1.9693 -23.95877,-2.2654 -29.07353,-0.4427 -4.791251,1.7074 -14.677848,12.9546 -17.183387,19.5482 -2.807008,7.3869 -2.723397,16.7217 0.212318,23.7045 3.109982,7.3973 3.624458,7.9514 9.971069,10.7399 3.025,1.3291 6.89217,3.7514 8.593711,5.383 1.701541,1.6315 4.401541,3.3397 6,3.7958 3.129567,0.893 11.285907,0.4202 15.509379,-0.8991 z M 83.52573,732.49643 c -2.185849,-1.34263 -6.010849,-2.70754 -8.5,-3.03312 -9.671773,-1.2651 -10.460947,-1.64486 -16.674277,-8.02385 -4.508762,-4.62898 -6.612766,-7.72957 -7.889181,-11.62598 -0.957348,-2.92241 -3.028001,-7.88815 -4.601452,-11.03496 -3.701641,-7.40308 -3.878211,-15.05037 -0.514394,-22.27852 1.279788,-2.75 3.30458,-7.925 4.499537,-11.5 1.896823,-5.6748 3.068673,-7.30963 9.230511,-12.87734 6.143188,-5.55087 8.183126,-6.73605 15.740694,-9.1452 14.913862,-4.75414 18.741665,-4.76523 32.682832,-0.0947 11.8666,3.97554 12.07347,4.09795 18.60867,11.01165 5.9334,6.27705 6.73171,7.61684 7.81286,13.11225 0.66231,3.36645 2.07591,8.15445 3.14134,10.63998 2.45572,5.72897 2.46362,11.94357 0.0231,18.13534 -1.05274,2.67082 -2.46701,7.74998 -3.14281,11.28702 -1.15227,6.03072 -1.6711,6.87565 -8.33593,13.5754 -6.51186,6.54596 -7.60978,7.24542 -13.10719,8.35025 -3.3,0.66321 -9.76284,2.28572 -14.361867,3.60558 -4.599026,1.31986 -8.874026,2.38571 -9.5,2.36854 -0.625973,-0.0172 -2.926555,-1.12973 -5.112403,-2.47236 z"
       id="path5701" />
  </g>
</svg>
