<?xml version="1.0" encoding="UTF-8" standalone="no"?>
<!-- Created with Inkscape (http://www.inkscape.org/) -->

<svg
   version="1.1"
   id="svg7718"
   width="515"
   height="2340"
   viewBox="0 0 515 2340"
   sodipodi:docname="d#++.svg"
   inkscape:version="1.1.1 (3bf5ae0d25, 2021-09-20)"
   xmlns:inkscape="http://www.inkscape.org/namespaces/inkscape"
   xmlns:sodipodi="http://sodipodi.sourceforge.net/DTD/sodipodi-0.dtd"
   xmlns="http://www.w3.org/2000/svg"
   xmlns:svg="http://www.w3.org/2000/svg">
  <defs
     id="defs7722" />
  <sodipodi:namedview
     id="namedview7720"
     pagecolor="#ffffff"
     bordercolor="#666666"
     borderopacity="1.0"
     inkscape:pageshadow="2"
     inkscape:pageopacity="0.0"
     inkscape:pagecheckerboard="0"
     showgrid="false"
     inkscape:zoom="0.33418803"
     inkscape:cx="-86.777494"
     inkscape:cy="1170"
     inkscape:window-width="1920"
     inkscape:window-height="986"
     inkscape:window-x="-11"
     inkscape:window-y="-11"
     inkscape:window-maximized="1"
     inkscape:current-layer="g7724" />
  <g
     inkscape:groupmode="layer"
     inkscape:label="Image"
     id="g7724">
    <path
       style="fill:#000000"
       d="m 287.94309,2332.9431 c -1.93262,-1.9326 -2.0147,-2.7786 -1.35834,-14 L 287.28333,2307 H 274.71309 C 260.81861,2307 259,2306.3057 259,2301.0012 c 0,-1.9233 0.89813,-3.5643 2.75,-5.0246 2.52854,-1.994 3.67612,-2.1407 14.25,-1.8226 l 11.5,0.346 0.5,-11.1021 c 0.31765,-7.053 0.98109,-11.6796 1.8191,-12.6857 1.83913,-2.208 6.63873,-3.0727 9.26211,-1.6687 2.103,1.1255 2.16985,1.5844 1.53872,10.563 -0.91271,12.9844 -0.45509,14.3935 4.67459,14.3935 2.24274,0 6.93462,-0.7165 10.42641,-1.5922 5.82724,-1.4614 6.55119,-1.4595 8.81389,0.023 1.99553,1.3075 2.46518,2.4448 2.46518,5.9697 0,6.3405 -1.32092,7.0143 -14.89807,7.5994 l -11.60193,0.5 0.36986,12.1301 c 0.34426,11.2907 0.22314,12.2769 -1.75,14.25 -2.79972,2.7998 -8.40842,2.8313 -11.17677,0.063 z m 0,-80 c -1.93262,-1.9326 -2.0147,-2.7786 -1.35834,-14 L 287.28333,2227 H 274.71309 C 260.81861,2227 259,2226.3057 259,2221.0012 c 0,-1.9233 0.89813,-3.5643 2.75,-5.0246 2.52854,-1.994 3.67612,-2.1407 14.25,-1.8226 l 11.5,0.346 0.5,-11.1021 c 0.31765,-7.053 0.98109,-11.6796 1.8191,-12.6857 1.83913,-2.208 6.63873,-3.0727 9.26211,-1.6687 2.103,1.1255 2.16985,1.5844 1.53872,10.563 -0.91271,12.9844 -0.45509,14.3935 4.67459,14.3935 2.24274,0 6.93462,-0.7165 10.42641,-1.5922 5.82724,-1.4614 6.55119,-1.4595 8.81389,0.023 1.99553,1.3075 2.46518,2.4448 2.46518,5.9697 0,6.3405 -1.32092,7.0143 -14.89807,7.5994 l -11.60193,0.5 0.36986,12.1301 c 0.34426,11.2907 0.22314,12.2769 -1.75,14.25 -2.79972,2.7998 -8.40842,2.8313 -11.17677,0.063 z m -66.42519,-90.7585 c -0.17342,-0.1734 -5.86017,-0.3232 -12.63724,-0.3329 -6.77706,-0.01 -13.12118,-0.4452 -14.09803,-0.968 -0.97685,-0.5228 -2.66322,-2.6895 -3.74748,-4.8148 -1.95733,-3.8367 -1.97167,-10.1492 -2.01278,-886.2166 -0.0272,-578.88467 -0.3828,-884.45981 -1.03403,-888.48004 -0.54595,-3.37025 -1.85616,-8.09525 -2.91157,-10.5 -1.05542,-2.40474 -2.63158,-7.85106 -3.50257,-12.10294 -0.871,-4.25187 -2.73264,-10.24266 -4.13698,-13.31286 -1.40434,-3.07021 -3.44939,-9.71641 -4.54454,-14.76933 -2.72645,-12.57958 -3.71846,-15.90598 -7.57747,-25.40898 -3.65516,-9.00098 -8.3087,-25.35757 -8.31269,-29.21804 -0.001,-1.34193 -1.91502,-5.60589 -4.25252,-9.47544 l -4.25,-7.03556 -0.12644,-100.52455 c -0.0695,-55.28851 0.19036,-106.105078 0.57755,-112.925711 0.63918,-11.259374 0.91421,-12.571376 2.98723,-14.25 C 154.13864,30.067148 160.1896,30 318.54568,30 c 101.62178,0 165.2797,0.363312 166.82842,0.952132 5.30772,2.017992 5.08895,-2.358455 5.6259,112.547868 0.275,58.85 0.25135,109.3619 -0.0525,112.24867 -0.44127,4.1917 -1.23144,5.94912 -3.92374,8.72687 -3.11672,3.21564 -3.43178,4.14043 -4.17373,12.25133 -1.2034,13.15536 -4.07287,24.91979 -6.97679,28.60393 -3.76672,4.77875 -3.83176,4.95526 -4.88375,13.25249 -0.66719,5.26223 -1.84001,9.18847 -3.6802,12.32017 -1.48552,2.5281 -3.04248,6.84654 -3.45992,9.59654 -0.41743,2.75 -1.67539,9.8921 -2.79547,15.87133 l -2.03651,10.87134 -0.0129,892.92083 c -0.011,762.7767 -0.2168,893.4089 -1.4119,896.2692 -0.99972,2.3927 -2.40337,3.6798 -4.91797,4.5097 -2.57405,0.8495 -34.03952,1.2145 -117.18018,1.3595 -62.51367,0.1089 -113.8031,0.056 -113.97651,-0.1173 z m 217.00429,-14.652 c 2.81735,-1.246 6.115,-3.5272 7.32809,-5.0694 l 2.20563,-2.804 -0.30842,-457.5796 c -0.22104,-327.9535 -0.61821,-458.4295 -1.402,-460.5796 l -1.09359,-3 -1.12595,2.8151 c -0.61927,1.5483 -1.12595,6.4115 -1.12595,10.8072 0,10.8014 -1.51502,16.3794 -5.20286,19.1558 -3.5857,2.6995 -6.44285,5.5561 -9.93261,9.9306 -1.44951,1.8169 -6.16808,5.3258 -10.48571,7.7974 l -7.85023,4.4939 -15.51429,0.3274 c -15.31894,0.3234 -15.55837,0.2952 -19.0143,-2.2387 -1.925,-1.4114 -5.525,-3.882 -8,-5.4901 -13.34568,-8.6714 -14.47053,-11.3714 -15.45594,-37.0986 -0.79834,-20.8432 0.0734,-25.8124 5.17042,-29.4737 1.53204,-1.1006 3.68552,-3.0773 4.78552,-4.3927 6.32306,-7.5617 8.72121,-8.6778 21.80625,-10.1491 4.82432,-0.5424 8.37577,-0.3554 12.19619,0.6423 3.6213,0.9456 6.6381,1.1341 9.19375,0.5743 4.68493,-1.0262 9.79282,-5e-4 16.22285,3.2579 4.04828,2.0514 5.35726,3.4321 7.45215,7.8603 1.77569,3.7535 4.5367,7.0752 9.16501,11.0262 3.64307,3.11 6.99375,5.6545 7.44595,5.6545 0.45221,0 1.32009,-1.4282 1.92862,-3.1739 0.80151,-2.2992 1.10936,-115.6994 1.11709,-411.48601 0.009,-350.90531 -0.18944,-408.79104 -1.41254,-411.71833 -1.16086,-2.77833 -2.46161,-3.7947 -7.05677,-5.51397 C 433.95211,380.01015 433.3856,380 321.93037,380 199.2812,380 204.74044,379.73369 201.56642,385.87156 200.14852,388.61348 200,461.72764 200,1157.0161 c 0,582.0583 0.28179,768.6445 1.16334,770.2996 1.58162,2.9696 3.89772,4.6144 6.55148,4.6525 2.60024,0.037 3.64162,-1.6739 6.34502,-10.4265 1.51957,-4.9198 3.38013,-8.0499 7.72108,-12.9894 8.59207,-9.7767 11.06725,-10.5778 33.49105,-10.8395 19.49959,-0.2276 21.62093,0.1964 26.17909,5.2331 1.07048,1.1829 4.502,3.7032 7.6256,5.6007 5.89635,3.5818 7.24361,5.6562 8.4131,12.9534 0.35258,2.2 1.52539,6.9045 2.60626,10.4545 2.11526,6.9472 1.9552,11.0437 -0.82226,21.0455 -3.26693,11.7643 -9.06678,19.2377 -20.07252,25.8643 -8.05733,4.8514 -12.94132,6.079 -24.31475,6.1113 -11.92227,0.034 -18.59325,-1.4021 -23.38649,-5.034 -2.2,-1.6669 -5.73969,-4.2482 -7.86599,-5.7362 -7.14996,-5.0035 -8.3801,-6.6486 -9.57767,-12.8086 -1.59414,-8.1998 -3.9935,-14.4355 -5.82488,-15.1382 -2.05545,-0.7888 -5.84596,3.694 -7.18151,8.493 -0.68846,2.4739 -1.04657,34.4474 -1.05323,94.0351 -0.0109,97.9648 -0.29931,92.8048 5.48864,98.2133 l 2.6754,2.5 106.16962,0.5523 c 58.39329,0.3037 109.07206,0.3708 112.61948,0.149 3.71889,-0.2325 8.61878,-1.3625 11.57233,-2.6687 z M 299.67748,1802.6355 c -12.30107,-3.7288 -18.59711,-10.8205 -21.0712,-23.7338 -0.77996,-4.0709 -2.1943,-9.3392 -3.14299,-11.7072 -1.66665,-4.1602 -1.64934,-4.6328 0.51293,-14 1.23079,-5.332 2.66941,-11.1414 3.19693,-12.9099 2.47301,-8.2906 19.84166,-21.5867 31.31277,-23.9706 20.80717,-4.324 44.2236,8.8361 53.10435,29.8448 2.08092,4.9227 2.78777,8.514 3.15996,16.0545 0.43627,8.8387 0.22451,10.4123 -2.3516,17.4755 -2.08317,5.7117 -4.34618,9.5227 -8.56659,14.4263 -7.87441,9.1491 -10.58668,10.0456 -31.83204,10.5219 -15.1088,0.3386 -17.15956,0.1699 -24.32252,-2.0015 z m -5.42303,-161.7531 c -5.02493,-1.4511 -24.63539,-21.8493 -30.73576,-31.9704 l -4.98131,-8.2645 -0.0187,-14.5737 -0.0187,-14.5738 3.67022,-6 c 2.01862,-3.3 3.98433,-8.025 4.36825,-10.5 0.96489,-6.2204 2.41755,-8.6321 9.13567,-15.1669 4.46257,-4.3408 7.1129,-6.0413 11.32586,-7.2668 3.025,-0.8799 8.01148,-3.1479 11.08107,-5.04 9.66227,-5.956 20.95728,-7.0613 35.79943,-3.5033 12.88766,3.0896 23.41931,8.7085 31.33684,16.7191 5.64683,5.7132 7.34094,8.3037 10.95914,16.7579 l 4.2798,10 0.3162,17.8441 c 0.21643,12.2137 -0.0399,18.2731 -0.81219,19.2037 -0.62062,0.7478 -2.55342,3.968 -4.29512,7.1559 -1.7417,3.188 -6.2473,9.9297 -10.01245,14.9815 -7.54983,10.13 -10.79787,12.316 -21.14071,14.2279 -7.09271,1.3112 -45.6925,1.2876 -50.25756,-0.031 z m 5.94295,-194.4412 c -2.91643,-0.7849 -6.1731,-1.893 -7.23706,-2.4624 -3.32952,-1.7819 -11.83587,-12.8152 -12.90189,-16.7346 -5.99536,-22.0428 -5.92709,-21.2372 -2.96682,-35.0116 3.06473,-14.2606 3.69383,-15.2221 14.75339,-22.5505 14.50003,-9.608 13.17262,-9.1606 27.15498,-9.1522 13.50838,0.01 13.75954,0.079 26.7605,7.5752 7.33871,4.2313 14.40891,13.2858 17.77245,22.7603 2.5045,7.0548 2.6595,8.4197 2.17098,19.1159 -0.7284,15.9485 -2.20686,19.984 -10.50252,28.6667 -5.95322,6.2311 -7.4204,7.2332 -12.03961,8.2239 -7.58394,1.6264 -36.39413,1.3377 -42.9644,-0.4307 z m 35.09999,-12.6004 c 3.58982,-1.9212 16.52633,-15.241 17.63342,-18.1559 1.36085,-3.583 1.37166,-12.1761 0.0232,-18.4636 -1.52907,-7.1298 -5.64735,-11.6077 -21.05675,-22.8955 -3.68838,-2.7018 -14.20807,-4.0384 -19.09383,-2.426 -3.75473,1.2392 -13.43619,10.7418 -19.27929,18.9232 -3.28511,4.5997 -3.86805,6.2509 -4.29031,12.1526 -0.26876,3.7562 -0.16445,9.4244 0.23179,12.5958 0.6751,5.4033 1.10802,6.1391 6.8774,11.6895 3.38632,3.2577 7.05695,6.4227 8.15695,7.0331 4.69961,2.6081 25.65343,2.2998 30.79739,-0.4532 z M 319,1095.8727 c -1.375,-0.5503 -6.25474,-1.8776 -10.84387,-2.9495 -4.58913,-1.0719 -10.27886,-3.0829 -12.64385,-4.4689 -5.5071,-3.2273 -13.18509,-11.428 -15.19146,-16.2255 -1.64578,-3.9353 -4.42348,-19.2461 -3.70377,-20.4154 0.23243,-0.3776 0.82832,-6.0316 1.32421,-12.5645 0.49588,-6.5328 1.49946,-13.2965 2.23017,-15.0305 0.73071,-1.734 4.55492,-6.0465 8.49824,-9.5834 6.78714,-6.0875 7.6474,-6.5428 16.12378,-8.5328 20.94298,-4.9168 36.5063,-0.6957 51.25881,13.9024 3.90451,3.8637 5.00727,5.931 7.75,14.5287 2.08429,6.5336 3.19774,12.0529 3.19774,15.851 0,5.215 -0.62141,8.5303 -4.0969,21.8576 -0.67057,2.5714 -3.24945,6.0527 -8.24437,11.1293 -6.81614,6.9276 -7.60749,7.4316 -12.71365,8.0965 -2.99479,0.39 -7.86196,1.7943 -10.81592,3.1207 -5.77753,2.5942 -8.21204,2.852 -12.12916,1.2843 z M 299,929.9178 c -6.99365,-0.74032 -8.2167,-1.32177 -10.33963,-4.9156 -1.09064,-1.8463 -4.04522,-4.03822 -7.96484,-5.90888 -6.42402,-3.06591 -9.29371,-6.03439 -11.69082,-12.09332 -0.7616,-1.925 -3.54922,-7.96011 -6.19471,-13.41135 L 258,883.67731 v -11.602 c 0,-11.47016 0.0377,-11.65868 3.31854,-16.58866 1.8252,-2.74266 4.76536,-8.58665 6.53368,-12.98665 5.77756,-14.3759 8.93167,-17.4179 28.14778,-27.14731 11.88656,-6.01834 21.64533,-6.78638 37.15968,-2.92456 13.52097,3.36563 26.63935,10.56274 34.28995,18.81241 4.56234,4.9196 6.56609,8.18595 9.36093,15.25946 3.54605,8.97473 3.55718,9.05249 3.96549,27.69322 l 0.40946,18.69321 -2.94261,3.80679 c -1.61843,2.09373 -3.69652,5.87654 -4.61797,8.40624 -0.92145,2.5297 -3.20707,6.38892 -5.07915,8.57603 -4.54275,5.30718 -16.99242,13.80971 -22.56264,15.40921 -4.7166,1.35438 -36.70096,1.92152 -46.98314,0.8331 z m 35.18484,-10.82165 c 3.88159,-0.90185 9.6381,-5.48621 22.72306,-18.09615 6.83206,-6.58403 8.03736,-8.29384 9.86906,-14 1.37039,-4.26904 2.17824,-9.76063 2.35372,-16 0.25006,-8.89133 0.0782,-9.84431 -2.68175,-14.87394 -1.62191,-2.95566 -5.30574,-8.35566 -8.18627,-12 -2.88054,-3.64433 -5.24304,-6.91088 -5.25,-7.25899 -0.007,-0.34811 -2.5885,-1.85253 -5.73674,-3.34316 -3.14825,-1.49062 -7.15965,-3.97067 -8.91423,-5.51121 -4.68469,-4.1132 -9.51119,-5.38014 -17.77857,-4.6668 -14.9656,1.29128 -20.1876,3.94818 -34.14467,17.37249 -5.21476,5.0157 -7.95872,8.52492 -8.99219,11.5 -0.81804,2.35488 -2.89813,6.951 -4.62243,10.21359 -4.20642,7.95905 -4.10441,12.70073 0.46125,21.44065 1.90415,3.64505 3.77559,8.07101 4.15875,9.83546 0.40462,1.86321 2.23927,4.55536 4.37642,6.4219 2.02386,1.76759 4.58054,4.42246 5.6815,5.89971 3.19719,4.2899 12.67543,11.95034 15.97331,12.90984 3.94295,1.14717 25.96303,1.25947 30.70978,0.15661 z M 304.8522,755.67887 c -2.00628,-0.75511 -4.84313,-2.31317 -6.30409,-3.46237 -1.46096,-1.14919 -5.44446,-3.02987 -8.8522,-4.17929 -5.38694,-1.81698 -7.13652,-3.11367 -13.40004,-9.93128 -4.30985,-4.69113 -8.20253,-10.09902 -9.68926,-13.46078 -1.36682,-3.09063 -3.74996,-7.27601 -5.29587,-9.30085 -2.79318,-3.65852 -2.81269,-3.78846 -3.12267,-20.79747 l -0.31194,-17.11596 3.20118,-3.96543 c 1.76064,-2.18099 4.46084,-6.70703 6.00043,-10.05785 1.5396,-3.35083 4.28944,-7.4082 6.11076,-9.01638 1.82133,-1.60818 4.7799,-4.7888 6.57462,-7.06805 2.27051,-2.88351 4.70403,-4.63339 8,-5.75261 2.60528,-0.88468 7.43688,-3.28747 10.73688,-5.33953 l 6,-3.73102 13.41397,-0.33053 c 16.26591,-0.4008 18.78943,0.0187 23.72935,3.94442 2.11971,1.68454 6.10462,4.13068 8.85535,5.43587 2.75073,1.30518 8.65871,5.87793 13.12884,10.16165 6.64978,6.37249 8.51989,8.85817 10.28561,13.67129 1.18696,3.23549 3.26708,7.77503 4.6225,10.08786 2.33167,3.9787 2.46438,5.03799 2.46438,19.67029 v 15.46514 l -2.92626,3.97909 c -1.60944,2.1885 -3.24759,5.31465 -3.64034,6.94701 -1.31945,5.48398 -3.60267,8.92908 -10.72075,16.1763 -5.22,5.31472 -8.54224,7.78251 -12.64629,9.39382 -3.0615,1.20198 -7.81636,3.67648 -10.56636,5.49888 -4.88558,3.23763 -5.30892,3.32646 -18.5,3.88207 -10.16012,0.42795 -14.40246,0.22896 -17.1478,-0.80429 z M 266.34464,1972.0591 c 3.58288,-1.3622 18.38485,-14.6983 20.22609,-18.223 1.9205,-3.6764 2.73393,-12.4281 1.66116,-17.8725 -1.26725,-6.4313 -13.51311,-21.8885 -19.45272,-24.5539 -5.28265,-2.3705 -22.40369,-2.5698 -27.42133,-0.3191 -5.10537,2.29 -14.25263,11.4173 -16.47317,16.4372 -2.47411,5.5932 -2.59884,8.2592 -0.95771,20.4722 1.49431,11.1204 2.0619,12.4282 6.35268,14.6373 1.7712,0.9118 5.02036,3.1085 7.22036,4.8814 7.42552,5.9839 9.22837,6.5924 18.01285,6.0797 4.40706,-0.2571 9.28137,-0.9499 10.83179,-1.5393 z M 407.62237,1257.75 c 19.25773,-18.3166 20.3846,-19.8512 20.37205,-27.7434 -0.01,-6.1789 -1.93021,-10.7468 -7.90686,-18.8075 -5.10744,-6.8884 -6.77517,-8.3569 -13.3135,-11.7227 l -7.47466,-3.8478 -8.55621,1.6812 c -11.49994,2.2595 -16.45497,4.5553 -21.38003,9.9058 -3.35141,3.6409 -4.44313,5.8408 -5.75,11.5867 -0.88724,3.9009 -1.61316,10.1222 -1.61316,13.8252 0,6.6377 0.0607,6.7901 4.30584,10.8026 2.36821,2.2385 5.53249,5.7061 7.03172,7.7059 5.4424,7.2595 14.34575,11.7446 23.46375,11.8201 5.05077,0.042 5.56216,-0.2042 10.82106,-5.2061 z M 437,366.84695 c 9.80665,-4.59459 11.69016,-8.18148 15.07741,-28.71281 1.36735,-8.28805 2.87457,-14.01012 4.3815,-16.63414 1.26343,-2.2 3.49484,-8.90037 4.95869,-14.8897 1.46386,-5.98934 3.09674,-11.70284 3.62863,-12.69668 0.53189,-0.99384 1.35715,-4.41848 1.83392,-7.6103 0.47677,-3.19183 1.66705,-7.86315 2.64508,-10.38072 2.34067,-6.0252 1.4506,-9.61693 -2.826,-11.4038 -2.66642,-1.11411 -28.43269,-1.32012 -147.76247,-1.18143 -134.86049,0.15674 -144.70862,0.28313 -147.15898,1.88866 -3.72901,2.44334 -4.07239,4.60457 -1.78699,11.24721 1.10507,3.21192 2.00921,7.97941 2.00921,10.59442 0,3.94709 0.46703,5.15599 2.75,7.1183 4.74583,4.07925 5.33265,5.4227 6.24925,14.30674 0.57891,5.61109 1.61659,9.88589 2.94713,12.141 1.12949,1.91434 2.05362,5.03884 2.05362,6.94333 0,1.90449 1.141,6.26627 2.53555,9.69284 1.39455,3.42657 2.98058,9.35689 3.52452,13.17848 1.09736,7.70987 2.27065,9.48966 8.31034,12.60605 2.27128,1.17194 5.04481,2.97619 6.16341,4.00943 2.71298,2.50595 8.06449,2.60931 127.96618,2.47147 l 97,-0.11151 z m 34.79252,-116.40552 c 3.68835,-1.40859 4.77355,-2.46688 6.4759,-6.31534 2.01758,-4.56106 2.04213,-5.87216 1.82674,-97.55414 -0.1731,-73.684225 -0.48806,-93.576537 -1.52076,-96.048137 -1.73919,-4.162455 -6.78162,-8.263446 -11.35384,-9.234022 C 465.17425,40.855406 397.575,40.5 317,40.5 c -121.03652,0 -147.05826,0.235608 -149.71188,1.355531 -2.19849,0.927844 -3.93381,2.820916 -5.5,6 L 159.5,52.5 v 94 c 0,101.47372 -0.0873,99.75866 5.25281,103.2576 1.41588,0.92772 4.63822,1.92428 7.16076,2.21458 2.52254,0.2903 70.03031,0.44538 150.01727,0.34461 133.92933,-0.16871 145.78126,-0.31703 149.86168,-1.87536 z M 73.536871,1628.3944 c -2.729721,-0.8686 -8.225899,-3.6751 -12.213728,-6.2368 -6.920275,-4.4454 -7.460354,-5.0766 -11.854685,-13.8539 -5.403031,-10.7921 -6.903675,-18.661 -5.969823,-31.3037 0.857601,-11.6104 3.611276,-17.1017 12.812647,-25.5509 3.953795,-3.6305 8.408156,-7.244 9.89858,-8.03 2.03972,-1.0756 7.727558,-1.4896 23,-1.674 19.635758,-0.2372 20.409168,-0.1711 23.980848,2.0498 4.13387,2.5705 13.80929,12.741 13.80929,14.516 0,0.6323 1.6875,3.8585 3.75,7.1694 l 3.75,6.0197 -0.008,13.5 -0.008,13.5 -4.49215,8.883 c -3.83731,7.5881 -5.3668,9.5356 -10.49215,13.3596 -10.27929,7.6693 -13.22584,8.6101 -28,8.9403 -9.73951,0.2178 -14.244787,-0.1054 -17.963129,-1.2885 z M 84.5,741.32597 c -1.1,-0.24311 -5.621353,-1.56482 -10.047452,-2.93712 -7.519122,-2.33128 -8.503899,-2.97467 -15,-9.79997 -7.53492,-7.91677 -12.524935,-13.93379 -14.172099,-17.08888 -0.574272,-1.1 -1.344377,-8.525 -1.711344,-16.5 -0.593458,-12.89712 -0.468341,-14.84546 1.13184,-17.62509 8.845779,-15.36576 16.691227,-22.41284 29.637865,-26.62187 11.71205,-3.80766 16.862637,-3.85816 28.45736,-0.27905 8.79616,2.71524 9.68364,3.25326 16.5,10.00298 3.96211,3.92336 9.11633,9.51724 11.45383,12.43083 l 4.25,5.29743 v 11.1756 c 0,10.61245 -0.16833,11.52691 -3.34051,18.14738 -1.83728,3.83449 -3.92479,8.74296 -4.63892,10.90773 -1.48918,4.51423 -12.15161,15.90299 -16.40155,17.51881 -1.51207,0.57489 -4.53348,1.04525 -6.71425,1.04525 -2.18077,0 -6.637916,1.125 -9.90477,2.5 -3.266854,1.375 -6.290795,2.4478 -6.719868,2.384 C 86.85106,741.8202 85.6,741.56909 84.5,741.32597 Z"
       id="path7803" />
  </g>
</svg>
