<?xml version="1.0" encoding="UTF-8" standalone="no"?>
<!-- Created with Inkscape (http://www.inkscape.org/) -->

<svg
   version="1.1"
   id="svg7908"
   width="515"
   height="2340"
   viewBox="0 0 515 2340"
   sodipodi:docname="e++.svg"
   inkscape:version="1.1.1 (3bf5ae0d25, 2021-09-20)"
   xmlns:inkscape="http://www.inkscape.org/namespaces/inkscape"
   xmlns:sodipodi="http://sodipodi.sourceforge.net/DTD/sodipodi-0.dtd"
   xmlns="http://www.w3.org/2000/svg"
   xmlns:svg="http://www.w3.org/2000/svg">
  <defs
     id="defs7912" />
  <sodipodi:namedview
     id="namedview7910"
     pagecolor="#ffffff"
     bordercolor="#666666"
     borderopacity="1.0"
     inkscape:pageshadow="2"
     inkscape:pageopacity="0.0"
     inkscape:pagecheckerboard="0"
     showgrid="false"
     inkscape:zoom="0.33418803"
     inkscape:cx="-86.777494"
     inkscape:cy="1170"
     inkscape:window-width="1920"
     inkscape:window-height="986"
     inkscape:window-x="-11"
     inkscape:window-y="-11"
     inkscape:window-maximized="1"
     inkscape:current-layer="g7914" />
  <g
     inkscape:groupmode="layer"
     inkscape:label="Image"
     id="g7914">
    <path
       style="fill:#000000"
       d="m 287.94309,2332.9431 c -1.93262,-1.9326 -2.0147,-2.7786 -1.35834,-14 L 287.28333,2307 H 274.71309 C 260.81861,2307 259,2306.3057 259,2301.0012 c 0,-1.9233 0.89813,-3.5643 2.75,-5.0246 2.52854,-1.994 3.67612,-2.1407 14.25,-1.8226 l 11.5,0.346 0.5,-11.1021 c 0.31765,-7.053 0.98109,-11.6796 1.8191,-12.6857 1.83913,-2.208 6.63873,-3.0727 9.26211,-1.6687 2.103,1.1255 2.16985,1.5844 1.53872,10.563 -0.91271,12.9844 -0.45509,14.3935 4.67459,14.3935 2.24274,0 6.93462,-0.7165 10.42641,-1.5922 5.82724,-1.4614 6.55119,-1.4595 8.81389,0.023 1.99553,1.3075 2.46518,2.4448 2.46518,5.9697 0,6.3405 -1.32092,7.0143 -14.89807,7.5994 l -11.60193,0.5 0.36986,12.1301 c 0.34426,11.2907 0.22314,12.2769 -1.75,14.25 -2.79972,2.7998 -8.40842,2.8313 -11.17677,0.063 z m 0,-80 c -1.93262,-1.9326 -2.0147,-2.7786 -1.35834,-14 L 287.28333,2227 H 274.71309 C 260.81861,2227 259,2226.3057 259,2221.0012 c 0,-1.9233 0.89813,-3.5643 2.75,-5.0246 2.52854,-1.994 3.67612,-2.1407 14.25,-1.8226 l 11.5,0.346 0.5,-11.1021 c 0.31765,-7.053 0.98109,-11.6796 1.8191,-12.6857 1.83913,-2.208 6.63873,-3.0727 9.26211,-1.6687 2.103,1.1255 2.16985,1.5844 1.53872,10.563 -0.91271,12.9844 -0.45509,14.3935 4.67459,14.3935 2.24274,0 6.93462,-0.7165 10.42641,-1.5922 5.82724,-1.4614 6.55119,-1.4595 8.81389,0.023 1.99553,1.3075 2.46518,2.4448 2.46518,5.9697 0,6.3405 -1.32092,7.0143 -14.89807,7.5994 l -11.60193,0.5 0.36986,12.1301 c 0.34426,11.2907 0.22314,12.2769 -1.75,14.25 -2.79972,2.7998 -8.40842,2.8313 -11.17677,0.063 z m -97.3783,-88.451 c -1.13563,-0.5543 -2.85305,-2.6158 -3.81647,-4.5811 -1.66439,-3.3952 -1.76406,-48.1833 -2,-898.6483 L 184.5,366.18762 l -3.68673,-3.5805 c -2.84085,-2.75899 -3.81597,-4.61604 -4.25,-8.09381 -0.3098,-2.48232 -0.81158,-6.50986 -1.11506,-8.95008 -0.30349,-2.44023 -1.72384,-6.15273 -3.15634,-8.25 -3.08942,-4.5231 -7.2337,-19.75426 -7.29568,-26.81323 -0.0643,-7.3265 -1.50251,-12.37527 -4.38104,-15.37981 -1.77233,-1.84991 -3.01801,-4.9283 -4.10254,-10.13836 -0.85658,-4.11501 -2.08466,-9.05683 -2.72905,-10.98183 -0.87572,-2.616 -1.09824,-33.15682 -0.88102,-120.91989 0.15984,-64.580939 0.52669,-118.035083 0.81522,-118.786985 1.68055,-4.379454 -3.10388,-4.255961 167.02615,-4.311193 88.50011,-0.02873 161.67483,0.241523 162.61048,0.600564 0.93564,0.359041 2.25117,1.61236 2.92339,2.785153 1.68174,2.934049 2.30317,222.507241 0.65226,230.465461 -0.60849,2.93321 -2.60129,8.15105 -4.42844,11.59519 -4.11445,7.75562 -5.13601,11.32308 -7.01508,24.49764 -1.10117,7.72046 -2.37621,12.26162 -4.91356,17.5 -1.88459,3.89073 -3.7216,9.09906 -4.08225,11.57406 -0.36066,2.475 -1.47507,7.425 -2.47649,11 -1.00141,3.575 -2.12324,8.3 -2.49295,10.5 -0.36971,2.2 -1.87574,6.025 -3.34674,8.5 l -2.67453,4.5 -0.5,897 c -0.4768,855.3783 -0.58205,897.1501 -2.26819,900.2355 -0.9725,1.7795 -2.7725,3.4798 -4,3.7784 -4.32482,1.052 -256.01073,1.0308 -258.16702,-0.022 z m 242.0441,-12.9686 c 2.85976,-0.8493 6.22917,-2.7888 7.9315,-4.5657 l 2.95961,-3.0892 v -441.6843 c 0,-429.1364 -0.0535,-441.9025 -1.88283,-449.3641 l -1.88283,-7.6798 -2.46406,4.9448 c -3.90014,7.8265 -23.38575,22.8284 -32.27028,24.8447 -4.8995,1.1119 -26.18084,1.2701 -29.64803,0.2204 -2.01378,-0.6097 -12.74182,-10.4147 -18.37446,-16.7936 -1.38737,-1.5712 -3.72618,-3.8456 -5.19735,-5.0543 -3.75964,-3.0888 -4.98799,-8.7755 -5.14142,-23.8024 -0.12933,-12.6674 -0.0521,-13.1663 3.01834,-19.5 1.73308,-3.575 5.16217,-9.0064 7.62018,-12.0698 3.92487,-4.8915 5.39188,-5.9064 12.04633,-8.3334 7.38086,-2.6919 8.02546,-2.754 24.8768,-2.3941 20.43182,0.4364 24.12375,1.5012 28.80735,8.3086 1.61379,2.3455 4.93515,5.4373 7.38081,6.8705 3.75472,2.2004 4.70494,3.4238 6.10665,7.8621 2.70912,8.5779 2.66857,8.5202 3.69074,5.2561 3.88597,-12.4092 3.81022,-3.9641 3.79244,-422.82842 -0.0183,-431.18683 0.26597,-406.86489 -4.78718,-409.56925 -4.60895,-2.46664 -25.0406,-2.95857 -127.98692,-3.08154 l -108.29572,-0.12935 -3.45428,3.45428 c -2.86312,2.86312 -3.45958,4.19874 -3.48523,7.80428 -0.58474,82.18966 0.32713,1752.4988 0.95765,1754.1572 0.49562,1.3036 2.32439,3.5677 4.06394,5.0315 l 3.16281,2.6613 h 111.74177 c 95.62374,0 112.45894,-0.213 116.71367,-1.4765 z M 239,1987.105 c -8.95509,-2.4325 -13.55645,-4.786 -16.55896,-8.4698 -6.2501,-7.6682 -11.81253,-16.3396 -12.56992,-19.5955 -0.45287,-1.9468 -0.83414,-9.9701 -0.84726,-17.8295 -0.029,-17.3802 0.64204,-19.0799 11.82156,-29.9416 11.15209,-10.8351 12.28289,-11.2291 32.15458,-11.2031 23.37063,0.031 23.77611,0.1466 32.44746,9.2798 6.67833,7.0341 7.41591,8.2633 10.50071,17.4995 3.14065,9.4035 3.29361,10.5222 2.86411,20.9465 -0.53552,12.9977 -0.44383,12.8165 -13.11879,25.9185 -11.64649,12.0388 -15.48698,13.9322 -29.69349,14.6387 -8.1775,0.4066 -11.93774,0.1316 -17,-1.2435 z m 56.39894,-182.6778 c -6.84572,-3.5953 -19.20008,-15.9854 -20.40862,-20.4678 -1.57198,-5.8303 -1.6799,-30.8903 -0.15169,-35.2263 1.4637,-4.153 6.87911,-13.7661 10.05299,-17.8454 2.63698,-3.3893 14.98558,-10.838 19.8335,-11.9635 5.59729,-1.2996 27.01001,-1.1335 29.59062,0.2295 3.3983,1.7948 11.49623,9.3132 19.25708,17.8788 8.00329,8.8331 8.80738,11.1011 9.94546,28.0517 l 0.6435,9.5841 -4.50908,9.4159 c -2.77102,5.7864 -6.3677,11.402 -9.33089,14.5687 -6.82649,7.2953 -10.96652,8.3471 -32.85437,8.3471 -16.50776,0 -17.35839,-0.099 -22.0685,-2.5728 z m 6.00317,-160.3933 c -11.80548,-1.8026 -18.80602,-6.0082 -31.02748,-18.6396 C 262.20054,1616.946 261,1614.6661 261,1607.5913 c 0,-1.9086 -1.38527,-5.3089 -3.5,-8.5913 -2.93935,-4.5623 -3.4959,-6.319 -3.4744,-10.9663 0.0212,-4.5781 0.62557,-6.4755 3.5,-10.9874 2.32953,-3.6566 3.4744,-6.6522 3.4744,-9.091 0,-5.7807 2.30417,-11.9173 7.30513,-19.4553 6.69326,-10.0889 8.6697,-12.5 10.24646,-12.5 0.76971,0 5.25871,-2.0187 9.97557,-4.486 18.65775,-9.7595 34.24183,-10.0717 53.6573,-1.0749 4.22645,1.9585 8.37623,3.5609 9.22172,3.5609 0.84549,0 3.01248,1.5899 4.81554,3.533 1.80305,1.9432 5.52828,5.9074 8.27828,8.8094 7.25516,7.6561 11.54395,13.3236 12.43436,16.4317 0.4295,1.4993 0.81035,11.379 0.84633,21.9551 l 0.0654,19.2292 -3.79443,7.2708 c -2.08694,3.9989 -4.3176,8.8989 -4.95702,10.8888 -0.808,2.5144 -3.72585,5.9169 -9.56666,11.1557 -7.65814,6.8688 -9.00867,7.6748 -15.21603,9.0812 -7.79708,1.7667 -35.29078,2.8425 -42.90985,1.679 z m -5.23899,-196.0459 c -5.41739,-2.4583 -17.67736,-14.1559 -20.42499,-19.488 -1.85394,-3.5978 -2.0411,-5.5727 -1.86132,-19.6403 0.10994,-8.6022 0.56897,-16.9272 1.02007,-18.5001 1.28162,-4.4688 9.81766,-17.0446 13.38377,-19.7179 9.03193,-6.7705 18.18675,-9.159 31.90224,-8.3235 11.54151,0.7032 13.31888,1.4387 25.25581,10.452 11.62001,8.774 15.16882,13.7178 17.1515,23.8936 2.36052,12.1151 1.98768,18.7419 -1.55181,27.5813 -1.67111,4.1735 -3.03839,8.0661 -3.03839,8.6503 0,0.5842 -3.09553,4.2072 -6.87895,8.0511 -8.52875,8.6652 -9.77371,9.0038 -33.12105,9.0071 -15.27287,0 -18.05193,-0.248 -21.83688,-1.9656 z m 19.51758,-350.5963 c -1.55062,-0.8405 -6.04005,-2.1997 -9.97651,-3.0205 -10.19853,-2.1265 -12.69357,-3.5912 -21.09227,-12.382 -11.2702,-11.7964 -11.15618,-11.4681 -10.86591,-31.2811 0.25202,-17.2025 0.9192,-20.5255 4.76114,-23.714 0.90146,-0.7482 2.49083,-2.9654 3.53193,-4.9272 3.67737,-6.9295 5.11706,-7.9473 16.96563,-11.9944 6.32241,-2.1595 13.52473,-4.2192 16.00515,-4.577 4.97791,-0.7181 15.62422,1.3585 22.39412,4.368 6.21085,2.761 17.11219,12.7547 21.85992,20.0398 l 4.2361,6.5001 v 10.5483 c 0,9.2001 -0.42541,11.8786 -3.32833,20.9567 -2.72421,8.5193 -4.05934,11.1511 -7.35574,14.5 -2.21507,2.2504 -4.54232,4.7666 -5.17166,5.5916 -2.36035,3.0941 -4.81933,4.2657 -11.70821,5.5783 -3.89595,0.7424 -8.56598,2.2659 -10.37784,3.3857 -3.89027,2.4043 -6.05782,2.4982 -9.87752,0.4277 z M 293.09289,930.96534 c -5.31792,-0.7722 -5.61038,-0.99696 -17.72963,-13.62525 C 263.82355,905.31569 262.96957,904.1506 261.92054,899 c -0.61611,-3.025 -2.49601,-8.65 -4.17756,-12.5 -4.00069,-9.15982 -4.08031,-15.56846 -0.30435,-24.5 1.51139,-3.575 3.40886,-9.16915 4.2166,-12.43145 2.01415,-8.13475 2.49644,-8.86109 11.60817,-17.48244 4.40968,-4.17236 9.67829,-9.21417 11.70802,-11.20401 3.0401,-2.98037 4.86128,-3.8218 10.33487,-4.77498 3.65446,-0.6364 8.71785,-2.04584 11.25199,-3.1321 6.16668,-2.64335 12.23521,-2.48901 26.22789,0.66703 13.92193,3.14008 17.99657,5.01914 22.97733,10.59623 2.05508,2.30112 6.74119,7.12638 10.41359,10.72279 10.71471,10.493 11.0747,11.64486 11.57581,37.03995 l 0.42428,21.50102 -3.21519,3.99898 c -1.76836,2.19944 -4.44802,6.71924 -5.9548,10.044 -1.96701,4.34026 -4.53991,7.67945 -9.1234,11.84062 -8.27832,7.51557 -13.03133,10.21456 -20.31745,11.53721 -6.68511,1.21356 -38.21014,1.24238 -46.47345,0.0425 z M 310,757.06287 c -1.375,-0.42087 -4.75,-1.907 -7.5,-3.30252 -2.75,-1.39552 -7.37799,-3.24283 -10.28442,-4.10515 -12.38987,-3.67597 -24.29599,-13.70907 -27.70928,-23.35016 -0.93564,-2.64277 -3.50591,-8.85504 -5.7117,-13.80504 -2.86292,-6.42463 -4.15653,-10.86669 -4.52073,-15.52339 -0.46572,-5.95495 -0.1621,-7.34915 3.48441,-16 2.19702,-5.21213 4.51593,-11.10607 5.15314,-13.09764 0.98898,-3.09104 6.3505,-11.14977 13.89598,-20.8866 1.06879,-1.37919 4.36186,-3.37051 7.31793,-4.42516 2.95607,-1.05465 7.57205,-3.42017 10.25774,-5.25672 2.68568,-1.83655 5.93558,-3.60335 7.22199,-3.92622 1.28641,-0.32286 9.88903,-0.41564 19.11694,-0.20617 18.24329,0.41412 19.78233,0.81377 26.77394,6.95248 1.93761,1.70124 7.00259,5.41797 11.25551,8.2594 7.11223,4.75176 8.12435,5.87264 12.61598,13.97165 4.2716,7.70226 5.00338,9.89119 5.8411,17.4719 0.52673,4.76656 0.80779,14.96647 0.62458,22.66647 -0.3653,15.35299 -0.35728,15.3284 -8.83311,27.07826 -8.47462,11.74819 -15.99783,17.84093 -24.5,19.84154 -1.65,0.38826 -4.575,1.95459 -6.5,3.48075 -1.925,1.52615 -4.48292,3.29787 -5.68426,3.93714 -2.41226,1.28364 -18.33287,1.44429 -22.31574,0.22518 z M 440.33574,1224 c -0.47003,-4.0951 -0.83102,-4.9891 -1.41322,-3.5 -0.98762,2.5261 -1.10906,10.2161 -0.21319,13.5 0.6516,2.3885 0.71717,2.3439 1.46986,-1 0.43331,-1.925 0.50376,-5.975 0.15655,-9 z m -9.48032,-855.63459 c 6.07358,-1.58197 8.56789,-3.34952 10.78966,-7.64596 1.7666,-3.41623 4.88526,-13.39891 6.40393,-20.49864 0.62108,-2.90356 2.2546,-6.61661 3.63003,-8.25122 1.75098,-2.08092 2.79945,-4.99552 3.49685,-9.72081 1.59483,-10.8058 2.67694,-13.94034 5.84467,-16.93017 2.52983,-2.38775 2.98107,-3.56713 2.99026,-7.81536 0.006,-2.75179 0.68603,-7.22912 1.51127,-9.94963 0.82525,-2.7205 1.78171,-7.97265 2.12548,-11.67143 0.59917,-6.44683 0.50919,-6.83241 -2.17486,-9.3199 l -2.79988,-2.59484 -145.75601,0.26627 -145.75601,0.26628 -2.67634,2.5 c -2.32229,2.16928 -2.61901,3.10666 -2.24296,7.0859 0.27907,2.95309 1.7258,6.69163 4.06327,10.5 2.68717,4.37814 3.92747,7.86193 4.77568,13.4141 0.63019,4.125 2.26664,9.7148 3.63656,12.42178 1.36992,2.70698 3.79924,11.25698 5.3985,19 3.7362,18.08942 4.10898,19.14576 9.8135,27.80899 4.77266,7.24806 8.22723,11.01508 11.07098,12.07234 0.825,0.30672 50.7231,0.54859 110.88467,0.53748 92.45362,-0.0171 110.24931,-0.2454 114.97075,-1.47518 z m 34.80351,-116.40103 c 5.97878,-1.33987 8.03507,-3.15415 9.4901,-8.37318 0.82403,-2.95572 1.08152,-30.04145 0.92773,-97.5912 -0.19928,-87.53105 -0.32758,-93.759954 -2.00985,-97.572015 -1.26326,-2.862574 -2.95087,-4.644651 -5.68195,-6 -3.77732,-1.874565 -7.93509,-1.933668 -150.05718,-2.133086 -144.02038,-0.202082 -146.20905,-0.176133 -148.67384,1.762675 -1.3759,1.082277 -3.31603,4.324573 -4.31141,7.205101 -1.6955,4.906575 -1.81058,11.110502 -1.82236,98.237325 -0.0135,99.90987 -0.0399,99.37282 5.08223,103.40189 2.53046,1.99046 3.89941,2.00973 147.40097,2.07464 100.11075,0.0453 146.33198,-0.26732 149.65556,-1.01215 z M 72.235594,1631.0773 c -1.795423,-0.4568 -5.103505,-2.1236 -7.351294,-3.7039 -2.247789,-1.5804 -6.050261,-4.0174 -8.449939,-5.4156 C 51.255582,1618.9403 47,1615.1138 47,1613.4746 c 0,-0.6472 -1.114622,-3.273 -2.476938,-5.8352 -8.564748,-16.1081 -3.867482,-41.4242 10.428611,-56.2055 2.99842,-3.1002 6.59842,-6.0987 8,-6.6633 1.49504,-0.6023 10.793942,-0.9636 22.497806,-0.8741 22.810341,0.1743 20.450211,-0.5803 33.872991,10.8295 10.73924,9.1287 11.59504,11.3154 11.93525,30.4959 l 0.24228,13.6594 -5.08187,9.8093 c -5.53545,10.6849 -9.68123,14.7642 -20.37736,20.0507 -4.9391,2.4411 -6.654077,2.7205 -18.000005,2.9323 -6.897421,0.1288 -14.009748,-0.1395 -15.805171,-0.5963 z m 8.047264,-890.17154 c -1.832555,-1.17374 -6.351525,-2.4859 -10.5,-3.04885 -7.191722,-0.97594 -7.36719,-1.07148 -14.022017,-7.63503 -5.662468,-5.5848 -7.081143,-7.69121 -8.879681,-13.1843 -1.177287,-3.59567 -3.207165,-9.11152 -4.510841,-12.25745 -1.913881,-4.61843 -2.369684,-7.50688 -2.367022,-15 l 0.0033,-9.28013 4.246702,-5.97463 C 46.588984,671.23932 51.65,665.34565 55.5,661.42831 62.286642,654.52297 62.809562,654.20978 72.656304,651.15294 78.242271,649.41882 84.350855,648 86.230934,648 c 1.880079,0 7.673982,1.50123 12.875341,3.33606 11.537775,4.07007 21.570165,11.60225 27.789015,20.86361 L 131,678.31257 v 16.69368 16.69367 l -3.02276,4.1728 c -1.66252,2.29504 -4.85184,5.85006 -7.08739,7.90004 -2.23554,2.04998 -6.11222,5.71227 -8.61484,8.13841 -3.38449,3.28106 -6.82309,5.26656 -13.421946,7.75 -10.247083,3.85644 -14.090177,4.114 -18.570206,1.24459 z"
       id="path7993" />
  </g>
</svg>
