<?xml version="1.0" encoding="UTF-8" standalone="no"?>
<!-- Created with Inkscape (http://www.inkscape.org/) -->

<svg
   version="1.1"
   id="svg5806"
   width="515"
   height="2340"
   viewBox="0 0 515 2340"
   sodipodi:docname="e+.svg"
   inkscape:version="1.1.1 (3bf5ae0d25, 2021-09-20)"
   xmlns:inkscape="http://www.inkscape.org/namespaces/inkscape"
   xmlns:sodipodi="http://sodipodi.sourceforge.net/DTD/sodipodi-0.dtd"
   xmlns="http://www.w3.org/2000/svg"
   xmlns:svg="http://www.w3.org/2000/svg">
  <defs
     id="defs5810" />
  <sodipodi:namedview
     id="namedview5808"
     pagecolor="#ffffff"
     bordercolor="#666666"
     borderopacity="1.0"
     inkscape:pageshadow="2"
     inkscape:pageopacity="0.0"
     inkscape:pagecheckerboard="0"
     showgrid="false"
     inkscape:zoom="0.33418803"
     inkscape:cx="-86.777494"
     inkscape:cy="1170"
     inkscape:window-width="1920"
     inkscape:window-height="986"
     inkscape:window-x="-11"
     inkscape:window-y="-11"
     inkscape:window-maximized="1"
     inkscape:current-layer="g5812" />
  <g
     inkscape:groupmode="layer"
     inkscape:label="Image"
     id="g5812">
    <path
       style="fill:#000000"
       d="m 298.24138,2326.6748 c -5.94939,-3.3041 -6.92457,-8.6982 -4.82245,-26.6748 0.86825,-7.425 1.57919,-15.4125 1.57986,-17.75 L 295,2278 h -22.25 c -20.29034,0 -22.53146,-0.1754 -25.44574,-1.9523 -4.02262,-2.4528 -5.25438,-7.6073 -3.20358,-13.4061 2.86492,-8.1008 10.51864,-10.6371 26.67707,-8.8404 5.94791,0.6614 13.83116,1.2025 17.51832,1.2025 H 295 l 0.006,-16.25 c 0.006,-17.3314 0.90258,-22.8326 4.34027,-26.6289 4.58513,-5.0635 13.51786,-6.6735 17.79337,-3.2071 2.34736,1.9032 2.36078,2.0352 2.36078,23.2331 v 21.3189 l 11.5,-0.3173 c 8.6066,-0.2376 12.60128,-0.7994 15.87712,-2.2331 6.12912,-2.6824 13.28954,-2.5383 16.61947,0.3344 4.448,3.8373 5.41928,13.8341 1.89117,19.4648 -2.69265,4.2974 -4.96956,4.7622 -25.88776,5.2852 l -20,0.5 v 21.5 c 0,23.3379 -0.54868,26.2016 -5.5,28.706 -3.20043,1.6188 -12.82187,1.5997 -15.75862,-0.031 z M 181.90021,2160.8795 c -1.97989,-1.1555 -4.38272,-3.4263 -5.33964,-5.0462 -1.64929,-2.7921 -1.74819,-49.2264 -1.90021,-892.1393 L 174.5,374.5 l -2.25,-5.28702 c -1.45264,-3.4134 -2.25055,-7.31159 -2.25155,-11 -0.002,-5.52069 -0.39236,-6.63739 -5.34263,-15.26409 -1.01429,-1.7676 -2.23894,-6.00134 -2.72143,-9.40833 -0.48249,-3.40699 -1.78022,-8.18488 -2.88386,-10.61754 -1.10363,-2.43266 -2.01788,-5.54802 -2.03165,-6.92302 -0.0138,-1.375 -1.59866,-5.6242 -3.52196,-9.44267 -2.90673,-5.77092 -3.50433,-8.04937 -3.54081,-13.5 -0.0241,-3.60653 -0.75009,-8.35733 -1.61322,-10.55733 -0.86312,-2.2 -2.60259,-6.925 -3.86548,-10.5 -1.26289,-3.575 -3.22758,-8.56872 -4.36597,-11.09716 -2.05133,-4.5561 -2.07057,-5.58871 -2.15518,-115.62762 -0.0919,-119.489514 -0.21679,-116.459868 4.91537,-119.206517 1.45746,-0.78001 48.72473,-1.017438 165.33466,-0.830492 159.61425,0.25589 163.36599,0.305516 166.50133,2.20236 1.76419,1.067314 3.78919,3.317314 4.5,5 1.02993,2.438141 1.29238,25.228237 1.29238,112.226079 0,109.11897 -9.1e-4,109.1679 -2.08742,112 -3.50799,4.76157 -4.36967,6.93313 -5.8769,14.81072 -0.97003,5.0699 -2.61435,9.4801 -4.96008,13.30337 -3.52859,5.75119 -5.27845,13.48883 -7.14512,31.59476 -0.52409,5.08341 -1.11118,6.37092 -4.35487,9.55039 -3.34591,3.27966 -3.8155,4.36852 -4.36637,10.1245 -0.564,5.89315 -7.01686,26.13287 -9.98111,31.30622 -0.9673,1.68817 -1.33432,191.94518 -1.72813,895.82009 l -0.5,893.6767 -2.10774,2.8233 -2.10774,2.8233 -124.89226,0.2402 -124.89226,0.2402 z m 242.43907,-12.7283 c 1.37495,-1.2918 2.99059,-3.5418 3.59031,-5 0.78291,-1.9036 1.01708,-127.4964 0.8304,-445.3734 L 428.5,1255.0555 l -2.12045,-2.1204 c -2.02033,-2.0203 -2.2684,-2.0439 -5.25385,-0.5001 -1.72338,0.8912 -6.90636,5.3848 -11.51775,9.9858 -9.68038,9.6586 -12.10934,10.5792 -27.91377,10.5792 -11.01577,0 -14.33072,-0.8453 -21.07349,-5.3734 -2.81638,-1.8913 -6.8377,-3.9757 -8.93628,-4.6319 -3.83815,-1.2002 -5.56273,-3.1364 -12.06919,-13.5506 l -2.88478,-4.6173 0.51775,-16.1634 c 0.67186,-20.9746 2.15699,-25.3714 11.6558,-34.5077 8.33207,-8.0141 9.94912,-8.8242 20.17464,-10.1063 12.97757,-1.6273 20.04301,-1.2952 29.25788,1.3752 14.54134,4.2139 17.33869,5.9324 22.20528,13.6416 1.36582,2.1636 2.91182,3.9338 3.43557,3.9338 1.35845,0 2.7945,-3.0198 4.00525,-8.4224 1.65357,-7.3786 1.40852,-808.98923 -0.24836,-812.44619 C 424.90251,376.22318 430.76364,376.5 308.5,376.5 h -112 l -3.80107,2.36312 c -2.09058,1.29972 -4.4525,3.35734 -5.24871,4.5725 -1.26031,1.92349 -1.44876,101.06377 -1.45627,766.13688 -0.006,500.7038 0.33217,765.1093 0.98044,767.3572 1.15072,3.9902 2.45995,5.0339 6.34135,5.055 4.1118,0.022 6.42782,-1.5617 8.649,-5.9156 1.99403,-3.9086 3.31518,-5.1568 12.79233,-12.0854 7.34787,-5.372 12.59804,-6.3134 32.32466,-5.7961 14.33149,0.3758 16.94246,0.7034 20.54248,2.5776 5.00063,2.6034 8.25677,6.3187 10.74916,12.2652 1.03035,2.4583 3.35545,7.4806 5.16688,11.1607 3.77873,7.6769 5.89649,16.5564 5.18426,21.7367 -0.27012,1.9647 -2.23114,7.7984 -4.35782,12.9637 -4.24639,10.3138 -8.5184,15.5349 -16.78878,20.5188 -9.00473,5.4264 -11.95561,6.0918 -25.90832,5.8419 -14.8411,-0.2658 -18.99884,-1.5917 -26.71022,-8.5183 -2.5925,-2.3286 -5.91592,-5.059 -7.38537,-6.0674 -1.46945,-1.0085 -3.88724,-4.3788 -5.37287,-7.4897 -3.17948,-6.6577 -6.64771,-9.1098 -10.81148,-7.6438 -3.79787,1.3372 -4.32317,4.0031 -4.83695,24.5474 -0.24181,9.6693 -0.51838,17.9943 -0.6146,18.5 -0.0962,0.5058 -0.12165,32.5308 -0.0565,71.1667 l 0.11842,70.2471 3.50626,3.881 c 6.9474,7.69 -2.93529,7.1302 121.16343,6.8636 l 111.16969,-0.2388 2.4999,-2.3488 z M 288.04267,1801.8615 c -3.00153,-0.4976 -7.81053,-1.9821 -10.68666,-3.2988 -5.96085,-2.729 -8.13001,-6.0427 -10.86533,-16.5987 -0.91441,-3.5288 -2.97292,-8.9018 -4.57448,-11.94 -2.2359,-4.2416 -2.91241,-6.8582 -2.91406,-11.2711 -0.002,-5.121 0.36552,-6.156 3.37272,-9.5 1.85617,-2.0641 4.40541,-6.2279 5.66496,-9.2529 2.8315,-6.8002 4.39988,-8.5718 14.26001,-16.1075 9.4953,-7.2568 9.97621,-7.4494 20.828,-8.342 12.19815,-1.0034 17.005,-0.045 24.2536,4.836 3.36521,2.2659 7.79121,4.8916 9.83555,5.8348 2.60284,1.2008 4.47702,3.1482 6.25266,6.4968 1.39463,2.63 3.47792,5.9599 4.62954,7.3997 2.6809,3.3516 6.10131,17.6446 6.04961,25.2796 -0.03,4.4305 -0.71246,7.1667 -2.74357,11 -1.487,2.8064 -4.40212,8.4892 -6.47803,12.6285 -2.07592,4.1392 -4.59627,8.2637 -5.60079,9.1655 -3.69769,3.3197 -13.24948,4.815 -29.97074,4.6917 -8.72062,-0.064 -18.31146,-0.524 -21.31299,-1.0216 z M 323,1790.0312 c 3.34193,-1.6584 6.22784,-4.536 11.21404,-11.182 7.65388,-10.2016 8.93414,-14.1887 6.53059,-20.3383 -7.85624,-20.1005 -8.64468,-21.1558 -20.1785,-27.0101 -10.22041,-5.1876 -16.14816,-5.4185 -22.30333,-0.8688 -2.33047,1.7227 -7.15955,4.3741 -10.73131,5.8921 -6.179,2.6261 -6.58988,3.016 -8.46803,8.0358 -1.08566,2.9017 -2.74273,8.161 -3.68236,11.6874 l -1.70844,6.4115 2.77275,7.6024 c 2.29684,6.2976 3.87731,8.7234 9.20837,14.1337 4.4967,4.5635 7.40131,6.69 9.64092,7.0583 12.1798,2.0028 21.79878,1.5091 27.7053,-1.422 z m -42.5,-150.8499 c -1.65,-1.0422 -3.8989,-2.9054 -4.99756,-4.1404 -1.09866,-1.235 -4.78053,-3.5073 -8.18194,-5.0496 -5.07689,-2.302 -6.56744,-3.555 -8.32348,-6.9971 -1.1765,-2.3062 -3.85706,-6.0608 -5.95679,-8.3436 -2.09973,-2.2828 -4.31525,-5.9506 -4.92338,-8.1506 -1.3628,-4.9301 -1.43451,-37.4117 -0.0954,-43.2142 2.29026,-9.924 20.8299,-32.2061 27.98804,-33.6377 1.78059,-0.3561 6.85336,-2.2801 11.27281,-4.2756 7.18871,-3.2457 9.16344,-3.6815 18.74134,-4.1355 9.94805,-0.4715 11.10247,-0.3259 16.30663,2.0567 3.08036,1.4102 6.55818,3.4561 7.72847,4.5464 1.1703,1.0903 5.79835,3.1459 10.28455,4.5681 7.30414,2.3155 8.79604,3.2394 14.273,8.8388 7.33824,7.5023 7.54389,7.8743 10.84605,19.619 2.40684,8.5603 2.55927,10.263 2.00967,22.4484 -0.32708,7.2521 -1.29683,16.5562 -2.15498,20.6757 -1.40656,6.7522 -2.04942,7.9838 -6.52493,12.5 -2.73056,2.7555 -5.66182,6.1864 -6.51391,7.6244 -0.85209,1.4379 -2.8846,3.4032 -4.51668,4.3673 -1.63209,0.9641 -3.87525,3.2916 -4.9848,5.1721 -3.82948,6.4905 -5.35691,6.8131 -33.77669,7.1342 -23.59408,0.2666 -25.72423,0.1465 -28.5,-1.6068 z m 41.38987,-10.749 c 5.82664,-1.8665 19.81443,-10.124 21.68869,-12.8036 9.01501,-12.8887 12.41966,-20.6101 12.42065,-28.1686 9.3e-4,-7.0841 -2.30338,-16.7011 -5.02106,-20.9553 -1.05573,-1.6526 -3.29663,-5.3158 -4.97976,-8.1405 -3.32046,-5.5723 -12.70268,-14.0009 -22.99775,-20.6602 -6.25635,-4.0469 -6.7985,-4.2041 -14.5,-4.2041 -7.32936,0 -8.41141,0.27 -12.89638,3.2183 -2.69266,1.77 -7.95447,4.387 -11.69291,5.8156 -7.65231,2.9241 -12.49258,7.4703 -15.71892,14.764 -1.09228,2.4693 -3.39178,5.5289 -5.11001,6.7993 -4.22177,3.1213 -5.34831,7.5997 -4.93223,19.6075 0.33566,9.6868 0.48297,10.2607 3.64201,14.1891 1.8107,2.2517 3.95135,6.0092 4.75698,8.3501 2.30909,6.7093 3.59619,8.6828 7.05837,10.8226 1.77815,1.0989 4.16671,3.5806 5.30792,5.5148 2.68949,4.5584 7.31723,6.4359 18.03692,7.318 10.6089,0.873 19.21304,0.3668 24.93748,-1.467 z m -41.40625,-183.2336 c -7.84173,-4.9009 -14.46227,-15.0673 -14.47804,-22.2324 -0.003,-1.3936 -1.58058,-4.9784 -3.50558,-7.9663 -3.09877,-4.8098 -3.5,-6.19 -3.5,-12.0403 0,-5.9482 0.34954,-7.0993 3.5025,-11.5337 1.92638,-2.7093 4.18818,-6.9901 5.02622,-9.513 1.40882,-4.2411 6.6233,-10.913 8.52912,-10.913 0.45129,0 2.9771,-1.8665 5.61291,-4.1478 6.8193,-5.902 10.2534,-7.0455 22.82925,-7.6012 13.23161,-0.5847 16.39017,0.1749 27.1533,6.5297 10.70852,6.3226 10.63553,6.2526 15.19188,14.5564 9.30159,16.9518 10.2458,31.9918 2.64865,42.1895 -1.24013,1.6646 -3.8898,6.472 -5.88818,10.6832 -3.41765,7.202 -3.97402,7.8239 -9.36953,10.4734 -5.70554,2.8018 -5.85609,2.8184 -28.23612,3.1087 -20.60787,0.2674 -22.75366,0.1334 -25.51638,-1.5932 z m 20.67633,-353.2632 c -1.28703,-0.5157 -6.23703,-1.2372 -11,-1.6033 l -8.65995,-0.6656 -5.68069,-5.7695 c -6.87651,-6.9841 -7.68151,-8.4062 -8.86116,-15.6542 -0.60787,-3.7349 -2.02372,-7.1988 -4.15631,-10.1684 -2.6061,-3.6289 -3.30981,-5.6883 -3.62267,-10.6017 -0.35716,-5.609 -0.0392,-6.7742 3.96627,-14.5353 2.39501,-4.6406 4.96594,-9.9252 5.71318,-11.7435 0.74723,-1.8183 2.99723,-4.3607 5,-5.6498 2.00276,-1.2891 5.0456,-3.8633 6.76186,-5.7205 4.22084,-4.5675 12.31753,-7.068 24.67886,-7.6215 8.27148,-0.3704 10.84406,-0.089 16.5,1.8068 15.06659,5.0493 20.10236,9.2528 25.97542,21.6824 4.27897,9.0559 7.22524,18.6307 7.22524,23.4806 0,1.5135 -1.11926,6.2565 -2.48723,10.5399 -1.36798,4.2835 -2.49298,8.891 -2.5,10.239 -0.009,1.6616 -1.88032,4.2671 -5.81115,8.0897 -8.45401,8.2213 -13.39022,10.7884 -23.08146,12.0036 -4.49381,0.5634 -9.31352,1.459 -10.71046,1.9901 -3.0978,1.1778 -6.14524,1.1453 -9.24975,-0.099 z m -21.2494,-165.69076 c -1.4242,-0.95961 -5.6992,-3.83272 -9.5,-6.38469 -8.48512,-5.69717 -9.68713,-7.00263 -12.79304,-13.89404 -1.35492,-3.0063 -4.29815,-7.15897 -6.5405,-9.22813 L 247,892.97575 v -21.92278 c 0,-12.3887 0.44073,-23.08199 1.01343,-24.58829 1.06677,-2.80583 8.40886,-13.29628 13.48491,-19.26737 1.64908,-1.93986 5.47408,-4.61302 8.5,-5.94036 3.02591,-1.32734 6.85166,-3.7065 8.50166,-5.28702 11.05549,-10.59 36.85114,-10.34112 59.0902,0.57011 4.9996,2.45298 9.46385,4.45996 9.92054,4.45996 0.45669,0 3.95472,3.21872 7.77341,7.15271 7.10738,7.322 8.71585,10.48157 8.71585,17.12082 0,2.0827 1.17897,6.58568 2.61993,10.0066 2.38887,5.67131 2.57341,7.05772 2.09236,15.71987 -0.63776,11.48387 -4.95586,25.51192 -10.51132,34.1477 -2.03553,3.16416 -4.60097,7.2053 -5.70097,8.98031 -2.20472,3.55762 -14.00336,11.3542 -19.5,12.88567 -1.925,0.53634 -14.075,0.97531 -27,0.97548 -20.69817,2.7e-4 -23.80873,-0.20771 -26.08945,-1.74442 z m 11.4595,-173.69066 c -1.72148,-0.74612 -3.41191,-1.8128 -3.75653,-2.3704 -0.34462,-0.5576 -3.81704,-2.23296 -7.71649,-3.72303 -10.5768,-4.04162 -20.42978,-14.81453 -30.90492,-33.79038 -1.97273,-3.57362 -2.09331,-5.05176 -1.80311,-22.10392 l 0.311,-18.2742 4.07499,-5.89608 c 2.24125,-3.24284 4.678,-7.40602 5.415,-9.25151 0.737,-1.84549 4.30325,-6.25638 7.925,-9.80198 5.15548,-5.04708 9.08153,-7.68352 18.08501,-12.14457 l 11.5,-5.69801 14.26032,0.0721 14.26032,0.0721 9.23968,4.78222 c 5.08182,2.63022 10.81468,6.45825 12.73968,8.50674 1.925,2.04849 4.76416,4.54578 6.30924,5.54954 3.97598,2.58299 10.87886,12.78601 14.21937,21.01737 2.69434,6.63915 2.83634,7.75759 2.75461,21.69607 -0.0852,14.5296 -0.12909,14.80683 -3.87464,24.47355 -3.5452,9.14965 -4.34836,10.34006 -12.50803,18.53867 -5.91774,5.94598 -10.91761,9.9215 -15.56006,12.37218 -3.76227,1.98605 -8.19049,4.35177 -9.84049,5.25716 -4.05285,2.22388 -30.41164,2.76145 -35.12995,0.71645 z M 251.5,1972.9401 c 8.08077,-1.5603 12.86863,-6.4507 17.45532,-17.8293 3.09735,-7.6838 3.28039,-8.7802 2.74155,-16.4221 -0.80456,-11.4104 -2.16632,-15.2072 -7.49886,-20.9081 -6.92882,-7.4075 -8.99798,-8.2137 -20.69801,-8.0644 -5.5,0.07 -11.21421,0.5927 -12.69825,1.1613 -1.48404,0.5685 -5.45173,3.7447 -8.81709,7.0582 -5.36158,5.279 -6.4916,7.0935 -9.131,14.6616 -3.81737,10.9459 -3.83633,13.3224 -0.1747,21.9027 2.78426,6.5243 3.48816,7.3327 10.35881,11.8966 8.32605,5.5306 16.25768,8.7603 19.96223,8.1284 1.375,-0.2345 5.2,-0.9477 8.5,-1.5849 z M 412.47214,365.00525 c 10.20099,-1.26966 13.32388,-2.83274 18.80107,-9.41038 3.91608,-4.7029 7.16458,-13.73091 10.67046,-29.65468 1.06147,-4.82122 2.67704,-8.88742 4.45974,-11.22466 2.36602,-3.10202 2.90727,-5.01255 3.52431,-12.44019 0.40094,-4.82644 1.23535,-9.71926 1.85425,-10.87293 0.6189,-1.15368 1.58219,-4.93483 2.14065,-8.40256 0.61463,-3.81652 1.80903,-7.14975 3.02625,-8.44542 3.01881,-3.21338 4.4309,-7.9763 3.10133,-10.46063 -2.55177,-4.76803 3.16626,-4.58835 -149.04415,-4.68347 -78.92168,-0.0493 -145.03004,0.25678 -146.90748,0.68021 -1.87744,0.42343 -4.50206,1.85841 -5.83249,3.18884 -2.38209,2.38209 -2.39335,2.47842 -0.73888,6.31979 0.92405,2.14546 2.30761,8.85083 3.0746,14.90083 1.1056,8.72107 2.1189,12.48698 4.89103,18.17741 3.72713,7.65079 6.46817,17.5337 6.49239,23.40848 0.0106,2.56627 1.0173,4.87266 3.54051,8.11132 2.94082,3.77467 3.75829,5.962 4.92749,13.18473 1.82432,11.26959 4.03366,15.7906 8.40746,17.2043 4.82116,1.5583 211.34854,1.9453 223.61146,0.41901 z m 48.98142,-119.40203 c 1.80272,-1.375 4.35064,-4.66072 5.66205,-7.30161 L 469.5,233.5 V 141.35175 49.2035 l -4.05686,-4.786278 c -2.23127,-2.632453 -5.16931,-5.616846 -6.52897,-6.631985 C 456.5364,36.009981 450.7023,35.939975 306.0703,35.951176 136.24361,35.964328 153.25149,35.046668 150.49004,44.345506 149.21645,48.634139 149,62.927159 149,142.73868 c 0,95.11564 0.19605,100.51279 3.75887,103.48108 2.54783,2.12267 15.60329,2.28883 163.57907,2.08185 l 141.83795,-0.19839 z M 61,1627.9003 c -4.633708,-0.9067 -18.206964,-9.4004 -24.486985,-15.3233 -4.580958,-4.3204 -5.501035,-8.7718 -5.507438,-26.6455 -0.0077,-21.5799 0.668636,-23.5749 11.247495,-33.1759 13.230365,-12.0075 12.534424,-11.7475 31.459415,-11.7519 19.235287,0 23.365594,1.128 33.956273,9.3098 5.68972,4.3955 7.07909,6.1015 9.11024,11.1865 5.94752,14.8895 6.83244,24.9512 2.85903,32.508 -1.29908,2.4706 -3.13989,6.8685 -4.09068,9.773 -0.95078,2.9046 -2.86308,6.6292 -4.24955,8.2769 -2.83441,3.3685 -15.635285,14.0139 -18.982059,15.7857 -2.558755,1.3547 -24.479716,1.3944 -31.315741,0.057 z m 3.5,-890.89517 c -2.2,-1.02894 -6.174184,-2.85893 -8.831521,-4.06664 -4.866668,-2.2118 -15.680778,-12.0921 -21.193128,-19.36308 L 31.5,709.65083 31.57789,689.07541 c 0.04284,-11.31647 0.492841,-21.55262 1,-22.74699 0.507159,-1.19436 4.401209,-5.34115 8.653445,-9.21509 7.238552,-6.59457 8.379074,-7.24475 17.893669,-10.20071 13.053101,-4.05529 20.198567,-3.77997 33.374993,1.28593 7.782073,2.99196 9.869883,4.33728 15.428093,9.94139 5.85704,5.90541 6.73461,7.36417 9.87837,16.42062 4.71311,13.57738 5.00298,17.84455 1.85418,27.29558 -1.40069,4.20412 -3.05676,9.66886 -3.68016,12.14386 -0.89958,3.57148 -2.63911,5.96892 -8.43045,11.61897 -6.92859,6.75955 -7.593696,7.15579 -13.173518,7.84826 -3.232083,0.40111 -8.450455,1.81007 -11.596383,3.13103 -6.789808,2.851 -12.769702,2.9841 -18.280132,0.40687 z"
       id="path5891" />
  </g>
</svg>
