<?xml version="1.0" encoding="UTF-8" standalone="no"?>
<!-- Created with Inkscape (http://www.inkscape.org/) -->

<svg
   version="1.1"
   id="svg8102"
   width="515"
   height="2340"
   viewBox="0 0 515 2340"
   sodipodi:docname="f++.svg"
   inkscape:version="1.1.1 (3bf5ae0d25, 2021-09-20)"
   xmlns:inkscape="http://www.inkscape.org/namespaces/inkscape"
   xmlns:sodipodi="http://sodipodi.sourceforge.net/DTD/sodipodi-0.dtd"
   xmlns="http://www.w3.org/2000/svg"
   xmlns:svg="http://www.w3.org/2000/svg">
  <defs
     id="defs8106" />
  <sodipodi:namedview
     id="namedview8104"
     pagecolor="#ffffff"
     bordercolor="#666666"
     borderopacity="1.0"
     inkscape:pageshadow="2"
     inkscape:pageopacity="0.0"
     inkscape:pagecheckerboard="0"
     showgrid="false"
     inkscape:zoom="0.33418803"
     inkscape:cx="-86.777494"
     inkscape:cy="1170"
     inkscape:window-width="1920"
     inkscape:window-height="986"
     inkscape:window-x="-11"
     inkscape:window-y="-11"
     inkscape:window-maximized="1"
     inkscape:current-layer="g8108" />
  <g
     inkscape:groupmode="layer"
     inkscape:label="Image"
     id="g8108">
    <path
       style="fill:#000000"
       d="m 287.94309,2332.9431 c -1.93262,-1.9326 -2.0147,-2.7786 -1.35834,-14 L 287.28333,2307 H 274.71309 C 260.81861,2307 259,2306.3057 259,2301.0012 c 0,-1.9233 0.89813,-3.5643 2.75,-5.0246 2.52854,-1.994 3.67612,-2.1407 14.25,-1.8226 l 11.5,0.346 0.5,-11.1021 c 0.31765,-7.053 0.98109,-11.6796 1.8191,-12.6857 1.83913,-2.208 6.63873,-3.0727 9.26211,-1.6687 2.103,1.1255 2.16985,1.5844 1.53872,10.563 -0.91271,12.9844 -0.45509,14.3935 4.67459,14.3935 2.24274,0 6.93462,-0.7165 10.42641,-1.5922 5.82724,-1.4614 6.55119,-1.4595 8.81389,0.023 1.99553,1.3075 2.46518,2.4448 2.46518,5.9697 0,6.3405 -1.32092,7.0143 -14.89807,7.5994 l -11.60193,0.5 0.36986,12.1301 c 0.34426,11.2907 0.22314,12.2769 -1.75,14.25 -2.79972,2.7998 -8.40842,2.8313 -11.17677,0.063 z m 0,-80 c -1.93262,-1.9326 -2.0147,-2.7786 -1.35834,-14 L 287.28333,2227 H 274.71309 C 260.81861,2227 259,2226.3057 259,2221.0012 c 0,-1.9233 0.89813,-3.5643 2.75,-5.0246 2.52854,-1.994 3.67612,-2.1407 14.25,-1.8226 l 11.5,0.346 0.5,-11.1021 c 0.31765,-7.053 0.98109,-11.6796 1.8191,-12.6857 1.83913,-2.208 6.63873,-3.0727 9.26211,-1.6687 2.103,1.1255 2.16985,1.5844 1.53872,10.563 -0.91271,12.9844 -0.45509,14.3935 4.67459,14.3935 2.24274,0 6.93462,-0.7165 10.42641,-1.5922 5.82724,-1.4614 6.55119,-1.4595 8.81389,0.023 1.99553,1.3075 2.46518,2.4448 2.46518,5.9697 0,6.3405 -1.32092,7.0143 -14.89807,7.5994 l -11.60193,0.5 0.36986,12.1301 c 0.34426,11.2907 0.22314,12.2769 -1.75,14.25 -2.79972,2.7998 -8.40842,2.8313 -11.17677,0.063 z M 196.5,2161.3509 c -10.60824,-0.5449 -11.40688,-0.8861 -13.58184,-5.803 -1.91049,-4.319 -1.9362,-16.3158 -1.92318,-897.3047 0.009,-603.66608 -0.3177,-894.67192 -1.00827,-898.31326 -0.5618,-2.96238 -2.33218,-7.90462 -3.93417,-10.98274 -1.80569,-3.46953 -3.70766,-9.7489 -5.00434,-16.52189 -1.1504,-6.00892 -2.91215,-12.05031 -3.91499,-13.42531 -3.93628,-5.39705 -5.24663,-9.45679 -6.69876,-20.7543 -1.26528,-9.84376 -2.14331,-13.04111 -5.42238,-19.7457 -7.4717,-15.27706 -7.06668,-7.71056 -7.02517,-131.24317 0.0243,-72.259797 0.3926,-112.047398 1.0596,-114.463082 0.56232,-2.036527 2.19258,-4.623245 3.6228,-5.748262 C 155.26452,25.004086 155.59118,25 316.18031,25 h 160.9106 l 2.35995,2.359954 c 1.78232,1.782313 2.51799,3.92403 3.00559,8.75 0.35509,3.514525 0.51016,57.025452 0.34459,118.913166 L 482.5,267.54625 l -3.25,5.06442 c -2.30247,3.5879 -3.25,6.24903 -3.25,9.12758 0,2.23474 -1.1206,6.47034 -2.49023,9.41245 -1.83439,3.94047 -2.4928,7.04154 -2.5,11.77471 -0.008,5.27883 -0.62519,7.68782 -3.45862,13.5 -3.1536,6.46893 -7.76845,22.60647 -9.09798,31.81448 -0.35621,2.467 -1.63138,4.75987 -3.74659,6.7367 L 451.5,357.97339 451,1255.7367 c -0.47596,854.5991 -0.58464,897.9181 -2.26035,900.9837 -0.96819,1.7712 -2.64575,3.6942 -3.7279,4.2733 -1.88023,1.0063 -181.97784,1.0464 -214.51175,0.048 -7.15,-0.2195 -16.15,-0.1588 -20,0.135 -3.85,0.2937 -10.15,0.3722 -14,0.1744 z m 232.23159,-12.8928 c 5.11681,-0.6954 9.92772,-5.0514 10.76488,-9.747 0.31487,-1.7661 0.44448,-201.6611 0.28801,-444.2111 -0.25213,-390.8462 -0.45614,-441.3412 -1.79385,-444 -2.37645,-4.7234 -5.22013,-4.3999 -9.12551,1.0383 -1.98466,2.7636 -6.71662,6.9453 -11.66231,10.3061 -15.33884,10.4235 -13.05605,9.6556 -28.70281,9.6556 -7.7,0 -15.29484,-0.3605 -16.87743,-0.801 -3.42291,-0.9529 -15.62155,-12.7999 -18.04675,-17.5265 -0.93902,-1.8301 -3.21129,-5.2978 -5.04948,-7.7059 -4.76008,-6.2361 -5.82655,-10.3043 -5.34448,-20.3872 0.33149,-6.9333 0.9453,-9.6808 3.0454,-13.6315 1.44663,-2.7213 3.80384,-7.4229 5.23824,-10.4479 6.30138,-13.2889 5.35974,-12.2566 14.0345,-15.3856 11.24334,-4.0554 28.02968,-4.7706 40.75576,-1.7366 14.27932,3.4043 19.73092,7.2595 23.84818,16.8647 2.40145,5.6023 5.30216,5.7936 7.69709,0.5075 1.58832,-3.5058 1.71572,-30.2037 1.95621,-409.91587 0.1637,-258.48684 -0.0928,-407.08642 -0.70537,-408.6977 -0.52943,-1.39251 -2.20026,-3.34287 -3.71295,-4.33413 -2.60429,-1.70658 -8.97585,-1.81643 -119.97013,-2.06842 l -117.21978,-0.26613 -2.8245,2.42954 -2.82451,2.42954 -0.2825,877.83657 c -0.15538,482.8101 -0.0375,879.2192 0.262,880.909 0.74981,4.231 5.86421,9.2346 9.83167,9.6188 5.75134,0.5569 222.08206,-0.1435 226.42042,-0.7331 z M 243.5,1984.3424 c -11.45709,-1.3671 -11.71214,-1.4607 -16.70784,-6.1336 -2.72237,-2.5464 -6.44774,-5.5477 -8.27858,-6.6694 -1.83085,-1.1216 -5.50705,-4.9497 -8.16934,-8.5067 -4.72745,-6.3163 -4.85651,-6.6784 -5.52498,-15.5 -0.37645,-4.968 -0.24463,-11.9173 0.29294,-15.443 1.34379,-8.8133 8.25828,-21.0317 16.56049,-29.2634 l 6.38042,-6.3263 17.72344,-0.3256 c 26.64356,-0.4895 26.68232,-0.4806 35.5939,8.2309 4.82804,4.7196 8.59002,9.5189 10.72474,13.6821 3.27534,6.3877 3.28834,6.4709 3.34646,21.4126 0.0539,13.8455 -0.1088,15.2343 -2.11332,18.0444 -1.19441,1.6744 -3.29364,5.5813 -4.66495,8.6821 -2.62805,5.9425 -6.82516,9.7587 -15.66338,14.242 -7.68512,3.8984 -17.9724,5.2493 -29.5,3.8739 z m 49.57094,-182.9546 c -5.31731,-2.2358 -11.28874,-8.6357 -14.35743,-15.3878 -1.62478,-3.575 -4.25,-7.9782 -5.83382,-9.7848 -2.79182,-3.1846 -2.87969,-3.6138 -2.87969,-14.0685 0,-14.9769 1.37394,-18.9529 9.5536,-27.6467 3.62232,-3.85 8.83906,-9.5759 11.59275,-12.7241 3.44148,-3.9346 6.15513,-6.0431 8.68018,-6.7445 5.25755,-1.4602 27.90976,-1.223 32.17347,0.3369 3.07205,1.124 13.17319,7.1152 18.27241,10.8378 0.97482,0.7116 3.56232,6.638 5.75,13.1696 3.69256,11.0247 3.97674,12.6729 3.96572,23 -0.007,6.376 -0.62231,13.4719 -1.442,16.6243 -1.26546,4.8667 -2.37415,6.3923 -9.62821,13.2492 -5.4512,5.1527 -9.40762,8.0577 -11.808,8.67 -5.88671,1.5015 -40.70122,1.872 -44.03898,0.4686 z m 41.68745,-13.2117 c 3.00521,-1.5704 5.56608,-4.2045 8.702,-8.9507 4.42763,-6.7012 4.44467,-6.7614 4.7416,-16.7434 l 0.29801,-10.0179 -4.66327,-6.4821 c -5.75306,-7.9968 -15.3842,-17.5149 -19.15183,-18.9269 -5.18725,-1.9441 -10.49729,-1.2803 -15.10238,1.8881 -2.3528,1.6188 -7.28802,4.1483 -10.96714,5.6212 -5.14721,2.0605 -7.05692,3.3992 -8.28393,5.8067 -0.87704,1.7209 -3.56041,5.2471 -5.96303,7.8361 -3.56922,3.8459 -4.36842,5.4039 -4.36842,8.5156 0,2.0946 0.90249,5.3764 2.00553,7.2928 1.10305,1.9164 3.86178,7.4102 6.13051,12.2084 3.65775,7.7358 4.60651,8.957 8.37621,10.7819 6.30641,3.0529 11.81166,3.9054 23.48775,3.6369 8.60215,-0.1978 11.2697,-0.6436 14.75839,-2.4667 z M 290,1637.7143 c -12.61864,-4.3287 -20.52614,-11.5211 -27.27713,-24.8105 l -4.77714,-9.4038 0.0309,-23.5 c 0.0362,-27.5734 -1.00303,-24.5577 13.66225,-39.6447 9.08956,-9.351 10.2915,-10.2434 15.36115,-11.4062 3.025,-0.6937 7.14383,-2.347 9.15295,-3.6739 5.79223,-3.8254 12.21966,-5.2773 23.25598,-5.2532 10.88949,0.024 15.85253,1.4959 21.73814,6.4483 1.61912,1.3624 4.83591,2.9482 7.1484,3.5239 10.06725,2.5066 12.25528,4.2603 16.52347,13.2441 2.17724,4.5827 4.75291,8.9913 5.72373,9.7969 0.97081,0.8057 3.1154,4.3898 4.76574,7.9648 4.15841,9.008 4.92419,22.5851 1.77669,31.5 -1.1651,3.3 -2.39837,8.475 -2.74059,11.5 -0.34223,3.025 -1.22161,6.6898 -1.95418,8.1439 -0.73258,1.4541 -6.30853,7.3041 -12.391,13 -14.5771,13.6505 -14.95535,13.7783 -42.49933,14.3582 -19.74972,0.4157 -21.38699,0.3093 -27.5,-1.7878 z m 40.71769,-10.0511 c 2.83445,-0.7353 8.77814,-3.5441 13.20818,-6.2418 7.57847,-4.6151 8.21048,-5.2717 10.69079,-11.1076 1.44988,-3.4115 3.71239,-7.2138 5.02781,-8.4495 5.38889,-5.0626 6.89204,-19.6678 3.24287,-31.509 -3.19195,-10.3574 -5.24646,-13.6854 -13.4031,-21.7108 -8.65801,-8.5187 -17.4748,-14.2901 -24.81696,-16.245 -7.60087,-2.0237 -10.7592,-1.7271 -15.82655,1.4865 -2.50295,1.5874 -6.90061,3.39 -9.77256,4.006 -2.87196,0.6159 -6.17181,1.6283 -7.33301,2.2497 -4.35884,2.3328 -12.04489,10.5187 -14.87475,15.842 -1.61282,3.034 -3.9287,7.0913 -5.1464,9.0163 -2.00317,3.1667 -2.21401,4.7856 -2.21401,17 0,7.425 0.34404,14.7294 0.76454,16.232 0.86046,3.0748 4.60506,7.502 16.23546,19.1949 10.00407,10.0578 13.55482,11.494 28.53207,11.5405 5.79264,0.018 12.85117,-0.569 15.68562,-1.3042 z m -36.14732,-182.7107 c -4.1512,-1.2407 -13.20799,-10.4598 -16.65411,-16.9525 -1.60557,-3.025 -3.93105,-6.7687 -5.16774,-8.3194 -1.99032,-2.4957 -2.28644,-4.1717 -2.57873,-14.5953 -0.18641,-6.6473 0.15462,-13.5763 0.78304,-15.9101 1.2558,-4.6637 9.36003,-14.5629 14.47024,-17.6752 1.80614,-1.1 5.12294,-3.662 7.37067,-5.6934 7.01056,-6.3358 9.41483,-7.1356 22.88483,-7.6123 14.27684,-0.5052 17.36416,0.2801 27.89386,7.0953 8.24553,5.3368 8.64028,5.7682 10.71624,11.7104 0.86467,2.475 2.73034,7.2 4.14595,10.5 2.46787,5.753 2.54766,6.5352 1.93826,19 -0.76431,15.6333 -3.45169,23.2027 -9.97606,28.0991 -2.126,1.5955 -5.44752,4.523 -7.38114,6.5055 l -3.51568,3.6046 -13.90811,0.6454 c -17.7679,0.8245 -27.33221,0.7005 -31.02152,-0.4021 z m 41.65108,-14.1705 c 1.9587,-1.4949 5.29766,-5.0818 7.41991,-7.9708 3.79227,-5.1625 3.86416,-5.4253 4.17958,-15.282 0.28945,-9.0451 0.0641,-10.6064 -2.29596,-15.9116 -1.60443,-3.6066 -4.72704,-7.9758 -8.07094,-11.2931 -2.99972,-2.9759 -5.45404,-5.8297 -5.45404,-6.3419 0,-2.1587 -6.67257,-4.3382 -13.5,-4.4095 -6.43915,-0.067 -7.45581,0.2232 -12.68899,3.6255 -3.12894,2.0342 -7.54617,4.646 -9.81606,5.804 -3.44069,1.7553 -4.62918,3.2191 -7.14607,8.8014 -7.31431,16.2228 -8.00388,19.4428 -4.99211,23.3111 1.02122,1.3117 2.80468,4.5422 3.96323,7.1789 3.31827,7.5519 6.09301,10.7531 11.5805,13.3605 4.76327,2.2632 6.02785,2.4039 19.17958,2.1342 13.56913,-0.2782 14.20932,-0.3873 17.64137,-3.0067 z m -24.14591,-336.2016 c -2.87891,-3.0645 -6.06524,-4.2708 -13.47126,-5.1004 -5.57093,-0.6239 -6.23959,-1.0042 -12.13788,-6.9025 -3.43319,-3.4332 -8.42093,-9.8051 -11.08387,-14.1598 l -4.84169,-7.9177 -0.37694,-15.2357 -0.37694,-15.2356 4.35652,-4.4243 c 2.39609,-2.4334 5.55458,-5.7023 7.01887,-7.2643 12.45942,-13.2911 19.16597,-16.526 34.33765,-16.563 8.54791,-0.021 11.41089,0.4344 19.71621,3.1354 11.57119,3.763 15.09891,6.4765 18.89876,14.5368 1.56884,3.3279 3.73629,7.5749 4.81656,9.4378 1.7278,2.9796 1.96291,5.2885 1.95415,19.1907 l -0.01,15.8036 -2.89833,3.647 c -1.59408,2.0059 -3.13788,4.4019 -3.43066,5.3243 -0.29278,0.9225 -3.91716,4.7429 -8.05419,8.4898 -7.12156,6.4499 -7.87007,6.8618 -14.06476,7.7391 -7.16279,1.0144 -10.91852,2.5932 -13.83514,5.816 -2.45413,2.7118 -3.72986,2.6497 -6.51711,-0.3172 z M 299.5,927.0902 c -8.06179,-0.60286 -11.03202,-1.61647 -13.51943,-4.61361 -0.74522,-0.89793 -3.63321,-2.77214 -6.41776,-4.16491 -6.83919,-3.4208 -9.36745,-5.90168 -12.03731,-11.81168 -1.24232,-2.75 -3.67894,-6.76217 -5.41473,-8.91594 -1.73578,-2.15376 -3.39588,-4.87185 -3.68912,-6.04019 -0.29323,-1.16834 -0.39556,-12.05596 -0.2274,-24.1947 l 0.30575,-22.07045 6,-8.80288 c 3.3,-4.84159 9.24785,-12.03733 13.21745,-15.99055 l 7.21744,-7.18766 10.78256,-2.76686 c 20.15216,-5.17115 18.60826,-5.09643 32.85791,-1.5901 7.05444,1.73584 14.19839,3.81593 15.87545,4.62242 3.24566,1.56082 23.10926,21.1421 25.94727,25.57848 3.28749,5.139 6.71813,18.14974 7.30841,27.7172 0.48166,7.80686 0.2231,10.54296 -1.55923,16.5 -1.17515,3.92768 -2.61842,9.09849 -3.20727,11.49069 -0.87182,3.54175 -3.29752,6.69869 -13.0623,17 -7.43135,7.83967 -13.20592,13.0739 -15.18467,13.76379 -3.82661,1.33416 -33.94141,2.31833 -45.19302,1.47695 z M 302,751.68183 c -1.375,-0.71821 -3.625,-2.01412 -5,-2.8798 -1.375,-0.86568 -5.4667,-2.53841 -9.09267,-3.71717 -8.37897,-2.72392 -14.22388,-7.02369 -17.57967,-12.93241 -1.45327,-2.55885 -4.70901,-6.8062 -7.23498,-9.43856 L 258.5,717.92778 258,697.21389 c -0.5729,-23.73407 -0.0584,-31.15308 2.54783,-36.74231 2.40474,-5.15703 13.57232,-16.34077 19.95217,-19.98104 2.75,-1.56912 7.15287,-4.82881 9.78416,-7.24377 l 4.78416,-4.39082 20.78286,0.32202 20.78285,0.32203 5.44165,3.75 c 2.9929,2.0625 5.98882,3.75 6.6576,3.75 1.90172,0 17.06425,14.22161 20.87092,19.57578 1.88337,2.64899 3.80964,6.41562 4.28061,8.37029 5.90449,24.50535 5.61504,22.36791 4.27973,31.60333 -2.28039,15.77201 -10.0112,31.11277 -21.04894,41.76881 -3.80663,3.67498 -7.30239,6.6844 -7.76837,6.68758 -5.02895,0.0344 -13.28414,2.42632 -17.10236,4.9554 -4.44945,2.9472 -4.93681,3.03862 -16.16631,3.03265 -7.57279,-0.004 -12.44347,-0.45794 -14.07856,-1.31201 z M 427.7922,364.44475 c 5.8042,-0.78425 10.40402,-5.0121 13.27039,-12.19726 1.26106,-3.16112 3.51836,-7.99749 5.01623,-10.74749 1.78523,-3.27756 3.28775,-8.44489 4.36162,-15 1.22799,-7.49592 2.40569,-11.24806 4.70311,-14.98411 1.79964,-2.92656 3.4773,-7.4676 4.06388,-11 3.0083,-18.11621 3.92065,-22.05119 6.38681,-27.54652 3.56706,-7.94849 2.66611,-10.2564 -4.85767,-12.44362 -4.73713,-1.37712 -21.30614,-1.52316 -146.28938,-1.28939 L 173.5,259.5 l -3.25,2.31809 c -3.94107,2.81101 -4.15605,5.54409 -1.23376,15.68509 1.10894,3.84825 2.25576,10.59557 2.5485,14.99404 0.46128,6.93095 0.97869,8.66425 3.88067,13 2.11005,3.15255 3.56411,6.75742 3.9316,9.74711 0.64172,5.22058 6.09077,22.13227 9.90967,30.75567 1.33963,3.025 3.24601,7.73081 4.2364,10.45735 0.99039,2.72654 2.74036,5.87654 3.88882,7 2.08047,2.03519 2.49733,2.04178 114.0881,1.805 61.6,-0.13071 113.93149,-0.49863 116.2922,-0.8176 z m 37.69107,-117.43839 c 1.54103,-0.5859 3.31173,-2.53506 4.3151,-4.75 C 471.36264,238.80322 471.5,230.75069 471.5,142.5 v -96 l -2.40811,-4.203684 c -1.32446,-2.312026 -3.12446,-4.562026 -4,-5 -0.87554,-0.437974 -68.38016,-0.916072 -150.01027,-1.062441 l -148.41839,-0.266125 -2.30259,2.163175 c -4.93466,4.635874 -4.86339,3.107189 -4.8193,103.369075 0.0435,98.96096 0.0942,100.13555 4.51141,104.55275 1.91218,1.91218 4.62086,1.94725 150.38215,1.94725 95.90297,0 149.35982,-0.35165 151.04837,-0.99364 z M 65.287509,1626.1022 c -1.76687,-1.115 -4.054461,-2.8316 -5.083536,-3.8147 -1.029075,-0.9831 -4.481753,-4.0034 -7.672618,-6.7118 -4.210628,-3.5739 -6.460116,-6.4533 -8.203028,-10.5 -1.320799,-3.0666 -3.605697,-7.9363 -5.07755,-10.8215 -3.290909,-6.451 -3.250349,-10.7078 0.1972,-20.6963 C 40.85159,1569.4913 42,1564.5298 42,1562.5324 c 0,-5.1753 2.197061,-8.7684 8.501692,-13.9042 9.288922,-7.5667 14.212814,-8.8801 33.498308,-8.9354 15.86494,-0.046 16.69244,0.053 21.5,2.5519 2.75,1.4296 8.0873,5.7333 11.86067,9.5639 6.73291,6.8349 6.91381,7.1576 9.71453,17.328 1.56963,5.6999 2.86081,12.1634 2.86929,14.3634 0.0195,5.0453 -4.10163,21.2646 -6.3853,25.1305 -2.20432,3.7316 -17.60863,15.257 -22.96579,17.1829 -2.567836,0.9231 -9.311037,1.6289 -18.0934,1.8937 -12.760572,0.3849 -14.284404,0.2428 -17.212491,-1.6049 z M 75,735.99522 c -4.675,-1.60288 -10.204564,-3.18112 -12.287921,-3.5072 -2.768898,-0.43338 -5.593598,-2.22402 -10.5,-6.6562 -8.039121,-7.26211 -7.759293,-6.80897 -11.905084,-19.27827 -4.327768,-13.01664 -4.320845,-18.82368 0.03774,-31.65444 2.841959,-8.36614 4.083738,-10.51937 9.655539,-16.7426 6.807032,-7.60289 7.542424,-8.00344 23.144343,-12.60623 10.240706,-3.02115 15.160062,-3.19232 21.022481,-0.73147 2.383098,1.00034 7.281972,2.60138 10.886392,3.55785 5.75724,1.52775 7.28707,2.4914 12.59115,7.93119 7.11762,7.29973 7.87079,8.59741 8.8175,15.19215 0.39477,2.75 1.642,7.1591 2.77161,9.798 1.97375,4.61091 1.99011,5.02034 0.4196,10.5 -0.89883,3.1361 -2.09364,8.402 -2.65514,11.702 -0.63833,3.75152 -2.09215,7.49899 -3.87947,10 -1.57221,2.2 -4.26503,6.79556 -5.98404,10.21235 -1.71901,3.41679 -3.92685,6.64123 -4.9063,7.16541 -0.97945,0.52419 -4.69403,1.47818 -8.25461,2.11998 -3.56059,0.64181 -7.844567,2.00988 -9.519964,3.04018 C 89.260119,739.23181 84.408879,739.22116 75,735.99522 Z"
       id="path8187" />
  </g>
</svg>
