<?xml version="1.0" encoding="UTF-8" standalone="no"?>
<!-- Created with Inkscape (http://www.inkscape.org/) -->

<svg
   version="1.1"
   id="svg5996"
   width="515"
   height="2340"
   viewBox="0 0 515 2340"
   sodipodi:docname="f+.svg"
   inkscape:version="1.1.1 (3bf5ae0d25, 2021-09-20)"
   xmlns:inkscape="http://www.inkscape.org/namespaces/inkscape"
   xmlns:sodipodi="http://sodipodi.sourceforge.net/DTD/sodipodi-0.dtd"
   xmlns="http://www.w3.org/2000/svg"
   xmlns:svg="http://www.w3.org/2000/svg">
  <defs
     id="defs6000" />
  <sodipodi:namedview
     id="namedview5998"
     pagecolor="#ffffff"
     bordercolor="#666666"
     borderopacity="1.0"
     inkscape:pageshadow="2"
     inkscape:pageopacity="0.0"
     inkscape:pagecheckerboard="0"
     showgrid="false"
     inkscape:zoom="0.33418803"
     inkscape:cx="-86.777494"
     inkscape:cy="1170"
     inkscape:window-width="1920"
     inkscape:window-height="986"
     inkscape:window-x="-11"
     inkscape:window-y="-11"
     inkscape:window-maximized="1"
     inkscape:current-layer="g6002" />
  <g
     inkscape:groupmode="layer"
     inkscape:label="Image"
     id="g6002">
    <path
       style="fill:#000000"
       d="m 298.24138,2326.6748 c -5.94939,-3.3041 -6.92457,-8.6982 -4.82245,-26.6748 0.86825,-7.425 1.57919,-15.4125 1.57986,-17.75 L 295,2278 h -22.25 c -20.29034,0 -22.53146,-0.1754 -25.44574,-1.9523 -4.02262,-2.4528 -5.25438,-7.6073 -3.20358,-13.4061 2.86492,-8.1008 10.51864,-10.6371 26.67707,-8.8404 5.94791,0.6614 13.83116,1.2025 17.51832,1.2025 H 295 l 0.006,-16.25 c 0.006,-17.3314 0.90258,-22.8326 4.34027,-26.6289 4.58513,-5.0635 13.51786,-6.6735 17.79337,-3.2071 2.34736,1.9032 2.36078,2.0352 2.36078,23.2331 v 21.3189 l 11.5,-0.3173 c 8.6066,-0.2376 12.60128,-0.7994 15.87712,-2.2331 6.12912,-2.6824 13.28954,-2.5383 16.61947,0.3344 4.448,3.8373 5.41928,13.8341 1.89117,19.4648 -2.69265,4.2974 -4.96956,4.7622 -25.88776,5.2852 l -20,0.5 v 21.5 c 0,23.3379 -0.54868,26.2016 -5.5,28.706 -3.20043,1.6188 -12.82187,1.5997 -15.75862,-0.031 z M 194.91357,2150.1225 c -2.52254,-0.373 -5.82263,-1.4881 -7.33353,-2.4781 -5.94098,-3.8927 -5.55543,15.1647 -5.56024,-274.8333 C 182.0094,1250.0905 181.9609,741.98349 181.90839,708 c -0.19752,-127.93325 -0.18934,-320.23455 0.014,-329.5 0.18111,-8.25195 -0.17315,-12.1242 -1.41806,-15.5 -2.33984,-6.34489 -4.07566,-12.60706 -5.27259,-19.02153 -0.56668,-3.03684 -2.46359,-7.82717 -4.21536,-10.64518 -2.54191,-4.08908 -3.46291,-7.11355 -4.56121,-14.97847 -1.92063,-13.75372 -3.29921,-19.19015 -6.11493,-24.11427 -3.92146,-6.85784 -5.39401,-12.11466 -6.30764,-22.51745 -0.75178,-8.56001 -1.26766,-10.41428 -4.14473,-14.8978 -2.92575,-4.55939 -3.33137,-6.0683 -3.69916,-13.76093 -0.28455,-5.95163 0.0981,-10.63526 1.22967,-15.05231 1.47191,-5.74544 1.63278,-16.53464 1.54692,-103.74798 -0.0907,-92.1362 10e-4,-97.530656 1.71943,-100.985355 0.99839,-2.007311 2.94583,-4.474236 4.32766,-5.482056 2.41114,-1.758538 8.90076,-1.831275 161,-1.804516 106.2211,0.01869 159.72375,0.369717 162.23599,1.064427 2.60979,0.721686 4.28046,2.00961 5.5,4.239982 1.63893,2.997387 1.7516,10.317565 1.7516,113.805398 v 110.60195 l -3.75,4.15093 c -2.0625,2.28301 -3.78171,5.16213 -3.82047,6.39804 -0.37324,11.90215 -3.75014,25.60258 -8.54004,34.64782 -2.65958,5.02234 -3.39741,7.60649 -3.42625,12 -0.0528,8.04886 -2.24049,18.22792 -4.76816,22.18602 -4.12366,6.45728 -5.00991,9.44668 -6.49648,21.91328 -1.3097,10.98335 -1.50027,120.6372 -1.57061,903.7533 -0.0716,796.8042 -0.24173,891.566 -1.60563,894.2035 -0.99636,1.9267 -2.82585,3.3651 -5.27396,4.1466 -2.80592,0.8957 -34.29792,1.2595 -125.2484,1.4468 -66.825,0.1377 -123.56389,-0.055 -126.08643,-0.4277 z m 238.41907,-14.5657 c 3.68674,-1.7574 6.53601,-3.9348 7.74444,-5.9185 1.87867,-3.0839 1.91075,-18.3018 1.85124,-878.3375 l -0.0606,-875.1992 -2.10502,-2.67609 c -1.15775,-1.47185 -4.3905,-3.74032 -7.18388,-5.04103 l -5.07886,-2.36494 -111.93428,-0.01 c -110.70738,-0.01 -111.98056,0.0126 -116.15703,2.03443 -2.7461,1.32937 -4.78246,3.2237 -5.82334,5.41717 -1.46382,3.08478 -1.57856,69.06366 -1.34296,772.20586 0.24499,731.162 0.34383,769.0486 2.01734,773.2361 1.65337,4.1372 1.66097,4.8322 0.12584,11.5 -1.43037,6.2127 -1.69286,18.8289 -2.1073,101.2869 l -0.47341,94.1903 2.28673,4.0687 c 4.57179,8.1344 -2.62448,7.49 89.90841,8.0508 45.375,0.275 96,0.4633 112.5,0.4185 l 30,-0.082 5.83264,-2.7802 z M 243.45873,1972.9511 c -10.4135,-0.6978 -16.96387,-2.7793 -21.00263,-6.674 -1.12415,-1.084 -4.27415,-3.5358 -7,-5.4484 -5.51393,-3.8689 -7.10813,-7.1971 -7.98006,-16.66 -0.28728,-3.1178 -0.99895,-9.2687 -1.58149,-13.6687 -0.98164,-7.4145 -0.86934,-8.6444 1.5345,-16.8043 2.51762,-8.5462 2.83901,-9.0513 10.96146,-17.2288 4.60229,-4.6335 9.65968,-8.9667 11.23864,-9.6293 3.63744,-1.5266 37.78766,-1.3051 44.71089,0.29 4.27101,0.984 5.22902,1.7231 8.14854,6.2871 1.81967,2.8446 4.06204,5.7974 4.98304,6.5617 2.54537,2.1125 5.47356,8.4615 6.57076,14.2471 1.5564,8.2068 1.31066,21.7543 -0.5081,28.0106 -3.34612,11.5102 -17.89189,26.1745 -28.96426,29.2001 -7.57333,2.0695 -10.1266,2.253 -21.11129,1.5169 z m 17.70859,-13.7622 c 5.0266,-2.2946 17.23606,-13.1345 19.30893,-17.143 2.07311,-4.0089 3.91016,-15.1726 3.1572,-19.1862 -0.6021,-3.2095 -4.74808,-8.5222 -15.20308,-19.4813 -4.92372,-5.1611 -12.49946,-6.8755 -25.10464,-5.6812 l -10.22736,0.9691 -6.5113,6.7064 c -4.50607,4.6412 -6.6634,7.6952 -7.0052,9.9169 -2.44512,15.8936 -1.75611,21.7374 3.482,29.5325 5.13644,7.6438 10.6037,13.0902 15.43613,15.3773 5.08455,2.4063 16.27516,1.9075 22.66732,-1.0105 z M 303.5,1791.3273 c -1.65,-0.2082 -5.856,-1.1206 -9.34668,-2.0275 -5.10634,-1.3267 -6.86521,-2.333 -9,-5.1491 -1.45932,-1.9251 -4.34416,-5.0734 -6.41074,-6.9962 -4.82344,-4.4878 -5.41267,-7.0794 -6.17376,-27.1545 -0.93307,-24.6115 0.70102,-28.3778 17.01921,-39.2261 8.78738,-5.8419 10.12971,-6.3339 19.54269,-7.1633 10.08714,-0.8888 14.80859,-0.019 21.38108,3.9387 2.99993,1.8064 7.01702,3.8002 8.92688,4.4305 1.90985,0.6303 4.37228,2.1302 5.47206,3.3331 5.10098,5.5793 9.38195,11.725 12.3205,17.6871 3.11318,6.3164 3.19716,6.8317 2.97372,18.2459 -0.27662,14.13 -1.7969,18.8955 -9.49217,29.7541 -6.86711,9.69 -8.31338,10.2187 -28.71279,10.4955 -8.525,0.1157 -16.85,0.04 -18.5,-0.1682 z m 23.62393,-12.871 c 2.40646,-0.8491 6.22989,-3.4366 8.49651,-5.75 2.26661,-2.3135 5.69849,-5.5563 7.62639,-7.2063 7.35867,-6.2979 6.99634,-20.4828 -0.82503,-32.2992 -2.09538,-3.1657 -5.40277,-6.458 -8.2147,-8.1774 -2.58891,-1.5829 -5.91715,-3.8222 -7.3961,-4.9763 -4.17599,-3.2585 -9.29986,-5.0453 -14.52888,-5.0665 l -4.78212,-0.019 -11.29078,11.7694 c -6.20992,6.4732 -11.60992,12.8944 -12,14.2694 -0.39007,1.375 -0.68834,7.056 -0.66283,12.6245 l 0.0464,10.1245 6.24839,6.8755 c 3.43661,3.7815 7.69073,7.4126 9.4536,8.0691 4.77483,1.778 22.54657,1.6265 27.82915,-0.2373 z m -37.84816,-149.5049 c -5.16658,-1.1029 -18.92533,-14.806 -29.4722,-29.353 -2.03303,-2.8041 -4.50803,-6.2014 -5.5,-7.5495 -1.48019,-2.0115 -1.86283,-4.8649 -2.1341,-15.9139 -0.39743,-16.1879 0.0844,-19.2062 3.73644,-23.4064 1.54399,-1.7757 4.8585,-7.5036 7.36558,-12.7286 5.99627,-12.4968 10.14432,-17.258 16.9499,-19.4555 2.90323,-0.9374 7.52861,-3.2147 10.27861,-5.0606 6.49033,-4.3567 12.05065,-5.7661 22.5,-5.7033 11.01848,0.066 26.1837,4.0533 34.66504,9.1139 3.39077,2.0232 9.19731,6.9536 12.90342,10.9566 6.48362,7.0029 6.86381,7.701 10.05571,18.4635 3.12519,10.5375 3.31903,12.0861 3.34658,26.7354 0.0161,8.5525 -0.373,15.9775 -0.86464,16.5 -0.49165,0.5225 -2.11233,5 -3.60152,9.95 -2.60787,8.6684 -2.97099,9.2482 -9.85611,15.7377 -10.15146,9.5682 -13.99009,10.8669 -33.64848,11.3838 -8.525,0.2241 -19.55,0.5449 -24.5,0.7128 -4.95,0.168 -10.4509,0 -12.22423,-0.3829 z m 46.1062,-12.8837 c 5.06086,-3.1363 24.45376,-23.5942 25.32281,-26.7134 0.43737,-1.5699 0.79522,-9.1543 0.79522,-16.8543 0,-19.3197 -1.77639,-24.5225 -11.31527,-33.1406 -4.80256,-4.339 -8.83401,-6.9428 -13.7407,-8.8748 -3.81921,-1.5039 -8.06903,-3.7745 -9.44403,-5.0458 -3.5746,-3.3052 -7.24849,-4.4388 -14.3851,-4.4388 -5.70056,0 -6.61656,0.3096 -10.33571,3.493 -2.24444,1.9212 -6.21168,4.4064 -8.81609,5.5228 -7.11809,3.0512 -19.62447,16.1241 -21.80603,22.7938 -0.93173,2.8486 -3.0021,7.2418 -4.60083,9.7628 -5.24687,8.2734 -5.00825,15.7825 0.73454,23.1141 1.64287,2.0974 3.72596,6.109 4.62907,8.9147 2.07784,6.4551 2.63834,7.1404 10.89022,13.3143 12.60317,9.4296 14.0183,9.8442 34.0719,9.9821 13.07616,0.09 15.26031,-0.1321 18,-1.8299 z m -43.84849,-182.9703 c -6.65582,-2.3421 -14.87543,-10.6929 -17.26845,-17.5441 -1.45948,-4.1785 -1.75888,-8.429 -1.72948,-24.5533 0.0438,-24.003 0.24323,-24.5534 12.1998,-33.6619 10.08572,-7.6833 15.83275,-9.5822 28.89091,-9.5457 9.0239,0.025 18.56235,2.0857 19.93483,4.3064 0.32153,0.5203 3.2061,2.2693 6.41016,3.8867 3.20405,1.6174 6.65877,4.0659 7.67715,5.441 1.01838,1.3752 3.31534,4.4749 5.10435,6.8884 5.44072,7.3396 7.24725,14.2705 7.24725,27.8046 0,13.5283 -1.80707,19.8666 -7.37868,25.8805 -1.78342,1.925 -4.4307,5.1285 -5.88286,7.1189 -3.73222,5.1156 -7.89193,5.8961 -30.93128,5.8036 -15.67204,-0.063 -20.24227,-0.4065 -24.2737,-1.8251 z M 327.5,1422.0448 c 6.39645,-3.0564 17.86029,-14.7353 20.00045,-20.3756 1.61357,-4.2525 1.69693,-5.706 0.69638,-12.1418 -1.51414,-9.7394 -3.69695,-13.0783 -14.33454,-21.9264 -8.09641,-6.7345 -9.5266,-7.5401 -14.48628,-8.1598 -10.81507,-1.3512 -12.57619,-0.608 -23.05262,9.7284 -5.20126,5.1317 -10.10181,10.5456 -10.89011,12.0307 -1.01632,1.9148 -1.43328,6.2158 -1.43328,14.7844 v 12.0841 l 6.9408,7.0798 c 7.95047,8.1097 9.27355,8.6104 23.0592,8.7271 7.41228,0.063 10.37904,-0.3397 13.5,-1.8309 z m 47.37642,-160.9133 c -1.99297,-0.4266 -5.81797,-2.3741 -8.5,-4.328 -2.68203,-1.9538 -6.67642,-4.461 -8.87642,-5.5715 -6.16133,-3.1102 -7.57593,-5.3741 -10.60654,-16.9743 -3.31356,-12.6833 -4.0499,-30.1616 -1.42835,-33.9044 0.80581,-1.1505 2.40499,-4.6038 3.55375,-7.6742 2.22137,-5.9371 9.48204,-14.881 13.86118,-17.0746 5.64211,-2.8262 12.90568,-3.8108 27.49099,-3.7264 13.73636,0.08 15.30053,0.2819 20.5,2.6525 3.09593,1.4115 7.87897,4.7485 10.62897,7.4155 2.75,2.667 6.857,5.7761 9.12667,6.9089 2.26966,1.1329 4.4174,2.8175 4.77276,3.7435 1.04875,2.733 2.56628,19.2643 2.56128,27.9015 -0.006,9.6064 -2.07587,14.9606 -7.33634,18.9729 -1.97633,1.5075 -4.5457,4.2818 -5.70971,6.1652 -2.30774,3.734 -11.42764,10.3742 -18.61457,13.5534 -3.47413,1.5367 -7.26945,2.0911 -16.16987,2.3618 -6.39662,0.1945 -13.26083,0 -15.2538,-0.4218 z m -69.92359,-180.479 c -12.79654,-3.2152 -15.21257,-4.3185 -22.7266,-10.3786 -5.44037,-4.3876 -7.89221,-9.238 -9.31933,-18.436 -1.35092,-8.7069 -0.68967,-35.953 0.97927,-40.3494 1.13839,-2.9989 11.53163,-13.04531 15.91783,-15.38675 4.86903,-2.59918 12.05828,-4.21508 21.28293,-4.78368 8.65371,-0.5334 10.37495,-0.32849 17.68213,2.10502 8.56899,2.85373 13.56607,5.95359 19.71595,12.23041 6.08405,6.2097 8.31168,10.3265 10.4685,19.3465 2.30636,9.6454 2.51968,14.6041 0.95505,22.2008 -2.66374,12.9331 -3.6786,15.0129 -11.17951,22.911 -6.94724,7.315 -7.48148,7.6598 -13.70445,8.8446 -3.56147,0.6781 -8.15605,2.0903 -10.21016,3.1383 -4.65906,2.3768 -4.66238,2.3766 -19.86161,-1.4422 z M 293.21958,916.99989 c -5.841,-0.46512 -6.59285,-0.81495 -10.74571,-5 -2.45591,-2.47494 -5.87774,-5.84989 -7.60408,-7.49989 -9.88517,-9.44807 -13.04778,-13.58161 -17.81589,-23.28542 L 252,870.92917 v -12.31455 c 0,-12.2606 0.014,-12.33382 3.19091,-16.71458 1.755,-2.42002 4.66053,-8.14041 6.45673,-12.71198 4.67445,-11.89713 6.78132,-14.865 12.67142,-17.84974 2.81153,-1.42471 6.82242,-3.96502 8.91309,-5.64512 2.95929,-2.37815 5.2599,-3.23035 10.38705,-3.8476 3.62222,-0.43607 9.06909,-1.92973 12.10417,-3.31923 6.28904,-2.87922 13.81893,-3.33154 18.15274,-1.09043 1.52724,0.78976 6.72641,2.12532 11.55371,2.96791 9.71236,1.69527 10.13312,1.97602 25.17247,16.79635 11.40722,11.24108 14.3403,20.97456 14.3776,47.71225 0.0198,14.17621 -0.0272,14.48765 -2.86553,19 -1.5871,2.52315 -3.4482,6.35442 -4.13576,8.51393 -2.32771,7.31086 -18.89244,21.05437 -28.61043,23.73763 -4.05356,1.11924 -35.44887,1.6879 -46.14859,0.83588 z m 8.11392,-173.90844 c -2.29158,-0.38704 -5.89815,-1.90375 -8.01461,-3.37046 -2.11646,-1.46671 -6.43668,-3.55734 -9.60049,-4.64585 -4.61768,-1.58871 -7.20507,-3.45077 -13.11671,-9.43966 -6.72443,-6.81228 -7.62886,-8.22844 -10.40874,-16.29801 C 258.51852,704.47686 256.00079,697.8 254.598,694.5 c -1.99549,-4.6943 -2.55569,-7.70742 -2.57426,-13.846 -0.0207,-6.84962 0.40341,-8.75451 3.33987,-15 1.84999,-3.9347 4.37293,-10.22533 5.60655,-13.97918 1.92706,-5.86398 3.28528,-7.88114 9.64434,-14.32328 5.6115,-5.68482 8.86139,-8.09136 13.43856,-9.95123 3.32043,-1.34921 7.92425,-3.82012 10.2307,-5.4909 l 4.19354,-3.03779 16.07942,0.31419 16.07941,0.31419 5.43194,3.64713 c 2.98756,2.00592 7.68193,4.45307 10.43193,5.4381 9.22321,3.30369 24.16917,20.73218 27.04498,31.53715 1.91418,7.19196 1.90803,32.00243 -0.009,36.87762 -0.75701,1.925 -2.45762,6.425 -3.77913,10 -1.32151,3.575 -2.92848,7.47562 -3.57105,8.66805 -2.16052,4.00931 -18.11915,17.27979 -24.43958,20.32287 -3.43534,1.654 -7.59608,3.85706 -9.24608,4.89569 -2.35325,1.4813 -5.58699,1.99837 -15,2.39849 -6.6,0.28054 -13.87493,0.1934 -16.1665,-0.19365 z M 431.5,353.47697 c 9.52182,-5.49111 12.35179,-11.01972 14.53979,-28.40494 0.67611,-5.37218 2.33153,-11.498 4.56571,-16.8952 1.92776,-4.65698 4.62199,-13.19444 5.98717,-18.97213 1.6568,-7.01185 3.28823,-11.46288 4.90631,-13.38586 4.83059,-5.74082 6.16069,-18.43919 2.42844,-23.18398 L 461.85484,250 H 316.8953 c -158.0054,0 -151.0412,-0.25118 -152.48458,5.49971 -0.36326,1.44733 -0.15428,5.15204 0.4644,8.23268 0.61869,3.08065 1.12488,7.56894 1.12488,9.97399 0,3.76952 0.54295,4.90502 3.93537,8.23027 4.05595,3.97564 4.41835,5.05445 5.54276,16.50001 0.3657,3.72254 1.7346,8.19801 3.6704,12 4.16624,8.18264 5.72037,13.48633 6.90472,23.56334 0.54945,4.675 1.2411,9.28285 1.53699,10.23967 0.46319,1.49782 6.21353,5.39292 15.40976,10.43809 2.07995,1.14108 21.15027,1.34922 113.5,1.23874 l 111,-0.13278 z m 33.04137,-116.35663 c 4.9513,-2.24906 9.1839,-7.09431 9.95836,-11.39978 0.31863,-1.77131 0.44903,-44.7002 0.28979,-95.39754 C 474.50128,38.552759 474.49076,38.133585 472.40576,35.323021 471.25393,33.770359 468.40275,31.15 466.06981,29.5 l -4.24172,-3 -144.93813,-0.263226 C 152.22851,25.937729 167.73227,25.07198 163.16211,34.821129 L 160.5,40.5 l -0.23834,91 c -0.20936,79.93673 -0.0499,91.5706 1.31157,95.69342 1.7972,5.44222 4.80626,9.61089 7.81489,10.82651 1.16153,0.46931 67.13688,0.87194 146.61188,0.89472 138.10524,0.0396 144.67885,-0.0398 148.54137,-1.79431 z M 72.706448,1616.9974 c -6.323204,-0.8103 -16.323745,-5.409 -22.079203,-10.1531 -1.987673,-1.6384 -4.682197,-5.0862 -5.987832,-7.6616 C 43.333779,1596.6072 41.193288,1592.475 39.882766,1590 37.668444,1585.8181 37.5,1584.4043 37.5,1570 c 0,-13.2112 0.280161,-16.0641 1.897254,-19.3202 2.628953,-5.2935 18.386754,-19.2484 23.264682,-20.6029 2.110935,-0.5862 12.170085,-1.0683 22.353666,-1.0713 21.289378,-0.01 21.388348,0.024 29.662458,8.9944 5.71338,6.1945 11.69519,18.1579 13.22975,26.4591 1.71258,9.2642 -0.18,21.6859 -4.84135,31.7753 -3.65944,7.9209 -4.51101,8.993 -10.22579,12.8738 -3.42865,2.3284 -8.28293,4.9961 -10.78729,5.9283 -5.314052,1.9781 -21.021601,3.0276 -29.346932,1.9609 z m 6.006124,-890.58899 c -1.533085,-0.83133 -5.133085,-1.74218 -8,-2.02411 -2.866915,-0.28193 -6.251145,-0.72385 -7.520513,-0.98204 C 60.881496,722.93228 50.455004,712.85241 42,702.91471 l -4.5,-5.28913 V 681.06279 664.5 l 5.395978,-7.75 c 2.967787,-4.2625 5.716932,-7.75 6.10921,-7.75 0.392277,0 2.803856,-1.84024 5.359063,-4.08942 2.730645,-2.40361 7.838595,-5.34968 12.39079,-7.14653 10.447189,-4.12372 18.424158,-4.21593 30.662578,-0.35446 7.954551,2.50983 9.610551,3.47661 15.333911,8.95205 3.52896,3.3761 7.06194,7.36979 7.85108,8.87486 0.78913,1.50508 2.8667,4.36736 4.61682,6.36064 l 3.18203,3.62413 0.31001,14.29601 c 0.18037,8.31743 -0.1191,15.276 -0.71609,16.63937 -2.16004,4.93298 -9.76824,14.73861 -15.68858,20.21979 -9.98706,9.24625 -26.145024,14.07138 -33.594228,10.03197 z"
       id="path6081" />
  </g>
</svg>
