<?xml version="1.0" encoding="UTF-8" standalone="no"?>
<!-- Created with Inkscape (http://www.inkscape.org/) -->

<svg
   version="1.1"
   id="svg2283"
   width="515"
   height="2340"
   viewBox="0 0 515 2340"
   sodipodi:docname="f#.svg"
   inkscape:version="1.1.1 (3bf5ae0d25, 2021-09-20)"
   xmlns:inkscape="http://www.inkscape.org/namespaces/inkscape"
   xmlns:sodipodi="http://sodipodi.sourceforge.net/DTD/sodipodi-0.dtd"
   xmlns="http://www.w3.org/2000/svg"
   xmlns:svg="http://www.w3.org/2000/svg">
  <defs
     id="defs2287" />
  <sodipodi:namedview
     id="namedview2285"
     pagecolor="#ffffff"
     bordercolor="#666666"
     borderopacity="1.0"
     inkscape:pageshadow="2"
     inkscape:pageopacity="0.0"
     inkscape:pagecheckerboard="0"
     showgrid="false"
     inkscape:zoom="0.33418803"
     inkscape:cx="-86.777494"
     inkscape:cy="1170"
     inkscape:window-width="1920"
     inkscape:window-height="986"
     inkscape:window-x="-11"
     inkscape:window-y="-11"
     inkscape:window-maximized="1"
     inkscape:current-layer="g2289" />
  <g
     inkscape:groupmode="layer"
     inkscape:label="Image"
     id="g2289">
    <path
       style="fill:#000000"
       d="m 183.46177,2149.3643 c -1.3435,-1.4497 -2.89343,-4.2622 -3.4443,-6.25 -0.63026,-2.2744 -0.9819,-31.6042 -0.94852,-79.1143 0.0292,-41.525 0.0507,-98.675 0.0479,-127 -0.003,-28.325 -0.0401,-396.3468 -0.0828,-817.8263 l -0.0776,-766.32626 -2.91456,-2.67372 c -3.68391,-3.37949 -4.61824,-5.90565 -5.52001,-14.92447 -0.55656,-5.56639 -1.39406,-8.23785 -3.60521,-11.5 -1.95863,-2.8896 -2.89019,-5.52915 -2.91133,-8.24925 -0.0171,-2.2 -0.90755,-6.79558 -1.97877,-10.21241 -1.07122,-3.41682 -2.25071,-8.59182 -2.6211,-11.5 -0.77338,-6.07239 -1.64412,-8.07276 -5.3945,-12.39291 -2.02945,-2.33777 -2.85185,-4.5986 -3.32722,-9.14669 -0.3473,-3.32275 -1.59846,-8.45035 -2.78035,-11.39468 -1.48807,-3.70704 -2.12013,-7.35222 -2.05534,-11.85331 0.0515,-3.575 0.44422,-56.37672 0.87278,-117.33716 L 147.5,20.825683 150.30576,18.412841 153.11153,16 h 161.48969 161.48969 l 2.37444,2.374444 c 1.43069,1.43069 2.62426,4.113568 3.00297,6.75 C 481.81401,27.531 481.96256,79.225 481.79843,140 L 481.5,250.5 l -3.75,8.12586 c -2.65728,5.75805 -3.76279,9.54615 -3.79389,13 -0.0241,2.68078 -0.74414,6.67414 -1.59999,8.87414 -0.85586,2.2 -2.39056,7.13115 -3.41045,10.9581 -1.01989,3.82696 -2.976,9.01896 -4.34691,11.53778 -1.37092,2.51883 -2.98559,7.71268 -3.58817,11.5419 -0.60257,3.82922 -2.42646,9.82524 -4.05309,13.32449 -1.62662,3.49925 -2.9575,7.35831 -2.9575,8.57567 0,1.21737 -1.11913,5.4166 -2.48696,9.33161 l -2.48695,7.11822 -0.0195,894.74193 c -0.0184,848.8348 -0.1089,894.9243 -1.76304,898.2982 -0.95898,1.956 -2.8686,4.1157 -4.2436,4.7995 -1.95276,0.971 -30.36521,1.2463 -129.79775,1.2579 L 185.9045,2152 Z m 245.97542,-11.7941 c 2.968,-1.3126 6.11229,-3.4792 6.98731,-4.8146 1.45034,-2.2135 1.55002,-41.7507 1.12787,-447.3419 -0.25469,-244.7025 -0.73725,-452.3387 -1.07234,-461.4137 -0.34447,-9.3293 -0.14608,-21.3087 0.45652,-27.5648 0.73432,-7.6237 1.0674,-137.156 1.071,-416.50005 0.005,-388.91379 -0.0681,-405.53355 -1.79538,-407.84983 C 431.87922,366.27469 436.84961,366.5 313,366.5 188.76066,366.5 194.58343,366.21838 191.20284,372.39085 189.60271,375.31246 189.5,428.39819 189.5,1252.5 v 877 l 2.23294,3.5904 c 2.32994,3.7464 7.50251,6.6344 12.76706,7.1282 1.65,0.1548 51.72169,0.1592 111.27042,0.01 l 108.27041,-0.2717 5.39636,-2.3865 z M 233.21697,1973.8866 c -9.06319,-1.5091 -14.41929,-5.039 -21.07027,-13.8866 -2.27399,-3.025 -5.14977,-6.7689 -6.39061,-8.3197 -2.11732,-2.6463 -2.27556,-3.903 -2.57267,-20.4314 -0.3881,-21.5898 0.36986,-24.3783 8.19824,-30.1615 2.85163,-2.1066 6.3996,-5.4229 7.88436,-7.3695 4.66987,-6.1225 8.6165,-6.9592 30.87365,-6.5452 21.63449,0.4024 23.95774,1.0058 27.17098,7.0576 0.99586,1.8756 3.17796,4.2178 4.84911,5.205 5.80511,3.4292 8.80505,14.8242 8.96114,34.0381 0.10531,12.9626 -0.0757,14.4438 -2.38666,19.5266 -2.81282,6.1867 -4.30397,7.7036 -10.73424,10.92 -2.475,1.238 -6.075,3.7606 -8,5.6059 -1.925,1.8453 -4.76679,3.8318 -6.3151,4.4146 -3.30916,1.2455 -22.87166,1.2108 -30.46793,-0.054 z M 257,1960.8507 c 2.475,-1.0742 5.85,-3.1941 7.5,-4.7108 1.65,-1.5167 4.73592,-4.0285 6.85761,-5.5817 8.21553,-6.0145 11.07041,-19.9937 6.55037,-32.0746 -1.7075,-4.5637 -3.29506,-6.5837 -8.63734,-10.9903 -8.28893,-6.8371 -13.11288,-8.4948 -24.69878,-8.4877 -13.01683,0.01 -15.2126,0.8578 -21.96423,8.5005 -6.78953,7.6856 -7.60763,10.0529 -7.60763,22.0142 0,8.9797 0.0238,9.0651 3.98538,14.3376 4.12947,5.4958 17.38272,18.3712 20.01462,19.444 2.57781,1.0508 13.29347,-0.4085 18,-2.4512 z m 34.17362,-170.2376 c -6.49008,-2.1675 -8.11327,-3.2622 -14.21979,-9.5907 -4.43318,-4.5944 -7.25908,-8.4606 -7.91804,-10.8332 -1.53688,-5.5335 -1.30142,-29.9887 0.34129,-35.447 0.7574,-2.5167 3.50961,-7.9972 6.11604,-12.1791 3.87368,-6.215 5.76763,-8.1969 10.37291,-10.8545 10.262,-5.9218 10.7845,-6.0481 26.87727,-6.4969 l 15.2433,-0.4251 3.7567,3.8567 c 2.06619,2.1212 6.9067,5.4317 10.7567,7.3567 8.01111,4.0056 9.65286,6.4209 11.99285,17.6439 2.13631,10.2462 2.36243,34.9045 0.36128,39.3969 -1.95326,4.3849 -13.26389,15.7491 -17.45541,17.5381 -1.97264,0.8419 -9.61514,1.5342 -21,1.9023 -17.13435,0.5539 -18.2116,0.4741 -25.2251,-1.8681 z m 39.70535,-11.1437 c 5.82059,-3.168 9.07218,-8.257 12.60669,-19.7306 3.24447,-10.532 2.87442,-16.7042 -1.32623,-22.1201 C 327.80463,1719.1111 323.39127,1716 311.4913,1716 h -6.63793 L 291.92669,1728.9602 279,1741.9203 v 6.3284 c 0,4.5669 0.5959,7.4311 2.14085,10.2899 1.17747,2.1788 3.85464,7.4209 5.94928,11.6491 2.09464,4.2282 4.73211,8.182 5.86105,8.7862 3.03195,1.6226 12.25124,2.7662 23.41349,2.9042 8.79375,0.1087 10.36944,-0.1528 14.5143,-2.4087 z M 287,1628.1759 c -6.89592,-2.2706 -16.90103,-9.0372 -20.61167,-13.9401 -1.55502,-2.0547 -3.86253,-4.563 -5.1278,-5.5741 -3.20391,-2.5602 -5.26053,-6.917 -5.26053,-11.1442 0,-3.9964 -1.78061,-8.3334 -5.5079,-13.4154 -3.70784,-5.0555 -3.52711,-13.191 0.42608,-19.1807 1.7687,-2.6798 3.37747,-6.9706 4.08419,-10.893 1.52652,-8.4725 1.95677,-9.1845 12.40471,-20.5271 10.31363,-11.1968 20.64487,-18.8695 28.54265,-21.1978 10.8777,-3.2067 33.52166,-0.6643 40.9042,4.5925 1.50414,1.071 5.23076,3.0512 8.28139,4.4003 3.90016,1.7248 6.21614,3.5363 7.80219,6.1026 1.24056,2.0073 3.55772,4.323 5.14922,5.146 1.59151,0.823 3.79202,3.1745 4.89002,5.2257 1.09801,2.0512 3.34617,5.5294 4.9959,7.7294 l 2.99953,4 0.076,21.1776 c 0.0748,20.8432 0.0372,21.238 -2.37897,25 -1.35023,2.1023 -3.4381,6.8546 -4.6397,10.5606 -1.55977,4.8107 -3.04262,7.3852 -5.18369,9 -1.64942,1.244 -5.13989,4.1661 -7.75658,6.4935 -8.26818,7.3543 -9.61417,7.6559 -35.58925,7.9737 -20.00801,0.2449 -23.71548,0.046 -28.5,-1.5295 z m 44.5,-10.2531 c 2.57573,-1.1887 10.859,-6.3829 18.10359,-11.3523 1.32186,-0.9068 3.52979,-5.4616 5.94142,-12.2567 3.29444,-9.2827 3.89086,-12.2763 4.21232,-21.143 0.34545,-9.5286 0.13631,-10.9875 -2.69825,-18.8212 -2.77464,-7.668 -3.80282,-9.2125 -10.59866,-15.9207 -4.13927,-4.0859 -7.65356,-7.4289 -7.80952,-7.4289 -4.16934,0 -12.89003,-2.7245 -15.6509,-4.8897 -5.65519,-4.435 -6.34907,-4.4342 -19.36274,0.023 -16.76187,5.7402 -19.13362,7.0738 -27.27447,15.3364 -6.7912,6.8927 -7.21676,7.6023 -8.77787,14.6373 -0.90235,4.0664 -2.13551,8.6378 -2.74034,10.1585 -0.84706,2.1299 -0.74292,4.0825 0.45336,8.5 0.85418,3.1543 1.8547,8.5383 2.22338,11.9646 0.56999,5.2972 1.42441,7.3178 5.70848,13.5 9.65671,13.9352 12.37837,15.9637 24.47211,18.2394 9.56743,1.8002 29.40832,1.4796 33.79809,-0.5462 z m -41.41553,-183.97 c -2.42853,-1.1018 -6.26127,-3.6794 -8.51718,-5.728 -2.25591,-2.0486 -5.57765,-4.8498 -7.38165,-6.2248 -5.0992,-3.8866 -6.09785,-8.2265 -6.09785,-26.5 0,-18.341 0.45429,-20.1971 7.28669,-29.7719 5.07316,-7.1094 13.88469,-13.8726 20.4498,-15.696 5.33515,-1.4818 23.06731,-1.27 28.41506,0.3394 2.50646,0.7543 6.06548,2.4842 7.90893,3.8442 1.84345,1.3599 6.05173,3.5149 9.35173,4.7889 7.81417,3.0167 9.04026,4.1678 11.59112,10.8814 1.6772,4.4143 2.32144,9.2286 3.0147,22.5285 0.83558,16.0303 0.76902,17.2234 -1.27342,22.825 -1.32798,3.6421 -3.13096,6.5534 -4.69779,7.5855 -1.39848,0.9213 -4.6243,3.8219 -7.16847,6.446 -2.55093,2.631 -6.15689,5.2101 -8.03935,5.75 -1.87747,0.5384 -11.74156,0.9691 -21.92019,0.957 -16.35142,-0.019 -19.02081,-0.2552 -22.92213,-2.0252 z m 40.77555,-10.3804 c 1.51838,-0.7852 4.34852,-3.8227 6.2892,-6.75 8.34861,-12.5931 10.32897,-26.7399 5.07742,-36.271 -2.99356,-5.433 -16.9461,-16.9634 -23.1306,-19.1151 -4.34188,-1.5106 -12.48455,0.2198 -17.85629,3.7947 -2.05686,1.3689 -5.38203,3.4606 -7.38927,4.6484 -2.00724,1.1877 -6.21452,5.1642 -9.34953,8.8366 l -5.7,6.6771 0.34953,11.7835 0.34952,11.7836 4.5,4.2699 c 2.475,2.3484 5.4,5.5449 6.5,7.1033 2.65612,3.7629 6.11894,4.4413 23.29966,4.5642 10.59772,0.076 15.01436,-0.2672 17.06036,-1.3252 z m 34.77634,-164.2088 c -1.45,-1.45 -2.63636,-3.0033 -2.63636,-3.4519 0,-0.4486 -1.92295,-2.1386 -4.27323,-3.7557 -2.35028,-1.617 -4.90955,-4.129 -5.68727,-5.5822 -0.77773,-1.4532 -2.91568,-3.5702 -4.75102,-4.7045 -5.71012,-3.5291 -6.65558,-6.599 -7.10382,-23.0662 -0.38041,-13.975 -0.2709,-15.0312 2.22913,-21.5 1.73789,-4.4969 4.40164,-8.7723 7.85769,-12.612 4.84927,-5.3876 5.84507,-5.9914 13.72852,-8.3245 7.34327,-2.1731 10.34646,-2.5047 22.06839,-2.4366 11.41852,0.066 14.66668,0.4479 20.5,2.4079 5.90109,1.9828 7.355,2.9555 9.77943,6.5428 1.82578,2.7015 4.26205,4.7796 6.78842,5.7905 6.67512,2.6708 7.24947,4.8078 7.68561,28.5951 l 0.38076,20.7664 -4.01513,3.7336 c -8.19711,7.6225 -21.95995,17.2615 -27.30866,19.1261 -1.76706,0.616 -9.70815,1.1076 -17.89168,1.1076 -14.565,0 -14.74118,-0.027 -17.35078,-2.6364 z m 27.99532,-9.6283 c 7.24477,-4.1982 14.5253,-10.3076 18.86832,-15.8333 l 5,-6.3616 0.32738,-12.6649 0.32737,-12.6649 -6.17013,-6.8553 c -3.39358,-3.7704 -7.59042,-7.4648 -9.32633,-8.2098 -1.95953,-0.8409 -7.51682,-1.4096 -14.65724,-1.5 -10.18509,-0.1288 -12.04023,0.1201 -16.21334,2.1755 -2.69116,1.3254 -5.58769,3.7373 -6.75329,5.6233 -1.12254,1.8163 -3.60827,4.3719 -5.52384,5.679 -1.92967,1.3168 -4.15795,4.058 -4.99671,6.1469 -1.83391,4.5673 -1.89926,13.9056 -0.13191,18.8515 3.4392,9.6246 12.86343,20.8108 20.87302,24.7755 4.84783,2.3996 14.89148,2.8577 18.3767,0.8381 z m -81.94229,-165.3901 c -1.5019,-0.7869 -6.76699,-2.2933 -11.70021,-3.3475 -11.21917,-2.3975 -11.88168,-2.7602 -20.83742,-11.4048 C 268.25116,1059.071 268,1058.364 268,1038.1971 c 0,-15.6365 0.16606,-17.1826 2.25,-20.9481 3.54172,-6.3996 6.7104,-9.4979 15.79001,-15.4391 14.66454,-9.59564 24.29653,-11.78453 36.95999,-8.39923 8.83302,2.36132 14.01332,5.57523 22.52142,13.97253 11.11303,10.9683 11.90776,13.0416 11.92749,31.1168 0.0156,14.3181 -0.10754,15.2534 -2.70963,20.5754 -1.89435,3.8744 -5.03905,7.6537 -10.30762,12.3878 -6.84191,6.1478 -8.22987,6.9483 -14.22588,8.2052 -3.65434,0.766 -8.0081,2.1922 -9.67502,3.1692 -4.83618,2.8347 -5.94699,3.0242 -8.84137,1.5076 z M 289.5,916.13652 c -2.2,-1.00076 -4.58758,-2.5297 -5.30573,-3.39765 -0.71814,-0.86795 -3.62077,-2.40176 -6.45028,-3.40848 -2.94868,-1.04912 -6.44627,-3.26803 -8.19427,-5.19855 -1.67735,-1.85249 -4.92409,-5.2628 -7.21498,-7.57845 -2.75783,-2.78764 -4.53585,-5.70431 -5.26199,-8.63184 -2.40309,-9.6882 -3.37392,-12.52758 -5.12612,-14.99232 -2.54514,-3.58014 -4.3026,-11.2386 -3.66681,-15.97881 0.29379,-2.19034 1.87979,-6.56799 3.52445,-9.7281 2.71729,-5.22109 3.79026,-8.36817 5.60997,-16.45427 0.60336,-2.68111 9.49676,-12.31363 20.76736,-22.49332 4.60101,-4.15567 6.59802,-5.2635 10.5,-5.8248 2.65012,-0.38123 8.08035,-1.80509 12.06719,-3.16415 5.47647,-1.86686 8.53269,-2.34599 12.5,-1.95965 8.07891,0.78674 26.25074,5.11593 28.97971,6.90402 1.34191,0.87925 6.96161,6.02466 12.48825,11.43424 7.41747,7.26039 10.90305,11.53748 13.31252,16.33561 l 3.26411,6.5 0.0496,21.06434 0.0496,21.06434 -3.04618,3.93566 c -1.67539,2.16461 -3.86577,6.17741 -4.8675,8.91732 -3.08479,8.43746 -19.35387,21.79419 -28.76485,23.61562 -2.31777,0.44859 -12.53912,0.82533 -22.71412,0.83721 -15.78694,0.0184 -19.08661,-0.24526 -22.5,-1.79797 z M 303,743.06287 c -1.375,-0.42087 -4.75,-1.89465 -7.5,-3.27507 -2.75,-1.38042 -8.15,-3.54109 -12,-4.80149 -6.03896,-1.97702 -8.05677,-3.31714 -14.69726,-9.76107 -8.81122,-8.55041 -11.25011,-12.98783 -12.63636,-22.9912 -0.72726,-5.24803 -1.79576,-8.28846 -4.07911,-11.6072 -2.48799,-3.61616 -3.11912,-5.59734 -3.22334,-10.11835 -0.10891,-4.724 0.27132,-6.05186 2.38105,-8.31512 3.54609,-3.80417 4.38925,-5.87557 5.15195,-12.65686 0.3689,-3.27992 1.72126,-7.8431 3.00525,-10.14041 4.17374,-7.46764 13.47745,-18.11475 17.38119,-19.89095 5.24266,-2.38539 9.99998,-4.75292 15.21663,-7.57273 4.24848,-2.29646 5.42224,-2.43242 21,-2.43242 h 16.5 l 9.75595,4.75 c 5.36577,2.6125 10.07965,4.75 10.47529,4.75 0.39565,0 3.43047,2.87485 6.74406,6.38855 4.45651,4.72566 7.04678,8.69513 9.95133,15.25 l 3.92663,8.86145 0.65657,18.5 c 0.76972,21.68801 0.1415,25.53658 -6.19546,37.95435 -4.05679,7.94959 -4.7323,8.70912 -11.31437,12.72165 -3.85,2.34701 -9.82751,5.22174 -13.28336,6.38828 -3.45585,1.16654 -7.60287,3.23127 -9.21559,4.58829 -1.61272,1.35702 -4.40724,2.89033 -6.21003,3.40737 -3.84962,1.10405 -18.18731,1.10599 -21.79102,0.003 z M 430.179,353.33764 c 3.11369,-1.43897 5.2563,-3.27874 6.40466,-5.49942 C 439.47324,342.25039 443,329.97127 443,325.49845 c 0,-3.17909 0.7355,-5.14895 2.97445,-7.9663 2.91111,-3.66316 3.27083,-4.84318 4.57835,-15.01898 0.69657,-5.42107 2.57373,-9.80043 5.64028,-13.15863 2.16858,-2.37483 5.4689,-15.93857 6.45856,-26.54353 0.60623,-6.49626 0.53564,-6.77758 -2.45016,-9.76337 l -3.07437,-3.07438 -143.31356,0.26337 c -140.04328,0.25736 -143.38706,0.30784 -146.53501,2.21212 -5.62407,3.40215 -7.18302,13.10837 -2.92711,18.22452 3.66942,4.41113 4.45585,6.45105 5.15653,13.37571 0.3852,3.80675 1.80927,8.91041 3.47421,12.45102 1.5518,3.3 3.0335,7.8 3.29268,10 0.85921,7.29325 5.8181,26.93184 7.90588,31.30949 2.60993,5.47247 9.12075,13.7449 12.06137,15.32475 1.24185,0.66718 3.6079,1.54274 5.2579,1.94569 1.65,0.40294 52.725,0.6623 113.5,0.57635 L 425.5,355.5 Z M 461.5,237.20623 c 4.24512,-1.44863 5.3397,-2.37987 7.25,-6.16812 l 2.25,-4.46189 v -93.32023 c 0,-77.531901 -0.23583,-93.884636 -1.39389,-96.656287 -1.81408,-4.341699 -7.01384,-8.240504 -12.62789,-9.468455 -2.79129,-0.610533 -58.05026,-1.024523 -146.69352,-1.099002 -157.35576,-0.132211 -146.36449,-0.59855 -149.66174,6.349875 -0.9057,1.908622 -2.09138,5.814866 -2.63484,8.68054 -1.32047,6.962818 -1.31761,175.348399 0.003,183.437339 1.3836,8.47403 2.89065,11.54 6.42988,13.08108 2.52745,1.10053 28.95872,1.33981 147.57888,1.33601 133.57925,-0.004 144.87788,-0.13358 149.5,-1.71086 z M 68.235237,1618.0198 c -6.346864,-0.9704 -8.701943,-2.6816 -22.02174,-16.0014 -11.924136,-11.9242 -12.491194,-13.251 -12.623786,-29.5385 -0.08918,-10.9546 -0.06891,-11.0525 3.410289,-16.4674 1.925,-2.996 4.24245,-7.037 5.149889,-8.9799 2.743766,-5.8747 12.110916,-14.7894 16.52021,-15.7223 4.9921,-1.0562 37.962731,-1.0512 41.769411,0.01 3.48389,0.9679 20.40613,17.5725 23.11721,22.6834 1.61588,3.0462 1.84327,5.7422 1.75383,20.7938 -0.10073,16.9527 -0.15501,17.3728 -2.75256,21.2979 -6.21528,9.392 -17.21918,17.9808 -26.55799,20.7292 -4.910914,1.4452 -21.475116,2.1605 -27.764763,1.1989 z M 74,726.55866 c -3.572583,-1.60983 -7.37388,-2.49241 -10.847231,-2.5185 -5.217318,-0.0392 -5.514536,-0.20168 -12.233616,-6.68841 -5.231857,-5.05093 -7.388851,-7.99412 -8.977717,-12.25 -1.150232,-3.08096 -3.46249,-8.00246 -5.138352,-10.93665 -2.198525,-3.84931 -3.188637,-7.09916 -3.55558,-11.6705 -0.468773,-5.83991 -0.235277,-6.83079 2.984479,-12.66509 1.921172,-3.48123 4.29344,-8.47328 5.271707,-11.09344 1.229387,-3.29276 3.914089,-6.84372 8.693548,-11.49867 7.500646,-7.30524 7.361759,-7.22904 19.73261,-10.82584 l 8.429848,-2.45096 8.570152,2.41384 c 4.713583,1.32761 12.069052,3.1697 16.345482,4.09354 8.63487,1.8654 9.41128,2.56977 12.87203,11.67773 1.10413,2.90581 3.54766,6.98807 5.43007,9.07168 L 125,665.00576 v 16.4363 16.4363 L 121,702.5 c -2.2,2.5419 -4,5.27785 -4,6.0799 0,0.80204 -2.8125,4.14937 -6.25,7.43852 -4.94448,4.73108 -7.92107,6.62171 -14.25,9.05113 -11.108918,4.26424 -15.67124,4.56619 -22.5,1.48911 z"
       id="path2368" />
  </g>
</svg>
