<?xml version="1.0" encoding="UTF-8" standalone="no"?>
<!-- Created with Inkscape (http://www.inkscape.org/) -->

<svg
   version="1.1"
   id="svg8672"
   width="515"
   height="2340"
   viewBox="0 0 515 2340"
   sodipodi:docname="g++.svg"
   inkscape:version="1.1.1 (3bf5ae0d25, 2021-09-20)"
   xmlns:inkscape="http://www.inkscape.org/namespaces/inkscape"
   xmlns:sodipodi="http://sodipodi.sourceforge.net/DTD/sodipodi-0.dtd"
   xmlns="http://www.w3.org/2000/svg"
   xmlns:svg="http://www.w3.org/2000/svg">
  <defs
     id="defs8676" />
  <sodipodi:namedview
     id="namedview8674"
     pagecolor="#ffffff"
     bordercolor="#666666"
     borderopacity="1.0"
     inkscape:pageshadow="2"
     inkscape:pageopacity="0.0"
     inkscape:pagecheckerboard="0"
     showgrid="false"
     inkscape:zoom="0.33418803"
     inkscape:cx="-86.777494"
     inkscape:cy="1170"
     inkscape:window-width="1920"
     inkscape:window-height="986"
     inkscape:window-x="-11"
     inkscape:window-y="-11"
     inkscape:window-maximized="1"
     inkscape:current-layer="g8678" />
  <g
     inkscape:groupmode="layer"
     inkscape:label="Image"
     id="g8678">
    <path
       style="fill:#000000"
       d="m 287.94309,2332.9431 c -1.93262,-1.9326 -2.0147,-2.7786 -1.35834,-14 L 287.28333,2307 H 274.71309 C 260.81861,2307 259,2306.3057 259,2301.0012 c 0,-1.9233 0.89813,-3.5643 2.75,-5.0246 2.52854,-1.994 3.67612,-2.1407 14.25,-1.8226 l 11.5,0.346 0.5,-11.1021 c 0.31765,-7.053 0.98109,-11.6796 1.8191,-12.6857 1.83913,-2.208 6.63873,-3.0727 9.26211,-1.6687 2.103,1.1255 2.16985,1.5844 1.53872,10.563 -0.91271,12.9844 -0.45509,14.3935 4.67459,14.3935 2.24274,0 6.93462,-0.7165 10.42641,-1.5922 5.82724,-1.4614 6.55119,-1.4595 8.81389,0.023 1.99553,1.3075 2.46518,2.4448 2.46518,5.9697 0,6.3405 -1.32092,7.0143 -14.89807,7.5994 l -11.60193,0.5 0.36986,12.1301 c 0.34426,11.2907 0.22314,12.2769 -1.75,14.25 -2.79972,2.7998 -8.40842,2.8313 -11.17677,0.063 z m 0,-80 c -1.93262,-1.9326 -2.0147,-2.7786 -1.35834,-14 L 287.28333,2227 H 274.71309 C 260.81861,2227 259,2226.3057 259,2221.0012 c 0,-1.9233 0.89813,-3.5643 2.75,-5.0246 2.52854,-1.994 3.67612,-2.1407 14.25,-1.8226 l 11.5,0.346 0.5,-11.1021 c 0.31765,-7.053 0.98109,-11.6796 1.8191,-12.6857 1.83913,-2.208 6.63873,-3.0727 9.26211,-1.6687 2.103,1.1255 2.16985,1.5844 1.53872,10.563 -0.91271,12.9844 -0.45509,14.3935 4.67459,14.3935 2.24274,0 6.93462,-0.7165 10.42641,-1.5922 5.82724,-1.4614 6.55119,-1.4595 8.81389,0.023 1.99553,1.3075 2.46518,2.4448 2.46518,5.9697 0,6.3405 -1.32092,7.0143 -14.89807,7.5994 l -11.60193,0.5 0.36986,12.1301 c 0.34426,11.2907 0.22314,12.2769 -1.75,14.25 -2.79972,2.7998 -8.40842,2.8313 -11.17677,0.063 z m -77.397,-88.7226 c -15.36938,-0.308 -16.56026,-0.7391 -19.18743,-6.9463 -1.15017,-2.7176 -1.37113,-142.3662 -1.40229,-886.2844 -0.0257,-612.69825 -0.35869,-884.79882 -1.08772,-888.74249 -0.57789,-3.12612 -1.93779,-7.42267 -3.02199,-9.54787 -1.0842,-2.12521 -2.83408,-7.76449 -3.88863,-12.53173 -1.05454,-4.76724 -3.44394,-13.61771 -5.30977,-19.66771 -1.86583,-6.05 -4.40954,-15.48676 -5.65268,-20.97057 -1.24314,-5.48381 -3.73992,-13.42759 -5.5484,-17.65284 -3.48227,-8.1358 -6.83685,-19.41352 -7.9945,-26.87659 -0.47132,-3.03846 -1.77658,-5.69857 -4.01885,-8.19034 -1.82645,-2.02968 -3.58845,-5.17968 -3.91555,-7 -0.32711,-1.82031 -0.46504,-53.32499 -0.30651,-114.45485 0.27924,-107.677148 0.34767,-111.21086 2.19322,-113.249997 L 153.30998,30 h 166.41075 c 110.31839,0 167.04799,0.341038 168.30126,1.011767 1.03977,0.556472 2.35768,2.693972 2.92868,4.75 0.68841,2.478797 1.04006,40.73048 1.04375,113.537893 0.006,116.65628 0.0973,114.29994 -4.50259,116.0651 -2.16789,0.8319 -4.76741,7.40112 -4.0538,10.24435 0.64118,2.55466 -3.7302,24.19265 -5.59544,27.69697 -0.64227,1.20665 -1.97131,3.31892 -2.95342,4.69392 -0.99922,1.39894 -2.24884,5.94489 -2.83734,10.3218 -0.6658,4.95191 -1.95002,9.35481 -3.50009,12 -1.34663,2.29801 -2.73795,6.2032 -3.09182,8.6782 -0.35387,2.475 -1.61462,7.2 -2.80166,10.5 l -2.15826,6 -0.5,900 c -0.47992,863.8615 -0.57219,900.1322 -2.2979,903.293 -0.98884,1.8111 -3.01384,3.7562 -4.5,4.3225 -2.84812,1.0853 -184.99963,1.3685 -201.2021,0.3129 -4.675,-0.3046 -12.775,-0.1881 -18,0.2589 -5.225,0.447 -15.77926,0.6869 -23.45391,0.5332 z m 115.10858,-12.257 c 71.38151,0.1264 100.37075,-0.1502 106.27915,-1.0142 8.72394,-1.2756 13.6498,-3.7643 15.79292,-7.9793 1.00438,-1.9754 1.16084,-92.0816 0.78132,-449.97 -0.56522,-533.0089 -0.56639,-398.2674 0.008,-892.11799 l 0.4797,-412.618 -2.0527,-2.60958 c -4.603,-5.85178 -1.67729,-5.72152 -125.87172,-5.60397 l -113.42891,0.10736 -3.32109,3.32109 L 201,386.8 l -0.0749,12.35 c -0.0412,6.7925 -0.0668,353.675 -0.0569,770.85 0.0169,713.8739 0.11941,759.0393 1.74256,767.6666 1.66979,8.8753 1.66365,9.3203 -0.19308,14 -1.85125,4.666 -1.90531,8.0552 -1.56038,97.8334 0.28925,75.2859 0.61284,93.4955 1.69889,95.6015 2.76118,5.3543 9.97676,8.1205 18.9438,7.2624 3.3,-0.3158 50.1696,-0.496 104.15467,-0.4004 z m -83.81635,-166.3488 c -5.78022,-1.2431 -10.38301,-3.8317 -20.21249,-11.3671 -5.89157,-4.5166 -5.90136,-4.5368 -9.07016,-18.7476 -2.0424,-9.1593 -1.93897,-15.0704 0.45301,-25.89 2.25873,-10.2169 5.02246,-15.4553 11.85464,-22.4697 6.84546,-7.028 11.18442,-8.1403 31.75308,-8.1403 8.93937,0 17.44583,0.4534 18.90325,1.0075 1.45741,0.5541 6.62712,3.9775 11.48824,7.6076 7.22741,5.3971 9.21556,7.4768 10.90768,11.4103 2.83254,6.5844 5.05188,16.4504 5.06965,22.537 0.0144,4.9332 -3.97334,18.6464 -7.28408,25.0486 -1.66186,3.2137 -9.54142,10.3448 -16.20114,14.6623 -8.16763,5.295 -24.48308,7.1758 -37.66168,4.3414 z m 58.34714,-182.0518 c -3.19629,-1.522 -8.27474,-5.4909 -12.74144,-9.9576 -7.3179,-7.3179 -7.4414,-7.5272 -8.41565,-14.2661 -1.3246,-9.1623 -1.28322,-31.8812 0.0669,-36.7439 2.20769,-7.9514 19.51302,-22.1144 29.96382,-24.5229 5.84,-1.346 18.40989,-1.3384 23.44087,0.014 10.71452,2.8803 25.5374,15.3228 29.67975,24.9135 1.06899,2.475 2.81586,6.1363 3.88193,8.1362 1.55391,2.915 1.93832,5.6617 1.93832,13.85 0,9.8476 -0.14356,10.5161 -4.00293,18.6394 -4.69499,9.8821 -10.71086,16.8684 -16.99707,19.739 -3.91291,1.7868 -6.91361,2.0988 -23,2.3919 -18.06768,0.3292 -18.62419,0.2779 -23.81454,-2.1936 z m 4.16347,-160.5256 c -11.25385,-0.7195 -11.86355,-1.0179 -21.84893,-10.6928 -8.10176,-7.8498 -13.31582,-14.0669 -16.02988,-19.1134 -1.3994,-2.6021 -3.45729,-6.1734 -4.57308,-7.9362 -1.34192,-2.1201 -2.40601,-6.4294 -3.14323,-12.7293 -1.35583,-11.5863 -0.10527,-20.105 3.67998,-25.0677 1.38476,-1.8155 3.40912,-5.5623 4.49856,-8.3263 1.80161,-4.5707 7.96788,-14.6636 13.00112,-21.2801 1.17579,-1.5457 3.85342,-3.1319 6.5715,-3.8929 2.52294,-0.7064 7.15394,-2.8318 10.2911,-4.7231 8.14449,-4.91 15.75958,-6.6279 26.70393,-6.0239 9.42787,0.5203 14.26875,1.9169 27.88057,8.0439 6.7371,3.0325 8.93411,4.7058 15.14141,11.5318 4.20094,4.6197 7.78595,9.6046 8.50686,11.8287 0.6853,2.1142 2.53416,6.4187 4.10858,9.5655 2.81673,5.6298 2.86258,5.9964 2.86258,22.8876 v 17.166 l -5.45153,11.1125 c -4.70482,9.5903 -6.3453,11.9056 -11.97662,16.9037 -7.88516,6.9983 -11.37495,8.5611 -23.07185,10.332 -9.32511,1.4118 -19.73227,1.5278 -37.15107,0.414 z m -6.05228,-196.1419 c -5.11023,-1.9646 -12.35893,-8.3927 -16.38511,-14.5302 -2.83251,-4.318 -3.98256,-14.5653 -3.5316,-31.4678 0.46273,-17.3438 0.9576,-19.0422 7.28764,-25.0113 4.19377,-3.9547 14.09589,-10.6889 18.83242,-12.8076 1.65,-0.738 7.27531,-1.5623 12.50069,-1.8319 12.66067,-0.653 20.12687,1.2652 29.32508,7.5341 9.5116,6.4825 13.51751,11.4201 18.06092,22.2614 3.82328,9.123 3.87779,9.4309 3.34097,18.8661 -0.77504,13.622 -3.93347,21.5106 -12.18011,30.4215 -4.78523,5.1707 -7.25911,7.0475 -10.18408,7.7262 -2.12491,0.493 -12.41347,0.8837 -22.86347,0.8681 -16.55705,-0.025 -19.66903,-0.2854 -24.20335,-2.0286 z M 379,1274.2785 c -0.825,-0.31 -2.80339,-1.512 -4.39643,-2.6711 -1.59303,-1.1591 -5.86203,-4.1324 -9.48666,-6.6074 -5.28616,-3.6095 -7.17068,-5.6423 -9.5235,-10.2727 -2.85995,-5.6285 -2.94476,-6.2319 -3.39369,-24.1484 -0.25324,-10.1066 -0.16272,-19.9626 0.20116,-21.9022 0.92322,-4.9212 13.66791,-18.0508 19.7084,-20.3037 3.35663,-1.2518 8.74779,-1.703 22.89072,-1.9158 18.01072,-0.271 18.65394,-0.2102 24.32052,2.3004 5.20548,2.3063 6.12513,3.1823 8.70331,8.2896 1.65923,3.2869 4.6164,7.0838 6.96731,8.9458 6.64923,5.2663 8.00886,9.0496 8.00886,22.2857 0,15.6352 -1.46712,20.161 -9.05808,27.9429 -3.26806,3.3502 -5.94192,6.3914 -5.94192,6.7583 0,1.4048 -14.17552,10.2715 -17.74767,11.101 -4.09597,0.9512 -28.83066,1.1075 -31.25233,0.1976 z m 28.42692,-14.8154 c 2.61605,-2.1797 8.39019,-7.5044 12.83143,-11.8328 l 8.07498,-7.8696 -0.0111,-7.1304 c -0.0173,-11.2028 -2.23935,-17.1436 -9.03556,-24.1579 -11.31567,-11.6788 -25.96354,-13.7932 -41.26997,-5.9574 -5.3652,2.7465 -11.44714,8.8025 -13.04071,12.985 -1.38389,3.6322 -2.50797,20.2445 -1.61152,23.8162 0.86119,3.4313 17.51301,19.9049 22.87258,22.6278 3.32039,1.6869 5.60833,2.0902 10.34813,1.824 5.38155,-0.3023 6.63527,-0.8001 10.84169,-4.3049 z M 317,1095.9585 c -3.025,-1.01 -6.49562,-1.8638 -7.71249,-1.8974 -8.62545,-0.2382 -22.30028,-10.1566 -27.71195,-20.0996 -2.66068,-4.8886 -2.85895,-6.0968 -3.33604,-20.3295 -0.63496,-18.9418 0.74049,-28.5549 4.60613,-32.1928 6.98588,-6.5742 15.66913,-12.52 20.43286,-13.9914 11.64257,-3.5961 30.11731,-2.8373 38.80267,1.5936 5.53467,2.8236 16.88841,13.0253 18.87362,16.9586 2.24382,4.4457 5.85834,15.7417 7.05336,22.043 0.72801,3.8388 0.50707,6.4311 -1.05703,12.4027 -3.38708,12.9315 -5.69832,17.6974 -11.79143,24.3147 -5.65676,6.1434 -5.91117,6.2884 -13.61379,7.7622 -4.31711,0.826 -9.29665,2.3963 -11.06564,3.4896 -3.85142,2.3803 -6.21838,2.3709 -13.48027,-0.054 z M 294.84049,930.05601 c -1.46273,-0.45905 -5.88672,-4.14695 -9.83108,-8.19533 -3.94436,-4.04837 -9.37306,-9.61781 -12.06378,-12.37652 -3.24503,-3.32702 -5.53723,-6.86235 -6.8079,-10.5 -1.05363,-3.01629 -3.33962,-8.16295 -5.08,-11.43702 -3.14429,-5.91519 -3.16014,-6.01961 -2.50469,-16.5 0.56207,-8.98726 1.03417,-11.10235 3.19212,-14.30121 1.39286,-2.06474 3.95633,-7.23974 5.69658,-11.5 4.65623,-11.39877 9.79648,-18.81665 14.81222,-21.37549 2.31073,-1.17885 5.88293,-3.25619 7.93822,-4.61632 2.05529,-1.36012 6.86102,-3.06823 10.6794,-3.79579 3.81838,-0.72756 8.71906,-2.22916 10.89039,-3.3369 5.69181,-2.90374 12.91428,-3.62286 17.37758,-1.73022 2.00175,0.84883 7.77487,2.44588 12.82915,3.54899 10.08859,2.20187 16.70482,6.1085 21.81327,12.87991 1.49492,1.98155 3.94818,4.74517 5.4517,6.14136 1.50352,1.39619 4.838,6.58853 7.40996,11.53853 l 4.6763,9 0.59003,19.32335 c 0.32452,10.62785 0.27555,20.16733 -0.10882,21.19886 -0.38437,1.03153 -1.66627,2.84292 -2.84866,4.02531 -1.18239,1.18239 -3.21817,4.56556 -4.52394,7.51816 -3.80096,8.59464 -8.70977,13.32701 -23.78935,22.93432 -2.90015,1.8477 -5.0429,2.01487 -28.13919,2.19532 -13.75,0.10743 -26.19678,-0.18026 -27.65951,-0.63931 z m 8.66174,-174.59485 c -1.64877,-0.87981 -3.67377,-2.20902 -4.5,-2.95382 -0.82623,-0.7448 -4.26784,-2.40114 -7.64802,-3.68076 -9.06004,-3.42982 -21.35407,-15.21223 -23.81776,-22.82658 -0.97876,-3.025 -3.23092,-7.39785 -5.00479,-9.71745 -3.18737,-4.16795 -3.23303,-4.38504 -3.89058,-18.5 -0.72469,-15.55597 -0.16736,-19.09271 3.83567,-24.34095 1.40659,-1.84414 3.53242,-5.90077 4.72407,-9.01472 3.07141,-8.02609 13.70132,-18.36243 23.63214,-22.97947 4.03313,-1.87508 8.61375,-4.48695 10.17915,-5.80414 5.66476,-4.76659 32.8044,-4.79463 39.24544,-0.0406 1.78335,1.31626 6.39245,3.91931 10.24245,5.78455 5.95097,2.8831 8.59592,5.12839 17.64931,14.98242 C 381.73554,671.1574 382,671.87604 382,694.00669 v 16.65042 l -2.9241,4.42145 c -1.60825,2.43179 -3.91066,7.0626 -5.11646,10.29068 -2.93723,7.86334 -13.65807,18.52159 -22.95944,22.8254 -3.575,1.65418 -8.075,4.19959 -10,5.65648 -3.38989,2.56555 -3.98761,2.6577 -19,2.92928 -12.67853,0.22936 -16.04568,-0.0108 -18.49777,-1.31924 z M 440.52362,366.30493 c 7.34017,-4.70905 8.38278,-7.18447 12.85484,-30.52064 0.81324,-4.24364 2.62633,-10.31864 4.02909,-13.5 1.40277,-3.18136 3.27612,-9.38429 4.16302,-13.78429 0.93886,-4.6578 2.99481,-10.50665 4.92119,-14 C 469.97338,288.18635 472,280.60158 472,273.88504 c 0,-4.65412 -1.24107,-7.40851 -4.0045,-8.88745 -1.34074,-0.71754 -47.25597,-1.03643 -145.53823,-1.01079 -155.69496,0.0406 -149.43858,-0.18173 -150.82957,5.36043 -0.83812,3.33931 2.10443,20.57056 3.95375,23.15277 0.7878,1.1 2.12699,2.96821 2.97598,4.15159 0.88322,1.23107 1.94767,6.05693 2.48803,11.2799 0.54679,5.28509 1.74848,10.70444 2.85423,12.87188 1.0504,2.05896 2.23682,5.98301 2.63647,8.7201 0.39966,2.73709 1.59704,6.70397 2.66085,8.81529 1.06381,2.11131 2.38705,6.61131 2.94053,10 1.42372,8.71665 2.50531,11.02469 6.15484,13.13398 1.76419,1.01964 4.82979,3.11646 6.81243,4.65961 3.46794,2.6992 4.09443,2.8164 16.5,3.08669 7.09236,0.15453 58.12995,0.28096 113.41687,0.28096 H 435.54336 Z M 473.28599,250.78599 C 480.91288,247.33311 480.5,253.27309 480.5,147 c 0,-86.058076 -0.14784,-94.767998 -1.65499,-97.5 -2.68508,-4.867257 -6.14579,-7.429779 -11.34604,-8.40129 -6.66583,-1.245313 -279.40771,-1.386666 -290.88385,-0.150755 -9.96497,1.073166 -12.60565,2.66602 -14.8361,8.949095 -1.88722,5.316219 -1.86629,189.9465 0.0221,195.27296 1.65596,4.67075 3.3622,6.05152 8.53539,6.90718 2.28991,0.37876 70.53846,0.62884 151.66346,0.55573 136.98662,-0.12345 147.76985,-0.25509 151.28599,-1.84693 z M 73.866906,1629.544 c -4.968675,-1.3696 -15.760411,-7.6087 -19.000205,-10.9846 -1.825196,-1.9018 -4.046391,-6.5683 -8.958127,-18.8201 C 44.42508,1596.0389 44,1592.469 44,1583.7111 c 0,-10.7234 0.161606,-11.6042 3.346739,-18.2393 2.296795,-4.7846 5.294789,-8.8541 9.55623,-12.9718 9.847273,-9.5151 9.480966,-9.4097 32.896691,-9.4581 15.68813,-0.032 20.9131,0.2814 23,1.3811 4.22323,2.2254 12.94188,11.6721 14.7195,15.9486 0.88513,2.1294 2.74733,5.6744 4.13822,7.8777 3.07082,4.8645 4.32908,15.3215 3.15836,26.2482 -0.6479,6.0471 -1.63323,8.9154 -5.46487,15.9085 -3.88875,7.0972 -5.66145,9.2235 -10.54643,12.6502 -9.18144,6.4404 -14.69901,7.9594 -28.529457,7.8544 -6.476241,-0.049 -13.859875,-0.6642 -16.408077,-1.3666 z M 84.5,739.52837 c -1.65,-0.76662 -5.475,-1.67279 -8.5,-2.0137 -3.025,-0.34092 -6.436394,-0.81065 -7.580876,-1.04386 -2.667214,-0.5435 -13.947841,-11.42487 -17.889282,-17.25613 -6.567951,-9.71711 -6.526611,-9.55635 -6.528288,-25.38795 -0.0015,-13.9019 0.121184,-14.82188 2.333195,-17.5 1.284111,-1.5547 3.566517,-5.11737 5.072013,-7.91704 2.344077,-4.35912 8.023992,-9.80227 14.303895,-13.70764 3.213895,-1.99867 21.298834,-6.68039 25.845154,-6.69065 5.494916,-0.0124 19.383049,4.51866 22.249899,7.25911 2.82305,2.69857 10.54468,10.85738 16.65651,17.59955 l 5.77451,6.37007 -0.41286,15.36619 c -0.3781,14.07283 -0.60082,15.59883 -2.64607,18.12994 -1.22827,1.52006 -3.45825,4.58239 -4.95551,6.80518 -1.49726,2.2228 -5.72583,7.02763 -9.39682,10.67741 -5.93989,5.90558 -7.20563,6.69994 -11.5,7.21722 -2.65401,0.31969 -6.85047,1.09433 -9.32547,1.72142 -7.050986,1.7865 -10.263246,1.87475 -13.5,0.37088 z"
       id="path8757" />
  </g>
</svg>
