<?xml version="1.0" encoding="UTF-8" standalone="no"?>
<!-- Created with Inkscape (http://www.inkscape.org/) -->

<svg
   version="1.1"
   id="svg824"
   width="515"
   height="2340"
   viewBox="0 0 515 2340"
   sodipodi:docname="g_sharp+.svg"
   inkscape:version="1.1.1 (3bf5ae0d25, 2021-09-20)"
   xmlns:inkscape="http://www.inkscape.org/namespaces/inkscape"
   xmlns:sodipodi="http://sodipodi.sourceforge.net/DTD/sodipodi-0.dtd"
   xmlns="http://www.w3.org/2000/svg"
   xmlns:svg="http://www.w3.org/2000/svg">
  <defs
     id="defs828" />
  <sodipodi:namedview
     id="namedview826"
     pagecolor="#ffffff"
     bordercolor="#666666"
     borderopacity="1.0"
     inkscape:pageshadow="2"
     inkscape:pageopacity="0.0"
     inkscape:pagecheckerboard="0"
     showgrid="false"
     inkscape:zoom="0.31965812"
     inkscape:cx="256.52406"
     inkscape:cy="1170"
     inkscape:window-width="1920"
     inkscape:window-height="986"
     inkscape:window-x="-11"
     inkscape:window-y="-11"
     inkscape:window-maximized="1"
     inkscape:current-layer="g830" />
  <g
     inkscape:groupmode="layer"
     inkscape:label="Image"
     id="g830">
    <path
       style="fill:#000000"
       d="m 298.24138,2326.6748 c -5.94939,-3.3041 -6.92457,-8.6982 -4.82245,-26.6748 0.86825,-7.425 1.57919,-15.4125 1.57986,-17.75 L 295,2278 h -22.25 c -20.29034,0 -22.53146,-0.1754 -25.44574,-1.9523 -4.02262,-2.4528 -5.25438,-7.6073 -3.20358,-13.4061 2.86492,-8.1008 10.51864,-10.6371 26.67707,-8.8404 5.94791,0.6614 13.83116,1.2025 17.51832,1.2025 H 295 l 0.006,-16.25 c 0.006,-17.3314 0.90258,-22.8326 4.34027,-26.6289 4.58513,-5.0635 13.51786,-6.6735 17.79337,-3.2071 2.34736,1.9032 2.36078,2.0352 2.36078,23.2331 v 21.3189 l 11.5,-0.3173 c 8.6066,-0.2376 12.60128,-0.7994 15.87712,-2.2331 6.12912,-2.6824 13.28954,-2.5383 16.61947,0.3344 4.448,3.8373 5.41928,13.8341 1.89117,19.4648 -2.69265,4.2974 -4.96956,4.7622 -25.88776,5.2852 l -20,0.5 v 21.5 c 0,23.3379 -0.54868,26.2016 -5.5,28.706 -3.20043,1.6188 -12.82187,1.5997 -15.75862,-0.031 z M 195.5,2134.3125 c -5.5,-0.1792 -10.95511,-0.8182 -12.12247,-1.4199 -2.98119,-1.5367 -6.54495,-8.3068 -6.39943,-12.157 0.0673,-1.7796 0.35466,-391.3606 0.63867,-865.7356 0.36085,-602.72114 0.1971,-866.73522 -0.54365,-876.56148 -0.83883,-11.12722 -1.5994,-15.38889 -3.64482,-20.4227 -1.63872,-4.03291 -3.03114,-10.27542 -3.80426,-17.05532 -0.77198,-6.76985 -1.8416,-11.56863 -2.91485,-13.0773 -0.93246,-1.31076 -2.37232,-3.31128 -3.1997,-4.4456 -0.82737,-1.13432 -2.23552,-6.08432 -3.12923,-11 -0.97793,-5.37891 -3.40595,-13.06252 -6.09794,-19.2973 -3.53186,-8.17992 -4.63221,-12.10619 -5.22957,-18.66016 -0.58848,-6.45647 -1.4794,-9.68936 -4.01032,-14.55238 -4.43762,-8.52661 -5.22866,-18.65476 -2.23027,-28.55556 2.04855,-6.76439 2.08049,-8.40352 2.03551,-104.48039 -0.0512,-109.327634 -0.53426,-102.199568 7.13415,-105.267859 3.68459,-1.474282 18.36514,-1.623437 159.28842,-1.618374 104.20808,0.0037 156.45846,0.34681 158.96799,1.043755 2.05603,0.570998 4.30603,2.030988 5,3.244423 0.99015,1.731299 1.32271,26.166338 1.54487,113.507075 l 0.2831,111.30083 -3.41519,7.69917 c -3.70026,8.34185 -7.11576,19.10384 -8.67907,27.34711 -0.54225,2.85931 -2.32115,7.27953 -3.95311,9.82272 -2.34157,3.64902 -3.09997,6.19533 -3.59695,12.07665 -0.87602,10.36685 -2.97699,18.14811 -6.98224,25.85979 -2.21102,4.25706 -3.77421,9.07297 -4.41211,13.5929 -0.64442,4.56611 -0.9948,314.96643 -1.00772,892.7298 -0.018,805.049 -0.16379,886.0896 -1.6005,889.6803 -1.10394,2.759 -2.53659,4.3386 -4.75,5.2374 -2.51503,1.0211 -26.91009,1.3079 -118.16931,1.3888 -63.25,0.056 -119.5,-0.045 -125,-0.2238 z m 229.65997,-14.9648 c 3.17224,-1.4236 6.45267,-3.6338 7.28985,-4.9115 1.35719,-2.0713 1.51638,-49.6578 1.46894,-439.1296 -0.0293,-240.2436 -0.30151,-445.3566 -0.60501,-455.8066 -0.32836,-11.3061 -0.99072,-19.5454 -1.63569,-20.3469 -1.79471,-2.2304 -2.53042,1.3178 -2.60777,12.5767 -0.0835,12.1522 -1.7508,17.3015 -6.68862,20.6568 -1.84783,1.2557 -4.66125,4.0797 -6.25204,6.2758 -1.59079,2.196 -5.88342,6.1271 -9.53918,8.7358 -8.01104,5.7166 -13.91121,6.9428 -30.97132,6.4368 l -11.29384,-0.335 -5.41265,-4.1359 c -2.97695,-2.2748 -7.31856,-5.0931 -9.64802,-6.2629 -2.32945,-1.1698 -4.96819,-3.2454 -5.86387,-4.6123 -3.11981,-4.7615 -5.62278,-16.6236 -6.13446,-29.0727 l -0.49666,-12.0837 3.58354,-8.2693 c 2.34131,-5.4028 5.51054,-10.4642 9.14248,-14.601 5.00523,-5.7011 6.10857,-6.4458 11.07704,-7.4773 3.40544,-0.707 12.29653,-1.003 23.22271,-0.7732 20.6447,0.4343 25.08872,1.7232 29.93186,8.6813 1.52501,2.191 4.87846,5.1472 7.45211,6.5693 3.6517,2.0178 5.17327,3.6785 6.92826,7.5617 2.50953,5.5527 3.60568,6.1733 4.37332,2.476 0.28548,-1.375 0.77514,-3.7147 1.08814,-5.1994 0.31301,-1.4846 0.52431,-184.1935 0.46956,-406.01975 -0.0731,-296.08407 -0.39822,-403.97591 -1.22289,-405.78586 -0.61784,-1.35601 -3.19164,-3.48462 -5.71955,-4.73023 L 422.5,367.5 l -113.32326,-0.19632 -113.32326,-0.19632 -3.67674,3.36948 -3.67674,3.36949 -0.25393,868.32687 c -0.18081,618.3114 0.056,869.0848 0.82266,870.9593 0.59212,1.4479 2.42124,3.9229 4.06471,5.5 2.79532,2.6825 3.64555,2.8998 13.17734,3.3675 5.60407,0.275 55.83998,0.3731 111.63535,0.2181 l 101.44613,-0.282 z M 231,1958.0007 c -2.475,-0.4203 -6.15751,-1.4568 -8.18335,-2.3035 -4.05519,-1.6949 -16.61334,-10.9812 -18.52504,-13.6987 -2.29068,-3.2563 -3.42177,-15.1547 -2.80352,-29.4913 0.8903,-20.6451 0.42432,-19.3042 10.10113,-29.0685 4.67603,-4.7184 10.04192,-9.2223 11.92421,-10.0088 2.55244,-1.0664 8.06932,-1.4238 21.70445,-1.406 21.73952,0.028 25.37264,0.6672 28.78212,5.0609 1.375,1.7719 4.11975,5.0652 6.09945,7.3185 4.17344,4.75 6.33077,10.5493 8.01357,21.5421 2.13459,13.944 -2.33757,29.922 -10.80073,38.5886 -11.36957,11.6428 -28.21166,16.5401 -46.31229,13.4667 z m 23.64205,-12.5347 c 2.67287,-1.0835 7.68788,-5.2499 16.61532,-13.8036 4.04187,-3.8727 6.7357,-15.5554 5.32308,-23.0853 -0.85165,-4.5396 -14.29984,-19.8562 -20.08045,-22.8702 -4.35423,-2.2702 -12.9434,-2.7409 -23.85065,-1.307 -5.53523,0.7277 -6.19525,1.1258 -12.24221,7.3846 -7.21966,7.4726 -7.80809,9.137 -7.86808,22.2544 -0.0367,8.0158 0.17535,8.8957 3.46094,14.363 6.50949,10.832 12.43436,16.363 19.99353,18.6644 3.27645,0.9976 14.64727,0.022 18.64852,-1.6003 z M 306.5,1778.9347 c -18.25623,-0.6881 -24.76522,-2.6809 -29.23193,-8.9497 -1.52244,-2.1367 -3.81896,-4.454 -5.10338,-5.1496 -4.90437,-2.656 -5.63918,-5.8738 -5.9948,-26.2516 -0.18156,-10.404 -0.039,-20.4678 0.31674,-22.3642 0.84636,-4.5115 8.04131,-12.1704 16.68763,-17.7637 9.09001,-5.8803 12.41568,-6.7064 25.36169,-6.3001 10.90819,0.3424 11.00412,0.3671 18.82809,4.8442 10.40629,5.9547 23.50721,18.5377 24.7146,23.7375 0.48051,2.0694 0.88438,9.6038 0.8975,16.7432 0.0266,14.4835 -1.39648,19.8256 -7.59746,28.5193 -8.79344,12.3284 -13.49179,13.8915 -38.87868,12.9347 z m 14.72376,-13.2548 c 4.79717,-2.0044 17.71887,-14.9931 18.85427,-18.952 2.37951,-8.2969 0.73362,-16.6148 -5.06186,-25.5816 C 328.83785,1711.5873 315.18058,1703 306.15605,1703 h -5.42017 l -7.41229,7.75 c -4.07676,4.2625 -9.30484,9.7047 -11.61794,12.0938 l -4.20565,4.3439 -0.33294,11.8708 -0.33294,11.8709 5.08294,5.0829 c 2.79562,2.7956 5.08294,5.5 5.08294,6.0096 0,1.3235 5.43605,3.9554 10.3264,4.9997 5.65291,1.207 19.68247,0.4194 23.89736,-1.3417 z M 286.5,1616.6565 c -8.15599,-2.096 -17.39563,-8.1382 -22.05879,-14.4254 -1.52205,-2.0521 -3.96048,-4.7109 -5.41874,-5.9084 -1.45825,-1.1975 -4.87237,-5.9225 -7.58692,-10.5 L 246.5,1577.5 246.19163,1564 c -0.29289,-12.8223 -0.18305,-13.7259 2.18825,-18 1.37313,-2.475 4.04882,-7.6764 5.94597,-11.5588 4.08628,-8.3621 11.86405,-20.2049 14.38588,-21.9045 0.98355,-0.6629 3.9308,-1.7897 6.54944,-2.5041 2.61864,-0.7143 6.89364,-2.8219 9.5,-4.6834 5.56295,-3.9733 8.92112,-4.9655 19.73883,-5.8319 6.85177,-0.5488 9.2597,-0.2726 16.77663,1.9243 9.33798,2.7291 26.72337,10.91 26.72337,12.575 0,0.548 2.65686,3.6124 5.90413,6.8096 4.92489,4.849 6.24372,6.9126 7.95159,12.4421 1.1261,3.6459 2.87244,8.5645 3.88075,10.9303 2.4328,5.708 2.47866,31.5328 0.0645,36.3014 -0.83535,1.65 -2.47338,6.15 -3.64007,10 -2.65794,8.771 -4.26331,11.1607 -11.99669,17.8578 -9.07538,7.8593 -12.9906,8.8067 -38.16417,9.2349 -14.46859,0.2461 -21.97108,-0.029 -25.5,-0.9362 z m 40.81574,-10.7719 c 1.20134,-0.6135 3.77139,-2.751 5.71123,-4.75 1.93983,-1.999 5.99472,-5.7051 9.01086,-8.2358 11.255,-9.4433 14.39262,-17.2841 13.36511,-33.3988 -0.48677,-7.6341 -1.35842,-11.8927 -3.68425,-18 -3.80787,-9.9989 -8.59445,-14.7467 -21.21869,-21.0465 -4.95,-2.4702 -10.52905,-5.6077 -12.39788,-6.9724 -2.91152,-2.126 -4.48611,-2.4811 -11.00045,-2.4811 -7.41214,0 -7.70709,0.095 -11.77586,3.8148 -2.29532,2.0981 -6.10709,4.453 -8.47061,5.233 -2.36465,0.7804 -6.41747,3.4497 -9.01155,5.9352 -2.59283,2.4844 -6.04593,5.6592 -7.67354,7.0552 -2.07869,1.783 -3.57806,4.616 -5.03869,9.5205 -1.14366,3.8402 -3.2161,8.5229 -4.6054,10.406 -3.15883,4.2816 -3.17284,6.8254 -0.0713,12.946 1.35011,2.6643 2.96745,7.0368 3.5941,9.7167 2.51897,10.7726 4.07653,14.3257 7.2768,16.5999 1.7459,1.2407 5.49585,4.3556 8.33324,6.9221 4.12266,3.7291 6.33213,4.908 11,5.8691 3.21261,0.6614 6.29112,1.3424 6.84112,1.5131 2.83717,0.8809 27.88828,0.3373 29.81574,-0.647 z M 287.5,1424.4007 c -2.33917,-0.8528 -6.42255,-3.9376 -9.83458,-7.4295 -3.20901,-3.2842 -6.23496,-5.9712 -6.72432,-5.9712 -0.48936,0 -1.68246,-1.4625 -2.65134,-3.25 -1.47169,-2.7151 -1.81987,-6.4955 -2.11568,-22.971 -0.48356,-26.9326 -0.28288,-27.5138 12.60256,-36.4976 7.47677,-5.2128 10.95408,-6.9818 15.66654,-7.9698 12.56548,-2.6345 26.38174,-0.9661 32.86329,3.9685 1.75644,1.3372 5.05768,3.3807 7.33608,4.5411 4.17814,2.1279 10.39702,8.5224 12.86411,13.2274 5.87579,11.2056 7.2923,28.2182 3.41294,40.9902 -1.8176,5.984 -5.74707,11.9612 -7.86346,11.9612 -0.36913,0 -2.07774,1.9956 -3.79691,4.4346 -2.26384,3.2117 -4.17825,4.7268 -6.9425,5.4944 -5.94099,1.6497 -39.94216,1.2489 -44.81673,-0.5283 z m 33.6662,-11.3703 c 4.92341,-1.5207 7.55145,-3.1198 11.53024,-7.0159 6.73308,-6.5931 8.78861,-12.418 8.01091,-22.701 -0.78864,-10.4277 -3.27573,-14.8913 -13.23386,-23.7512 -8.92095,-7.9371 -11.71437,-9.0413 -22.65535,-8.9557 -4.34318,0.034 -5.16442,0.488 -11.35306,6.2772 -3.66916,3.4323 -8.91399,9.0251 -11.65518,12.4284 l -4.98397,6.1878 0.33703,11.6173 0.33704,11.6172 4,4.4357 c 2.2,2.4395 4.91645,5.7188 6.03655,7.2871 2.35751,3.3009 6.33861,4.2213 19.10811,4.4175 5.58263,0.086 10.15062,-0.4944 14.52154,-1.8444 z M 308.59741,1077.37 c -2.14643,-0.754 -7.54643,-2.1024 -12,-2.9963 -4.45358,-0.894 -9.84883,-2.5105 -11.98945,-3.5923 -5.94393,-3.004 -13.63553,-10.7127 -16.24524,-16.2814 -2.17278,-4.6364 -2.34389,-6.2568 -2.35295,-22.2821 -0.0111,-19.5404 -0.0815,-19.2762 8.32203,-31.2179 6.12967,-8.71048 10.01772,-11.2596 20.55433,-13.47605 10.47582,-2.20365 18.51773,-1.94769 26.74723,0.85135 8.87054,3.01706 11.89434,4.61609 16.91508,8.94494 5.78625,4.98886 9.08543,10.18746 12.55355,19.78096 2.73106,7.5546 2.9802,9.2053 2.4787,16.4224 -0.54198,7.7994 -3.29567,20.4135 -5.15924,23.6333 -0.5068,0.8756 -3.54629,4.4145 -6.75443,7.8642 -5.59744,6.0189 -6.1542,6.347 -13.78761,8.1244 -4.37505,1.0187 -9.62521,2.6944 -11.66702,3.7238 -3.32921,1.6784 -4.11521,1.7301 -7.61498,0.5007 z M 281,912.25988 c -1.84433,-0.71589 -16,-15.21285 -16,-16.38576 0,-0.46516 -1.78937,-2.02989 -3.97638,-3.47719 -2.74627,-1.8174 -5.16609,-4.83798 -7.82217,-9.76419 C 247.04098,871.20698 246,867.09211 246,854.16625 c 0,-10.90302 0.13392,-11.65305 2.67582,-14.98564 1.4717,-1.9295 3.97064,-6.69698 5.5532,-10.5944 4.50221,-11.08769 10.07897,-18.97041 14.98658,-21.18343 2.28974,-1.03253 5.84673,-3.2839 7.9044,-5.00304 2.93779,-2.45445 5.07145,-3.2762 9.93539,-3.8265 3.40679,-0.38543 8.40467,-1.57209 11.1064,-2.63701 6.41288,-2.52772 10.67936,-2.43721 26.22925,0.55642 11.87028,2.28524 13.31864,2.81164 18.29105,6.64783 2.97001,2.29135 6.34975,5.5596 7.51054,7.2628 1.16078,1.7032 3.67472,4.46727 5.58652,6.14238 2.24259,1.96495 4.34794,5.33588 5.93332,9.5 1.35152,3.54989 3.07437,8.02934 3.82853,9.95434 0.97842,2.49739 1.38379,8.77248 1.41511,21.90561 0.0424,17.799 -0.0334,18.50759 -2.30244,21.5 -1.29049,1.70191 -3.09402,5.35865 -4.00786,8.12607 -2.00522,6.07255 -5.96752,11.08417 -11.80415,14.93021 -2.38791,1.57351 -6.1929,4.12226 -8.45553,5.66389 -2.26263,1.54164 -6.08763,3.258 -8.5,3.81415 -4.58584,1.05722 -48.27893,1.33194 -50.88613,0.31995 z m 53.03327,-19.09767 c 4.6567,-4.58578 10.36061,-9.65709 12.67536,-11.26958 3.57125,-2.48777 4.5339,-3.95107 6.35646,-9.66221 1.3094,-4.10308 2.34891,-10.5874 2.66292,-16.61082 0.47185,-9.05124 0.30183,-10.35199 -2.0261,-15.5 -1.39764,-3.09078 -3.53335,-8.21635 -4.74602,-11.39014 -2.48535,-6.50467 -4.69118,-8.42319 -13.38363,-11.64043 -3.26026,-1.20668 -7.37545,-3.46507 -9.14487,-5.01864 -1.76942,-1.55357 -5.31884,-3.62733 -7.8876,-4.60834 -4.0604,-1.55069 -5.49339,-1.63205 -10.97043,-0.62286 -3.46497,0.63844 -8.04807,1.16318 -10.18466,1.16607 -4.07446,0.006 -5.75973,0.88918 -14.51945,7.61307 C 276.26643,820.68354 266,831.3758 266,833.18312 c 0,0.73238 -2.02018,5.37829 -4.48929,10.32424 -5.63826,11.29417 -5.71417,14.03265 -0.65583,23.65762 2.12018,4.03426 4.13898,8.51367 4.48622,9.95423 0.89947,3.73151 12.50112,14.61817 19.89118,18.66532 10.21132,5.59221 12.91646,6.18043 27.30099,5.93649 L 325.56653,901.5 Z M 291,740.30835 c -0.825,-0.3314 -2.93154,-1.84542 -4.6812,-3.36449 -1.74966,-1.51907 -5.72917,-3.50266 -8.84336,-4.40798 -4.83593,-1.40584 -6.79516,-2.799 -13.42663,-9.54735 -6.20717,-6.31657 -8.02034,-8.86276 -9.04018,-12.69492 -0.70165,-2.63649 -3.06276,-8.83642 -5.24693,-13.77763 -3.91886,-8.86558 -3.96587,-9.11605 -3.56609,-19 0.37042,-9.15815 0.71574,-10.6155 4.03199,-17.01598 1.99478,-3.85 4.13564,-8.94471 4.75746,-11.32158 0.73263,-2.80046 2.95813,-6.34369 6.32276,-10.06652 2.8557,-3.15972 6.15628,-6.90027 7.33463,-8.31233 1.17923,-1.41313 4.55113,-3.3456 7.5,-4.29834 2.94665,-0.95202 7.60755,-3.20892 10.35755,-5.01532 4.78637,-3.14404 5.51272,-3.30615 17,-3.7942 15.36634,-0.65285 20.12799,0.1186 25.07909,4.06312 2.1565,1.71808 6.59815,4.117 9.87033,5.33094 6.94667,2.57712 13.30289,8.13763 20.68496,18.0955 7.00231,9.4456 8.86562,15.89453 8.86562,30.68406 0,17.13407 -1.53381,27.76587 -4.70808,32.63467 -4.74667,7.28058 -18.26456,19.45015 -25.29192,22.7692 -3.575,1.68848 -8.28017,4.45616 -10.45593,6.15039 l -3.95594,3.08041 -15.54406,0.20545 C 299.49483,740.81844 291.825,740.63975 291,740.30835 Z M 423.5,355.24666 c 4.24344,-2.09429 7.41131,-5.18778 9.46898,-9.24666 C 435.21145,341.57658 438,330.44558 438,325.91778 c 0,-2.55676 1.03946,-4.71233 4,-8.29499 3.79108,-4.58774 4,-5.19212 4,-11.57171 0,-8.31491 3.20716,-21.25462 6.5021,-26.23362 4.87435,-7.36563 6.15524,-21.4244 2.32359,-25.50301 L 452.65137,252 310.57569,252.0564 c -107.33539,0.0426 -142.92864,0.34829 -145.56396,1.25 -4.98385,1.70529 -6.39697,5.15791 -5.06349,12.37137 0.57847,3.12923 1.05176,7.40557 1.05176,9.50297 0,2.96668 0.79137,4.68941 3.56394,7.75832 3.26045,3.60892 3.68369,4.79814 4.97013,13.96509 1.0408,7.41655 2.17203,11.39424 4.35353,15.30803 3.91315,7.02052 5.95056,14.33373 6.73655,24.1806 0.35592,4.45895 1.06775,8.92424 1.58183,9.92287 0.51408,0.99863 2.81555,2.62255 5.11436,3.60872 2.29881,0.98617 5.97584,3.01275 8.17117,4.50351 l 3.99151,2.71047 110.50849,-0.20557 c 95.28009,-0.17723 110.9219,-0.40959 113.50849,-1.68616 z m 34.18368,-116.19004 c 8.35231,-3.79207 7.78132,3.25976 8.08681,-99.87367 0.18156,-61.2941 -0.0737,-92.595163 -0.7763,-95.20453 -1.33477,-4.956949 -5.28295,-9.654406 -9.64706,-11.477848 -2.89609,-1.210063 -25.16727,-1.449371 -146.92417,-1.578724 -138.76882,-0.147426 -143.5788,-0.09083 -145.57322,1.712844 -1.13441,1.025919 -3.02717,3.665308 -4.20615,5.865308 -2.14292,3.998744 -2.14365,4.029184 -2.35049,96.91481 -0.2057,92.37731 -0.19476,92.94303 1.89134,97.7923 3.68019,8.55483 -11.05351,7.79552 150.78807,7.77093 139.81691,-0.0212 144.66385,-0.0839 148.71117,-1.92142 z M 62.261328,1605.0263 c -1.78127,-0.423 -6.626196,-2.9644 -10.766504,-5.6477 -7.09907,-4.6007 -7.822661,-5.4197 -12.704185,-14.3786 l -5.176354,-9.5 -0.411904,-14.5765 c -0.396529,-14.0324 -0.317537,-14.7603 2.116178,-19.5 2.900466,-5.6487 16.808683,-19.8049 20.996541,-21.3708 3.344061,-1.2505 36.218531,-1.3455 42.546809,-0.123 3.567651,0.6892 5.714231,2.1836 11.788571,8.2065 4.59697,4.5581 8.55502,9.6155 10.38809,13.2735 2.72694,5.4418 2.96049,6.7483 2.94956,16.5 -0.007,5.8904 -0.6249,12.8093 -1.39321,15.5903 -1.7544,6.3504 -8.03713,19.7922 -10.02011,21.4379 -3.06168,2.541 -13.18999,8.3189 -16.950537,9.6698 -4.21769,1.5151 -27.513929,1.8074 -33.362945,0.4186 z M 74.822957,724.1105 c -2.572373,-1.024 -7.297373,-2.1883 -10.5,-2.58733 -3.202626,-0.39903 -6.692026,-1.18947 -7.754221,-1.75653 C 54.314175,718.56302 43.373682,707.38637 37.25,700.0309 L 33,694.92601 V 679.89726 C 33,666.01384 33.65034,661.68968 35.992483,660 c 0.381191,-0.275 2.355296,-2.69355 4.3869,-5.37455 2.031605,-2.681 6.526809,-7.44191 9.989344,-10.5798 5.375935,-4.87189 7.598147,-6.11933 15.213395,-8.54008 11.086441,-3.52417 16.639831,-3.51931 26.917878,0.0236 6.659957,2.2957 9.08175,3.78051 14.45802,8.86424 6.68998,6.32598 13.9621,14.72035 15.91734,18.37373 1.5929,2.97638 1.4772,30.0859 -0.1401,32.82484 -2.51642,4.26162 -7.30989,10.71357 -9.73526,13.10354 -11.51504,11.34693 -12.51035,12.06868 -19.5,14.1405 -10.692672,3.16943 -13.445073,3.35725 -18.677043,1.27452 z"
       id="path932" />
  </g>
</svg>
